<svg width="15" height="15" viewBox="0 0 15 15" fill="none" xmlns="http://www.w3.org/2000/svg">
<g id="round-close 1">
<path id="Vector" d="M11.4374 3.56816C11.3796 3.51022 11.3109 3.46425 11.2353 3.43289C11.1597 3.40152 11.0786 3.38538 10.9968 3.38538C10.9149 3.38538 10.8339 3.40152 10.7583 3.43289C10.6826 3.46425 10.614 3.51022 10.5561 3.56816L7.4999 6.61816L4.44365 3.56191C4.38578 3.50404 4.31709 3.45814 4.24149 3.42683C4.16588 3.39551 4.08485 3.37939 4.00302 3.37939C3.92119 3.37939 3.84016 3.39551 3.76456 3.42683C3.68895 3.45814 3.62026 3.50404 3.5624 3.56191C3.50453 3.61977 3.45863 3.68847 3.42732 3.76407C3.396 3.83967 3.37988 3.9207 3.37988 4.00253C3.37988 4.08436 3.396 4.16539 3.42732 4.241C3.45863 4.3166 3.50453 4.38529 3.5624 4.44316L6.61865 7.49941L3.5624 10.5557C3.50453 10.6135 3.45863 10.6822 3.42732 10.7578C3.396 10.8334 3.37988 10.9144 3.37988 10.9963C3.37988 11.0781 3.396 11.1591 3.42732 11.2347C3.45863 11.3103 3.50453 11.379 3.5624 11.4369C3.62026 11.4948 3.68895 11.5407 3.76456 11.572C3.84016 11.6033 3.92119 11.6194 4.00302 11.6194C4.08485 11.6194 4.16588 11.6033 4.24149 11.572C4.31709 11.5407 4.38578 11.4948 4.44365 11.4369L7.4999 8.38066L10.5561 11.4369C10.614 11.4948 10.6827 11.5407 10.7583 11.572C10.8339 11.6033 10.9149 11.6194 10.9968 11.6194C11.0786 11.6194 11.1596 11.6033 11.2352 11.572C11.3108 11.5407 11.3795 11.4948 11.4374 11.4369C11.4953 11.379 11.5412 11.3103 11.5725 11.2347C11.6038 11.1591 11.6199 11.0781 11.6199 10.9963C11.6199 10.9144 11.6038 10.8334 11.5725 10.7578C11.5412 10.6822 11.4953 10.6135 11.4374 10.5557L8.38114 7.49941L11.4374 4.44316C11.6749 4.20566 11.6749 3.80566 11.4374 3.56816Z" fill="#FFFFFF"/>
</g>
</svg>
