<svg width="9" height="9" viewBox="0 0 9 9" fill="none" xmlns="http://www.w3.org/2000/svg">
<path d="M8.43642 0.568646C8.3786 0.510706 8.30992 0.464739 8.23431 0.433375C8.1587 0.402012 8.07765 0.385868 7.99579 0.385868C7.91394 0.385868 7.83289 0.402012 7.75728 0.433375C7.68167 0.464739 7.61299 0.510706 7.55517 0.568646L4.49892 3.61865L1.44267 0.562395C1.38481 0.504532 1.31611 0.458632 1.24051 0.427316C1.16491 0.396001 1.08388 0.379883 1.00204 0.379883C0.920213 0.379883 0.839182 0.396001 0.763579 0.427316C0.687977 0.458632 0.619283 0.504532 0.561419 0.562395C0.503555 0.620259 0.457655 0.688953 0.42634 0.764556C0.395024 0.840159 0.378906 0.921189 0.378906 1.00302C0.378906 1.08485 0.395024 1.16588 0.42634 1.24149C0.457655 1.31709 0.503555 1.38578 0.561419 1.44365L3.61767 4.4999L0.561419 7.55614C0.503555 7.61401 0.457655 7.6827 0.42634 7.75831C0.395024 7.83391 0.378906 7.91494 0.378906 7.99677C0.378906 8.0786 0.395024 8.15963 0.42634 8.23523C0.457655 8.31084 0.503555 8.37953 0.561419 8.43739C0.619283 8.49526 0.687977 8.54116 0.763579 8.57247C0.839182 8.60379 0.920213 8.61991 1.00204 8.61991C1.08388 8.61991 1.16491 8.60379 1.24051 8.57247C1.31611 8.54116 1.38481 8.49526 1.44267 8.43739L4.49892 5.38114L7.55517 8.43739C7.61303 8.49526 7.68173 8.54116 7.75733 8.57247C7.83293 8.60379 7.91396 8.61991 7.99579 8.61991C8.07762 8.61991 8.15866 8.60379 8.23426 8.57247C8.30986 8.54116 8.37855 8.49526 8.43642 8.43739C8.49428 8.37953 8.54018 8.31084 8.5715 8.23523C8.60281 8.15963 8.61893 8.0786 8.61893 7.99677C8.61893 7.91494 8.60281 7.83391 8.5715 7.75831C8.54018 7.6827 8.49428 7.61401 8.43642 7.55614L5.38017 4.4999L8.43642 1.44365C8.67392 1.20615 8.67392 0.806146 8.43642 0.568646Z" fill="#0072BB"/>
</svg>
