<svg width="280" height="125" viewBox="0 0 280 125" fill="none" xmlns="http://www.w3.org/2000/svg">
<g clip-path="url(#clip0_566_5949)">
<path d="M123.23 57.788L126.957 53.324C128.944 55.06 131.677 56.3 134.161 56.3C136.894 56.3 138.385 55.308 138.385 53.572C138.385 51.836 136.646 51.092 134.161 50.1L130.435 48.364C127.453 47.124 124.472 44.644 124.472 40.428C124.472 35.468 128.944 31.748 134.907 31.748C138.385 31.748 141.863 32.988 144.348 35.716L140.87 39.932C138.882 38.444 137.143 37.7 134.658 37.7C132.422 37.7 130.932 38.692 130.932 40.428C130.932 42.164 132.919 42.908 135.404 43.9L139.13 45.388C142.609 46.876 145.093 49.356 145.093 53.324C145.093 58.284 141.118 62.5 133.913 62.5C130.435 62.004 126.211 60.516 123.23 57.788Z" fill="white"/>
<path d="M163.975 31.9961H171.925L181.118 61.5081H174.161L170.186 46.6281C169.441 43.6521 168.696 40.1801 167.702 37.2041H167.453C166.708 40.4281 165.963 43.6521 165.217 46.6281L161.242 61.5081H154.534L163.975 31.9961ZM160.745 49.3561H174.907V54.5641H160.745V49.3561Z" fill="white"/>
<path d="M192.05 31.9961H198.758V55.8041H210.435V61.2601H192.05V31.9961Z" fill="white"/>
<path d="M221.863 47.8681V31.9961H228.571V48.3641C228.571 54.0681 230.311 56.0521 233.789 56.0521C237.019 56.0521 239.006 54.0681 239.006 48.3641V31.9961H245.466V47.8681C245.466 57.7881 241.491 62.0041 233.789 62.0041C226.087 62.0041 221.863 57.7881 221.863 47.8681Z" fill="white"/>
<path d="M257.888 57.788L261.615 53.324C263.603 55.06 266.335 56.3 268.82 56.3C271.553 56.3 273.043 55.308 273.043 53.572C273.043 51.836 271.304 51.092 268.82 50.1L265.093 48.364C262.112 47.124 259.13 44.644 259.13 40.428C259.13 35.468 263.602 31.748 269.565 31.748C273.043 31.748 276.522 32.988 279.006 35.716L275.528 39.932C273.54 38.444 271.801 37.7 269.317 37.7C267.081 37.7 265.59 38.692 265.59 40.428C265.59 42.164 267.578 42.908 270.062 43.9L273.789 45.388C277.267 46.876 279.752 49.356 279.752 53.324C279.752 58.284 275.776 62.5 268.571 62.5C264.845 62.004 260.87 60.516 257.888 57.788Z" fill="white"/>
<path d="M123.23 91.2682L124.721 89.5322C126.211 91.0202 128.199 92.0122 130.186 92.0122C132.919 92.0122 134.41 90.7722 134.41 88.7882C134.41 86.8042 132.919 86.0602 131.18 85.3162L128.199 84.0762C126.46 83.3322 124.224 81.8442 124.224 78.8682C124.224 75.8922 126.957 73.6602 130.435 73.6602C132.919 73.6602 134.907 74.6522 136.398 76.1402L135.155 77.8762C133.913 76.6362 132.422 75.8922 130.683 75.8922C128.447 75.8922 126.957 77.1322 126.957 78.8682C126.957 80.8522 128.696 81.5962 130.186 82.0922L132.919 83.3322C135.155 84.3242 137.143 85.8122 137.143 88.5402C137.143 91.7642 134.658 94.2442 130.435 94.2442C127.453 94.2442 124.969 93.2522 123.23 91.2682Z" fill="white"/>
<path d="M154.037 76.1402H148.075V73.9082H162.733V76.1402H156.522V93.9962H154.037V76.1402Z" fill="white"/>
<path d="M175.652 73.9082H178.137V93.7482H175.652V73.9082Z" fill="white"/>
<path d="M193.043 73.9082H195.528V91.7642H204.224V93.9962H193.043V73.9082Z" fill="white"/>
<path d="M217.143 73.9082H219.627V91.7642H228.571V93.9962H217.391V73.9082H217.143Z" fill="white"/>
<path d="M245.714 73.9082H248.696L255.404 93.7482H252.671L249.193 82.5882C248.447 80.3562 247.95 78.1242 247.205 75.8922C246.708 78.1242 245.963 80.3562 245.217 82.5882L241.739 93.7482H239.255L245.714 73.9082ZM242.484 85.8122H251.677V87.7962H242.484V85.8122Z" fill="white"/>
<path d="M266.087 91.2682L267.578 89.5322C269.068 91.0202 271.056 92.0122 273.043 92.0122C275.776 92.0122 277.267 90.7722 277.267 88.7882C277.267 86.8042 275.776 86.0602 274.037 85.3162L271.056 84.0762C269.317 83.3322 267.081 81.8442 267.081 78.8682C267.081 75.8922 269.814 73.6602 273.292 73.6602C275.776 73.6602 277.764 74.6522 279.255 76.1402L278.012 77.8762C276.77 76.6362 275.28 75.8922 273.54 75.8922C271.304 75.8922 269.814 77.1322 269.814 78.8682C269.814 80.8522 271.553 81.5962 273.043 82.0922L275.776 83.3322C278.012 84.3242 280 85.8122 280 88.5402C280 91.7642 277.516 94.2442 273.292 94.2442C270.311 94.2442 267.826 93.2522 266.087 91.2682Z" fill="white"/>
<path d="M4.96894 34.228V90.772L53.6646 118.796H53.9131V124.5H53.6646L0 93.5V31.5L53.6646 0.5H53.9131V6.204H53.6646L4.96894 34.228Z" fill="#CCCCCC"/>
<path d="M107.578 31.5V93.5L53.913 124.5V118.796L102.609 90.772V34.228L53.913 6.204V0.5L107.578 31.5Z" fill="white"/>
<path d="M8.4472 37.4521V89.7801L51.677 113.836V100.196V41.4201L36.7702 55.3081V92.0121L33.2919 90.0281V58.2841L23.8509 66.4681V84.8201L20.1242 82.8361V44.1481L53.913 24.8041V11.1641L8.4472 37.4521Z" fill="#CCCCCC"/>
<path d="M53.913 11.1641V24.8041L87.4534 44.1481V82.8361L83.7267 84.8201V66.4681L74.2857 58.2841V90.0281L70.8075 92.0121V55.3081L55.9006 41.4201V100.196V113.836L99.1304 89.7801V37.4521L53.913 11.1641Z" fill="white"/>
</g>
<defs>
<clipPath id="clip0_566_5949">
<rect width="280" height="124" fill="white" transform="translate(0 0.5)"/>
</clipPath>
</defs>
</svg>
