<svg width="1092" height="755" viewBox="0 0 1092 755" fill="none" xmlns="http://www.w3.org/2000/svg">
<path d="M1091.34 538.441H0.465332V543.468H1091.34V538.441Z" fill="#516092"/>
<path d="M669.711 511.632H620.532V97.7402H669.711V511.632ZM625.559 506.605H664.684V102.767H625.559V506.605Z" fill="#516092"/>
<path d="M676.442 487.688H613.797V532.577H676.442V487.688Z" fill="#BCCCFD"/>
<path d="M667.463 463.873H623.896C622.898 463.873 621.993 463.282 621.591 462.365C621.192 461.45 621.372 460.384 622.051 459.65L663.941 414.409L667.631 417.823L629.647 458.843H667.46V463.873H667.463Z" fill="#516092"/>
<path d="M667.463 418.544H623.896C622.898 418.544 621.993 417.954 621.591 417.036C621.192 416.121 621.372 415.055 622.051 414.322L663.941 369.078L667.631 372.491L629.647 413.515H667.46V418.544H667.463Z" fill="#516092"/>
<path d="M667.463 373.215H623.896C622.898 373.215 621.993 372.624 621.591 371.707C621.192 370.792 621.372 369.726 622.051 368.992L663.941 323.749L667.631 327.162L629.647 368.186H667.46V373.215H667.463Z" fill="#516092"/>
<path d="M667.463 327.886H623.896C622.898 327.886 621.993 327.295 621.591 326.378C621.192 325.463 621.372 324.397 622.051 323.663L663.941 278.42L667.631 281.833L629.647 322.856H667.46V327.886H667.463Z" fill="#516092"/>
<path d="M667.463 282.558H623.896C622.898 282.558 621.993 281.967 621.591 281.05C621.192 280.135 621.372 279.069 622.051 278.335L663.941 233.092L667.631 236.505L629.647 277.528H667.46V282.558H667.463Z" fill="#516092"/>
<path d="M667.463 237.229H623.896C622.898 237.229 621.993 236.638 621.591 235.721C621.192 234.806 621.372 233.74 622.051 233.006L663.941 187.763L667.631 191.176L629.647 232.199H667.46V237.229H667.463Z" fill="#516092"/>
<path d="M667.463 191.9H623.896C622.898 191.9 621.993 191.309 621.591 190.392C621.192 189.477 621.372 188.411 622.051 187.677L663.941 142.434L667.631 145.847L629.647 186.87H667.46V191.9H667.463Z" fill="#516092"/>
<path d="M667.464 146.572H623.897C622.899 146.572 621.994 145.981 621.592 145.063C621.19 144.146 621.374 143.083 622.052 142.349L663.943 97.1055L667.632 100.519L629.648 141.542H667.462V146.572H667.464Z" fill="#516092"/>
<path d="M669.629 80.2617H589.903V147.473H669.629V80.2617Z" fill="#0072BB"/>
<path d="M789.438 80.2617H709.711V118.867H789.438V80.2617Z" fill="#0072BB"/>
<path d="M788.116 85.1706H394.33C392.943 85.1706 391.817 84.0445 391.817 82.6571C391.817 81.2696 392.943 80.1436 394.33 80.1436H788.116C789.504 80.1436 790.63 81.2696 790.63 82.6571C790.63 84.0445 789.504 85.1706 788.116 85.1706Z" fill="#516092"/>
<path d="M415.137 94.3877H412.624V257.767H415.137V94.3877Z" fill="#516092"/>
<path d="M697.809 524.555H592.432V544.308H697.809V524.555Z" fill="#516092"/>
<path d="M630.053 84.5117C629.731 84.5117 629.41 84.3885 629.166 84.1447L608.168 63.1467H415.667L395.926 82.8879C395.436 83.3781 394.639 83.3781 394.149 82.8879C393.659 82.3978 393.659 81.601 394.149 81.1109L414.624 60.6357H609.206L630.938 82.3676C631.428 82.8578 631.428 83.6546 630.938 84.1447C630.697 84.3885 630.375 84.5117 630.053 84.5117Z" fill="#516092"/>
<path d="M789.789 84.5117C789.337 84.5117 788.9 84.2653 788.676 83.838L767.663 43.6971H716.704L696.945 82.5687C696.631 83.187 695.872 83.4284 695.256 83.1192C694.638 82.805 694.391 82.0484 694.705 81.4301L715.163 41.1836H769.186L790.903 82.6718C791.225 83.2876 790.988 84.0467 790.373 84.3684C790.184 84.4664 789.985 84.5117 789.789 84.5117Z" fill="#516092"/>
<path d="M423.095 94.385C423.095 99.4749 418.968 103.602 413.878 103.602C408.788 103.602 404.661 99.4749 404.661 94.385C404.661 89.2952 408.788 85.168 413.878 85.168C418.968 85.1705 423.095 89.2952 423.095 94.385Z" fill="#BCCCFD"/>
<path d="M511.932 254.227L301.465 273.672L311.486 382.133L521.953 362.688L511.932 254.227Z" fill="#BCCCFD"/>
<path d="M344.136 342.076C341.491 342.32 338.998 342.117 336.656 341.465C334.346 340.811 332.291 339.78 330.489 338.372C328.72 336.961 327.276 335.246 326.158 333.229C325.071 331.208 324.413 328.955 324.183 326.47C323.954 323.984 324.188 321.649 324.886 319.463C325.615 317.275 326.737 315.323 328.249 313.609C329.762 311.894 331.594 310.504 333.745 309.437C335.896 308.371 338.278 307.717 340.89 307.475C343.535 307.231 345.997 307.437 348.275 308.095C350.585 308.749 352.624 309.781 354.394 311.193C356.195 312.601 357.655 314.314 358.773 316.331C359.889 318.317 360.563 320.569 360.795 323.086C361.025 325.571 360.777 327.924 360.05 330.145C359.32 332.333 358.199 334.284 356.686 335.999C355.202 337.679 353.385 339.052 351.234 340.118C349.115 341.182 346.749 341.834 344.136 342.076ZM343.479 335.484C344.976 335.346 346.323 334.964 347.519 334.34C348.746 333.712 349.794 332.876 350.661 331.832C351.529 330.787 352.157 329.589 352.546 328.235C352.967 326.878 353.104 325.404 352.957 323.81C352.81 322.217 352.405 320.792 351.742 319.536C351.112 318.277 350.274 317.213 349.23 316.346C348.218 315.475 347.051 314.844 345.729 314.452C344.407 314.06 342.998 313.933 341.5 314.071C340.002 314.21 338.64 314.593 337.412 315.22C336.217 315.845 335.185 316.68 334.318 317.724C333.45 318.768 332.806 319.968 332.385 321.325C331.996 322.679 331.875 324.152 332.022 325.745C332.166 327.306 332.555 328.733 333.189 330.024C333.851 331.28 334.689 332.344 335.701 333.214C336.745 334.082 337.928 334.712 339.25 335.104C340.572 335.496 341.981 335.623 343.479 335.484ZM368.161 339.277L365.069 305.82L379.551 304.481C382.546 304.204 385.173 304.46 387.431 305.247C389.686 306.003 391.487 307.234 392.834 308.942C394.181 310.649 394.97 312.761 395.203 315.279C395.433 317.764 395.042 319.969 394.031 321.895C393.02 323.82 391.476 325.376 389.401 326.564C387.322 327.721 384.786 328.437 381.79 328.714L371.61 329.655L374.729 325.848L375.904 338.561L368.161 339.277ZM374.808 326.708L371.027 323.346L380.777 322.445C383.167 322.224 384.904 321.549 385.989 320.42C387.074 319.292 387.532 317.819 387.364 316.003C387.194 314.155 386.472 312.775 385.198 311.865C383.925 310.954 382.094 310.609 379.704 310.83L369.953 311.731L373.055 307.733L374.808 326.708ZM402.701 336.085L399.609 302.627L414.091 301.289C417.086 301.012 419.713 301.268 421.971 302.055C424.226 302.811 426.027 304.042 427.374 305.75C428.721 307.457 429.511 309.569 429.743 312.087C429.973 314.572 429.582 316.777 428.571 318.702C427.56 320.628 426.017 322.184 423.941 323.372C421.863 324.529 419.326 325.245 416.331 325.522L406.15 326.463L409.269 322.656L410.444 335.369L402.701 336.085ZM409.348 323.516L405.567 320.154L415.317 319.252C417.707 319.032 419.445 318.357 420.529 317.228C421.614 316.1 422.072 314.627 421.905 312.811C421.734 310.963 421.012 309.583 419.739 308.673C418.465 307.762 416.634 307.417 414.244 307.638L404.494 308.539L407.595 304.541L409.348 323.516ZM448.754 332.407C446.078 332.655 443.48 332.541 440.962 332.067C438.44 331.561 436.378 330.803 434.774 329.795L436.864 323.721C438.392 324.608 440.159 325.296 442.165 325.786C444.199 326.24 446.22 326.375 448.228 326.189C449.757 326.048 450.971 325.791 451.868 325.419C452.795 325.012 453.456 324.517 453.852 323.934C454.248 323.351 454.414 322.709 454.349 322.008C454.266 321.116 453.851 320.448 453.103 320.003C452.352 319.526 451.388 319.181 450.212 318.968C449.032 318.724 447.728 318.523 446.3 318.366C444.9 318.174 443.479 317.919 442.035 317.603C440.624 317.283 439.312 316.826 438.1 316.231C436.888 315.636 435.863 314.799 435.024 313.72C434.217 312.637 433.731 311.204 433.566 309.419C433.39 307.508 433.739 305.724 434.614 304.068C435.519 302.378 436.964 300.975 438.949 299.859C440.964 298.709 443.549 297.988 446.703 297.697C448.806 297.502 450.901 297.566 452.987 297.887C455.071 298.177 456.939 298.743 458.592 299.587L456.745 305.687C455.101 304.939 453.48 304.43 451.88 304.16C450.277 303.858 448.727 303.776 447.23 303.915C445.732 304.053 444.521 304.342 443.598 304.781C442.674 305.219 442.032 305.745 441.671 306.357C441.307 306.937 441.158 307.593 441.226 308.326C441.306 309.186 441.721 309.855 442.472 310.332C443.22 310.777 444.182 311.106 445.359 311.318C446.536 311.531 447.824 311.733 449.223 311.925C450.655 312.114 452.075 312.353 453.483 312.64C454.923 312.925 456.25 313.365 457.461 313.96C458.673 314.555 459.683 315.393 460.49 316.476C461.329 317.555 461.829 318.971 461.991 320.724C462.165 322.604 461.798 324.373 460.891 326.031C459.984 327.69 458.523 329.094 456.508 330.245C454.525 331.392 451.941 332.113 448.754 332.407ZM471.451 330.117C470.176 330.235 469.037 329.906 468.033 329.131C467.059 328.322 466.508 327.232 466.381 325.861C466.255 324.491 466.599 323.351 467.415 322.44C468.259 321.494 469.319 320.962 470.594 320.845C471.9 320.724 473.039 321.052 474.011 321.83C474.98 322.576 475.527 323.634 475.654 325.005C475.781 326.375 475.439 327.547 474.629 328.522C473.817 329.465 472.757 329.996 471.451 330.117ZM483.96 328.961C482.685 329.079 481.546 328.75 480.543 327.975C479.568 327.166 479.017 326.076 478.891 324.705C478.764 323.335 479.108 322.195 479.924 321.284C480.769 320.338 481.828 319.806 483.103 319.689C484.409 319.568 485.548 319.896 486.52 320.674C487.489 321.42 488.036 322.478 488.163 323.848C488.29 325.219 487.948 326.391 487.138 327.366C486.326 328.308 485.266 328.84 483.96 328.961ZM496.469 327.805C495.194 327.923 494.055 327.594 493.052 326.819C492.077 326.009 491.526 324.92 491.4 323.549C491.273 322.179 491.618 321.039 492.433 320.128C493.278 319.182 494.337 318.65 495.612 318.532C496.918 318.412 498.058 318.74 499.029 319.518C499.998 320.264 500.546 321.322 500.672 322.692C500.799 324.063 500.457 325.235 499.648 326.21C498.835 327.152 497.775 327.684 496.469 327.805Z" fill="#0072BB"/>
<path d="M468.371 63.1289C467.833 63.1289 467.333 62.7795 467.169 62.2391C466.966 61.5756 467.34 60.8718 468.004 60.6707L654.087 3.93045C654.371 3.84499 654.673 3.86009 654.942 3.97571L743.139 41.1984C743.777 41.4674 744.079 42.2038 743.807 42.8448C743.538 43.4857 742.799 43.7848 742.161 43.5134L654.386 6.4666L468.738 63.0736C468.614 63.1113 468.494 63.1289 468.371 63.1289Z" fill="#516092"/>
<path d="M625.181 84.6807C624.884 84.6807 624.582 84.6279 624.288 84.5148C622.991 84.0221 622.34 82.5718 622.833 81.2723L652.133 4.17259C652.53 3.12948 653.561 2.46843 654.689 2.56143C655.805 2.65443 656.728 3.47133 656.947 4.56974L672.093 79.7642C672.367 81.124 671.485 82.4486 670.125 82.7251C668.768 82.9891 667.44 82.1169 667.164 80.7571L653.737 14.0985L627.528 83.0594C627.149 84.0623 626.194 84.6807 625.181 84.6807Z" fill="#516092"/>
<path d="M659.54 5.06474C659.54 7.86229 657.273 10.1295 654.475 10.1295C651.678 10.1295 649.411 7.86229 649.411 5.06474C649.411 2.26719 651.678 0 654.475 0C657.273 0 659.54 2.26719 659.54 5.06474Z" fill="#BCCCFD"/>
<path d="M441.874 84.7503C441.598 84.7503 441.319 84.6598 441.085 84.4713L416.405 64.5215V83.1743C416.405 83.8681 415.841 84.4311 415.148 84.4311C414.454 84.4311 413.891 83.8681 413.891 83.1743V61.8898C413.891 61.4047 414.17 60.9649 414.607 60.7562C415.042 60.5476 415.562 60.6054 415.94 60.9146L442.668 82.5183C443.209 82.9531 443.292 83.7449 442.854 84.2853C442.605 84.592 442.241 84.7503 441.874 84.7503Z" fill="#516092"/>
<path d="M465.738 84.7503C465.462 84.7503 465.183 84.6598 464.949 84.4713L440.266 64.5215V83.1743C440.266 83.8681 439.703 84.4311 439.009 84.4311C438.315 84.4311 437.752 83.8681 437.752 83.1743V61.8898C437.752 61.4047 438.031 60.9649 438.469 60.7562C438.901 60.5476 439.421 60.6054 439.801 60.9146L466.53 82.5183C467.07 82.9531 467.153 83.7449 466.716 84.2853C466.467 84.592 466.105 84.7503 465.738 84.7503Z" fill="#516092"/>
<path d="M489.613 84.7503C489.337 84.7503 489.058 84.6598 488.824 84.4713L464.141 64.5215V83.1743C464.141 83.8681 463.578 84.4311 462.884 84.4311C462.19 84.4311 461.627 83.8681 461.627 83.1743V61.8898C461.627 61.4047 461.906 60.9649 462.344 60.7562C462.776 60.5476 463.296 60.6054 463.676 60.9146L490.405 82.5183C490.945 82.9531 491.028 83.7449 490.591 84.2853C490.344 84.592 489.98 84.7503 489.613 84.7503Z" fill="#516092"/>
<path d="M513.476 84.7503C513.199 84.7503 512.92 84.6598 512.686 84.4713L488.006 64.5215V83.1743C488.006 83.8681 487.443 84.4311 486.749 84.4311C486.056 84.4311 485.493 83.8681 485.493 83.1743V61.8898C485.493 61.4047 485.772 60.9649 486.209 60.7562C486.644 60.5476 487.162 60.6054 487.541 60.9146L514.27 82.5183C514.81 82.9531 514.893 83.7449 514.456 84.2853C514.205 84.592 513.843 84.7503 513.476 84.7503Z" fill="#516092"/>
<path d="M537.34 84.7503C537.063 84.7503 536.784 84.6598 536.55 84.4713L511.868 64.5215V83.1743C511.868 83.8681 511.304 84.4311 510.611 84.4311C509.917 84.4311 509.354 83.8681 509.354 83.1743V61.8898C509.354 61.4047 509.633 60.9649 510.07 60.7562C510.505 60.5476 511.023 60.6054 511.403 60.9146L538.131 82.5183C538.672 82.9531 538.755 83.7449 538.317 84.2853C538.071 84.592 537.707 84.7503 537.34 84.7503Z" fill="#516092"/>
<path d="M561.211 84.7503C560.934 84.7503 560.655 84.6598 560.421 84.4713L535.739 64.5215V83.1743C535.739 83.8681 535.176 84.4311 534.482 84.4311C533.788 84.4311 533.225 83.8681 533.225 83.1743V61.8898C533.225 61.4047 533.504 60.9649 533.941 60.7562C534.374 60.5476 534.894 60.6054 535.274 60.9146L562.002 82.5183C562.543 82.9531 562.626 83.7449 562.188 84.2853C561.94 84.592 561.578 84.7503 561.211 84.7503Z" fill="#516092"/>
<path d="M585.076 84.7503C584.799 84.7503 584.52 84.6598 584.287 84.4713L559.604 64.5215V83.1743C559.604 83.8681 559.041 84.4311 558.347 84.4311C557.653 84.4311 557.09 83.8681 557.09 83.1743V61.8898C557.09 61.4047 557.369 60.9649 557.807 60.7562C558.239 60.5476 558.759 60.6054 559.139 60.9146L585.868 82.5183C586.408 82.9531 586.491 83.7449 586.054 84.2853C585.805 84.592 585.443 84.7503 585.076 84.7503Z" fill="#516092"/>
<path d="M608.947 84.7503C608.67 84.7503 608.392 84.6598 608.158 84.4713L583.475 64.5215V83.1743C583.475 83.8681 582.912 84.4311 582.218 84.4311C581.524 84.4311 580.961 83.8681 580.961 83.1743V61.8898C580.961 61.4047 581.24 60.9649 581.678 60.7562C582.113 60.5476 582.633 60.6054 583.01 60.9146L609.739 82.5183C610.279 82.9531 610.362 83.7449 609.925 84.2853C609.676 84.592 609.314 84.7503 608.947 84.7503Z" fill="#516092"/>
<path d="M750.045 84.7509C749.688 84.7509 749.333 84.6001 749.085 84.3061L717.03 46.475V83.175C717.03 83.8687 716.467 84.4317 715.773 84.4317C715.079 84.4317 714.516 83.8687 714.516 83.175V43.0491C714.516 42.5213 714.845 42.0512 715.341 41.8703C715.838 41.6868 716.391 41.8326 716.733 42.2373L751.005 82.6823C751.455 83.2101 751.387 84.0044 750.859 84.4518C750.62 84.6529 750.331 84.7509 750.045 84.7509Z" fill="#516092"/>
<path d="M774.692 84.7502C774.284 84.7502 773.885 84.5517 773.641 84.1872L749.217 47.2284V83.1743C749.217 83.868 748.654 84.431 747.96 84.431C747.267 84.431 746.704 83.868 746.704 83.1743V43.0484C746.704 42.4929 747.068 42.0053 747.598 41.8444C748.136 41.6886 748.704 41.8947 749.008 42.3547L775.737 82.7997C776.119 83.3778 775.961 84.1595 775.383 84.5416C775.169 84.6824 774.93 84.7502 774.692 84.7502Z" fill="#516092"/>
<path d="M421.792 261.118C421.792 265.489 418.248 269.03 413.88 269.03C409.509 269.03 405.967 265.486 405.967 261.118C405.967 256.747 409.511 253.205 413.88 253.205C418.248 253.203 421.792 256.747 421.792 261.118Z" fill="#0072BB"/>
<path d="M156.592 419.051H151.565V539.697H156.592V419.051Z" fill="#516092"/>
<path d="M61.0803 419.051H56.0532V539.697H61.0803V419.051Z" fill="#516092"/>
<path d="M169.709 430.359H43.4829V476.86H169.709V430.359Z" fill="#E3EBFF"/>
<path d="M169.712 476.86V432.873L146.504 476.86H169.712Z" fill="#424242"/>
<path d="M89.9438 476.86H116.942L141.479 430.359H114.478L89.9438 476.86Z" fill="#424242"/>
<path d="M57.9256 430.359L43.4829 457.732V476.86H60.3888L84.9233 430.359H57.9256Z" fill="#424242"/>
<path d="M175.445 504.511H37.2017V509.538H175.445V504.511Z" fill="#516092"/>
<path d="M1031.3 419.051H1026.27V539.697H1031.3V419.051Z" fill="#516092"/>
<path d="M935.781 419.051H930.754V539.697H935.781V419.051Z" fill="#516092"/>
<path d="M1044.42 430.359H918.192V476.86H1044.42V430.359Z" fill="#E3EBFF"/>
<path d="M1044.42 476.86V432.873L1021.21 476.86H1044.42Z" fill="#424242"/>
<path d="M964.653 476.86H991.65L1016.18 430.359H989.187L964.653 476.86Z" fill="#424242"/>
<path d="M932.634 430.359L918.192 457.732V476.86H935.098L959.632 430.359H932.634Z" fill="#424242"/>
<path d="M1050.15 504.511H911.907V509.538H1050.15V504.511Z" fill="#516092"/>
<path opacity="0.5" d="M221.891 129.441C217.698 129.441 213.822 130.773 210.638 133.02V127.478C210.638 111.514 197.696 98.5723 181.732 98.5723C165.769 98.5723 152.827 111.514 152.827 127.478V138.402C150.21 135.918 146.681 134.385 142.788 134.385C134.724 134.385 128.184 140.923 128.184 148.988H241.436C241.438 138.193 232.686 129.441 221.891 129.441Z" fill="#D4E0FF"/>
<path opacity="0.5" d="M961.685 146.473C958.631 146.473 955.811 147.444 953.493 149.08V145.043C953.493 133.421 944.073 124 932.45 124C920.828 124 911.407 133.423 911.407 145.043V152.996C909.502 151.189 906.933 150.073 904.098 150.073C898.226 150.073 893.465 154.833 893.465 160.705H975.916C975.916 152.845 969.545 146.473 961.685 146.473Z" fill="#D4E0FF"/>
<path d="M413.294 665.308V644.308H417.314L429.704 659.428H427.754V644.308H432.554V665.308H428.564L416.144 650.188H418.094V665.308H413.294ZM447.723 665.668C446.063 665.668 444.523 665.398 443.103 664.858C441.703 664.318 440.483 663.558 439.443 662.578C438.423 661.598 437.623 660.448 437.043 659.128C436.483 657.808 436.203 656.368 436.203 654.808C436.203 653.248 436.483 651.808 437.043 650.488C437.623 649.168 438.433 648.018 439.473 647.038C440.513 646.058 441.733 645.298 443.133 644.758C444.533 644.218 446.053 643.948 447.693 643.948C449.353 643.948 450.873 644.218 452.253 644.758C453.653 645.298 454.863 646.058 455.883 647.038C456.923 648.018 457.733 649.168 458.313 650.488C458.893 651.788 459.183 653.228 459.183 654.808C459.183 656.368 458.893 657.818 458.313 659.158C457.733 660.478 456.923 661.628 455.883 662.608C454.863 663.568 453.653 664.318 452.253 664.858C450.873 665.398 449.363 665.668 447.723 665.668ZM447.693 661.528C448.633 661.528 449.493 661.368 450.273 661.048C451.073 660.728 451.773 660.268 452.373 659.668C452.973 659.068 453.433 658.358 453.753 657.538C454.093 656.718 454.263 655.808 454.263 654.808C454.263 653.808 454.093 652.898 453.753 652.078C453.433 651.258 452.973 650.548 452.373 649.948C451.793 649.348 451.103 648.888 450.303 648.568C449.503 648.248 448.633 648.088 447.693 648.088C446.753 648.088 445.883 648.248 445.083 648.568C444.303 648.888 443.613 649.348 443.013 649.948C442.413 650.548 441.943 651.258 441.603 652.078C441.283 652.898 441.123 653.808 441.123 654.808C441.123 655.788 441.283 656.698 441.603 657.538C441.943 658.358 442.403 659.068 442.983 659.668C443.583 660.268 444.283 660.728 445.083 661.048C445.883 661.368 446.753 661.528 447.693 661.528ZM471.331 665.308V644.308H480.871C483.151 644.308 485.161 644.748 486.901 645.628C488.641 646.488 490.001 647.698 490.981 649.258C491.961 650.818 492.451 652.668 492.451 654.808C492.451 656.928 491.961 658.778 490.981 660.358C490.001 661.918 488.641 663.138 486.901 664.018C485.161 664.878 483.151 665.308 480.871 665.308H471.331ZM476.191 661.318H480.631C482.031 661.318 483.241 661.058 484.261 660.538C485.301 659.998 486.101 659.238 486.661 658.258C487.241 657.278 487.531 656.128 487.531 654.808C487.531 653.468 487.241 652.318 486.661 651.358C486.101 650.378 485.301 649.628 484.261 649.108C483.241 648.568 482.031 648.298 480.631 648.298H476.191V661.318ZM493.063 665.308L502.423 644.308H507.223L516.613 665.308H511.513L503.833 646.768H505.753L498.043 665.308H493.063ZM497.743 660.808L499.033 657.118H509.833L511.153 660.808H497.743ZM522.088 665.308V648.268H515.368V644.308H533.668V648.268H526.948V665.308H522.088ZM532.468 665.308L541.828 644.308H546.628L556.018 665.308H550.918L543.238 646.768H545.158L537.448 665.308H532.468ZM537.148 660.808L538.438 657.118H549.238L550.558 660.808H537.148ZM571.193 653.758H581.273V657.658H571.193V653.758ZM571.553 665.308H566.693V644.308H582.563V648.208H571.553V665.308ZM595.848 665.668C594.188 665.668 592.648 665.398 591.228 664.858C589.828 664.318 588.608 663.558 587.568 662.578C586.548 661.598 585.748 660.448 585.168 659.128C584.608 657.808 584.328 656.368 584.328 654.808C584.328 653.248 584.608 651.808 585.168 650.488C585.748 649.168 586.558 648.018 587.598 647.038C588.638 646.058 589.858 645.298 591.258 644.758C592.658 644.218 594.178 643.948 595.818 643.948C597.478 643.948 598.998 644.218 600.378 644.758C601.778 645.298 602.988 646.058 604.008 647.038C605.048 648.018 605.858 649.168 606.438 650.488C607.018 651.788 607.308 653.228 607.308 654.808C607.308 656.368 607.018 657.818 606.438 659.158C605.858 660.478 605.048 661.628 604.008 662.608C602.988 663.568 601.778 664.318 600.378 664.858C598.998 665.398 597.488 665.668 595.848 665.668ZM595.818 661.528C596.758 661.528 597.618 661.368 598.398 661.048C599.198 660.728 599.898 660.268 600.498 659.668C601.098 659.068 601.558 658.358 601.878 657.538C602.218 656.718 602.388 655.808 602.388 654.808C602.388 653.808 602.218 652.898 601.878 652.078C601.558 651.258 601.098 650.548 600.498 649.948C599.918 649.348 599.228 648.888 598.428 648.568C597.628 648.248 596.758 648.088 595.818 648.088C594.878 648.088 594.008 648.248 593.208 648.568C592.428 648.888 591.738 649.348 591.138 649.948C590.538 650.548 590.068 651.258 589.728 652.078C589.408 652.898 589.248 653.808 589.248 654.808C589.248 655.788 589.408 656.698 589.728 657.538C590.068 658.358 590.528 659.068 591.108 659.668C591.708 660.268 592.408 660.728 593.208 661.048C594.008 661.368 594.878 661.528 595.818 661.528ZM620.29 665.668C617.31 665.668 614.98 664.838 613.3 663.178C611.62 661.518 610.78 659.148 610.78 656.068V644.308H615.64V655.888C615.64 657.888 616.05 659.328 616.87 660.208C617.69 661.088 618.84 661.528 620.32 661.528C621.8 661.528 622.95 661.088 623.77 660.208C624.59 659.328 625 657.888 625 655.888V644.308H629.8V656.068C629.8 659.148 628.96 661.518 627.28 663.178C625.6 664.838 623.27 665.668 620.29 665.668ZM634.603 665.308V644.308H638.623L651.013 659.428H649.063V644.308H653.863V665.308H649.873L637.453 650.188H639.403V665.308H634.603ZM658.831 665.308V644.308H668.371C670.651 644.308 672.661 644.748 674.401 645.628C676.141 646.488 677.501 647.698 678.481 649.258C679.461 650.818 679.951 652.668 679.951 654.808C679.951 656.928 679.461 658.778 678.481 660.358C677.501 661.918 676.141 663.138 674.401 664.018C672.661 664.878 670.651 665.308 668.371 665.308H658.831ZM663.691 661.318H668.131C669.531 661.318 670.741 661.058 671.761 660.538C672.801 659.998 673.601 659.238 674.161 658.258C674.741 657.278 675.031 656.128 675.031 654.808C675.031 653.468 674.741 652.318 674.161 651.358C673.601 650.378 672.801 649.628 671.761 649.108C670.741 648.568 669.531 648.298 668.131 648.298H663.691V661.318Z" fill="#0072BB"/>
<!-- <rect x="466.965" y="715.308" width="158" height="39" rx="5" fill="#0072BB"/> -->
<path d="M493.653 740.468C492.8 740.468 492.005 740.329 491.269 740.052C490.544 739.764 489.909 739.364 489.365 738.852C488.832 738.329 488.416 737.716 488.117 737.012C487.819 736.308 487.669 735.54 487.669 734.708C487.669 733.876 487.819 733.108 488.117 732.404C488.416 731.7 488.837 731.092 489.381 730.58C489.925 730.057 490.56 729.657 491.285 729.38C492.011 729.092 492.805 728.948 493.669 728.948C494.587 728.948 495.424 729.108 496.181 729.428C496.939 729.737 497.579 730.201 498.101 730.82L496.757 732.084C496.352 731.646 495.899 731.321 495.397 731.108C494.896 730.884 494.352 730.772 493.765 730.772C493.179 730.772 492.64 730.868 492.149 731.06C491.669 731.252 491.248 731.524 490.885 731.876C490.533 732.228 490.256 732.644 490.053 733.124C489.861 733.604 489.765 734.132 489.765 734.708C489.765 735.284 489.861 735.812 490.053 736.292C490.256 736.772 490.533 737.188 490.885 737.54C491.248 737.892 491.669 738.164 492.149 738.356C492.64 738.548 493.179 738.644 493.765 738.644C494.352 738.644 494.896 738.537 495.397 738.324C495.899 738.1 496.352 737.764 496.757 737.316L498.101 738.596C497.579 739.204 496.939 739.668 496.181 739.988C495.424 740.308 494.581 740.468 493.653 740.468ZM499.902 740.308V731.764H501.806V734.116L501.582 733.428C501.838 732.852 502.238 732.414 502.782 732.116C503.337 731.817 504.025 731.668 504.846 731.668V733.572C504.761 733.55 504.681 733.54 504.606 733.54C504.532 733.529 504.457 733.524 504.382 733.524C503.625 733.524 503.022 733.748 502.574 734.196C502.126 734.633 501.902 735.289 501.902 736.164V740.308H499.902ZM510.481 740.42C509.531 740.42 508.699 740.233 507.985 739.86C507.281 739.476 506.731 738.953 506.337 738.292C505.953 737.63 505.761 736.878 505.761 736.036C505.761 735.182 505.947 734.43 506.321 733.78C506.705 733.118 507.227 732.601 507.889 732.228C508.561 731.854 509.323 731.668 510.177 731.668C511.009 731.668 511.75 731.849 512.401 732.212C513.051 732.574 513.563 733.086 513.937 733.748C514.31 734.409 514.497 735.188 514.497 736.084C514.497 736.169 514.491 736.265 514.481 736.372C514.481 736.478 514.475 736.58 514.465 736.676H507.345V735.348H513.409L512.625 735.764C512.635 735.273 512.534 734.841 512.321 734.468C512.107 734.094 511.814 733.801 511.441 733.588C511.078 733.374 510.657 733.268 510.177 733.268C509.686 733.268 509.254 733.374 508.881 733.588C508.518 733.801 508.23 734.1 508.017 734.484C507.814 734.857 507.713 735.3 507.713 735.812V736.132C507.713 736.644 507.83 737.097 508.065 737.492C508.299 737.886 508.63 738.19 509.057 738.404C509.483 738.617 509.974 738.724 510.529 738.724C511.009 738.724 511.441 738.649 511.825 738.5C512.209 738.35 512.55 738.116 512.849 737.796L513.921 739.028C513.537 739.476 513.051 739.822 512.465 740.068C511.889 740.302 511.227 740.42 510.481 740.42ZM521.448 740.308V738.58L521.336 738.212V735.188C521.336 734.601 521.16 734.148 520.808 733.828C520.456 733.497 519.922 733.332 519.208 733.332C518.728 733.332 518.253 733.406 517.784 733.556C517.325 733.705 516.936 733.913 516.616 734.18L515.832 732.724C516.29 732.372 516.834 732.11 517.464 731.94C518.104 731.758 518.765 731.668 519.448 731.668C520.685 731.668 521.64 731.966 522.312 732.564C522.994 733.15 523.336 734.062 523.336 735.3V740.308H521.448ZM518.76 740.42C518.12 740.42 517.56 740.313 517.08 740.1C516.6 739.876 516.226 739.572 515.96 739.188C515.704 738.793 515.576 738.35 515.576 737.86C515.576 737.38 515.688 736.948 515.912 736.564C516.146 736.18 516.525 735.876 517.048 735.652C517.57 735.428 518.264 735.316 519.128 735.316H521.608V736.644H519.272C518.589 736.644 518.13 736.756 517.896 736.98C517.661 737.193 517.544 737.46 517.544 737.78C517.544 738.142 517.688 738.43 517.976 738.644C518.264 738.857 518.664 738.964 519.176 738.964C519.666 738.964 520.104 738.852 520.488 738.628C520.882 738.404 521.165 738.073 521.336 737.636L521.672 738.836C521.48 739.337 521.133 739.726 520.632 740.004C520.141 740.281 519.517 740.42 518.76 740.42ZM529.118 740.42C528.18 740.42 527.454 740.18 526.942 739.7C526.43 739.209 526.174 738.489 526.174 737.54V729.876H528.174V737.492C528.174 737.897 528.276 738.212 528.478 738.436C528.692 738.66 528.985 738.772 529.358 738.772C529.806 738.772 530.18 738.654 530.478 738.42L531.038 739.844C530.804 740.036 530.516 740.18 530.174 740.276C529.833 740.372 529.481 740.42 529.118 740.42ZM524.766 733.428V731.828H530.462V733.428H524.766ZM536.418 740.42C535.469 740.42 534.637 740.233 533.922 739.86C533.218 739.476 532.669 738.953 532.274 738.292C531.89 737.63 531.698 736.878 531.698 736.036C531.698 735.182 531.885 734.43 532.258 733.78C532.642 733.118 533.165 732.601 533.826 732.228C534.498 731.854 535.261 731.668 536.114 731.668C536.946 731.668 537.688 731.849 538.338 732.212C538.989 732.574 539.501 733.086 539.874 733.748C540.248 734.409 540.434 735.188 540.434 736.084C540.434 736.169 540.429 736.265 540.418 736.372C540.418 736.478 540.413 736.58 540.402 736.676H533.282V735.348H539.346L538.562 735.764C538.573 735.273 538.472 734.841 538.258 734.468C538.045 734.094 537.752 733.801 537.378 733.588C537.016 733.374 536.594 733.268 536.114 733.268C535.624 733.268 535.192 733.374 534.818 733.588C534.456 733.801 534.168 734.1 533.954 734.484C533.752 734.857 533.65 735.3 533.65 735.812V736.132C533.65 736.644 533.768 737.097 534.002 737.492C534.237 737.886 534.568 738.19 534.994 738.404C535.421 738.617 535.912 738.724 536.466 738.724C536.946 738.724 537.378 738.649 537.762 738.5C538.146 738.35 538.488 738.116 538.786 737.796L539.858 739.028C539.474 739.476 538.989 739.822 538.402 740.068C537.826 740.302 537.165 740.42 536.418 740.42ZM546.969 740.308V729.108H551.577C552.569 729.108 553.417 729.268 554.121 729.588C554.836 729.908 555.385 730.366 555.769 730.964C556.153 731.561 556.345 732.27 556.345 733.092C556.345 733.913 556.153 734.622 555.769 735.22C555.385 735.817 554.836 736.276 554.121 736.596C553.417 736.916 552.569 737.076 551.577 737.076H548.121L549.049 736.1V740.308H546.969ZM549.049 736.324L548.121 735.316H551.481C552.399 735.316 553.087 735.124 553.545 734.74C554.015 734.345 554.249 733.796 554.249 733.092C554.249 732.377 554.015 731.828 553.545 731.444C553.087 731.06 552.399 730.868 551.481 730.868H548.121L549.049 729.844V736.324ZM558.152 740.308V731.764H560.056V734.116L559.832 733.428C560.088 732.852 560.488 732.414 561.032 732.116C561.587 731.817 562.275 731.668 563.096 731.668V733.572C563.011 733.55 562.931 733.54 562.856 733.54C562.782 733.529 562.707 733.524 562.632 733.524C561.875 733.524 561.272 733.748 560.824 734.196C560.376 734.633 560.152 735.289 560.152 736.164V740.308H558.152ZM568.555 740.42C567.68 740.42 566.901 740.233 566.219 739.86C565.536 739.476 564.997 738.953 564.603 738.292C564.208 737.63 564.011 736.878 564.011 736.036C564.011 735.182 564.208 734.43 564.603 733.78C564.997 733.118 565.536 732.601 566.219 732.228C566.901 731.854 567.68 731.668 568.555 731.668C569.44 731.668 570.224 731.854 570.907 732.228C571.6 732.601 572.139 733.113 572.523 733.764C572.917 734.414 573.115 735.172 573.115 736.036C573.115 736.878 572.917 737.63 572.523 738.292C572.139 738.953 571.6 739.476 570.907 739.86C570.224 740.233 569.44 740.42 568.555 740.42ZM568.555 738.708C569.045 738.708 569.483 738.601 569.867 738.388C570.251 738.174 570.549 737.865 570.763 737.46C570.987 737.054 571.099 736.58 571.099 736.036C571.099 735.481 570.987 735.006 570.763 734.612C570.549 734.206 570.251 733.897 569.867 733.684C569.483 733.47 569.051 733.364 568.571 733.364C568.08 733.364 567.643 733.47 567.259 733.684C566.885 733.897 566.587 734.206 566.363 734.612C566.139 735.006 566.027 735.481 566.027 736.036C566.027 736.58 566.139 737.054 566.363 737.46C566.587 737.865 566.885 738.174 567.259 738.388C567.643 738.601 568.075 738.708 568.555 738.708ZM574.147 743.524C573.774 743.524 573.422 743.481 573.091 743.396C572.75 743.321 572.462 743.198 572.227 743.028L572.803 741.54C573.113 741.764 573.502 741.876 573.971 741.876C574.334 741.876 574.617 741.758 574.819 741.524C575.022 741.3 575.123 740.964 575.123 740.516V731.764H577.123V740.468C577.123 741.406 576.862 742.148 576.339 742.692C575.827 743.246 575.097 743.524 574.147 743.524ZM576.115 730.356C575.742 730.356 575.433 730.238 575.187 730.004C574.953 729.769 574.835 729.486 574.835 729.156C574.835 728.814 574.953 728.532 575.187 728.308C575.433 728.073 575.742 727.956 576.115 727.956C576.489 727.956 576.793 728.068 577.027 728.292C577.273 728.505 577.395 728.777 577.395 729.108C577.395 729.46 577.278 729.758 577.043 730.004C576.809 730.238 576.499 730.356 576.115 730.356ZM583.762 740.42C582.813 740.42 581.981 740.233 581.266 739.86C580.562 739.476 580.013 738.953 579.618 738.292C579.234 737.63 579.042 736.878 579.042 736.036C579.042 735.182 579.229 734.43 579.602 733.78C579.986 733.118 580.509 732.601 581.17 732.228C581.842 731.854 582.605 731.668 583.458 731.668C584.29 731.668 585.031 731.849 585.682 732.212C586.333 732.574 586.845 733.086 587.218 733.748C587.591 734.409 587.778 735.188 587.778 736.084C587.778 736.169 587.773 736.265 587.762 736.372C587.762 736.478 587.757 736.58 587.746 736.676H580.626V735.348H586.69L585.906 735.764C585.917 735.273 585.815 734.841 585.602 734.468C585.389 734.094 585.095 733.801 584.722 733.588C584.359 733.374 583.938 733.268 583.458 733.268C582.967 733.268 582.535 733.374 582.162 733.588C581.799 733.801 581.511 734.1 581.298 734.484C581.095 734.857 580.994 735.3 580.994 735.812V736.132C580.994 736.644 581.111 737.097 581.346 737.492C581.581 737.886 581.911 738.19 582.338 738.404C582.765 738.617 583.255 738.724 583.81 738.724C584.29 738.724 584.722 738.649 585.106 738.5C585.49 738.35 585.831 738.116 586.13 737.796L587.202 739.028C586.818 739.476 586.333 739.822 585.746 740.068C585.17 740.302 584.509 740.42 583.762 740.42ZM593.619 740.42C592.723 740.42 591.923 740.233 591.219 739.86C590.526 739.476 589.982 738.953 589.587 738.292C589.193 737.63 588.995 736.878 588.995 736.036C588.995 735.182 589.193 734.43 589.587 733.78C589.982 733.118 590.526 732.601 591.219 732.228C591.923 731.854 592.723 731.668 593.619 731.668C594.451 731.668 595.182 731.838 595.811 732.18C596.451 732.51 596.937 733.001 597.267 733.652L595.731 734.548C595.475 734.142 595.161 733.844 594.787 733.652C594.425 733.46 594.03 733.364 593.603 733.364C593.113 733.364 592.67 733.47 592.275 733.684C591.881 733.897 591.571 734.206 591.347 734.612C591.123 735.006 591.011 735.481 591.011 736.036C591.011 736.59 591.123 737.07 591.347 737.476C591.571 737.87 591.881 738.174 592.275 738.388C592.67 738.601 593.113 738.708 593.603 738.708C594.03 738.708 594.425 738.612 594.787 738.42C595.161 738.228 595.475 737.929 595.731 737.524L597.267 738.42C596.937 739.06 596.451 739.556 595.811 739.908C595.182 740.249 594.451 740.42 593.619 740.42ZM602.321 740.42C601.383 740.42 600.657 740.18 600.145 739.7C599.633 739.209 599.377 738.489 599.377 737.54V729.876H601.377V737.492C601.377 737.897 601.479 738.212 601.681 738.436C601.895 738.66 602.188 738.772 602.561 738.772C603.009 738.772 603.383 738.654 603.681 738.42L604.241 739.844C604.007 740.036 603.719 740.18 603.377 740.276C603.036 740.372 602.684 740.42 602.321 740.42ZM597.969 733.428V731.828H603.665V733.428H597.969Z" fill="white"/>
</svg>


