<svg width="1091" height="545" viewBox="0 0 1091 545" fill="none" xmlns="http://www.w3.org/2000/svg">
<path d="M1090.87 538.441H0V543.468H1090.87V538.441Z" fill="#516092"/>
<path d="M669.246 511.632H620.066V97.7402H669.246V511.632ZM625.093 506.605H664.219V102.767H625.093V506.605Z" fill="#516092"/>
<path d="M675.977 487.688H613.332V532.577H675.977V487.688Z" fill="#BCCCFD"/>
<path d="M666.998 463.873H623.431C622.433 463.873 621.528 463.282 621.126 462.365C620.726 461.45 620.907 460.384 621.586 459.65L663.476 414.409L667.166 417.823L629.182 458.843H666.995V463.873H666.998Z" fill="#516092"/>
<path d="M666.998 418.544H623.431C622.433 418.544 621.528 417.954 621.126 417.036C620.726 416.121 620.907 415.055 621.586 414.322L663.476 369.078L667.166 372.491L629.182 413.515H666.995V418.544H666.998Z" fill="#516092"/>
<path d="M666.998 373.215H623.431C622.433 373.215 621.528 372.624 621.126 371.707C620.726 370.792 620.907 369.726 621.586 368.992L663.476 323.749L667.166 327.162L629.182 368.186H666.995V373.215H666.998Z" fill="#516092"/>
<path d="M666.998 327.886H623.431C622.433 327.886 621.528 327.295 621.126 326.378C620.726 325.463 620.907 324.397 621.586 323.663L663.476 278.42L667.166 281.833L629.182 322.856H666.995V327.886H666.998Z" fill="#516092"/>
<path d="M666.998 282.558H623.431C622.433 282.558 621.528 281.967 621.126 281.05C620.726 280.135 620.907 279.069 621.586 278.335L663.476 233.092L667.166 236.505L629.182 277.528H666.995V282.558H666.998Z" fill="#516092"/>
<path d="M666.998 237.229H623.431C622.433 237.229 621.528 236.638 621.126 235.721C620.726 234.806 620.907 233.74 621.586 233.006L663.476 187.763L667.166 191.176L629.182 232.199H666.995V237.229H666.998Z" fill="#516092"/>
<path d="M666.998 191.9H623.431C622.433 191.9 621.528 191.309 621.126 190.392C620.726 189.477 620.907 188.411 621.586 187.677L663.476 142.434L667.166 145.847L629.182 186.87H666.995V191.9H666.998Z" fill="#516092"/>
<path d="M666.999 146.572H623.432C622.434 146.572 621.529 145.981 621.127 145.063C620.725 144.146 620.908 143.083 621.587 142.349L663.477 97.1055L667.167 100.519L629.183 141.542H666.996V146.572H666.999Z" fill="#516092"/>
<path d="M669.164 80.2617H589.438V147.473H669.164V80.2617Z" fill="#0072BB"/>
<path d="M788.973 80.2617H709.246V118.867H788.973V80.2617Z" fill="#0072BB"/>
<path d="M787.651 85.1706H393.865C392.478 85.1706 391.352 84.0445 391.352 82.6571C391.352 81.2696 392.478 80.1436 393.865 80.1436H787.651C789.038 80.1436 790.164 81.2696 790.164 82.6571C790.164 84.0445 789.038 85.1706 787.651 85.1706Z" fill="#516092"/>
<path d="M414.672 94.3877H412.158V257.767H414.672V94.3877Z" fill="#516092"/>
<path d="M697.344 524.555H591.967V544.308H697.344V524.555Z" fill="#516092"/>
<path d="M629.588 84.5117C629.266 84.5117 628.945 84.3885 628.701 84.1447L607.703 63.1467H415.202L395.461 82.8879C394.971 83.3781 394.174 83.3781 393.684 82.8879C393.194 82.3978 393.194 81.601 393.684 81.1109L414.159 60.6357H608.741L630.473 82.3676C630.963 82.8578 630.963 83.6546 630.473 84.1447C630.231 84.3885 629.91 84.5117 629.588 84.5117Z" fill="#516092"/>
<path d="M789.324 84.5117C788.872 84.5117 788.434 84.2653 788.211 83.838L767.198 43.6971H716.238L696.48 82.5687C696.165 83.187 695.406 83.4284 694.791 83.1192C694.172 82.805 693.926 82.0484 694.24 81.4301L714.698 41.1836H768.721L790.438 82.6718C790.759 83.2876 790.523 84.0467 789.907 84.3684C789.719 84.4664 789.52 84.5117 789.324 84.5117Z" fill="#516092"/>
<path d="M422.629 94.385C422.629 99.4749 418.502 103.602 413.412 103.602C408.322 103.602 404.195 99.4749 404.195 94.385C404.195 89.2952 408.322 85.168 413.412 85.168C418.502 85.1705 422.629 89.2952 422.629 94.385Z" fill="#BCCCFD"/>
<path d="M511.467 254.227L301 273.672L311.02 382.133L521.487 362.688L511.467 254.227Z" fill="#BCCCFD"/>
<path d="M443.995 338.696L443.088 328.875L469.125 286.121L484.442 284.706L459.036 327.401L451.726 325.986L501.373 321.398L502.472 333.292L443.995 338.696ZM479.188 348.802L477.964 335.557L477.316 323.622L476.225 311.818L490.01 310.544L493.424 347.486L479.188 348.802Z" fill="#0072BB"/>
<path d="M411.919 356.109C406.753 356.587 402.011 355.753 397.693 353.607C393.37 351.402 389.812 347.975 387.02 343.326C384.227 338.677 382.512 332.898 381.874 325.99C381.235 319.082 381.863 313.087 383.756 308.005C385.649 302.923 388.521 298.932 392.372 296.032C396.218 293.071 400.724 291.352 405.89 290.875C411.116 290.392 415.861 291.256 420.124 293.467C424.442 295.612 427.997 299.01 430.789 303.659C433.582 308.308 435.297 314.086 435.935 320.994C436.574 327.902 435.946 333.897 434.053 338.979C432.16 344.061 429.291 348.082 425.445 351.043C421.654 353.938 417.145 355.626 411.919 356.109ZM410.778 343.765C413.241 343.538 415.309 342.65 416.984 341.102C418.718 339.548 419.957 337.222 420.701 334.125C421.505 331.021 421.687 327.097 421.249 322.351C420.81 317.606 419.911 313.782 418.553 310.878C417.254 307.969 415.61 305.91 413.62 304.7C411.69 303.485 409.494 302.991 407.031 303.219C404.628 303.441 402.56 304.329 400.825 305.883C399.151 307.431 397.912 309.756 397.108 312.86C396.365 315.958 396.212 319.879 396.651 324.625C397.089 329.37 397.958 333.197 399.256 336.106C400.615 339.01 402.26 341.069 404.189 342.284C406.179 343.494 408.375 343.987 410.778 343.765Z" fill="#0072BB"/>
<path d="M320.722 350.089L319.814 340.267L345.851 297.514L361.169 296.098L335.763 338.794L328.453 337.379L378.1 332.791L379.199 344.684L320.722 350.089ZM355.915 360.194L354.691 346.949L354.042 335.014L352.951 323.211L366.737 321.937L370.151 358.879L355.915 360.194Z" fill="#0072BB"/>
<path d="M467.905 63.1289C467.367 63.1289 466.867 62.7795 466.704 62.2391C466.5 61.5756 466.875 60.8718 467.538 60.6707L653.622 3.93045C653.906 3.84499 654.208 3.86009 654.477 3.97571L742.673 41.1984C743.312 41.4674 743.613 42.2038 743.342 42.8448C743.073 43.4857 742.334 43.7848 741.696 43.5134L653.921 6.4666L468.272 63.0736C468.149 63.1113 468.029 63.1289 467.905 63.1289Z" fill="#516092"/>
<path d="M624.715 84.6807C624.419 84.6807 624.117 84.6279 623.823 84.5148C622.526 84.0221 621.875 82.5718 622.368 81.2723L651.668 4.17259C652.065 3.12948 653.095 2.46843 654.224 2.56143C655.34 2.65443 656.263 3.47133 656.481 4.56974L671.628 79.7642C671.902 81.124 671.019 82.4486 669.66 82.7251C668.302 82.9891 666.975 82.1169 666.699 80.7571L653.271 14.0985L627.063 83.0594C626.683 84.0623 625.728 84.6807 624.715 84.6807Z" fill="#516092"/>
<path d="M659.075 5.06474C659.075 7.86229 656.808 10.1295 654.01 10.1295C651.212 10.1295 648.945 7.86229 648.945 5.06474C648.945 2.26719 651.212 0 654.01 0C656.808 0 659.075 2.26719 659.075 5.06474Z" fill="#BCCCFD"/>
<path d="M441.409 84.7503C441.132 84.7503 440.853 84.6598 440.62 84.4713L415.939 64.5215V83.1743C415.939 83.8681 415.376 84.4311 414.683 84.4311C413.989 84.4311 413.426 83.8681 413.426 83.1743V61.8898C413.426 61.4047 413.705 60.9649 414.142 60.7562C414.577 60.5476 415.097 60.6054 415.474 60.9146L442.203 82.5183C442.743 82.9531 442.826 83.7449 442.389 84.2853C442.14 84.592 441.776 84.7503 441.409 84.7503Z" fill="#516092"/>
<path d="M465.273 84.7503C464.996 84.7503 464.717 84.6598 464.483 84.4713L439.801 64.5215V83.1743C439.801 83.8681 439.238 84.4311 438.544 84.4311C437.85 84.4311 437.287 83.8681 437.287 83.1743V61.8898C437.287 61.4047 437.566 60.9649 438.003 60.7562C438.436 60.5476 438.956 60.6054 439.336 60.9146L466.064 82.5183C466.605 82.9531 466.688 83.7449 466.25 84.2853C466.002 84.592 465.64 84.7503 465.273 84.7503Z" fill="#516092"/>
<path d="M489.148 84.7503C488.871 84.7503 488.592 84.6598 488.358 84.4713L463.676 64.5215V83.1743C463.676 83.8681 463.113 84.4311 462.419 84.4311C461.725 84.4311 461.162 83.8681 461.162 83.1743V61.8898C461.162 61.4047 461.441 60.9649 461.878 60.7562C462.311 60.5476 462.831 60.6054 463.211 60.9146L489.939 82.5183C490.48 82.9531 490.563 83.7449 490.125 84.2853C489.879 84.592 489.515 84.7503 489.148 84.7503Z" fill="#516092"/>
<path d="M513.01 84.7503C512.734 84.7503 512.455 84.6598 512.221 84.4713L487.541 64.5215V83.1743C487.541 83.8681 486.978 84.4311 486.284 84.4311C485.59 84.4311 485.027 83.8681 485.027 83.1743V61.8898C485.027 61.4047 485.306 60.9649 485.744 60.7562C486.179 60.5476 486.696 60.6054 487.076 60.9146L513.805 82.5183C514.345 82.9531 514.428 83.7449 513.991 84.2853C513.739 84.592 513.377 84.7503 513.01 84.7503Z" fill="#516092"/>
<path d="M536.874 84.7503C536.598 84.7503 536.319 84.6598 536.085 84.4713L511.402 64.5215V83.1743C511.402 83.8681 510.839 84.4311 510.145 84.4311C509.452 84.4311 508.889 83.8681 508.889 83.1743V61.8898C508.889 61.4047 509.168 60.9649 509.605 60.7562C510.04 60.5476 510.558 60.6054 510.937 60.9146L537.666 82.5183C538.206 82.9531 538.289 83.7449 537.852 84.2853C537.606 84.592 537.241 84.7503 536.874 84.7503Z" fill="#516092"/>
<path d="M560.745 84.7503C560.469 84.7503 560.19 84.6598 559.956 84.4713L535.273 64.5215V83.1743C535.273 83.8681 534.71 84.4311 534.017 84.4311C533.323 84.4311 532.76 83.8681 532.76 83.1743V61.8898C532.76 61.4047 533.039 60.9649 533.476 60.7562C533.908 60.5476 534.429 60.6054 534.808 60.9146L561.537 82.5183C562.077 82.9531 562.16 83.7449 561.723 84.2853C561.474 84.592 561.112 84.7503 560.745 84.7503Z" fill="#516092"/>
<path d="M584.611 84.7503C584.334 84.7503 584.055 84.6598 583.821 84.4713L559.139 64.5215V83.1743C559.139 83.8681 558.575 84.4311 557.882 84.4311C557.188 84.4311 556.625 83.8681 556.625 83.1743V61.8898C556.625 61.4047 556.904 60.9649 557.341 60.7562C557.774 60.5476 558.294 60.6054 558.674 60.9146L585.402 82.5183C585.943 82.9531 586.026 83.7449 585.588 84.2853C585.339 84.592 584.978 84.7503 584.611 84.7503Z" fill="#516092"/>
<path d="M608.482 84.7503C608.205 84.7503 607.926 84.6598 607.692 84.4713L583.01 64.5215V83.1743C583.01 83.8681 582.447 84.4311 581.753 84.4311C581.059 84.4311 580.496 83.8681 580.496 83.1743V61.8898C580.496 61.4047 580.775 60.9649 581.212 60.7562C581.647 60.5476 582.168 60.6054 582.545 60.9146L609.273 82.5183C609.814 82.9531 609.897 83.7449 609.459 84.2853C609.211 84.592 608.849 84.7503 608.482 84.7503Z" fill="#516092"/>
<path d="M749.579 84.7509C749.222 84.7509 748.868 84.6001 748.619 84.3061L716.564 46.475V83.175C716.564 83.8687 716.001 84.4317 715.308 84.4317C714.614 84.4317 714.051 83.8687 714.051 83.175V43.0491C714.051 42.5213 714.38 42.0512 714.875 41.8703C715.373 41.6868 715.926 41.8326 716.268 42.2373L750.54 82.6823C750.989 83.2101 750.922 84.0044 750.394 84.4518C750.155 84.6529 749.866 84.7509 749.579 84.7509Z" fill="#516092"/>
<path d="M774.226 84.7502C773.819 84.7502 773.419 84.5517 773.176 84.1872L748.752 47.2284V83.1743C748.752 83.868 748.189 84.431 747.495 84.431C746.801 84.431 746.238 83.868 746.238 83.1743V43.0484C746.238 42.4929 746.603 42.0053 747.133 41.8444C747.671 41.6886 748.239 41.8947 748.543 42.3547L775.272 82.7997C775.654 83.3778 775.496 84.1595 774.917 84.5416C774.704 84.6824 774.465 84.7502 774.226 84.7502Z" fill="#516092"/>
<path d="M421.327 261.118C421.327 265.489 417.783 269.03 413.415 269.03C409.044 269.03 405.502 265.486 405.502 261.118C405.502 256.747 409.046 253.205 413.415 253.205C417.783 253.203 421.327 256.747 421.327 261.118Z" fill="#0072BB"/>
<path d="M156.127 419.051H151.1V539.697H156.127V419.051Z" fill="#516092"/>
<path d="M60.6149 419.051H55.5879V539.697H60.6149V419.051Z" fill="#516092"/>
<path d="M169.244 430.359H43.0176V476.86H169.244V430.359Z" fill="#E3EBFF"/>
<path d="M169.246 476.86V432.873L146.039 476.86H169.246Z" fill="#424242"/>
<path d="M89.4785 476.86H116.476L141.013 430.359H114.013L89.4785 476.86Z" fill="#424242"/>
<path d="M57.4603 430.359L43.0176 457.732V476.86H59.9235L84.458 430.359H57.4603Z" fill="#424242"/>
<path d="M174.98 504.511H36.7363V509.538H174.98V504.511Z" fill="#516092"/>
<path d="M1030.84 419.051H1025.81V539.697H1030.84V419.051Z" fill="#516092"/>
<path d="M935.316 419.051H930.289V539.697H935.316V419.051Z" fill="#516092"/>
<path d="M1043.95 430.359H917.727V476.86H1043.95V430.359Z" fill="#E3EBFF"/>
<path d="M1043.95 476.86V432.873L1020.74 476.86H1043.95Z" fill="#424242"/>
<path d="M964.188 476.86H991.185L1015.72 430.359H988.722L964.188 476.86Z" fill="#424242"/>
<path d="M932.169 430.359L917.727 457.732V476.86H934.632L959.167 430.359H932.169Z" fill="#424242"/>
<path d="M1049.69 504.511H911.441V509.538H1049.69V504.511Z" fill="#516092"/>
<path opacity="0.5" d="M221.425 129.441C217.233 129.441 213.357 130.773 210.172 133.02V127.478C210.172 111.514 197.23 98.5723 181.267 98.5723C165.303 98.5723 152.361 111.514 152.361 127.478V138.402C149.745 135.918 146.216 134.385 142.322 134.385C134.259 134.385 127.719 140.923 127.719 148.988H240.97C240.973 138.193 232.221 129.441 221.425 129.441Z" fill="#D4E0FF"/>
<path opacity="0.5" d="M961.219 146.473C958.166 146.473 955.345 147.444 953.028 149.08V145.043C953.028 133.421 943.607 124 931.985 124C920.362 124 910.942 133.423 910.942 145.043V152.996C909.036 151.189 906.467 150.073 903.632 150.073C897.761 150.073 893 154.833 893 160.705H975.451C975.451 152.845 969.079 146.473 961.219 146.473Z" fill="#D4E0FF"/>
</svg>
