<svg width="43" height="48" viewBox="0 0 43 48" fill="none" xmlns="http://www.w3.org/2000/svg">
<path fill-rule="evenodd" clip-rule="evenodd" d="M42.0703 13.5V42C42.0703 43.5913 41.4382 45.1174 40.313 46.2426C39.1877 47.3679 37.6616 48 36.0703 48H33.0703V45H36.0703C36.866 45 37.629 44.6839 38.1916 44.1213C38.7542 43.5587 39.0703 42.7957 39.0703 42V13.5H33.0703C31.8768 13.5 30.7322 13.0259 29.8883 12.182C29.0444 11.3381 28.5703 10.1935 28.5703 9V3H12.0703C11.2747 3 10.5116 3.31607 9.94899 3.87868C9.38638 4.44129 9.07031 5.20435 9.07031 6V33H6.07031V6C6.07031 4.4087 6.70245 2.88258 7.82767 1.75736C8.95289 0.632141 10.479 0 12.0703 0L28.5703 0L42.0703 13.5ZM4.87031 35.55H0.0703125V47.547H2.44331V43.521H4.85231C5.71331 43.521 6.44531 43.35 7.04831 43.002C7.65731 42.651 8.12231 42.177 8.43731 41.58C8.76427 40.9535 8.93026 40.2556 8.92031 39.549C8.92031 38.799 8.76131 38.121 8.44631 37.518C8.13299 36.9186 7.65397 36.4219 7.06631 36.087C6.46631 35.727 5.73731 35.55 4.87031 35.55ZM6.50531 39.549C6.51613 39.9443 6.4285 40.336 6.25031 40.689C6.09045 40.9963 5.84162 41.2483 5.53631 41.412C5.18708 41.5848 4.80079 41.6692 4.41131 41.658H2.43431V37.44H4.41431C5.06831 37.44 5.58131 37.62 5.95031 37.983C6.31931 38.349 6.50531 38.871 6.50531 39.549ZM10.1563 35.55V47.547H14.5363C15.7393 47.547 16.7383 47.307 17.5303 46.836C18.3318 46.3565 18.9576 45.6318 19.3153 44.769C19.7053 43.869 19.9033 42.783 19.9033 41.517C19.9033 40.257 19.7083 39.183 19.3153 38.292C18.9619 37.4392 18.342 36.7235 17.5483 36.252C16.7563 35.784 15.7513 35.55 14.5333 35.55H10.1563ZM12.5293 37.485H14.2183C14.9623 37.485 15.5683 37.635 16.0453 37.941C16.5404 38.2648 16.914 38.7439 17.1073 39.303C17.3443 39.906 17.4613 40.659 17.4613 41.562C17.4706 42.1603 17.402 42.7574 17.2573 43.338C17.1504 43.7959 16.9503 44.2269 16.6693 44.604C16.4083 44.9404 16.0625 45.2014 15.6673 45.36C15.2043 45.5332 14.7125 45.6167 14.2183 45.606H12.5293V37.485ZM23.7583 42.774V47.547H21.3883V35.55H29.0323V37.509H23.7583V40.86H28.5763V42.774H23.7583Z" fill="black"/>
</svg>
