<svg width="24" height="25" viewBox="0 0 24 25" fill="none" xmlns="http://www.w3.org/2000/svg">
<path d="M12 0.671875C18.6274 0.671875 24 6.04446 24 12.6719C24 19.2993 18.6274 24.6719 12 24.6719C5.37258 24.6719 0 19.2993 0 12.6719C0 6.04446 5.37258 0.671875 12 0.671875ZM12 6.67188C11.6203 6.67188 11.3065 6.95403 11.2568 7.3201L11.25 7.42188V11.9219H6.75C6.33579 11.9219 6 12.2577 6 12.6719C6 13.0516 6.28215 13.3654 6.64823 13.415L6.75 13.4219H11.25V17.9219C11.25 18.3361 11.5858 18.6719 12 18.6719C12.3797 18.6719 12.6935 18.3897 12.7432 18.0236L12.75 17.9219V13.4219H17.25C17.6642 13.4219 18 13.0861 18 12.6719C18 12.2922 17.7178 11.9784 17.3518 11.9287L17.25 11.9219H12.75V7.42188C12.75 7.00766 12.4142 6.67188 12 6.67188Z" fill="#0072BB"/>
</svg>
