<svg width="61" height="61" viewBox="0 0 61 61" fill="none" xmlns="http://www.w3.org/2000/svg">
<circle cx="30.5" cy="30.5" r="30" fill="#DAECF2"/>
<g clip-path="url(#clip0_450_8820)">
<path d="M37.6337 26.8006C38.1218 26.3124 38.1219 25.521 37.6337 25.0328C37.1456 24.5446 36.3541 24.5446 35.866 25.0328L28.4165 32.4819L25.9607 30.0261C25.4725 29.5379 24.6811 29.5379 24.1929 30.0261C23.7048 30.5142 23.7048 31.3057 24.1929 31.7939L27.5326 35.1335C28.0207 35.6216 28.8122 35.6217 29.3003 35.1335L37.6337 26.8006ZM20.9167 15.5C17.9251 15.5 15.5 17.9251 15.5 20.9167V40.0833C15.5 43.0749 17.9251 45.5 20.9167 45.5H40.0833C43.0749 45.5 45.5 43.0749 45.5 40.0833V20.9167C45.5 17.9251 43.0749 15.5 40.0833 15.5H20.9167ZM18 20.9167C18 19.3058 19.3058 18 20.9167 18H40.0833C41.6942 18 43 19.3058 43 20.9167V40.0833C43 41.6942 41.6942 43 40.0833 43H20.9167C19.3058 43 18 41.6942 18 40.0833V20.9167Z" fill="#3A9EC3"/>
</g>
<defs>
<clipPath id="clip0_450_8820">
<rect width="30" height="30" fill="white" transform="translate(15.5 15.5)"/>
</clipPath>
</defs>
</svg>
