<svg xmlns="http://www.w3.org/2000/svg" width="15" height="15" viewBox="0 0 30 30" fill="none">
<g clip-path="url(#clip0_209_3731)">
<path d="M22.1337 11.3006C22.6218 10.8124 22.6219 10.021 22.1337 9.5328C21.6456 9.04464 20.8541 9.04462 20.366 9.53276L12.9165 16.9819L10.4607 14.5261C9.97255 14.0379 9.18109 14.0379 8.69294 14.5261C8.20478 15.0142 8.20479 15.8057 8.69294 16.2939L12.0326 19.6335C12.5207 20.1216 13.3122 20.1217 13.8003 19.6335L22.1337 11.3006ZM5.41667 0C2.42512 0 0 2.42512 0 5.41667V24.5833C0 27.5749 2.42512 30 5.41667 30H24.5833C27.5749 30 30 27.5749 30 24.5833V5.41667C30 2.42512 27.5749 0 24.5833 0H5.41667ZM2.5 5.41667C2.5 3.80584 3.80584 2.5 5.41667 2.5H24.5833C26.1942 2.5 27.5 3.80584 27.5 5.41667V24.5833C27.5 26.1942 26.1942 27.5 24.5833 27.5H5.41667C3.80584 27.5 2.5 26.1942 2.5 24.5833V5.41667Z" fill="#3A9EC3"/>
</g>
<defs>
<clipPath id="clip0_209_3731">
<rect width="30" height="30" fill="white"/>
</clipPath>
</defs>
</svg>