<svg width="60" height="60" viewBox="0 0 60 60" fill="none" xmlns="http://www.w3.org/2000/svg">
<circle cx="30" cy="30" r="30" fill="white"/>
<g clip-path="url(#clip0_209_3715)">
<path d="M30.3 45C30.1 45 29.8 45 29.6 45C28.8 44.9 28.2 44.4 27.7 43.9C27.3 43.5 26.8 43.1 26.4 42.7C26.3 42.6 26.1 42.6 26 42.6C24.9 42.7 23.9 42.8 22.8 42.8C21.4 42.9 20.3 42.1 20 40.7C19.8 39.9 19.6 39 19.4 38.2C19.4 38.1 19.2 37.9 19.1 37.8C18.2 37.2 17.3 36.7 16.3 36.1C15.6 35.7 15.2 35.1 15 34.3V34.2C15 33.9 15 33.7 15 33.4C15.1 33.1 15.2 32.8 15.3 32.5C15.6 31.7 16 30.9 16.3 30.1C16.3 30 16.3 29.8 16.3 29.7C15.9 28.6 15.4 27.5 15 26.4C15 26.1 15 25.9 15 25.6C15 25.6 15 25.6 15 25.5C15.2 24.7 15.7 24.1 16.4 23.6C17.1 23.3 17.9 22.8 18.7 22.3C18.9 22.2 19 22.1 19 21.9C19.4 20.9 19.6 20 19.9 19C20.3 17.8 21.4 17 22.7 17.1C23.8 17.2 24.8 17.3 25.9 17.4C26.1 17.4 26.3 17.4 26.4 17.2C26.8 16.8 27.3 16.5 27.7 16.1C28.2 15.6 28.8 15.1 29.6 15C29.8 15 30.1 15 30.3 15C31.1 15.1 31.7 15.6 32.2 16.1C32.6 16.5 33 16.8 33.4 17.2C33.6 17.4 33.8 17.4 34 17.4C35 17.3 36 17.2 37 17.2C38.5 17 39.6 17.8 39.9 19.3C40.1 20.1 40.3 21 40.5 21.8C40.5 21.9 40.6 22.1 40.8 22.2C41.7 22.8 42.7 23.3 43.6 23.9C44.3 24.3 44.7 24.9 44.9 25.7C44.9 25.8 44.9 25.8 45 25.9C45 26.2 45 26.4 45 26.7C44.9 27 44.8 27.2 44.7 27.5C44.4 28.3 44 29.2 43.7 30C43.6 30.1 43.6 30.3 43.7 30.5C44.1 31.6 44.6 32.7 45 33.8C45 34.1 45 34.3 45 34.6C45 34.6 45 34.6 45 34.7C44.8 35.5 44.4 36.1 43.6 36.6C42.7 37.1 41.8 37.7 40.9 38.2C40.8 38.3 40.7 38.4 40.6 38.6C40.4 39.4 40.2 40.2 40 41C39.6 42.6 38.5 43.4 36.9 43.2C35.9 43.1 34.9 43 34 43C33.9 43 33.7 43.1 33.6 43.2C33.2 43.6 32.7 43.9 32.3 44.3C31.6 44.4 31 44.9 30.3 45ZM23 18.9C22 18.9 21.8 19 21.6 19.8C21.3 20.8 20.9 21.8 20.6 22.9C20.5 23.2 20.3 23.4 20 23.6C19.1 24.1 18.2 24.7 17.3 25.2C16.7 25.6 16.6 25.9 16.8 26.5C17.2 27.5 17.6 28.4 18 29.4C18.2 29.8 18.2 30.1 18 30.5C17.6 31.5 17.2 32.4 16.8 33.4C16.5 34 16.7 34.4 17.2 34.7C18.2 35.3 19.3 35.9 20.3 36.5C20.6 36.7 20.8 37 20.9 37.3C21.1 38.2 21.3 39.2 21.6 40.1C21.8 40.9 22.1 41.1 22.9 41C24 40.9 25.1 40.8 26.3 40.7C26.7 40.7 27 40.8 27.2 41C27.9 41.6 28.6 42.2 29.3 42.8C29.8 43.2 30.2 43.2 30.7 42.8C31.4 42.2 32 41.6 32.7 41C33 40.7 33.4 40.6 33.8 40.6C34.9 40.7 36.1 40.8 37.2 40.9C37.9 40.9 38.2 40.7 38.3 40.1C38.5 39.1 38.8 38.2 39 37.2C39.1 36.8 39.3 36.6 39.6 36.4C40.6 35.8 41.6 35.2 42.7 34.6C43.3 34.3 43.4 33.9 43.1 33.3C42.7 32.3 42.3 31.4 41.9 30.4C41.8 30.1 41.8 29.8 41.9 29.4C42.3 28.4 42.7 27.5 43.1 26.5C43.4 25.8 43.3 25.5 42.6 25.1C41.6 24.5 40.6 23.9 39.6 23.3C39.2 23.2 39 23 38.9 22.6C38.7 21.6 38.4 20.6 38.2 19.7C38.1 19.1 37.7 18.9 37.2 18.9C36 19 34.7 19.1 33.5 19.2C33.2 19.2 32.9 19.1 32.7 18.9C32 18.3 31.3 17.7 30.6 17.1C30.1 16.6 29.7 16.6 29.2 17.1C28.5 17.7 27.8 18.3 27.2 18.9C26.9 19.1 26.7 19.2 26.3 19.2C25.1 19.1 24 19 23 18.9Z" fill="#0072BB"/>
<path d="M29.9002 20.2998C35.2002 20.2998 39.6002 24.5998 39.6002 29.9998C39.6002 35.2998 35.3002 39.6998 29.9002 39.6998C24.6002 39.6998 20.2002 35.2998 20.2002 29.9998C20.2002 24.6998 24.6002 20.2998 29.9002 20.2998ZM22.0002 29.9998C22.0002 34.3998 25.5002 37.8998 29.9002 37.8998C34.3002 37.8998 37.8002 34.3998 37.8002 29.9998C37.8002 25.5998 34.3002 22.0998 29.9002 22.0998C25.6002 22.0998 22.0002 25.5998 22.0002 29.9998Z" fill="#0072BB"/>
<path d="M29.0002 31.4002C29.1002 31.3002 29.2002 31.2002 29.3002 31.1002C30.7002 29.7002 32.2002 28.2002 33.6002 26.8002C33.8002 26.6002 34.1002 26.4002 34.5002 26.5002C35.1002 26.6002 35.4002 27.3002 35.1002 27.9002C34.9002 28.0002 34.9002 28.0002 34.8002 28.1002C33.1002 29.8002 31.5002 31.4002 29.8002 33.1002C29.3002 33.6002 28.8002 33.6002 28.3002 33.1002C27.2002 32.0002 26.1002 30.9002 25.0002 29.8002C24.5002 29.3002 24.7002 28.5002 25.3002 28.3002C25.7002 28.2002 25.9002 28.3002 26.2002 28.6002C27.1002 29.5002 27.9002 30.3002 28.8002 31.2002C28.8002 31.2002 28.9002 31.3002 29.0002 31.4002Z" fill="#0072BB"/>
</g>
<defs>
<clipPath id="clip0_209_3715">
<rect width="30" height="30" fill="white" transform="translate(15 15)"/>
</clipPath>
</defs>
</svg>
