<svg width="60" height="61" viewBox="0 0 60 61" fill="none" xmlns="http://www.w3.org/2000/svg">
<circle cx="30" cy="30.5" r="30" fill="#DAF2E5"/>
<g clip-path="url(#clip0_450_8809)">
<path d="M30.3 45.5C30.1 45.5 29.8 45.5 29.6 45.5C28.8 45.4 28.2 44.9 27.7 44.4C27.3 44 26.8 43.6 26.4 43.2C26.3 43.1 26.1 43.1 26 43.1C24.9 43.2 23.9 43.3 22.8 43.3C21.4 43.4 20.3 42.6 20 41.2C19.8 40.4 19.6 39.5 19.4 38.7C19.4 38.6 19.2 38.4 19.1 38.3C18.2 37.7 17.3 37.2 16.3 36.6C15.6 36.2 15.2 35.6 15 34.8V34.7C15 34.4 15 34.2 15 33.9C15.1 33.6 15.2 33.3 15.3 33C15.6 32.2 16 31.4 16.3 30.6C16.3 30.5 16.3 30.3 16.3 30.2C15.9 29.1 15.4 28 15 26.9C15 26.6 15 26.4 15 26.1C15 26.1 15 26.1 15 26C15.2 25.2 15.7 24.6 16.4 24.1C17.1 23.8 17.9 23.3 18.7 22.8C18.9 22.7 19 22.6 19 22.4C19.4 21.4 19.6 20.5 19.9 19.5C20.3 18.3 21.4 17.5 22.7 17.6C23.8 17.7 24.8 17.8 25.9 17.9C26.1 17.9 26.3 17.9 26.4 17.7C26.8 17.3 27.3 17 27.7 16.6C28.2 16.1 28.8 15.6 29.6 15.5C29.8 15.5 30.1 15.5 30.3 15.5C31.1 15.6 31.7 16.1 32.2 16.6C32.6 17 33 17.3 33.4 17.7C33.6 17.9 33.8 17.9 34 17.9C35 17.8 36 17.7 37 17.7C38.5 17.5 39.6 18.3 39.9 19.8C40.1 20.6 40.3 21.5 40.5 22.3C40.5 22.4 40.6 22.6 40.8 22.7C41.7 23.3 42.7 23.8 43.6 24.4C44.3 24.8 44.7 25.4 44.9 26.2C44.9 26.3 44.9 26.3 45 26.4C45 26.7 45 26.9 45 27.2C44.9 27.5 44.8 27.7 44.7 28C44.4 28.8 44 29.7 43.7 30.5C43.6 30.6 43.6 30.8 43.7 31C44.1 32.1 44.6 33.2 45 34.3C45 34.6 45 34.8 45 35.1C45 35.1 45 35.1 45 35.2C44.8 36 44.4 36.6 43.6 37.1C42.7 37.6 41.8 38.2 40.9 38.7C40.8 38.8 40.7 38.9 40.6 39.1C40.4 39.9 40.2 40.7 40 41.5C39.6 43.1 38.5 43.9 36.9 43.7C35.9 43.6 34.9 43.5 34 43.5C33.9 43.5 33.7 43.6 33.6 43.7C33.2 44.1 32.7 44.4 32.3 44.8C31.6 44.9 31 45.4 30.3 45.5ZM23 19.4C22 19.4 21.8 19.5 21.6 20.3C21.3 21.3 20.9 22.3 20.6 23.4C20.5 23.7 20.3 23.9 20 24.1C19.1 24.6 18.2 25.2 17.3 25.7C16.7 26.1 16.6 26.4 16.8 27C17.2 28 17.6 28.9 18 29.9C18.2 30.3 18.2 30.6 18 31C17.6 32 17.2 32.9 16.8 33.9C16.5 34.5 16.7 34.9 17.2 35.2C18.2 35.8 19.3 36.4 20.3 37C20.6 37.2 20.8 37.5 20.9 37.8C21.1 38.7 21.3 39.7 21.6 40.6C21.8 41.4 22.1 41.6 22.9 41.5C24 41.4 25.1 41.3 26.3 41.2C26.7 41.2 27 41.3 27.2 41.5C27.9 42.1 28.6 42.7 29.3 43.3C29.8 43.7 30.2 43.7 30.7 43.3C31.4 42.7 32 42.1 32.7 41.5C33 41.2 33.4 41.1 33.8 41.1C34.9 41.2 36.1 41.3 37.2 41.4C37.9 41.4 38.2 41.2 38.3 40.6C38.5 39.6 38.8 38.7 39 37.7C39.1 37.3 39.3 37.1 39.6 36.9C40.6 36.3 41.6 35.7 42.7 35.1C43.3 34.8 43.4 34.4 43.1 33.8C42.7 32.8 42.3 31.9 41.9 30.9C41.8 30.6 41.8 30.3 41.9 29.9C42.3 28.9 42.7 28 43.1 27C43.4 26.3 43.3 26 42.6 25.6C41.6 25 40.6 24.4 39.6 23.8C39.2 23.7 39 23.5 38.9 23.1C38.7 22.1 38.4 21.1 38.2 20.2C38.1 19.6 37.7 19.4 37.2 19.4C36 19.5 34.7 19.6 33.5 19.7C33.2 19.7 32.9 19.6 32.7 19.4C32 18.8 31.3 18.2 30.6 17.6C30.1 17.1 29.7 17.1 29.2 17.6C28.5 18.2 27.8 18.8 27.2 19.4C26.9 19.6 26.7 19.7 26.3 19.7C25.1 19.6 24 19.5 23 19.4Z" fill="#2DA867"/>
<path d="M29.9 20.7998C35.2 20.7998 39.6 25.0998 39.6 30.4998C39.6 35.7998 35.3 40.1998 29.9 40.1998C24.6 40.1998 20.2 35.7998 20.2 30.4998C20.2 25.1998 24.6 20.7998 29.9 20.7998ZM22 30.4998C22 34.8998 25.5 38.3998 29.9 38.3998C34.3 38.3998 37.7999 34.8998 37.7999 30.4998C37.7999 26.0998 34.3 22.5998 29.9 22.5998C25.6 22.5998 22 26.0998 22 30.4998Z" fill="#2DA867"/>
<path d="M28.9999 31.9002C29.0999 31.8002 29.1999 31.7002 29.2999 31.6002C30.6999 30.2002 32.1999 28.7002 33.5999 27.3002C33.7999 27.1002 34.0999 26.9002 34.4999 27.0002C35.0999 27.1002 35.3999 27.8002 35.0999 28.4002C34.8999 28.5002 34.8999 28.5002 34.7999 28.6002C33.0999 30.3002 31.4999 31.9002 29.7999 33.6002C29.2999 34.1002 28.7999 34.1002 28.2999 33.6002C27.1999 32.5002 26.0999 31.4002 24.9999 30.3002C24.4999 29.8002 24.6999 29.0002 25.2999 28.8002C25.6999 28.7002 25.8999 28.8002 26.1999 29.1002C27.0999 30.0002 27.8999 30.8002 28.7999 31.7002C28.7999 31.7002 28.8999 31.8002 28.9999 31.9002Z" fill="#2DA867"/>
</g>
<defs>
<clipPath id="clip0_450_8809">
<rect width="30" height="30" fill="white" transform="translate(15 15.5)"/>
</clipPath>
</defs>
</svg>
