<svg width="30" height="30" viewBox="0 0 30 30" fill="none" xmlns="http://www.w3.org/2000/svg">
<g clip-path="url(#clip0_209_3717)" fill="white">
<path d="M15.3 30C15.1 30 14.8 30 14.6 30C13.8 29.9 13.2 29.4 12.7 28.9C12.3 28.5 11.8 28.1 11.4 27.7C11.3 27.6 11.1 27.6 11 27.6C9.9 27.7 8.9 27.8 7.8 27.8C6.4 27.9 5.3 27.1 5 25.7C4.8 24.9 4.6 24 4.4 23.2C4.4 23.1 4.2 22.9 4.1 22.8C3.2 22.2 2.3 21.7 1.3 21.1C0.6 20.7 0.2 20.1 0 19.3V19.2C0 18.9 0 18.7 0 18.4C0.1 18.1 0.2 17.8 0.3 17.5C0.6 16.7 1 15.9 1.3 15.1C1.3 15 1.3 14.8 1.3 14.7C0.9 13.6 0.4 12.5 0 11.4C0 11.1 0 10.9 0 10.6C0 10.6 0 10.6 0 10.5C0.2 9.7 0.7 9.1 1.4 8.6C2.1 8.3 2.9 7.8 3.7 7.3C3.9 7.2 4 7.1 4 6.9C4.4 5.9 4.6 5 4.9 4C5.3 2.8 6.4 2 7.7 2.1C8.8 2.2 9.8 2.3 10.9 2.4C11.1 2.4 11.3 2.4 11.4 2.2C11.8 1.8 12.3 1.5 12.7 1.1C13.2 0.6 13.8 0.1 14.6 0C14.8 0 15.1 0 15.3 0C16.1 0.1 16.7 0.6 17.2 1.1C17.6 1.5 18 1.8 18.4 2.2C18.6 2.4 18.8 2.4 19 2.4C20 2.3 21 2.2 22 2.2C23.5 2 24.6 2.8 24.9 4.3C25.1 5.1 25.3 6 25.5 6.8C25.5 6.9 25.6 7.1 25.8 7.2C26.7 7.8 27.7 8.3 28.6 8.9C29.3 9.3 29.7 9.9 29.9 10.7C29.9 10.8 29.9 10.8 30 10.9C30 11.2 30 11.4 30 11.7C29.9 12 29.8 12.2 29.7 12.5C29.4 13.3 29 14.2 28.7 15C28.6 15.1 28.6 15.3 28.7 15.5C29.1 16.6 29.6 17.7 30 18.8C30 19.1 30 19.3 30 19.6C30 19.6 30 19.6 30 19.7C29.8 20.5 29.4 21.1 28.6 21.6C27.7 22.1 26.8 22.7 25.9 23.2C25.8 23.3 25.7 23.4 25.6 23.6C25.4 24.4 25.2 25.2 25 26C24.6 27.6 23.5 28.4 21.9 28.2C20.9 28.1 19.9 28 19 28C18.9 28 18.7 28.1 18.6 28.2C18.2 28.6 17.7 28.9 17.3 29.3C16.6 29.4 16 29.9 15.3 30ZM8 3.9C7 3.9 6.8 4 6.6 4.8C6.3 5.8 5.9 6.8 5.6 7.9C5.5 8.2 5.3 8.4 5 8.6C4.1 9.1 3.2 9.7 2.3 10.2C1.7 10.6 1.6 10.9 1.8 11.5C2.2 12.5 2.6 13.4 3 14.4C3.2 14.8 3.2 15.1 3 15.5C2.6 16.5 2.2 17.4 1.8 18.4C1.5 19 1.7 19.4 2.2 19.7C3.2 20.3 4.3 20.9 5.3 21.5C5.6 21.7 5.8 22 5.9 22.3C6.1 23.2 6.3 24.2 6.6 25.1C6.8 25.9 7.1 26.1 7.9 26C9 25.9 10.1 25.8 11.3 25.7C11.7 25.7 12 25.8 12.2 26C12.9 26.6 13.6 27.2 14.3 27.8C14.8 28.2 15.2 28.2 15.7 27.8C16.4 27.2 17 26.6 17.7 26C18 25.7 18.4 25.6 18.8 25.6C19.9 25.7 21.1 25.8 22.2 25.9C22.9 25.9 23.2 25.7 23.3 25.1C23.5 24.1 23.8 23.2 24 22.2C24.1 21.8 24.3 21.6 24.6 21.4C25.6 20.8 26.6 20.2 27.7 19.6C28.3 19.3 28.4 18.9 28.1 18.3C27.7 17.3 27.3 16.4 26.9 15.4C26.8 15.1 26.8 14.8 26.9 14.4C27.3 13.4 27.7 12.5 28.1 11.5C28.4 10.8 28.3 10.5 27.6 10.1C26.6 9.5 25.6 8.9 24.6 8.3C24.2 8.2 24 8 23.9 7.6C23.7 6.6 23.4 5.6 23.2 4.7C23.1 4.1 22.7 3.9 22.2 3.9C21 4 19.7 4.1 18.5 4.2C18.2 4.2 17.9 4.1 17.7 3.9C17 3.3 16.3 2.7 15.6 2.1C15.1 1.6 14.7 1.6 14.2 2.1C13.5 2.7 12.8 3.3 12.2 3.9C11.9 4.1 11.7 4.2 11.3 4.2C10.1 4.1 9 4 8 3.9Z" fill="#0072BB"/>
<path d="M14.9002 5.2998C20.2002 5.2998 24.6002 9.5998 24.6002 14.9998C24.6002 20.2998 20.3002 24.6998 14.9002 24.6998C9.60019 24.6998 5.2002 20.2998 5.2002 14.9998C5.2002 9.6998 9.60019 5.2998 14.9002 5.2998ZM7.0002 14.9998C7.0002 19.3998 10.5002 22.8998 14.9002 22.8998C19.3002 22.8998 22.8002 19.3998 22.8002 14.9998C22.8002 10.5998 19.3002 7.0998 14.9002 7.0998C10.6002 7.0998 7.0002 10.5998 7.0002 14.9998Z" fill="#0072BB"/>
<path d="M14.0002 16.4002C14.1002 16.3002 14.2002 16.2002 14.3002 16.1002C15.7002 14.7002 17.2002 13.2002 18.6002 11.8002C18.8002 11.6002 19.1002 11.4002 19.5002 11.5002C20.1002 11.6002 20.4002 12.3002 20.1002 12.9002C19.9002 13.0002 19.9002 13.0002 19.8002 13.1002C18.1002 14.8002 16.5002 16.4002 14.8002 18.1002C14.3002 18.6002 13.8002 18.6002 13.3002 18.1002C12.2002 17.0002 11.1002 15.9002 10.0002 14.8002C9.50018 14.3002 9.70018 13.5002 10.3002 13.3002C10.7002 13.2002 10.9002 13.3002 11.2002 13.6002C12.1002 14.5002 12.9002 15.3002 13.8002 16.2002C13.8002 16.2002 13.9002 16.3002 14.0002 16.4002Z" fill="#0072BB"/>
</g>
<defs>
<clipPath id="clip0_209_3717">
<rect width="30" height="30" fill="white"/>
</clipPath>
</defs>
</svg>
