<svg width="74" height="84" viewBox="0 0 74 84" fill="none" xmlns="http://www.w3.org/2000/svg">
<path d="M40.0784 0.166626C40.8191 0.305515 41.5598 0.398107 42.3006 0.629589C49.2913 2.52774 53.3191 7.29626 55.3561 14.0555C56.0506 16.4629 56.0506 18.9629 56.0043 21.4629C56.0043 21.787 56.0969 22.2037 56.3284 22.3888C57.9487 24.1481 58.458 26.1851 57.7173 28.4074C56.9765 30.6759 55.3098 31.9259 52.9487 32.3426C52.8098 32.3426 52.671 32.3888 52.5321 32.4351C52.3469 33.3611 52.208 34.287 51.9302 35.1666C51.0506 37.9907 49.6154 40.4444 47.2543 42.3426C47.0691 42.4814 46.9302 42.8055 46.9302 42.9907C46.8839 44.6574 46.9302 46.2777 46.8839 47.9444C46.8839 48.5463 47.3006 48.6388 47.671 48.824C54.0598 51.6944 60.4487 54.6111 66.8376 57.4351C67.5784 57.7592 67.9024 58.1759 68.0413 58.9629C69.8469 67.1574 71.745 75.3518 73.5506 83.5463C49.1987 83.5463 24.8006 83.5463 0.44873 83.5463C2.30058 75.3518 4.15243 67.1111 5.95799 58.9166C6.14318 58.1296 6.46725 57.7129 7.16169 57.4351C13.5043 54.6111 19.8469 51.7407 26.1895 48.9166C26.8839 48.5926 27.1617 48.2685 27.1154 47.4814C27.0691 45.9537 27.1154 44.3796 27.0691 42.8518C27.0691 42.574 26.9302 42.2037 26.745 42.0185C23.8747 39.7037 22.3006 36.6481 21.6524 33.037C21.6061 32.8981 21.5598 32.7129 21.5135 32.5277C21.2358 32.4814 20.958 32.3888 20.6802 32.3426C18.458 31.8796 16.9765 30.6296 16.2358 28.5C15.5413 26.3703 16.0043 24.3796 17.4395 22.6666C17.7173 22.3426 17.9024 21.8796 17.9024 21.4629C17.9487 19.5648 17.9024 17.6666 17.9024 15.7685C17.9024 12.3426 19.9395 9.74996 23.2265 8.87033C23.5506 8.77774 23.921 8.49996 24.0598 8.22218C26.7913 3.45366 31.0043 1.04626 36.3747 0.444404C36.6061 0.398107 36.8376 0.351811 37.0691 0.259219C38.1339 0.166626 39.1061 0.166626 40.0784 0.166626ZM14.5228 80.2129C14.5228 76.9259 14.5228 73.6388 14.5228 70.3518C15.6339 70.3518 16.6061 70.3518 17.7172 70.3518C17.7172 73.6388 17.7172 76.9259 17.7172 80.2129C21.6987 80.2129 25.5876 80.2129 29.4302 80.1666C29.6154 80.1666 29.9395 79.7963 29.9858 79.5648C30.8654 74.6111 31.6524 69.6574 32.671 64.75C32.995 63.1296 32.1617 62.25 31.3284 61.0926C30.171 62.574 29.1061 64.0092 27.9487 65.4907C26.3747 61.4166 24.8469 57.5277 23.3191 53.5926C23.1339 53.6388 23.0413 53.6388 22.9487 53.6851C18.458 55.7222 13.921 57.7592 9.43021 59.7963C9.15243 59.9351 8.92095 60.3055 8.82836 60.6296C7.57836 66.0926 6.32836 71.5555 5.12466 77.0185C4.89318 78.037 4.70799 79.0555 4.47651 80.1203C7.90243 80.2129 11.1432 80.2129 14.5228 80.2129ZM56.2821 80.2592C56.2821 76.9259 56.2821 73.6851 56.2821 70.3981C57.3932 70.3981 58.4117 70.3981 59.4765 70.3981C59.4765 73.6851 59.4765 76.9722 59.4765 80.2129C62.8561 80.2129 66.1432 80.2129 69.4765 80.2129C69.4765 80.0277 69.4765 79.9351 69.4302 79.8426C67.995 73.4537 66.5598 67.0648 65.0784 60.6759C65.0321 60.3981 64.6617 60.0277 64.3839 59.8888C61.3747 58.5 58.3654 57.1574 55.3561 55.8148C53.7821 55.1203 52.208 54.4259 50.5876 53.6851C49.0598 57.6666 47.5321 61.5555 46.0043 65.5833C44.8469 64.0555 43.7358 62.6203 42.5784 61.1388C42.0228 62.2037 40.958 62.8055 41.1895 64.1944C42.1154 69.3333 43.0413 74.5185 43.9673 79.6574C44.0598 80.1666 44.3376 80.3055 44.8006 80.3055C47.208 80.3055 49.6154 80.3055 52.0228 80.3055C53.3654 80.2592 54.7543 80.2592 56.2821 80.2592ZM29.8006 16.2314C28.4117 18.2222 26.8839 19.9351 24.9858 21.324C24.8006 21.4629 24.708 21.8333 24.708 22.0648C24.708 24.9814 24.6617 27.8518 24.708 30.7685C24.7543 33.6851 25.6802 36.324 27.7635 38.4537C28.921 39.6574 30.3098 40.6759 31.6987 41.6018C34.0598 43.2222 36.6987 43.6388 39.5228 42.9907C41.5598 42.5277 43.1339 41.324 44.7543 40.1203C47.4858 38.1759 48.9673 35.4444 49.245 32.1574C49.4765 29.75 49.3839 27.3426 49.3839 24.9351C49.3839 23.3148 49.708 23.4537 47.8561 23.4074C42.4858 23.2222 37.4395 21.8796 33.0413 18.5926C31.9765 17.8518 30.9117 17.0648 29.8006 16.2314ZM21.2358 19.6574C25.2635 17.8518 27.3006 14.5185 29.1061 10.8611C32.1154 14.2407 35.5413 16.9722 39.708 18.6851C43.8747 20.3518 48.3191 20.3055 52.7173 20.3518C52.9024 17.8518 52.5321 15.5833 51.745 13.3611C49.4765 7.06477 44.1061 3.17589 37.9487 3.45366C32.7173 3.68514 28.6432 5.90737 26.421 10.8611C26.1432 11.5092 25.8191 11.787 25.0784 11.787C22.995 11.8333 21.421 13.1759 21.2821 15.074C21.1432 16.5092 21.2358 17.9907 21.2358 19.6574ZM40.9117 80.2129C40.9117 80.0277 40.9117 79.9351 40.9117 79.7963C39.9395 74.287 38.921 68.7777 37.9487 63.2685C37.9024 62.8518 37.995 62.3426 38.2265 62.0185C38.8284 61 39.5228 60.0277 40.2635 59.0555C40.5413 58.6388 40.5413 58.3611 40.2173 57.9907C39.3839 56.9722 38.5969 55.9074 37.7635 54.8426C37.208 54.1481 36.745 54.1481 36.2358 54.8426C35.4024 55.9074 34.6154 56.9722 33.7821 57.9907C33.458 58.4074 33.458 58.7314 33.7821 59.1481C34.5228 60.1203 35.2173 61.1388 35.8654 62.1574C36.0506 62.4351 36.1432 62.8981 36.0969 63.2222C35.3561 67.6203 34.5228 72.0185 33.7358 76.3703C33.5043 77.6203 33.3191 78.9166 33.0876 80.2129C35.7265 80.2129 38.2728 80.2129 40.9117 80.2129ZM30.3098 44.6574C30.3098 45.6759 30.3561 46.6018 30.3098 47.4814C30.3098 47.9444 30.4487 48.2222 30.9117 48.4074C32.5321 49.2407 34.1524 50.1666 35.8191 50.8611C36.4673 51.1388 37.4858 51.1388 38.1339 50.8611C39.8932 50.1203 41.5135 49.1944 43.1802 48.3148C43.3654 48.2222 43.6432 47.9907 43.6432 47.8055C43.6895 46.8333 43.6432 45.9074 43.6432 44.7963C39.1524 47.1111 34.7543 47.0185 30.3098 44.6574ZM40.6339 53.2685C42.1154 55.2129 43.5506 57.0648 45.0784 59.0555C45.958 56.7407 46.7913 54.5648 47.671 52.2963C46.7913 51.8796 45.958 51.5092 45.171 51.1851C45.0321 51.1388 44.8006 51.1388 44.6617 51.1851C43.3191 51.8796 42.0228 52.574 40.6339 53.2685ZM26.2821 52.2963C27.1617 54.5648 28.0413 56.7407 28.921 59.0555C30.4487 57.0648 31.8376 55.2592 33.3191 53.3148C31.8839 52.574 30.495 51.8796 29.1524 51.1851C29.0135 51.1388 28.7821 51.1388 28.6432 51.2314C27.8561 51.6018 27.1617 51.9259 26.2821 52.2963ZM21.421 29.0555C21.421 28.7314 21.4673 28.4537 21.4673 28.2222C21.4673 26.8333 21.4673 25.4907 21.4673 24.1018C20.2173 24.1018 19.2913 25.074 19.1987 26.324C19.1061 27.6666 19.9395 28.7777 21.421 29.0555ZM52.5784 29.0555C54.0135 28.8703 54.9395 27.7129 54.8006 26.324C54.6617 25.0277 53.6895 24.1018 52.5784 24.1481C52.5784 25.7685 52.5784 27.3888 52.5784 29.0555Z" fill="#0072BB"/>
</svg>
