<svg width="24" height="25" viewBox="0 0 24 25" fill="none" xmlns="http://www.w3.org/2000/svg">
<path d="M7.05694 2.91795L8.22394 2.56619C9.54645 2.16755 10.9594 2.81179 11.5258 4.07161L12.4275 6.07733C12.9102 7.15117 12.6558 8.41317 11.7948 9.21612L10.3005 10.6096C10.2568 10.6503 10.2291 10.7053 10.2225 10.7647C10.1781 11.1618 10.4474 11.9352 11.0676 13.0095C11.5187 13.7908 11.9269 14.3387 12.2744 14.6468C12.5165 14.8615 12.6498 14.9079 12.7065 14.891L14.7169 14.2764C15.8425 13.9323 17.0623 14.3426 17.751 15.2971L19.0317 17.0721C19.8378 18.1893 19.6928 19.7306 18.6926 20.6779L17.8062 21.5173C16.8498 22.4231 15.4882 22.7606 14.2195 22.4065C11.4654 21.6378 8.99608 19.3137 6.78421 15.4826C4.56926 11.6462 3.79207 8.34173 4.50852 5.56994C4.83639 4.30146 5.80252 3.29607 7.05694 2.91795ZM7.48984 4.35413C6.73719 4.581 6.15751 5.18423 5.96079 5.94532C5.35814 8.27684 6.047 11.2057 8.08325 14.7326C10.1168 18.2548 12.3057 20.315 14.6227 20.9617C15.384 21.1742 16.2009 20.9717 16.7748 20.4282L17.6611 19.5888C18.1158 19.1582 18.1817 18.4576 17.8153 17.9498L16.5346 16.1748C16.2215 15.741 15.667 15.5544 15.1554 15.7109L13.1401 16.327C11.9704 16.6757 10.9087 15.7342 9.7686 13.7595C9.00029 12.4288 8.6422 11.4001 8.73177 10.5982C8.77817 10.1827 8.97174 9.79763 9.27746 9.51254L10.7718 8.11909C11.1632 7.75411 11.2788 7.18047 11.0594 6.69237L10.1577 4.68665C9.90026 4.114 9.25798 3.82116 8.65684 4.00236L7.48984 4.35413Z" fill="#212121"/>
</svg>
