<svg width="103" height="100" viewBox="0 0 103 100" fill="none" xmlns="http://www.w3.org/2000/svg">
<path d="M17.1747 97.4277V91.2392H17.9241V93.9951H21.2238V91.2392H21.9732V97.4277H21.2238V94.6598H17.9241V97.4277H17.1747ZM28.695 94.3335C28.695 94.9862 28.5772 95.5502 28.3415 96.0257C28.1058 96.5011 27.7825 96.8677 27.3715 97.1256C26.9605 97.3834 26.4912 97.5123 25.9634 97.5123C25.4356 97.5123 24.9662 97.3834 24.5552 97.1256C24.1443 96.8677 23.821 96.5011 23.5853 96.0257C23.3496 95.5502 23.2317 94.9862 23.2317 94.3335C23.2317 93.6808 23.3496 93.1167 23.5853 92.6413C23.821 92.1659 24.1443 91.7993 24.5552 91.5414C24.9662 91.2836 25.4356 91.1546 25.9634 91.1546C26.4912 91.1546 26.9605 91.2836 27.3715 91.5414C27.7825 91.7993 28.1058 92.1659 28.3415 92.6413C28.5772 93.1167 28.695 93.6808 28.695 94.3335ZM27.9698 94.3335C27.9698 93.7976 27.8802 93.3454 27.7009 92.9767C27.5236 92.6081 27.2829 92.3291 26.9787 92.1397C26.6765 91.9504 26.3381 91.8557 25.9634 91.8557C25.5887 91.8557 25.2492 91.9504 24.945 92.1397C24.6429 92.3291 24.4021 92.6081 24.2229 92.9767C24.0456 93.3454 23.9569 93.7976 23.9569 94.3335C23.9569 94.8693 24.0456 95.3216 24.2229 95.6902C24.4021 96.0589 24.6429 96.3379 24.945 96.5273C25.2492 96.7166 25.5887 96.8113 25.9634 96.8113C26.3381 96.8113 26.6765 96.7166 26.9787 96.5273C27.2829 96.3379 27.5236 96.0589 27.7009 95.6902C27.8802 95.3216 27.9698 94.8693 27.9698 94.3335ZM29.9551 91.2392H30.8495L32.9526 96.3762H33.0251L35.1283 91.2392H36.0227V97.4277H35.3217V92.7259H35.2612L33.3273 97.4277H32.6505L30.7165 92.7259H30.6561V97.4277H29.9551V91.2392ZM37.5252 97.4277V91.2392H41.2601V91.904H38.2746V93.9951H41.0667V94.6598H38.2746V96.763H41.3085V97.4277H37.5252ZM48.3884 92.7864C48.3521 92.4802 48.205 92.2425 47.9472 92.0732C47.6893 91.904 47.3731 91.8194 46.9984 91.8194C46.7244 91.8194 46.4847 91.8637 46.2792 91.9524C46.0757 92.041 45.9166 92.1629 45.8018 92.318C45.6889 92.4731 45.6325 92.6494 45.6325 92.8468C45.6325 93.012 45.6718 93.154 45.7504 93.2729C45.831 93.3897 45.9337 93.4874 46.0586 93.566C46.1835 93.6425 46.3144 93.706 46.4514 93.7563C46.5884 93.8047 46.7143 93.844 46.8291 93.8742L47.4577 94.0434C47.6188 94.0857 47.7981 94.1441 47.9955 94.2187C48.195 94.2932 48.3853 94.3949 48.5666 94.5239C48.75 94.6508 48.901 94.8139 49.0199 95.0134C49.1387 95.2128 49.1982 95.4576 49.1982 95.7477C49.1982 96.0821 49.1105 96.3842 48.9353 96.6542C48.762 96.9241 48.5082 97.1387 48.1738 97.2978C47.8414 97.4569 47.4375 97.5365 46.9621 97.5365C46.5189 97.5365 46.1352 97.465 45.8108 97.322C45.4885 97.1789 45.2347 96.9795 45.0493 96.7237C44.866 96.4678 44.7623 96.1707 44.7381 95.8323H45.5117C45.5318 96.0659 45.6104 96.2593 45.7474 96.4124C45.8864 96.5635 46.0616 96.6763 46.2731 96.7509C46.4867 96.8234 46.7163 96.8596 46.9621 96.8596C47.2482 96.8596 47.505 96.8133 47.7326 96.7207C47.9603 96.626 48.1406 96.495 48.2735 96.3278C48.4065 96.1586 48.473 95.9612 48.473 95.7356C48.473 95.5301 48.4155 95.3629 48.3007 95.234C48.1859 95.105 48.0348 95.0003 47.8475 94.9197C47.6601 94.8391 47.4577 94.7686 47.2401 94.7082L46.4786 94.4906C45.9951 94.3516 45.6124 94.1532 45.3304 93.8953C45.0483 93.6375 44.9073 93.3001 44.9073 92.8831C44.9073 92.5366 45.001 92.2344 45.1883 91.9765C45.3777 91.7167 45.6315 91.5152 45.9498 91.3722C46.2701 91.2272 46.6277 91.1546 47.0225 91.1546C47.4214 91.1546 47.776 91.2261 48.0862 91.3692C48.3964 91.5102 48.6422 91.7036 48.8235 91.9493C49.0068 92.1951 49.1035 92.4741 49.1136 92.7864H48.3884ZM55.6518 94.3335C55.6518 94.9862 55.534 95.5502 55.2983 96.0257C55.0626 96.5011 54.7393 96.8677 54.3283 97.1256C53.9174 97.3834 53.448 97.5123 52.9202 97.5123C52.3924 97.5123 51.923 97.3834 51.5121 97.1256C51.1011 96.8677 50.7778 96.5011 50.5421 96.0257C50.3064 95.5502 50.1885 94.9862 50.1885 94.3335C50.1885 93.6808 50.3064 93.1167 50.5421 92.6413C50.7778 92.1659 51.1011 91.7993 51.5121 91.5414C51.923 91.2836 52.3924 91.1546 52.9202 91.1546C53.448 91.1546 53.9174 91.2836 54.3283 91.5414C54.7393 91.7993 55.0626 92.1659 55.2983 92.6413C55.534 93.1167 55.6518 93.6808 55.6518 94.3335ZM54.9266 94.3335C54.9266 93.7976 54.837 93.3454 54.6577 92.9767C54.4804 92.6081 54.2397 92.3291 53.9355 92.1397C53.6333 91.9504 53.2949 91.8557 52.9202 91.8557C52.5455 91.8557 52.2061 91.9504 51.9019 92.1397C51.5997 92.3291 51.359 92.6081 51.1797 92.9767C51.0024 93.3454 50.9138 93.7976 50.9138 94.3335C50.9138 94.8693 51.0024 95.3216 51.1797 95.6902C51.359 96.0589 51.5997 96.3379 51.9019 96.5273C52.2061 96.7166 52.5455 96.8113 52.9202 96.8113C53.2949 96.8113 53.6333 96.7166 53.9355 96.5273C54.2397 96.3379 54.4804 96.0589 54.6577 95.6902C54.837 95.3216 54.9266 94.8693 54.9266 94.3335ZM56.9119 97.4277V91.2392H57.6613V96.763H60.538V97.4277H56.9119ZM65.7595 91.2392H66.5089V95.3367C66.5089 95.7597 66.4092 96.1375 66.2097 96.4698C66.0123 96.8002 65.7333 97.0611 65.3727 97.2525C65.0121 97.4418 64.5891 97.5365 64.1036 97.5365C63.6181 97.5365 63.1951 97.4418 62.8345 97.2525C62.4739 97.0611 62.1939 96.8002 61.9944 96.4698C61.797 96.1375 61.6983 95.7597 61.6983 95.3367V91.2392H62.4477V95.2763C62.4477 95.5784 62.5142 95.8474 62.6471 96.0831C62.7801 96.3167 62.9694 96.5011 63.2152 96.636C63.463 96.769 63.7591 96.8355 64.1036 96.8355C64.4481 96.8355 64.7442 96.769 64.992 96.636C65.2398 96.5011 65.4291 96.3167 65.5601 96.0831C65.693 95.8474 65.7595 95.5784 65.7595 95.2763V91.2392ZM67.667 91.904V91.2392H72.3083V91.904H70.3623V97.4277H69.613V91.904H67.667ZM74.2143 91.2392V97.4277H73.4649V91.2392H74.2143ZM80.9384 94.3335C80.9384 94.9862 80.8205 95.5502 80.5848 96.0257C80.3492 96.5011 80.0258 96.8677 79.6149 97.1256C79.2039 97.3834 78.7345 97.5123 78.2067 97.5123C77.679 97.5123 77.2096 97.3834 76.7986 97.1256C76.3877 96.8677 76.0643 96.5011 75.8286 96.0257C75.593 95.5502 75.4751 94.9862 75.4751 94.3335C75.4751 93.6808 75.593 93.1167 75.8286 92.6413C76.0643 92.1659 76.3877 91.7993 76.7986 91.5414C77.2096 91.2836 77.679 91.1546 78.2067 91.1546C78.7345 91.1546 79.2039 91.2836 79.6149 91.5414C80.0258 91.7993 80.3492 92.1659 80.5848 92.6413C80.8205 93.1167 80.9384 93.6808 80.9384 94.3335ZM80.2132 94.3335C80.2132 93.7976 80.1235 93.3454 79.9442 92.9767C79.767 92.6081 79.5262 92.3291 79.222 92.1397C78.9199 91.9504 78.5814 91.8557 78.2067 91.8557C77.8321 91.8557 77.4926 91.9504 77.1884 92.1397C76.8863 92.3291 76.6455 92.6081 76.4662 92.9767C76.289 93.3454 76.2003 93.7976 76.2003 94.3335C76.2003 94.8693 76.289 95.3216 76.4662 95.6902C76.6455 96.0589 76.8863 96.3379 77.1884 96.5273C77.4926 96.7166 77.8321 96.8113 78.2067 96.8113C78.5814 96.8113 78.9199 96.7166 79.222 96.5273C79.5262 96.3379 79.767 96.0589 79.9442 95.6902C80.1235 95.3216 80.2132 94.8693 80.2132 94.3335ZM87.1057 91.2392V97.4277H86.3805L83.0083 92.5688H82.9478V97.4277H82.1984V91.2392H82.9237L86.308 96.1103H86.3684V91.2392H87.1057ZM91.9896 92.7864C91.9533 92.4802 91.8063 92.2425 91.5484 92.0732C91.2906 91.904 90.9743 91.8194 90.5996 91.8194C90.3256 91.8194 90.0859 91.8637 89.8804 91.9524C89.677 92.041 89.5178 92.1629 89.403 92.318C89.2902 92.4731 89.2338 92.6494 89.2338 92.8468C89.2338 93.012 89.2731 93.154 89.3516 93.2729C89.4322 93.3897 89.5349 93.4874 89.6598 93.566C89.7847 93.6425 89.9157 93.706 90.0527 93.7563C90.1897 93.8047 90.3156 93.844 90.4304 93.8742L91.0589 94.0434C91.2201 94.0857 91.3994 94.1441 91.5968 94.2187C91.7962 94.2932 91.9866 94.3949 92.1679 94.5239C92.3512 94.6508 92.5023 94.8139 92.6211 95.0134C92.74 95.2128 92.7994 95.4576 92.7994 95.7477C92.7994 96.0821 92.7118 96.3842 92.5365 96.6542C92.3633 96.9241 92.1095 97.1387 91.7751 97.2978C91.4427 97.4569 91.0388 97.5365 90.5633 97.5365C90.1202 97.5365 89.7364 97.465 89.4121 97.322C89.0897 97.1789 88.8359 96.9795 88.6506 96.7237C88.4673 96.4678 88.3635 96.1707 88.3393 95.8323H89.1129C89.1331 96.0659 89.2116 96.2593 89.3486 96.4124C89.4876 96.5635 89.6629 96.6763 89.8744 96.7509C90.0879 96.8234 90.3176 96.8596 90.5633 96.8596C90.8494 96.8596 91.1062 96.8133 91.3339 96.7207C91.5615 96.626 91.7418 96.495 91.8748 96.3278C92.0077 96.1586 92.0742 95.9612 92.0742 95.7356C92.0742 95.5301 92.0168 95.3629 91.902 95.234C91.7871 95.105 91.6361 95.0003 91.4487 94.9197C91.2614 94.8391 91.0589 94.7686 90.8413 94.7082L90.0799 94.4906C89.5964 94.3516 89.2136 94.1532 88.9316 93.8953C88.6496 93.6375 88.5086 93.3001 88.5086 92.8831C88.5086 92.5366 88.6022 92.2344 88.7896 91.9765C88.9789 91.7167 89.2328 91.5152 89.5511 91.3722C89.8714 91.2272 90.2289 91.1546 90.6238 91.1546C91.0226 91.1546 91.3772 91.2261 91.6874 91.3692C91.9977 91.5102 92.2434 91.7036 92.4247 91.9493C92.608 92.1951 92.7047 92.4741 92.7148 92.7864H91.9896Z" fill="#EFB920"/>
<path d="M1.61048 85.9854V74.3472H5.54291C6.45214 74.3472 7.19847 74.5025 7.78189 74.8132C8.36532 75.12 8.7972 75.5424 9.07755 76.0804C9.3579 76.6184 9.49807 77.2302 9.49807 77.9159C9.49807 78.6016 9.3579 79.2097 9.07755 79.7401C8.7972 80.2704 8.36721 80.6872 7.78758 80.9903C7.20794 81.2895 6.4673 81.4392 5.56564 81.4392H2.38333V80.1663H5.52018C6.14149 80.1663 6.64157 80.0753 7.02041 79.8935C7.40305 79.7117 7.67961 79.454 7.85009 79.1206C8.02436 78.7835 8.11149 78.3819 8.11149 77.9159C8.11149 77.4499 8.02436 77.0427 7.85009 76.6941C7.67582 76.3456 7.39736 76.0766 7.01473 75.8872C6.63209 75.694 6.12633 75.5974 5.49745 75.5974H3.01979V85.9854H1.61048ZM7.0886 80.7573L9.95269 85.9854H8.31607L5.49745 80.7573H7.0886ZM11.8464 85.9854V74.3472H18.8703V75.5974H13.2558V79.5298H18.5066V80.78H13.2558V84.7352H18.9612V85.9854H11.8464ZM21.8878 85.9854H20.4103L24.6837 74.3472H26.1384L30.4118 85.9854H28.9343L25.4565 76.1884H25.3656L21.8878 85.9854ZM22.4333 81.4392H28.3888V82.6894H22.4333V81.4392ZM32.2246 85.9854V74.3472H33.6339V84.7352H39.0438V85.9854H32.2246ZM45.7267 85.9854V74.3472H52.7505V75.5974H47.136V79.5298H52.3868V80.78H47.136V84.7352H52.8414V85.9854H45.7267ZM61.6553 77.2567C61.5871 76.6809 61.3106 76.2338 60.8256 75.9156C60.3407 75.5974 59.7459 75.4383 59.0413 75.4383C58.526 75.4383 58.0752 75.5216 57.6888 75.6883C57.3062 75.855 57.0069 76.0842 56.7909 76.3759C56.5788 76.6676 56.4727 76.9991 56.4727 77.3704C56.4727 77.681 56.5466 77.9481 56.6943 78.1716C56.8459 78.3914 57.0391 78.5751 57.274 78.7229C57.5088 78.8668 57.7551 78.9862 58.0127 79.0809C58.2703 79.1718 58.5071 79.2457 58.723 79.3025L59.905 79.6207C60.2081 79.7003 60.5453 79.8102 60.9166 79.9503C61.2916 80.0905 61.6496 80.2818 61.9906 80.5243C62.3353 80.7629 62.6195 81.0698 62.843 81.4449C63.0665 81.8199 63.1783 82.2802 63.1783 82.8258C63.1783 83.4547 63.0135 84.0229 62.6839 84.5306C62.3581 85.0382 61.8807 85.4417 61.2518 85.741C60.6267 86.0403 59.8672 86.1899 58.9731 86.1899C58.1396 86.1899 57.4179 86.0554 56.808 85.7865C56.2018 85.5175 55.7245 85.1424 55.3759 84.6613C55.0312 84.1801 54.8361 83.6213 54.7906 82.9849H56.2454C56.2833 83.4243 56.431 83.788 56.6886 84.076C56.95 84.3601 57.2796 84.5723 57.6774 84.7124C58.079 84.8488 58.5109 84.917 58.9731 84.917C59.511 84.917 59.9941 84.8299 60.4222 84.6556C60.8503 84.4775 61.1893 84.2313 61.4394 83.9168C61.6894 83.5986 61.8144 83.2273 61.8144 82.803C61.8144 82.4166 61.7065 82.1022 61.4905 81.8597C61.2746 81.6172 60.9904 81.4202 60.6381 81.2687C60.2858 81.1172 59.905 80.9846 59.4959 80.8709L58.0638 80.4618C57.1546 80.2004 56.4348 79.8272 55.9044 79.3423C55.374 78.8574 55.1088 78.2228 55.1088 77.4386C55.1088 76.787 55.285 76.2187 55.6373 75.7338C55.9934 75.245 56.4708 74.8662 57.0694 74.5972C57.6717 74.3245 58.3442 74.1881 59.0867 74.1881C59.8368 74.1881 60.5036 74.3226 61.087 74.5915C61.6705 74.8567 62.1327 75.2204 62.4736 75.6826C62.8184 76.1448 63.0002 76.6695 63.0192 77.2567H61.6553ZM64.8589 75.5974V74.3472H73.5876V75.5974H69.9279V85.9854H68.5186V75.5974H64.8589ZM74.8804 85.9854H73.4029L77.6763 74.3472H79.131L83.4044 85.9854H81.9269L78.4491 76.1884H78.3582L74.8804 85.9854ZM75.4259 81.4392H81.3814V82.6894H75.4259V81.4392ZM83.2212 75.5974V74.3472H91.9498V75.5974H88.2901V85.9854H86.8808V75.5974H83.2212ZM94.1248 85.9854V74.3472H101.149V75.5974H95.5341V79.5298H100.785V80.78H95.5341V84.7352H101.24V85.9854H94.1248Z" fill="#041C28"/>
<path d="M46.1505 40.5686L49.8311 37.8793V68.0506H46.1505V40.5686ZM70.122 31.8366V17.4936L46.1505 0V31.408L42.0577 34.3917V17.5034L14.9028 37.3199V68.0735H18.5867V39.1913L38.3836 24.7469V37.0876L26.6448 45.6561V68.0506H42.0642V43.5655L38.3836 46.2515V64.3831H30.3189V47.5275L49.8311 33.2892V7.24346L66.4381 19.365V29.18L55.0298 20.8372V68.0506H58.7104V28.0807L84.1967 46.6768V64.3831H70.1285V41.0136L66.4446 38.3275V68.0506H87.8839V44.8218L70.122 31.8366Z" fill="#EFB920"/>
</svg>
