<svg width="140" height="101" viewBox="0 0 140 101" fill="none" xmlns="http://www.w3.org/2000/svg">
<path d="M87.7203 48.1807L79.1169 42.002H70.7554L79.3587 48.1807H87.7203Z" fill="#CCCCCC"/>
<path d="M93.0033 57.9707H101.365L92.7473 51.792H84.3857L93.0033 57.9707Z" fill="#CCCCCC"/>
<path d="M106.641 67.7689H115.002L106.392 61.583H98.0303L106.641 67.7689Z" fill="#CCCCCC"/>
<path d="M120.029 71.3809H111.667L120.278 77.5596H128.639L120.029 71.3809Z" fill="#CCCCCC"/>
<path d="M38.5605 60.6018V28.4993L63.24 8.88233V23.3942H61.6331V26.9493H63.503V28.9686C62.9189 29.0909 62.3814 29.3763 61.9528 29.7917C61.5243 30.2071 61.2223 30.7355 61.0818 31.3156C60.9414 31.8957 60.9682 32.5037 61.1593 33.0691C61.3503 33.6345 61.6977 34.1342 62.1612 34.5102C62.6247 34.8862 63.1853 35.1231 63.778 35.1934C64.3707 35.2638 64.9711 35.1647 65.5098 34.9076C66.0484 34.6506 66.5031 34.2461 66.8212 33.7411C67.1393 33.2361 67.3078 32.6513 67.307 32.0544H66.02C66.0144 32.4233 65.8998 32.7823 65.6907 33.0862C65.4815 33.3901 65.1871 33.6253 64.8445 33.7623C64.502 33.8993 64.1265 33.9319 63.7655 33.8559C63.4045 33.78 63.074 33.599 62.8156 33.3357C62.5572 33.0724 62.3825 32.7385 62.3134 32.3761C62.2443 32.0137 62.284 31.6389 62.4274 31.299C62.5708 30.9591 62.8116 30.6692 63.1194 30.4658C63.4272 30.2624 63.7882 30.1547 64.1572 30.156H64.7971V26.9138H66.6671V23.3587H65.0602V7.42475L68.793 4.45269V0.0585938L38.5605 24.0555V17.3861L36.5128 18.9361V25.6553L34.8135 27.0062V20.2231L29.8363 23.963V30.9808L26.6296 33.5476V26.4018L11.6982 37.6786V55.8664L26.6296 43.9782V37.9701L29.8577 35.4033V66.8517L14.9476 77.5596H25.0512L64.4558 49.2682L103.868 77.5596H113.992L64.47 42.0087L38.5605 60.6018ZM19.5194 45.6704L14.5992 49.5739V43.58L19.5266 39.8756L19.5194 45.6704ZM34.8135 31.4501L36.5128 30.0991V62.0736L34.8135 63.2895V31.4501Z" fill="#CCCCCC"/>
<path d="M63.3608 60.7725H58.1846V67.7049H63.3608V60.7725Z" fill="#CCCCCC"/>
<path d="M70.7558 60.7725H65.5796V67.7049H70.7558V60.7725Z" fill="#CCCCCC"/>
<path d="M63.3608 70.4492H58.1846V77.3816H63.3608V70.4492Z" fill="#CCCCCC"/>
<path d="M70.7558 70.4492H65.5796V77.3816H70.7558V70.4492Z" fill="#CCCCCC"/>
<path d="M17.0596 55.8667H26.6299V48.2588L17.0596 55.8667Z" fill="#CCCCCC"/>
<path d="M7.55419 100.14C6.17999 100.14 5.01636 99.8739 4.06329 99.342C3.11022 98.799 2.39542 98.0842 1.91888 97.1976C1.45343 96.2999 1.22071 95.3247 1.22071 94.2719C1.22071 93.2302 1.46451 92.266 1.95213 91.3794C2.45083 90.4928 3.1878 89.7836 4.16303 89.2516C5.13827 88.7197 6.31298 88.4537 7.68717 88.4537C8.97271 88.4537 10.1031 88.7031 11.0783 89.2018L10.4799 91.2963C10.0698 91.0857 9.64318 90.9195 9.1999 90.7976C8.75661 90.6646 8.25237 90.5981 7.68717 90.5981C6.96683 90.5981 6.34069 90.7644 5.80874 91.0968C5.28788 91.4182 4.88892 91.8615 4.61186 92.4267C4.34589 92.9808 4.2129 93.6014 4.2129 94.2885C4.2129 95.3746 4.50104 96.2667 5.07731 96.9649C5.65359 97.652 6.47921 97.9955 7.55419 97.9955C8.47401 97.9955 9.46587 97.7683 10.5298 97.3139L11.095 99.3586C10.6406 99.5913 10.0976 99.7797 9.46587 99.9238C8.83418 100.068 8.19696 100.14 7.55419 100.14ZM18.6858 100.14C17.3892 100.14 16.2755 99.8795 15.3445 99.3586C14.4247 98.8267 13.7265 98.1174 13.25 97.2308C12.7846 96.3443 12.5518 95.3635 12.5518 94.2885C12.5518 93.2135 12.7846 92.2328 13.25 91.3462C13.7265 90.4596 14.4247 89.7559 15.3445 89.235C16.2755 88.7142 17.3892 88.4537 18.6858 88.4537C19.9825 88.4537 21.0907 88.7197 22.0105 89.2516C22.9414 89.7725 23.6396 90.4762 24.105 91.3628C24.5816 92.2383 24.8198 93.2135 24.8198 94.2885C24.8198 95.3746 24.5816 96.3609 24.105 97.2475C23.6396 98.134 22.9414 98.8377 22.0105 99.3586C21.0907 99.8795 19.9825 100.14 18.6858 100.14ZM18.6858 97.9955C19.3397 97.9955 19.8993 97.8348 20.3648 97.5134C20.8413 97.192 21.2015 96.7543 21.4453 96.2002C21.7002 95.635 21.8276 94.9978 21.8276 94.2885C21.8276 93.2135 21.545 92.3325 20.9798 91.6454C20.4257 90.9472 19.6611 90.5981 18.6858 90.5981C17.7106 90.5981 16.9404 90.9472 16.3752 91.6454C15.8211 92.3325 15.544 93.2135 15.544 94.2885C15.544 94.9978 15.6659 95.635 15.9097 96.2002C16.1646 96.7543 16.5248 97.192 16.9903 97.5134C17.4668 97.8348 18.032 97.9955 18.6858 97.9955ZM37.6884 88.6366V99.9404L34.9954 99.9571L29.8422 92.8755L30.0583 96.5493V99.9404H27.0661V88.6366H29.759L34.9123 95.6682L34.6962 92.0444V88.6366H37.6884ZM43.7282 100.14C42.9968 100.14 42.2875 100.073 41.6004 99.9404C40.9133 99.7964 40.3204 99.6024 39.8217 99.3586L40.3869 97.3139C41.0075 97.5467 41.5783 97.7184 42.0991 97.8293C42.62 97.9401 43.1519 97.9955 43.695 97.9955C44.2934 97.9955 44.7921 97.9013 45.1911 97.7129C45.6011 97.5134 45.8061 97.2197 45.8061 96.8319C45.8061 96.577 45.7119 96.3553 45.5235 96.1669C45.3351 95.9785 45.0969 95.8178 44.8087 95.6849C44.5206 95.5519 44.1161 95.3912 43.5952 95.2028C42.8749 94.9368 42.282 94.6875 41.8165 94.4547C41.3621 94.222 40.9687 93.9006 40.6363 93.4906C40.3149 93.0805 40.1542 92.5708 40.1542 91.9612C40.1542 90.8641 40.5809 90.0052 41.4342 89.3846C42.2875 88.764 43.4456 88.4537 44.9085 88.4537C45.4847 88.4537 46.0665 88.5202 46.6539 88.6532C47.2523 88.7862 47.7787 88.969 48.2331 89.2018L47.6513 91.2298C47.1637 91.0193 46.7093 90.8641 46.2882 90.7644C45.8671 90.6535 45.4404 90.5981 45.0082 90.5981C44.4319 90.5981 43.9665 90.7034 43.6118 90.914C43.2572 91.1135 43.0799 91.396 43.0799 91.7618C43.0799 92.0721 43.2461 92.327 43.5786 92.5264C43.9111 92.7259 44.4375 92.9586 45.1578 93.2246C45.8892 93.5017 46.4932 93.7676 46.9697 94.0225C47.4574 94.2663 47.8729 94.6043 48.2165 95.0366C48.56 95.4688 48.7318 96.0007 48.7318 96.6324C48.7318 97.7406 48.3052 98.605 47.4518 99.2256C46.5985 99.8351 45.3573 100.14 43.7282 100.14ZM58.8763 90.7477H55.801V99.9404H52.8088V90.7477H49.7335V88.6366H58.8763V90.7477ZM65.2903 95.7846H63.6945V99.9404H60.7023V88.6366H65.2238C66.8418 88.6366 68.0221 88.9136 68.7646 89.4677C69.5071 90.0108 69.8784 90.8696 69.8784 92.0444C69.8784 93.5737 69.3187 94.5988 68.1994 95.1197L71.3745 99.9404H67.9168L65.2903 95.7846ZM63.6945 93.7067H65.2238C65.8112 93.7067 66.2323 93.5848 66.4872 93.341C66.7532 93.0972 66.8862 92.7204 66.8862 92.2106C66.8862 91.6786 66.7587 91.2963 66.5038 91.0636C66.2489 90.8309 65.8223 90.7145 65.2238 90.7145H63.6945V93.7067ZM78.1931 100.14C76.4643 100.14 75.1455 99.7243 74.2368 98.8932C73.328 98.0509 72.8737 96.8928 72.8737 95.4189V88.6366H75.8659V95.4023C75.8659 96.311 76.0598 96.9704 76.4477 97.3804C76.8466 97.7905 77.4285 97.9955 78.1931 97.9955C78.9467 97.9955 79.5175 97.7905 79.9053 97.3804C80.3043 96.9704 80.5038 96.311 80.5038 95.4023V88.6366H83.496V95.3856C83.496 96.8707 83.0416 98.0343 82.1329 98.8765C81.2241 99.7188 79.9109 100.14 78.1931 100.14ZM91.9045 100.14C90.5303 100.14 89.3667 99.8739 88.4136 99.342C87.4605 98.799 86.7457 98.0842 86.2692 97.1976C85.8038 96.2999 85.571 95.3247 85.571 94.2719C85.571 93.2302 85.8148 92.266 86.3024 91.3794C86.8011 90.4928 87.5381 89.7836 88.5134 89.2516C89.4886 88.7197 90.6633 88.4537 92.0375 88.4537C93.323 88.4537 94.4534 88.7031 95.4286 89.2018L94.8302 91.2963C94.4202 91.0857 93.9935 90.9195 93.5502 90.7976C93.1069 90.6646 92.6027 90.5981 92.0375 90.5981C91.3171 90.5981 90.691 90.7644 90.1591 91.0968C89.6382 91.4182 89.2392 91.8615 88.9622 92.4267C88.6962 92.9808 88.5632 93.6014 88.5632 94.2885C88.5632 95.3746 88.8514 96.2667 89.4276 96.9649C90.0039 97.652 90.8295 97.9955 91.9045 97.9955C92.8243 97.9955 93.8162 97.7683 94.8801 97.3139L95.4453 99.3586C94.9909 99.5913 94.4479 99.7797 93.8162 99.9238C93.1845 100.068 92.5473 100.14 91.9045 100.14ZM105.629 90.7477H102.554V99.9404H99.5619V90.7477H96.4866V88.6366H105.629V90.7477ZM107.455 88.6366H110.448V99.9404H107.455V88.6366ZM118.832 100.14C117.535 100.14 116.421 99.8795 115.49 99.3586C114.57 98.8267 113.872 98.1174 113.396 97.2308C112.93 96.3443 112.698 95.3635 112.698 94.2885C112.698 93.2135 112.93 92.2328 113.396 91.3462C113.872 90.4596 114.57 89.7559 115.49 89.235C116.421 88.7142 117.535 88.4537 118.832 88.4537C120.128 88.4537 121.236 88.7197 122.156 89.2516C123.087 89.7725 123.785 90.4762 124.251 91.3628C124.727 92.2383 124.966 93.2135 124.966 94.2885C124.966 95.3746 124.727 96.3609 124.251 97.2475C123.785 98.134 123.087 98.8377 122.156 99.3586C121.236 99.8795 120.128 100.14 118.832 100.14ZM118.832 97.9955C119.485 97.9955 120.045 97.8348 120.51 97.5134C120.987 97.192 121.347 96.7543 121.591 96.2002C121.846 95.635 121.973 94.9978 121.973 94.2885C121.973 93.2135 121.691 92.3325 121.126 91.6454C120.571 90.9472 119.807 90.5981 118.832 90.5981C117.856 90.5981 117.086 90.9472 116.521 91.6454C115.967 92.3325 115.69 93.2135 115.69 94.2885C115.69 94.9978 115.812 95.635 116.055 96.2002C116.31 96.7543 116.671 97.192 117.136 97.5134C117.613 97.8348 118.178 97.9955 118.832 97.9955ZM137.834 88.6366V99.9404L135.141 99.9571L129.988 92.8755L130.204 96.5493V99.9404H127.212V88.6366H129.905L135.058 95.6682L134.842 92.0444V88.6366H137.834Z" fill="#CCCCCC"/>
</svg>
