<svg width="123" height="100" viewBox="0 0 123 100" fill="none" xmlns="http://www.w3.org/2000/svg">
<path d="M83.1854 70.4146C88.7105 71.1731 94.1792 72.2969 99.5557 73.7785V48.6943H77.5923L83.1854 56.3766V70.4146Z" fill="#FFFDFB"/>
<path d="M40.0101 56.3761L45.6069 48.6865H23.6509V73.7707C29.024 72.2924 34.489 71.1711 40.0101 70.4141V56.3761Z" fill="#FFFDFB"/>
<path d="M42.8032 12.9028L44.8334 11.9043L42.8032 12.9028Z" fill="#CCCCCC"/>
<path d="M47.1729 16.2152L45.9055 16.8415C45.7433 16.9207 45.5727 16.9812 45.397 17.0221L44.8369 15.8799C44.6641 15.9195 44.4874 15.9393 44.3101 15.9388L49.5789 26.6424H52.3239L47.1729 16.2152Z" fill="#CCCCCC"/>
<path d="M48.1753 14.229L48.7353 15.3712C48.5959 15.4862 48.4438 15.5851 48.2821 15.666L47.1768 16.2113L52.3093 26.6421H54.45L54.8185 26.1521L48.6653 13.6689C48.5337 13.8812 48.3682 14.0704 48.1753 14.229Z" fill="#CCCCCC"/>
<path d="M45.3307 15.7033C45.1682 15.7807 44.9977 15.84 44.8223 15.8802L45.3823 17.0224C45.5631 16.9826 45.7387 16.922 45.9055 16.8418L47.173 16.2154L46.6129 15.0732L45.3307 15.7033Z" fill="#CCCCCC"/>
<path d="M48.7353 15.3717L48.1753 14.2295C48.0368 14.3459 47.8846 14.4449 47.7221 14.5243L46.6167 15.0696L47.1767 16.2118L48.2821 15.6665C48.4438 15.5856 48.5958 15.4867 48.7353 15.3717Z" fill="#CCCCCC"/>
<path d="M36.8637 9.52947L34.8506 10.5205L36.1069 13.0725L38.12 12.0815L36.8637 9.52947Z" fill="#CCCCCC"/>
<path d="M44.7299 11.2486L46.9406 10.1617L47.2169 10.7291L48.2118 10.2427L50.3562 9.18529L48.7423 5.8987L48.3444 5.09547L48.2965 4.99231L48.0386 4.47279L47.5264 3.43375C47.4012 3.18321 47.2869 2.9474 47.1838 2.73738L46.9996 2.36893L46.8227 2.00048L46.6422 1.65413L46.5685 1.47727V1.44043L35.5518 6.86404L36.8634 9.53532L37.9356 9.00475L39.1921 11.5581L38.1199 12.085L39.3579 14.6015L42.8029 12.8993L42.5229 12.3356L44.7299 11.2486Z" fill="#CCCCCC"/>
<path d="M45.01 11.8155L44.73 11.248L42.5229 12.3387L42.803 12.9024L44.8331 11.9039L45.01 11.8155Z" fill="#CCCCCC"/>
<path d="M46.9411 10.161L44.7329 11.248L45.0112 11.8133L47.2194 10.7263L46.9411 10.161Z" fill="#CCCCCC"/>
<path d="M37.9376 9.00237L36.8633 9.53125L38.1196 12.0832L39.1939 11.5544L37.9376 9.00237Z" fill="#CCCCCC"/>
<path d="M33.3784 11.249L34.8522 10.512L34.3806 9.58355C34.157 9.12988 33.7625 8.78349 33.2838 8.62045C32.805 8.45741 32.2811 8.49106 31.8272 8.714L29.6938 9.75672L33.5 17.4942L35.6443 16.4368C36.098 16.2132 36.4444 15.8187 36.6074 15.34C36.7705 14.8612 36.7368 14.3373 36.5139 13.8834L36.1196 13.0802L34.6458 13.8171L33.3784 11.249Z" fill="#CCCCCC"/>
<path d="M34.8518 10.5213L33.3774 11.2471L34.6337 13.7991L36.1081 13.0733L34.8518 10.5213Z" fill="#CCCCCC"/>
<path d="M46.6422 1.65373L46.8154 2.00376L46.9923 2.37221L47.1765 2.74066L47.5191 3.43703L48.0313 4.47975L48.2892 4.99927L48.3371 5.10244L48.7424 5.89829L49.1109 6.66836C53.4033 4.55344 55.8056 6.49518 55.8056 6.49518L57.5926 5.61458C53.7865 -2.12291 46.5391 1.44739 46.5391 1.44739V1.48424L46.6422 1.65373Z" fill="#CCCCCC"/>
<path d="M47.5267 3.43368L47.1841 2.7373C47.2872 2.95101 47.4015 3.18313 47.5267 3.43368Z" fill="#CCCCCC"/>
<path d="M41.7642 13.7359L42.221 14.6386C42.4131 15.0281 42.7101 15.3561 43.0785 15.5859C43.447 15.8157 43.8723 15.9381 44.3065 15.9393L42.9395 13.1611L41.7642 13.7359Z" fill="#CCCCCC"/>
<path d="M48.21 10.2384L47.2183 10.7266L47.3452 10.9844L48.3369 10.4962L48.21 10.2384Z" fill="#CCCCCC"/>
<path d="M42.8003 12.9008L41.6367 13.4736L41.7636 13.7315L42.9272 13.1587L42.8003 12.9008Z" fill="#CCCCCC"/>
<path d="M48.6652 13.6697C48.8762 13.3332 48.9977 12.9485 49.0183 12.552C49.039 12.1554 48.958 11.7602 48.7832 11.4037L48.3373 10.501L47.3462 10.9873L48.6652 13.6697Z" fill="#CCCCCC"/>
<path d="M45.1355 12.0743L45.0102 11.8164L44.8334 11.9048L42.8032 12.9033L42.9285 13.1613L45.1355 12.0743Z" fill="#CCCCCC"/>
<path d="M44.0632 14.3107L45.8244 13.4449L45.1502 12.0742L42.9395 13.1796L44.3064 15.9577C44.4837 15.9581 44.6605 15.9384 44.8333 15.8988L44.0632 14.3107Z" fill="#CCCCCC"/>
<path d="M47.2194 10.7264L45.0112 11.8135L45.1382 12.0713L47.3464 10.9843L47.2194 10.7264Z" fill="#CCCCCC"/>
<path d="M45.1357 12.0742L45.81 13.4449L47.4017 12.6601L48.1755 14.2297C48.3684 14.0711 48.5339 13.8819 48.6655 13.6696L47.3465 10.9873L45.1357 12.0742Z" fill="#CCCCCC"/>
<path d="M46.6132 15.0692L45.8099 13.4443L44.0635 14.3102L44.8372 15.8798C45.0127 15.8397 45.1832 15.7804 45.3457 15.7029L46.6132 15.0692Z" fill="#CCCCCC"/>
<path d="M47.7218 14.5245C47.8844 14.4452 48.0366 14.3462 48.175 14.2298L47.4013 12.6602L45.8096 13.445L46.6128 15.0698L47.7218 14.5245Z" fill="#CCCCCC"/>
<path d="M47.2173 10.7285L48.2121 10.2422L47.2173 10.7285Z" fill="#CCCCCC"/>
<path d="M44.8335 11.9048L45.0104 11.8164L44.8335 11.9048Z" fill="#CCCCCC"/>
<path d="M47.2173 10.7295L45.0103 11.8164L47.2173 10.7295Z" fill="#CCCCCC"/>
<path d="M29.6934 9.75586L29.4944 9.85166C29.2606 9.96401 29.0524 10.1233 28.8828 10.3196C29.0496 10.1258 29.2539 9.96789 29.4834 9.85534L29.6934 9.75586Z" fill="#CCCCCC"/>
<path d="M33.4885 17.4902L33.2896 17.586L33.4885 17.4902Z" fill="#CCCCCC"/>
<path d="M29.4838 9.85166C29.254 9.96528 29.0496 10.1245 28.8832 10.3196C28.8023 10.4117 28.7307 10.5117 28.6695 10.618C28.5475 10.8318 28.4675 11.0669 28.4337 11.3107C28.3799 11.689 28.4429 12.0746 28.6143 12.4161L30.7329 16.7233C30.8436 16.9484 30.9975 17.1495 31.186 17.315C31.3744 17.4806 31.5937 17.6074 31.8312 17.6881C32.0686 17.7689 32.3197 17.802 32.57 17.7857C32.8203 17.7693 33.065 17.7038 33.2899 17.5928L33.4889 17.497L29.6938 9.75586L29.4838 9.85166Z" fill="#CCCCCC"/>
<path d="M70.0835 26.6425L78.4805 10.4969C78.5862 10.2975 78.7288 10.12 78.9005 9.97369C79.0689 9.83714 79.2613 9.7334 79.468 9.66787C79.6759 9.60088 79.8951 9.57583 80.1128 9.59418C80.3365 9.61271 80.5544 9.67532 80.7539 9.77841C80.9556 9.8804 81.1339 10.0235 81.2771 10.1984C81.4863 10.4526 81.6167 10.7625 81.652 11.0898C81.6874 11.4172 81.6262 11.7477 81.476 12.0407L73.8859 26.6314H75.4887L81.8961 14.314C83.241 14.3516 84.5693 14.0099 85.7291 13.3278C86.8889 12.6458 87.8332 11.651 88.4541 10.4573C89.0749 9.26368 89.3472 7.91937 89.2398 6.5782C89.1323 5.23704 88.6495 3.95321 87.8466 2.87362L85.599 7.19924C85.4052 7.56539 85.0753 7.84081 84.6805 7.96623C84.2857 8.09164 83.8574 8.05702 83.4878 7.86983L80.776 6.45866C80.5921 6.36339 80.4288 6.23276 80.2955 6.07424C80.1622 5.91573 80.0615 5.73245 79.9992 5.53493C79.9369 5.33741 79.9142 5.12953 79.9324 4.92322C79.9506 4.71691 80.0094 4.51623 80.1054 4.33269L82.3345 0.00337798C80.9868 -0.0380205 79.6549 0.301806 78.4917 0.983776C77.3286 1.66575 76.3816 2.66216 75.7596 3.85843C75.1376 5.0547 74.8659 6.40224 74.9757 7.74607C75.0855 9.0899 75.5724 10.3754 76.3803 11.4549L68.5986 26.4214L68.7571 26.6425H70.0835Z" fill="#CCCCCC"/>
<path d="M71.6602 26.6425H73.8819L81.472 12.0518L71.6602 26.6425Z" fill="#CCCCCC"/>
<path d="M81.4723 12.052C81.6225 11.759 81.6837 11.4284 81.6483 11.1011C81.613 10.7737 81.4826 10.4639 81.2734 10.2097C81.1312 10.0351 80.9543 9.89209 80.7539 9.78967C80.5544 9.68658 80.3365 9.62397 80.1128 9.60544C79.8951 9.58709 79.6759 9.61214 79.468 9.67913C79.2614 9.74466 79.0689 9.8484 78.9006 9.98495C78.7288 10.1313 78.5862 10.3088 78.4805 10.5081L70.0835 26.6427H71.6605L81.4723 12.052Z" fill="#CCCCCC"/>
<path d="M90.6063 27.9248H32.6009L22.1074 51.2773H101.103L90.6063 27.9248Z" fill="#CCCCCC"/>
<path d="M92.636 61.6267L61.605 18.9932L30.5703 61.6267H92.636Z" fill="#CCCCCC"/>
<path d="M77.5923 48.6941L61.6089 26.7344L45.6218 48.6941L40.0103 56.3763V70.4144C54.3302 68.4345 68.8544 68.4345 83.1744 70.4144V56.3763L77.5923 48.6941Z" fill="#FFFDFB"/>
<path d="M60.5037 46.041H54.3911V53.6201H60.5037V46.041Z" fill="#CCCCCC"/>
<path d="M68.8157 46.041H62.7031V53.6201H68.8157V46.041Z" fill="#CCCCCC"/>
<path d="M60.5037 55.0908H54.3911V62.6699H60.5037V55.0908Z" fill="#CCCCCC"/>
<path d="M68.8157 55.0908H62.7031V62.6699H68.8157V55.0908Z" fill="#CCCCCC"/>
<path d="M122.621 87.7869C110.83 78.4356 87.9274 72.0908 61.6052 72.0908C35.283 72.0908 12.3764 78.4356 0.585938 87.7869C16.9378 81.6485 38.2712 77.9345 61.6052 77.9345C84.9393 77.9345 106.269 81.6485 122.621 87.7869Z" fill="#CCCCCC"/>
<path d="M30.8652 87.5336C30.8652 87.0084 30.9703 86.5407 31.1804 86.1305C31.3955 85.7204 31.7006 85.4027 32.0958 85.1776C32.4909 84.9475 32.9561 84.8325 33.4914 84.8325C33.9516 84.8325 34.3617 84.92 34.7219 85.0951C35.087 85.2652 35.3822 85.5078 35.6073 85.8229C35.8374 86.138 35.9899 86.5057 36.065 86.9259H34.3092C34.2292 86.7508 34.1141 86.6157 33.9641 86.5207C33.819 86.4207 33.6514 86.3706 33.4613 86.3706C33.1812 86.3706 32.9586 86.4757 32.7936 86.6858C32.6335 86.8959 32.5535 87.1785 32.5535 87.5336C32.5535 87.8888 32.6335 88.1714 32.7936 88.3815C32.9586 88.5916 33.1812 88.6966 33.4613 88.6966C33.6514 88.6966 33.819 88.6491 33.9641 88.5541C34.1141 88.454 34.2292 88.3165 34.3092 88.1414H36.065C35.9899 88.5616 35.8374 88.9292 35.6073 89.2444C35.3822 89.5595 35.087 89.8046 34.7219 89.9797C34.3617 90.1497 33.9516 90.2348 33.4914 90.2348C32.9561 90.2348 32.4909 90.1222 32.0958 89.8971C31.7006 89.667 31.3955 89.3469 31.1804 88.9367C30.9703 88.5266 30.8652 88.0589 30.8652 87.5336ZM39.2533 90.2498C38.7531 90.2498 38.2929 90.1322 37.8727 89.8971C37.4575 89.662 37.1274 89.3369 36.8823 88.9217C36.6372 88.5065 36.5146 88.0388 36.5146 87.5186C36.5146 86.9984 36.6372 86.5307 36.8823 86.1155C37.1274 85.7003 37.4575 85.3777 37.8727 85.1476C38.2929 84.9125 38.7531 84.795 39.2533 84.795C39.7535 84.795 40.2112 84.9125 40.6264 85.1476C41.0416 85.3777 41.3692 85.7003 41.6093 86.1155C41.8544 86.5307 41.977 86.9984 41.977 87.5186C41.977 88.0388 41.8544 88.5065 41.6093 88.9217C41.3692 89.3369 41.0391 89.662 40.6189 89.8971C40.2037 90.1322 39.7485 90.2498 39.2533 90.2498ZM39.2533 88.6966C39.5834 88.6966 39.8385 88.5916 40.0186 88.3815C40.1987 88.1664 40.2887 87.8788 40.2887 87.5186C40.2887 87.1535 40.1987 86.8658 40.0186 86.6558C39.8385 86.4407 39.5834 86.3331 39.2533 86.3331C38.9181 86.3331 38.6605 86.4407 38.4805 86.6558C38.3004 86.8658 38.2103 87.1535 38.2103 87.5186C38.2103 87.8788 38.3004 88.1664 38.4805 88.3815C38.6605 88.5916 38.9181 88.6966 39.2533 88.6966ZM47.6725 90.1973H46.0068L44.2436 87.5261V90.1973H42.5779V84.885H44.2436L46.0068 87.6012V84.885H47.6725V90.1973ZM50.5035 90.2498C49.8682 90.2498 49.343 90.1022 48.9278 89.8071C48.5176 89.507 48.295 89.0693 48.26 88.494H50.0308C50.0558 88.7992 50.1908 88.9517 50.4359 88.9517C50.526 88.9517 50.601 88.9317 50.661 88.8917C50.7261 88.8467 50.7586 88.7792 50.7586 88.6891C50.7586 88.5641 50.6911 88.464 50.556 88.389C50.4209 88.309 50.2109 88.2189 49.9257 88.1189C49.5856 87.9988 49.303 87.8813 49.0779 87.7662C48.8578 87.6512 48.6677 87.4836 48.5076 87.2635C48.3476 87.0434 48.27 86.7608 48.275 86.4156C48.275 86.0705 48.3626 85.7779 48.5376 85.5378C48.7177 85.2927 48.9603 85.1076 49.2654 84.9825C49.5756 84.8575 49.9232 84.795 50.3084 84.795C50.9587 84.795 51.4739 84.945 51.8541 85.2451C52.2392 85.5453 52.4418 85.968 52.4618 86.5132H50.6685C50.6635 86.3631 50.626 86.2556 50.556 86.1906C50.486 86.1255 50.4009 86.093 50.3009 86.093C50.2309 86.093 50.1733 86.118 50.1283 86.168C50.0833 86.2131 50.0608 86.2781 50.0608 86.3631C50.0608 86.4832 50.1258 86.5832 50.2559 86.6633C50.3909 86.7383 50.6035 86.8308 50.8936 86.9409C51.2288 87.0659 51.5039 87.186 51.719 87.301C51.9391 87.4161 52.1292 87.5761 52.2892 87.7812C52.4493 87.9863 52.5293 88.2439 52.5293 88.5541C52.5293 88.8792 52.4493 89.1718 52.2892 89.4319C52.1292 89.687 51.8966 89.8871 51.5914 90.0322C51.2863 90.1773 50.9237 90.2498 50.5035 90.2498ZM57.2864 84.885V86.2056H55.8758V90.1973H54.2101V86.2056H52.8145V84.885H57.2864ZM60.4093 90.1973L59.4114 88.2915H59.4039V90.1973H57.7382V84.885H60.2142C60.6444 84.885 61.0121 84.9625 61.3172 85.1176C61.6223 85.2677 61.8499 85.4752 62 85.7404C62.155 86.0005 62.2326 86.2956 62.2326 86.6257C62.2326 86.9809 62.1325 87.296 61.9324 87.5711C61.7374 87.8463 61.4547 88.0438 61.0846 88.1639L62.2401 90.1973H60.4093ZM59.4039 87.181H60.0641C60.2242 87.181 60.3443 87.146 60.4243 87.0759C60.5043 87.0009 60.5444 86.8858 60.5444 86.7308C60.5444 86.5907 60.5018 86.4807 60.4168 86.4006C60.3368 86.3206 60.2192 86.2806 60.0641 86.2806H59.4039V87.181ZM64.3929 84.885V87.8788C64.3929 88.1239 64.4454 88.319 64.5505 88.464C64.6605 88.6041 64.8356 88.6741 65.0757 88.6741C65.3158 88.6741 65.4934 88.6041 65.6084 88.464C65.7235 88.319 65.781 88.1239 65.781 87.8788V84.885H67.4392V87.8788C67.4392 88.384 67.3342 88.8167 67.1241 89.1768C66.914 89.532 66.6264 89.7996 66.2612 89.9797C65.8961 90.1597 65.4884 90.2498 65.0382 90.2498C64.588 90.2498 64.1878 90.1597 63.8377 89.9797C63.4925 89.7996 63.2224 89.532 63.0273 89.1768C62.8322 88.8217 62.7347 88.389 62.7347 87.8788V84.885H64.3929ZM68.0076 87.5336C68.0076 87.0084 68.1126 86.5407 68.3227 86.1305C68.5378 85.7204 68.8429 85.4027 69.2381 85.1776C69.6333 84.9475 70.0985 84.8325 70.6337 84.8325C71.0939 84.8325 71.5041 84.92 71.8642 85.0951C72.2294 85.2652 72.5245 85.5078 72.7496 85.8229C72.9797 86.138 73.1323 86.5057 73.2073 86.9259H71.4516C71.3715 86.7508 71.2565 86.6157 71.1064 86.5207C70.9613 86.4207 70.7938 86.3706 70.6037 86.3706C70.3236 86.3706 70.101 86.4757 69.9359 86.6858C69.7758 86.8959 69.6958 87.1785 69.6958 87.5336C69.6958 87.8888 69.7758 88.1714 69.9359 88.3815C70.101 88.5916 70.3236 88.6966 70.6037 88.6966C70.7938 88.6966 70.9613 88.6491 71.1064 88.5541C71.2565 88.454 71.3715 88.3165 71.4516 88.1414H73.2073C73.1323 88.5616 72.9797 88.9292 72.7496 89.2444C72.5245 89.5595 72.2294 89.8046 71.8642 89.9797C71.5041 90.1497 71.0939 90.2348 70.6337 90.2348C70.0985 90.2348 69.6333 90.1222 69.2381 89.8971C68.8429 89.667 68.5378 89.3469 68.3227 88.9367C68.1126 88.5266 68.0076 88.0589 68.0076 87.5336ZM77.9788 84.885V86.2056H76.5682V90.1973H74.9025V86.2056H73.5069V84.885H77.9788ZM80.0963 84.885V90.1973H78.4306V84.885H80.0963ZM83.4372 90.2498C82.937 90.2498 82.4768 90.1322 82.0566 89.8971C81.6415 89.662 81.3113 89.3369 81.0662 88.9217C80.8211 88.5065 80.6986 88.0388 80.6986 87.5186C80.6986 86.9984 80.8211 86.5307 81.0662 86.1155C81.3113 85.7003 81.6415 85.3777 82.0566 85.1476C82.4768 84.9125 82.937 84.795 83.4372 84.795C83.9374 84.795 84.3951 84.9125 84.8103 85.1476C85.2255 85.3777 85.5531 85.7003 85.7932 86.1155C86.0383 86.5307 86.1609 86.9984 86.1609 87.5186C86.1609 88.0388 86.0383 88.5065 85.7932 88.9217C85.5531 89.3369 85.223 89.662 84.8028 89.8971C84.3876 90.1322 83.9324 90.2498 83.4372 90.2498ZM83.4372 88.6966C83.7674 88.6966 84.0225 88.5916 84.2026 88.3815C84.3826 88.1664 84.4727 87.8788 84.4727 87.5186C84.4727 87.1535 84.3826 86.8658 84.2026 86.6558C84.0225 86.4407 83.7674 86.3331 83.4372 86.3331C83.1021 86.3331 82.8445 86.4407 82.6644 86.6558C82.4843 86.8658 82.3943 87.1535 82.3943 87.5186C82.3943 87.8788 82.4843 88.1664 82.6644 88.3815C82.8445 88.5916 83.1021 88.6966 83.4372 88.6966ZM91.8565 90.1973H90.1908L88.4275 87.5261V90.1973H86.7618V84.885H88.4275L90.1908 87.6012V84.885H91.8565V90.1973Z" fill="#CCCCCC"/>
<path d="M33.2708 95.9722C33.4905 96.0115 33.6769 96.1272 33.8299 96.3195C33.9829 96.5117 34.0594 96.7295 34.0594 96.9727C34.0594 97.1807 34.0045 97.369 33.8946 97.5377C33.7887 97.7025 33.6337 97.8339 33.4297 97.932C33.2257 98.0262 32.9883 98.0732 32.7176 98.0732H31.0815V93.9831H32.6411C32.9197 93.9831 33.159 94.0301 33.3591 94.1243C33.5592 94.2185 33.7102 94.346 33.8122 94.5068C33.9142 94.6638 33.9653 94.8403 33.9653 95.0365C33.9653 95.2719 33.9025 95.4681 33.7769 95.625C33.6514 95.782 33.4827 95.8977 33.2708 95.9722ZM31.7524 95.7015H32.5822C32.802 95.7015 32.9726 95.6525 33.0942 95.5544C33.2198 95.4524 33.2826 95.3072 33.2826 95.1189C33.2826 94.9345 33.2198 94.7913 33.0942 94.6893C32.9726 94.5833 32.802 94.5304 32.5822 94.5304H31.7524V95.7015ZM32.6587 97.5259C32.8863 97.5259 33.0648 97.471 33.1943 97.3611C33.3238 97.2513 33.3885 97.0983 33.3885 96.9021C33.3885 96.702 33.3198 96.5431 33.1825 96.4254C33.0452 96.3077 32.8628 96.2488 32.6352 96.2488H31.7524V97.5259H32.6587ZM35.4535 93.9831V96.5902C35.4535 96.9001 35.5339 97.1336 35.6948 97.2905C35.8596 97.4475 36.0871 97.5259 36.3775 97.5259C36.6717 97.5259 36.8993 97.4475 37.0602 97.2905C37.2249 97.1336 37.3073 96.9001 37.3073 96.5902V93.9831H37.9782V96.5784C37.9782 96.9119 37.9057 97.1944 37.7605 97.4259C37.6153 97.6574 37.4211 97.83 37.1779 97.9438C36.9346 98.0575 36.6658 98.1144 36.3716 98.1144C36.0773 98.1144 35.8086 98.0575 35.5653 97.9438C35.326 97.83 35.1357 97.6574 34.9945 97.4259C34.8532 97.1944 34.7826 96.9119 34.7826 96.5784V93.9831H35.4535ZM39.5227 93.9831V98.0732H38.8518V93.9831H39.5227ZM41.0744 97.5318H42.4574V98.0732H40.4035V93.9831H41.0744V97.5318ZM44.3544 93.9831C44.7899 93.9831 45.1705 94.0674 45.4962 94.2361C45.8257 94.4009 46.0788 94.6402 46.2553 94.9541C46.4358 95.2641 46.5261 95.627 46.5261 96.0429C46.5261 96.4587 46.4358 96.8197 46.2553 97.1257C46.0788 97.4318 45.8257 97.6672 45.4962 97.832C45.1705 97.9928 44.7899 98.0732 44.3544 98.0732H43.0185V93.9831H44.3544ZM44.3544 97.5259C44.8331 97.5259 45.1999 97.3964 45.455 97.1375C45.71 96.8786 45.8375 96.5137 45.8375 96.0429C45.8375 95.5681 45.71 95.1974 45.455 94.9306C45.1999 94.6638 44.8331 94.5304 44.3544 94.5304H43.6894V97.5259H44.3544ZM51.8801 98.0732L51.374 97.5671C51.1778 97.7633 50.964 97.9104 50.7325 98.0085C50.501 98.1027 50.242 98.1497 49.9556 98.1497C49.6653 98.1497 49.4083 98.0987 49.1847 97.9967C48.961 97.8947 48.7884 97.7496 48.6668 97.5612C48.5452 97.369 48.4843 97.1473 48.4843 96.8962C48.4843 96.6137 48.5648 96.3626 48.7256 96.1429C48.8865 95.9193 49.1258 95.7427 49.4436 95.6132C49.3298 95.4759 49.2494 95.3484 49.2023 95.2307C49.1553 95.1091 49.1317 94.9757 49.1317 94.8305C49.1317 94.65 49.1768 94.4892 49.2671 94.3479C49.3612 94.2067 49.4946 94.0949 49.6673 94.0125C49.8399 93.9301 50.04 93.8889 50.2676 93.8889C50.499 93.8889 50.6952 93.934 50.8561 94.0243C51.0209 94.1106 51.1425 94.2302 51.2209 94.3832C51.3033 94.5363 51.3367 94.7069 51.321 94.8953H50.6501C50.654 94.7501 50.6187 94.6383 50.5442 94.5598C50.4696 94.4774 50.3676 94.4362 50.2381 94.4362C50.1087 94.4362 50.0027 94.4754 49.9203 94.5539C49.8419 94.6285 49.8026 94.7207 49.8026 94.8305C49.8026 94.9365 49.832 95.0424 49.8909 95.1483C49.9537 95.2503 50.0616 95.3837 50.2146 95.5485L51.2975 96.6255L51.7153 95.9369H52.4392L51.9095 96.8432L51.7624 97.0845L52.757 98.0732H51.8801ZM49.9556 97.5789C50.3244 97.5789 50.6501 97.4278 50.9326 97.1257L49.8497 96.037C49.3867 96.2214 49.1553 96.4999 49.1553 96.8727C49.1553 97.0728 49.2298 97.2415 49.3789 97.3788C49.528 97.5122 49.7202 97.5789 49.9556 97.5789ZM56.8501 98.0732L55.9085 96.4372H55.3965V98.0732H54.7256V93.9831H56.138C56.4519 93.9831 56.7167 94.038 56.9325 94.1478C57.1523 94.2577 57.3151 94.4048 57.421 94.5892C57.5309 94.7736 57.5858 94.9796 57.5858 95.2072C57.5858 95.474 57.5073 95.7172 57.3504 95.9369C57.1974 96.1527 56.96 96.2998 56.6383 96.3783L57.6505 98.0732H56.8501ZM55.3965 95.9016H56.138C56.3891 95.9016 56.5775 95.8388 56.703 95.7133C56.8325 95.5877 56.8972 95.419 56.8972 95.2072C56.8972 94.9953 56.8345 94.8305 56.7089 94.7128C56.5834 94.5912 56.3931 94.5304 56.138 94.5304H55.3965V95.9016ZM59.115 94.5245V95.7251H60.5274V96.2724H59.115V97.5259H60.704V98.0732H58.4441V93.9772H60.704V94.5245H59.115ZM64.8907 98.0732H64.2198L62.2012 95.0188V98.0732H61.5303V93.9772H62.2012L64.2198 97.0257V93.9772H64.8907V98.0732ZM67.6374 98.1144C67.2568 98.1144 66.9056 98.0262 66.5839 97.8496C66.2661 97.6691 66.0131 97.42 65.8247 97.1022C65.6403 96.7805 65.5481 96.4195 65.5481 96.0193C65.5481 95.6191 65.6403 95.2601 65.8247 94.9423C66.0131 94.6245 66.2661 94.3774 66.5839 94.2008C66.9056 94.0203 67.2568 93.9301 67.6374 93.9301C68.0219 93.9301 68.373 94.0203 68.6908 94.2008C69.0125 94.3774 69.2656 94.6245 69.45 94.9423C69.6344 95.2601 69.7266 95.6191 69.7266 96.0193C69.7266 96.4195 69.6344 96.7805 69.45 97.1022C69.2656 97.42 69.0125 97.6691 68.6908 97.8496C68.373 98.0262 68.0219 98.1144 67.6374 98.1144ZM67.6374 97.5318C67.9081 97.5318 68.1494 97.471 68.3612 97.3494C68.5731 97.2238 68.7379 97.0473 68.8556 96.8197C68.9772 96.5882 69.038 96.3214 69.038 96.0193C69.038 95.7172 68.9772 95.4524 68.8556 95.2248C68.7379 94.9973 68.5731 94.8227 68.3612 94.701C68.1494 94.5794 67.9081 94.5186 67.6374 94.5186C67.3666 94.5186 67.1254 94.5794 66.9135 94.701C66.7016 94.8227 66.5349 94.9973 66.4133 95.2248C66.2955 95.4524 66.2367 95.7172 66.2367 96.0193C66.2367 96.3214 66.2955 96.5882 66.4133 96.8197C66.5349 97.0473 66.7016 97.2238 66.9135 97.3494C67.1254 97.471 67.3666 97.5318 67.6374 97.5318ZM73.912 93.9831L72.376 98.0732H71.5991L70.0572 93.9831H70.7752L71.9876 97.3847L73.2058 93.9831H73.912ZM76.9389 97.2375H75.2264L74.9321 98.0732H74.2318L75.6972 93.9772H76.474L77.9394 98.0732H77.2332L76.9389 97.2375ZM76.7506 96.6902L76.0856 94.7893L75.4147 96.6902H76.7506ZM81.219 93.9831V94.5304H80.1303V98.0732H79.4594V94.5304H78.3647V93.9831H81.219ZM82.5694 93.9831V98.0732H81.8985V93.9831H82.5694ZM85.3158 98.1144C84.9353 98.1144 84.5841 98.0262 84.2624 97.8496C83.9446 97.6691 83.6915 97.42 83.5032 97.1022C83.3188 96.7805 83.2266 96.4195 83.2266 96.0193C83.2266 95.6191 83.3188 95.2601 83.5032 94.9423C83.6915 94.6245 83.9446 94.3774 84.2624 94.2008C84.5841 94.0203 84.9353 93.9301 85.3158 93.9301C85.7003 93.9301 86.0515 94.0203 86.3693 94.2008C86.691 94.3774 86.9441 94.6245 87.1285 94.9423C87.3129 95.2601 87.4051 95.6191 87.4051 96.0193C87.4051 96.4195 87.3129 96.7805 87.1285 97.1022C86.9441 97.42 86.691 97.6691 86.3693 97.8496C86.0515 98.0262 85.7003 98.1144 85.3158 98.1144ZM85.3158 97.5318C85.5865 97.5318 85.8278 97.471 86.0397 97.3494C86.2516 97.2238 86.4163 97.0473 86.5341 96.8197C86.6557 96.5882 86.7165 96.3214 86.7165 96.0193C86.7165 95.7172 86.6557 95.4524 86.5341 95.2248C86.4163 94.9973 86.2516 94.8227 86.0397 94.701C85.8278 94.5794 85.5865 94.5186 85.3158 94.5186C85.0451 94.5186 84.8038 94.5794 84.5919 94.701C84.3801 94.8227 84.2133 94.9973 84.0917 95.2248C83.974 95.4524 83.9152 95.7172 83.9152 96.0193C83.9152 96.3214 83.974 96.5882 84.0917 96.8197C84.2133 97.0473 84.3801 97.2238 84.5919 97.3494C84.8038 97.471 85.0451 97.5318 85.3158 97.5318ZM91.4257 98.0732H90.7548L88.7362 95.0188V98.0732H88.0653V93.9772H88.7362L90.7548 97.0257V93.9772H91.4257V98.0732Z" fill="#CCCCCC"/>
</svg>
