<svg width="105" height="100" viewBox="0 0 105 100" fill="none" xmlns="http://www.w3.org/2000/svg">
<path d="M69.5999 46.4683V1.44629L50.4629 17.3822V30.0898L69.5999 46.4683Z" fill="#CCCCCC"/>
<path d="M13.7217 46.5282V49.2921L69.5997 2.76394V0L13.7217 46.5282Z" fill="#CCCCCC"/>
<path d="M21.29 47.5967H20.626V68.3155H21.29V47.5967Z" fill="#CCCCCC"/>
<path d="M22.1379 42.1016H19.7788V47.6025H22.1379V42.1016Z" fill="#CCCCCC"/>
<path d="M20.5397 73.0013C20.1837 72.8346 19.8964 72.5498 19.7268 72.1952C19.5571 71.8407 19.5155 71.4383 19.609 71.0565C19.7025 70.6748 19.9254 70.3372 20.2398 70.1012C20.5541 69.8653 20.9405 69.7455 21.3332 69.7623C20.9598 69.6257 20.5552 69.5982 20.1667 69.683C19.7783 69.7678 19.422 69.9615 19.1395 70.2413C18.857 70.5212 18.66 70.8756 18.5715 71.2633C18.4831 71.6509 18.5068 72.0558 18.6399 72.4305C18.773 72.8051 19.01 73.1342 19.3232 73.3792C19.6364 73.6241 20.0129 73.7749 20.4086 73.8138C20.8043 73.8527 21.2029 73.7782 21.5578 73.5989C21.9128 73.4197 22.2093 73.1431 22.4129 72.8015C22.1532 73.0119 21.8382 73.1427 21.5058 73.1782C21.1734 73.2136 20.8379 73.1522 20.5397 73.0013Z" fill="#CCCCCC"/>
<path d="M20.961 70.2649C21.6676 70.2649 22.2404 69.6921 22.2404 68.9855C22.2404 68.2789 21.6676 67.7061 20.961 67.7061C20.2544 67.7061 19.6816 68.2789 19.6816 68.9855C19.6816 69.6921 20.2544 70.2649 20.961 70.2649Z" fill="#CCCCCC"/>
<path d="M28.5889 77.4606C35.2019 76.8305 41.6667 75.1199 47.7259 72.397V33.7773L28.5889 50.0533V77.4606Z" fill="#CCCCCC"/>
<path d="M50.4629 71.1122C57.5546 67.5533 64.0184 62.8618 69.5999 57.2223V50.0533L50.4629 33.7773V71.1122Z" fill="#CCCCCC"/>
<path d="M72.3315 54.3396C75.2139 51.1367 77.8334 47.7066 80.1645 44.0827C85.6806 35.459 89.4769 25.8499 91.3444 15.7847L72.3315 0V54.3396Z" fill="#CCCCCC"/>
<path d="M91.3444 41.3184C71.1007 77.4602 34.0952 79.4629 34.0952 79.4629H47.753C47.753 79.4629 71.5056 78.1727 91.3714 59.0897L91.3444 41.3184Z" fill="#CCCCCC"/>
<path d="M55.4023 79.4635H91.3444V65.5088C73.5029 78.4756 55.4023 79.4635 55.4023 79.4635Z" fill="#CCCCCC"/>
<path d="M6.31581 87.2351V88.068H4.17729V95.0801H3.15306V88.068H1.00329V87.2351H6.31581ZM8.60082 89.9139C8.7809 89.5612 9.03602 89.2873 9.36618 89.0922C9.70384 88.8971 10.1128 88.7996 10.593 88.7996V89.8576H10.3229C9.17484 89.8576 8.60082 90.4804 8.60082 91.726V95.0801H7.57658V88.9122H8.60082V89.9139ZM17.2454 88.9122V95.0801H16.2212V94.1684C16.0261 94.4835 15.7522 94.7312 15.3996 94.9112C15.0544 95.0838 14.6717 95.1701 14.2515 95.1701C13.7713 95.1701 13.3398 95.0726 12.9572 94.8775C12.5745 94.6749 12.2706 94.3747 12.0455 93.9771C11.8279 93.5794 11.7191 93.0954 11.7191 92.5251V88.9122H12.7321V92.3901C12.7321 92.9978 12.8859 93.4668 13.1935 93.797C13.5012 94.1196 13.9214 94.2809 14.4541 94.2809C15.0019 94.2809 15.4333 94.1121 15.7485 93.7745C16.0636 93.4368 16.2212 92.9453 16.2212 92.3V88.9122H17.2454ZM21.1583 95.1814C20.6856 95.1814 20.2617 95.1026 19.8865 94.945C19.5113 94.7799 19.2149 94.5548 18.9973 94.2697C18.7797 93.9771 18.6597 93.6431 18.6371 93.268H19.6951C19.7252 93.5756 19.8677 93.827 20.1229 94.0221C20.3855 94.2172 20.7269 94.3147 21.1471 94.3147C21.5373 94.3147 21.8449 94.2284 22.07 94.0558C22.2951 93.8833 22.4077 93.6657 22.4077 93.403C22.4077 93.1329 22.2876 92.9341 22.0475 92.8065C21.8074 92.6714 21.436 92.5401 20.9332 92.4126C20.4755 92.2925 20.1003 92.1724 19.8077 92.0524C19.5226 91.9248 19.2749 91.741 19.0648 91.5009C18.8623 91.2533 18.761 90.9306 18.761 90.5329C18.761 90.2178 18.8547 89.9289 19.0423 89.6663C19.2299 89.4036 19.4963 89.1973 19.8415 89.0472C20.1866 88.8896 20.5806 88.8109 21.0233 88.8109C21.7061 88.8109 22.2576 88.9834 22.6778 89.3286C23.098 89.6738 23.3231 90.1465 23.3531 90.7468H22.3289C22.3064 90.4241 22.1751 90.1652 21.935 89.9702C21.7023 89.7751 21.3872 89.6775 20.9895 89.6775C20.6218 89.6775 20.3292 89.7563 20.1116 89.9139C19.894 90.0715 19.7852 90.2778 19.7852 90.5329C19.7852 90.7355 19.849 90.9043 19.9765 91.0394C20.1116 91.167 20.2767 91.272 20.4718 91.3546C20.6744 91.4296 20.952 91.5159 21.3047 91.6134C21.7474 91.7335 22.1075 91.8535 22.3852 91.9736C22.6628 92.0862 22.8992 92.2587 23.0943 92.4914C23.2969 92.724 23.4019 93.0279 23.4094 93.403C23.4094 93.7407 23.3156 94.0446 23.128 94.3147C22.9404 94.5848 22.6741 94.7987 22.3289 94.9563C21.9912 95.1063 21.6011 95.1814 21.1583 95.1814ZM26.1046 89.7563V93.3918C26.1046 93.6919 26.1684 93.9058 26.296 94.0333C26.4235 94.1534 26.6449 94.2134 26.96 94.2134H27.7141V95.0801H26.7912C26.2209 95.0801 25.7932 94.9488 25.5081 94.6861C25.223 94.4235 25.0804 93.9921 25.0804 93.3918V89.7563H24.2813V88.9122H25.0804V87.3589H26.1046V88.9122H27.7141V89.7563H26.1046ZM31.5731 91.152C31.5731 90.3866 31.7457 89.7 32.0909 89.0922C32.436 88.4769 32.905 87.9967 33.4978 87.6516C34.0981 87.3064 34.7621 87.1338 35.49 87.1338C36.3454 87.1338 37.092 87.3402 37.7298 87.7529C38.3676 88.1655 38.8328 88.7508 39.1255 89.5087H37.8986C37.681 89.036 37.3659 88.672 36.9532 88.4169C36.548 88.1618 36.0603 88.0342 35.49 88.0342C34.9422 88.0342 34.4507 88.1618 34.0155 88.4169C33.5803 88.672 33.2389 89.036 32.9913 89.5087C32.7437 89.9739 32.6199 90.5217 32.6199 91.152C32.6199 91.7748 32.7437 92.3225 32.9913 92.7952C33.2389 93.2605 33.5803 93.6206 34.0155 93.8758C34.4507 94.1309 34.9422 94.2584 35.49 94.2584C36.0603 94.2584 36.548 94.1346 36.9532 93.887C37.3659 93.6319 37.681 93.268 37.8986 92.7952H39.1255C38.8328 93.5456 38.3676 94.1271 37.7298 94.5398C37.092 94.945 36.3454 95.1476 35.49 95.1476C34.7621 95.1476 34.0981 94.9788 33.4978 94.6411C32.905 94.296 32.436 93.8195 32.0909 93.2117C31.7457 92.6039 31.5731 91.9173 31.5731 91.152ZM43.3401 95.1814C42.7624 95.1814 42.2371 95.0501 41.7644 94.7874C41.2992 94.5248 40.9315 94.1534 40.6614 93.6732C40.3988 93.1854 40.2674 92.6227 40.2674 91.9849C40.2674 91.3546 40.4025 90.7993 40.6726 90.3191C40.9503 89.8313 41.3254 89.4599 41.7982 89.2048C42.2709 88.9422 42.7999 88.8109 43.3852 88.8109C43.9704 88.8109 44.4994 88.9422 44.9722 89.2048C45.4449 89.4599 45.8163 89.8276 46.0865 90.3078C46.3641 90.788 46.5029 91.3471 46.5029 91.9849C46.5029 92.6227 46.3603 93.1854 46.0752 93.6732C45.7976 94.1534 45.4186 94.5248 44.9384 94.7874C44.4582 95.0501 43.9254 95.1814 43.3401 95.1814ZM43.3401 94.2809C43.7078 94.2809 44.053 94.1947 44.3756 94.0221C44.6983 93.8495 44.9572 93.5906 45.1523 93.2455C45.3549 92.9003 45.4562 92.4801 45.4562 91.9849C45.4562 91.4896 45.3586 91.0694 45.1635 90.7243C44.9684 90.3791 44.7133 90.124 44.3982 89.9589C44.083 89.7863 43.7416 89.7 43.3739 89.7C42.9987 89.7 42.6536 89.7863 42.3384 89.9589C42.0308 90.124 41.7832 90.3791 41.5956 90.7243C41.408 91.0694 41.3142 91.4896 41.3142 91.9849C41.3142 92.4876 41.4042 92.9115 41.5843 93.2567C41.7719 93.6019 42.0195 93.8607 42.3272 94.0333C42.6348 94.1984 42.9725 94.2809 43.3401 94.2809ZM50.8548 88.7996C51.6051 88.7996 52.2129 89.0285 52.6781 89.4862C53.1433 89.9364 53.376 90.5892 53.376 91.4446V95.0801H52.363V91.5909C52.363 90.9756 52.2091 90.5067 51.9015 90.184C51.5939 89.8538 51.1737 89.6888 50.6409 89.6888C50.1007 89.6888 49.6692 89.8576 49.3465 90.1953C49.0314 90.5329 48.8738 91.0244 48.8738 91.6697V95.0801H47.8496V88.9122H48.8738V89.7901C49.0764 89.4749 49.3503 89.2311 49.6955 89.0585C50.0481 88.8859 50.4346 88.7996 50.8548 88.7996ZM57.2326 95.1814C56.7599 95.1814 56.3359 95.1026 55.9607 94.945C55.5855 94.7799 55.2892 94.5548 55.0716 94.2697C54.8539 93.9771 54.7339 93.6431 54.7114 93.268H55.7694C55.7994 93.5756 55.942 93.827 56.1971 94.0221C56.4597 94.2172 56.8011 94.3147 57.2213 94.3147C57.6115 94.3147 57.9192 94.2284 58.1443 94.0558C58.3694 93.8833 58.4819 93.6657 58.4819 93.403C58.4819 93.1329 58.3619 92.9341 58.1217 92.8065C57.8816 92.6714 57.5102 92.5401 57.0075 92.4126C56.5498 92.2925 56.1746 92.1724 55.8819 92.0524C55.5968 91.9248 55.3492 91.741 55.1391 91.5009C54.9365 91.2533 54.8352 90.9306 54.8352 90.5329C54.8352 90.2178 54.929 89.9289 55.1166 89.6663C55.3042 89.4036 55.5705 89.1973 55.9157 89.0472C56.2609 88.8896 56.6548 88.8109 57.0975 88.8109C57.7803 88.8109 58.3318 88.9834 58.752 89.3286C59.1722 89.6738 59.3974 90.1465 59.4274 90.7468H58.4031C58.3806 90.4241 58.2493 90.1652 58.0092 89.9702C57.7766 89.7751 57.4614 89.6775 57.0637 89.6775C56.6961 89.6775 56.4034 89.7563 56.1858 89.9139C55.9682 90.0715 55.8594 90.2778 55.8594 90.5329C55.8594 90.7355 55.9232 90.9043 56.0508 91.0394C56.1858 91.167 56.3509 91.272 56.546 91.3546C56.7486 91.4296 57.0262 91.5159 57.3789 91.6134C57.8216 91.7335 58.1818 91.8535 58.4594 91.9736C58.737 92.0862 58.9734 92.2587 59.1685 92.4914C59.3711 92.724 59.4761 93.0279 59.4836 93.403C59.4836 93.7407 59.3898 94.0446 59.2023 94.3147C59.0147 94.5848 58.7483 94.7987 58.4031 94.9563C58.0655 95.1063 57.6753 95.1814 57.2326 95.1814ZM62.1789 89.7563V93.3918C62.1789 93.6919 62.2426 93.9058 62.3702 94.0333C62.4978 94.1534 62.7191 94.2134 63.0343 94.2134H63.7884V95.0801H62.8654C62.2952 95.0801 61.8675 94.9488 61.5823 94.6861C61.2972 94.4235 61.1546 93.9921 61.1546 93.3918V89.7563H60.3555V88.9122H61.1546V87.3589H62.1789V88.9122H63.7884V89.7563H62.1789ZM66.0536 89.9139C66.2337 89.5612 66.4888 89.2873 66.819 89.0922C67.1566 88.8971 67.5656 88.7996 68.0458 88.7996V89.8576H67.7757C66.6276 89.8576 66.0536 90.4804 66.0536 91.726V95.0801H65.0294V88.9122H66.0536V89.9139ZM74.6982 88.9122V95.0801H73.674V94.1684C73.4789 94.4835 73.205 94.7312 72.8523 94.9112C72.5072 95.0838 72.1245 95.1701 71.7043 95.1701C71.2241 95.1701 70.7926 95.0726 70.4099 94.8775C70.0273 94.6749 69.7234 94.3747 69.4983 93.9771C69.2807 93.5794 69.1718 93.0954 69.1718 92.5251V88.9122H70.1848V92.3901C70.1848 92.9978 70.3387 93.4668 70.6463 93.797C70.9539 94.1196 71.3741 94.2809 71.9069 94.2809C72.4547 94.2809 72.8861 94.1121 73.2013 93.7745C73.5164 93.4368 73.674 92.9453 73.674 92.3V88.9122H74.6982ZM76.0449 91.9849C76.0449 91.3471 76.1725 90.7918 76.4276 90.3191C76.6827 89.8388 77.0354 89.4674 77.4856 89.2048C77.9433 88.9422 78.4648 88.8109 79.0501 88.8109C79.8079 88.8109 80.4307 88.9947 80.9185 89.3624C81.4137 89.73 81.7401 90.2403 81.8977 90.8931H80.7947C80.6896 90.5179 80.4833 90.2215 80.1756 90.0039C79.8755 89.7863 79.5003 89.6775 79.0501 89.6775C78.4648 89.6775 77.9921 89.8801 77.6319 90.2853C77.2717 90.683 77.0916 91.2495 77.0916 91.9849C77.0916 92.7277 77.2717 93.3017 77.6319 93.7069C77.9921 94.1121 78.4648 94.3147 79.0501 94.3147C79.5003 94.3147 79.8755 94.2097 80.1756 93.9996C80.4758 93.7895 80.6821 93.4893 80.7947 93.0991H81.8977C81.7326 93.7294 81.4024 94.2359 80.9072 94.6186C80.412 94.9938 79.7929 95.1814 79.0501 95.1814C78.4648 95.1814 77.9433 95.0501 77.4856 94.7874C77.0354 94.5248 76.6827 94.1534 76.4276 93.6732C76.1725 93.1929 76.0449 92.6302 76.0449 91.9849ZM84.5137 89.7563V93.3918C84.5137 93.6919 84.5774 93.9058 84.705 94.0333C84.8326 94.1534 85.0539 94.2134 85.3691 94.2134H86.1232V95.0801H85.2002C84.63 95.0801 84.2023 94.9488 83.9171 94.6861C83.632 94.4235 83.4894 93.9921 83.4894 93.3918V89.7563H82.6903V88.9122H83.4894V87.3589H84.5137V88.9122H86.1232V89.7563H84.5137ZM87.8932 87.9104C87.6981 87.9104 87.533 87.8429 87.3979 87.7078C87.2629 87.5728 87.1953 87.4077 87.1953 87.2126C87.1953 87.0175 87.2629 86.8524 87.3979 86.7174C87.533 86.5823 87.6981 86.5148 87.8932 86.5148C88.0808 86.5148 88.2383 86.5823 88.3659 86.7174C88.501 86.8524 88.5685 87.0175 88.5685 87.2126C88.5685 87.4077 88.501 87.5728 88.3659 87.7078C88.2383 87.8429 88.0808 87.9104 87.8932 87.9104ZM88.3884 88.9122V95.0801H87.3642V88.9122H88.3884ZM92.8241 95.1814C92.2463 95.1814 91.721 95.0501 91.2483 94.7874C90.7831 94.5248 90.4154 94.1534 90.1453 93.6732C89.8827 93.1854 89.7514 92.6227 89.7514 91.9849C89.7514 91.3546 89.8864 90.7993 90.1565 90.3191C90.4342 89.8313 90.8094 89.4599 91.2821 89.2048C91.7548 88.9422 92.2838 88.8109 92.8691 88.8109C93.4544 88.8109 93.9834 88.9422 94.4561 89.2048C94.9288 89.4599 95.3002 89.8276 95.5704 90.3078C95.848 90.788 95.9868 91.3471 95.9868 91.9849C95.9868 92.6227 95.8442 93.1854 95.5591 93.6732C95.2815 94.1534 94.9025 94.5248 94.4223 94.7874C93.9421 95.0501 93.4093 95.1814 92.8241 95.1814ZM92.8241 94.2809C93.1917 94.2809 93.5369 94.1947 93.8595 94.0221C94.1822 93.8495 94.4411 93.5906 94.6362 93.2455C94.8388 92.9003 94.9401 92.4801 94.9401 91.9849C94.9401 91.4896 94.8425 91.0694 94.6474 90.7243C94.4523 90.3791 94.1972 90.124 93.8821 89.9589C93.5669 89.7863 93.2255 89.7 92.8578 89.7C92.4826 89.7 92.1375 89.7863 91.8223 89.9589C91.5147 90.124 91.2671 90.3791 91.0795 90.7243C90.8919 91.0694 90.7981 91.4896 90.7981 91.9849C90.7981 92.4876 90.8881 92.9115 91.0682 93.2567C91.2558 93.6019 91.5034 93.8607 91.8111 94.0333C92.1187 94.1984 92.4564 94.2809 92.8241 94.2809ZM100.339 88.7996C101.089 88.7996 101.697 89.0285 102.162 89.4862C102.627 89.9364 102.86 90.5892 102.86 91.4446V95.0801H101.847V91.5909C101.847 90.9756 101.693 90.5067 101.385 90.184C101.078 89.8538 100.658 89.6888 100.125 89.6888C99.5846 89.6888 99.1531 89.8576 98.8305 90.1953C98.5153 90.5329 98.3577 91.0244 98.3577 91.6697V95.0801H97.3335V88.9122H98.3577V89.7901C98.5603 89.4749 98.8342 89.2311 99.1794 89.0585C99.532 88.8859 99.9185 88.7996 100.339 88.7996Z" fill="#CCCCCC"/>
</svg>
