<svg width="153" height="100" viewBox="0 0 153 100" fill="none" xmlns="http://www.w3.org/2000/svg">
<path d="M46.0299 51.2265C46.0318 46.34 47.2036 41.525 49.4472 37.184C51.6908 32.843 54.9411 29.1023 58.9263 26.2745C62.9114 23.4467 67.5157 21.6141 72.354 20.93C77.1924 20.2458 82.1243 20.7299 86.7372 22.3418C81.2873 20.2162 75.3363 19.7238 69.611 20.9247C63.8858 22.1256 58.6343 24.9679 54.4978 29.1043C50.3614 33.2407 47.5191 38.4923 46.3182 44.2175C45.1173 49.9427 45.6097 55.8937 47.7353 61.3437C46.6008 58.0915 46.0242 54.6709 46.0299 51.2265Z" fill="#CCCCCC"/>
<path d="M100.969 65.4657L79.9555 49.2305L58.9419 65.4657H61.824L79.9555 51.4567L98.0869 65.4657H100.969Z" fill="#CCCCCC"/>
<path d="M77.228 59.3879H79.7008V56.9111C79.065 56.9721 78.4702 57.2527 78.0189 57.7048C77.5676 58.1568 77.288 58.7519 77.228 59.3879Z" fill="#CCCCCC"/>
<path d="M79.7008 62.3693V59.8965H77.228C77.2874 60.5323 77.5669 61.1273 78.0184 61.5788C78.47 62.0303 79.065 62.3099 79.7008 62.3693Z" fill="#CCCCCC"/>
<path d="M80.2095 62.3693C80.8452 62.3099 81.4403 62.0303 81.8918 61.5788C82.3433 61.1273 82.6229 60.5323 82.6822 59.8965H80.2095V62.3693Z" fill="#CCCCCC"/>
<path d="M80.2095 56.9111V59.3879H82.6822C82.6223 58.7519 82.3426 58.1568 81.8913 57.7048C81.44 57.2527 80.8453 56.9721 80.2095 56.9111Z" fill="#CCCCCC"/>
<path d="M103.898 44.5991C103.089 40.7239 101.489 37.0575 99.1974 33.8295C96.9059 30.6015 93.9725 27.8814 90.5811 25.8395L88.7763 27.9782L87.5559 27.4296L89.464 25.1716C89.313 25.0882 89.1579 25.0166 89.0108 24.9371L87.0748 27.2229L84.9162 26.3006L85.9697 25.279C86.0509 25.3387 86.1491 25.3709 86.25 25.3709C86.3508 25.3709 86.449 25.3387 86.5302 25.279C86.6892 25.18 86.8348 25.0611 86.9635 24.9252L87.6513 24.2772C87.3703 24.1473 87.0841 24.0148 86.7926 23.8797L86.2877 24.3527C86.1911 24.2942 86.0818 24.2597 85.9691 24.2521C85.8563 24.2445 85.7434 24.264 85.6398 24.309C85.7628 24.3103 85.8819 24.353 85.9778 24.4301C86.0737 24.5073 86.1408 24.6144 86.1685 24.7344L84.6658 26.1774L84.4949 26.1019C84.4797 25.9527 84.4153 25.8129 84.312 25.7043L85.5046 24.6707L85.4489 24.5117C85.4429 24.465 85.4489 24.4175 85.4663 24.3737C85.4837 24.3299 85.5119 24.2912 85.5483 24.2613C85.7868 24.0228 85.8783 23.9393 85.8822 23.9393L86.0651 23.7723L85.9737 23.669L86.0691 23.5855L85.5483 23.3867L85.5443 23.4543C85.5072 23.4907 85.4787 23.5349 85.4608 23.5838C85.4429 23.6326 85.4362 23.6848 85.441 23.7365L85.2144 23.9631C85.1359 24.038 85.0735 24.128 85.0312 24.2279C84.9888 24.3277 84.9673 24.4351 84.9679 24.5435L83.7077 25.6407C83.2585 25.7799 83.3818 26.3563 83.3818 26.3563C83.3325 26.4157 83.2911 26.4811 83.2585 26.5511C83.1792 26.7529 83.1792 26.9773 83.2585 27.1792L81.6167 26.4755C81.4184 26.3878 81.1949 26.3757 80.9883 26.4416C80.7817 26.5075 80.6064 26.6469 80.4957 26.8333C80.4392 26.9369 80.4046 27.0509 80.3942 27.1684C80.3837 27.2859 80.3975 27.4043 80.4348 27.5162C80.4721 27.6281 80.5321 27.7311 80.6109 27.8188C80.6898 27.9065 80.7859 27.977 80.8932 28.0259L81.2907 28.1889V28.8409L80.4599 32.6413H80.0862C79.8696 32.6331 79.6576 32.7053 79.4911 32.844C79.3245 32.9827 79.2151 33.1781 79.1838 33.3926C79.1682 33.5048 79.1752 33.6189 79.2043 33.7283C79.2334 33.8378 79.284 33.9403 79.3533 34.0299C79.4225 34.1195 79.5089 34.1944 79.6075 34.2501C79.7061 34.3059 79.8147 34.3414 79.9272 34.3546L80.0465 35.261H77.1206C73.6979 37.2487 75.0256 42.2178 75.9638 43.2117C76.902 44.2055 80.774 48.4352 80.774 48.4352H82.05L81.6525 47.3619H82.8451L83.3539 48.4352H84.7334L84.308 47.3619H85.433L85.9339 48.4352H86.9715L86.4706 47.3619H87.5042L88.2436 48.4352H89.8814L88.7326 45.6923L89.2136 36.1753L88.1641 35.2372H86.9715L87.2617 33.7862L87.2895 33.7623L92.7317 29.147L100.158 36.8511C100.912 37.6347 101.548 38.5239 102.046 39.4908V44.8177H101.493V53.5634L100.126 56.0043L101.605 62.9293C102.421 61.2547 103.071 59.5037 103.545 57.7017H103.203V53.472L104.252 51.691V54.0404C104.373 53.0867 104.446 52.1274 104.471 51.1663H103.203V44.9211H102.873V41.5301L103.898 44.5991ZM82.2369 35.2411H81.096V34.3467H82.3084L82.2369 35.2411ZM82.7219 32.6333H81.7837L81.8711 31.7508L82.4515 30.2124H82.8849L82.9286 31.5163L82.7219 32.6333ZM84.312 29.4769L84.9639 29.7552L84.2802 30.5503L84.312 29.4769ZM85.4489 31.9178C85.2713 32.1288 85.1643 32.3901 85.1428 32.6651C85.0745 32.6443 85.0036 32.6336 84.9321 32.6333H84.1371L84.2643 31.3692L85.4569 29.954C85.6614 30.0274 85.8862 30.0202 86.0856 29.9338C86.285 29.8474 86.444 29.6883 86.5302 29.4888C86.6074 29.2879 86.6074 29.0656 86.5302 28.8647L87.6274 29.3338L85.4489 31.9178Z" fill="#CCCCCC"/>
<path d="M28.0175 55.5592L34.6603 56.1237C35.2599 56.172 35.8282 56.4118 36.2812 56.8076C36.7343 57.2034 37.0482 57.7343 37.1766 58.3221L37.3118 58.9462C38.3065 63.4257 40.0842 67.6945 42.5632 71.5559L42.9051 72.0965C43.2299 72.6031 43.3836 73.2005 43.3435 73.8009C43.3034 74.4013 43.0717 74.973 42.6825 75.4318L41.6012 76.7238C46.944 76.2653 52.4644 75.9142 58.1624 75.6704C52.7814 71.9184 48.7368 66.5485 46.6161 60.3409C44.4954 54.1333 44.4089 47.4112 46.3694 41.1511C48.3299 34.8911 52.2351 29.419 57.5178 25.5299C62.8005 21.6409 69.1855 19.5373 75.7454 19.5247C82.3052 19.5122 88.6983 21.5914 93.9958 25.4603C99.2933 29.3292 103.219 34.7862 105.204 41.0388C107.188 47.2913 107.127 54.0137 105.03 60.2293C102.933 66.445 98.9093 71.8303 93.5427 75.6028C99.148 75.8254 104.61 76.1514 109.889 76.5767L108.931 75.4438C108.542 74.9849 108.31 74.4132 108.27 73.8128C108.23 73.2124 108.384 72.615 108.709 72.1085L109.05 71.5718C111.525 67.7039 113.297 63.4299 114.286 58.9462L114.421 58.3221C114.55 57.7343 114.863 57.2034 115.317 56.8076C115.77 56.4118 116.338 56.172 116.938 56.1237L123.596 55.5592C124.306 55.495 124.966 55.1686 125.448 54.6438C125.931 54.119 126.2 53.4335 126.204 52.7208V48.1015C126.207 47.3867 125.94 46.6971 125.457 46.1708C124.973 45.6444 124.309 45.3202 123.596 45.2631L116.949 44.6827C116.35 44.6329 115.782 44.3922 115.329 43.9958C114.876 43.5994 114.562 43.0683 114.433 42.4804L114.298 41.8602C113.31 37.3763 111.537 33.1022 109.062 29.2346L108.721 28.6979C108.396 28.1914 108.242 27.594 108.282 26.9936C108.322 26.3932 108.554 25.8215 108.943 25.3626L113.256 20.2742C113.713 19.7269 113.95 19.0289 113.919 18.3167C113.889 17.6044 113.595 16.9289 113.093 16.4221L109.794 13.1186C109.291 12.6106 108.614 12.3115 107.9 12.2813C107.185 12.2511 106.486 12.4919 105.942 12.9556L100.853 17.2728C100.394 17.6624 99.8215 17.8943 99.2204 17.9344C98.6193 17.9745 98.0212 17.8206 97.5141 17.4955L96.9814 17.1536C93.1111 14.6831 88.8359 12.9136 84.3518 11.926L83.7317 11.7869C83.1438 11.6594 82.6124 11.3464 82.2159 10.8941C81.8194 10.4418 81.5787 9.87398 81.5293 9.27449L80.9728 2.60786C80.9156 1.8947 80.5908 1.22954 80.0636 0.745861C79.5365 0.262178 78.8459 -0.0042446 78.1304 5.11503e-05H73.4912C72.7786 0.0040692 72.093 0.27343 71.5682 0.755587C71.0434 1.23774 70.7171 1.89811 70.6528 2.60786L70.0923 9.26653C70.0467 9.86728 69.8073 10.437 69.4102 10.89C69.013 11.3431 68.4796 11.655 67.89 11.7789L67.2579 11.926C62.7746 12.9165 58.5008 14.6887 54.6323 17.1615L54.0956 17.5034C53.5891 17.8282 52.9917 17.9819 52.3913 17.9418C51.7909 17.9018 51.2192 17.6701 50.7603 17.2808L45.6639 12.9596C45.1204 12.4965 44.4222 12.2557 43.7087 12.2851C42.9953 12.3146 42.3193 12.6123 41.8158 13.1186L38.5362 16.3983C38.0276 16.9058 37.7282 17.5859 37.6973 18.3037C37.6664 19.0215 37.9062 19.7248 38.3692 20.2742L42.6825 25.3626C43.0717 25.8215 43.3034 26.3932 43.3435 26.9936C43.3836 27.594 43.2299 28.1914 42.9051 28.6979L42.5632 29.2346C40.0892 33.1011 38.3168 37.3738 37.3277 41.8563L37.1925 42.4804C37.0629 43.0707 36.7466 43.6036 36.2905 44.0003C35.8345 44.3969 35.2629 44.6362 34.6603 44.6827L28.0016 45.2432C27.2913 45.3115 26.632 45.6423 26.1527 46.1709C25.6733 46.6995 25.4084 47.3879 25.4097 48.1015V52.7407C25.4177 53.4502 25.689 54.1314 26.1708 54.6521C26.6527 55.1729 27.3108 55.4962 28.0175 55.5592Z" fill="#CCCCCC"/>
<path d="M66.8604 75.388V70.0332H72.6246V75.2966C73.7854 75.2966 74.9515 75.2966 76.1229 75.2966V68.1728H83.8072V75.3284C84.976 75.3483 86.1407 75.3681 87.3015 75.396V70.0332H93.0657V73.301C94.1175 72.5074 95.1136 71.6427 96.0472 70.713V64.75L79.9631 52.3271L63.8789 64.75V75.4834C64.8727 75.4357 65.8546 75.4079 66.8604 75.388ZM79.979 56.3939C80.6213 56.3939 81.2493 56.5844 81.7834 56.9413C82.3175 57.2981 82.7338 57.8054 82.9796 58.3988C83.2254 58.9923 83.2897 59.6453 83.1644 60.2754C83.0391 60.9054 82.7298 61.4841 82.2755 61.9383C81.8213 62.3925 81.2426 62.7019 80.6126 62.8272C79.9826 62.9525 79.3295 62.8882 78.7361 62.6424C78.1426 62.3965 77.6354 61.9803 77.2785 61.4462C76.9216 60.912 76.7311 60.2841 76.7311 59.6417C76.7311 58.7845 77.07 57.962 77.674 57.3536C78.2779 56.7452 79.0979 56.4002 79.9551 56.3939H79.979Z" fill="#CCCCCC"/>
<path d="M50.2753 61.705H51.4679V63.7284H50.4184C53.0484 68.7091 57.0779 72.8118 62.0104 75.5312L62.8055 75.5033V66.0858L62.2092 66.5469H57.3633C57.2501 66.5472 57.1397 66.512 57.0477 66.4463C56.9556 66.3805 56.8865 66.2875 56.8501 66.1804C56.8136 66.0733 56.8117 65.9575 56.8446 65.8492C56.8775 65.7409 56.9435 65.6457 57.0333 65.577L65.8466 58.7672V57.2924H67.5162V57.4792L74.962 51.7229H71.5949V27.708H58.5757V41.3076H48.7368V59.8406C49.1671 61.067 49.6811 62.2624 50.2753 63.4184V61.705ZM60.0029 66.5509H61.6924V68.5744H60.0228L60.0029 66.5509ZM60.0029 71.1782H61.6924V73.2056H60.0228L60.0029 71.1782ZM68.7486 29.5168H70.4381V31.5442H68.7685L68.7486 29.5168ZM68.7486 43.4066H70.4381V45.43H68.7685L68.7486 43.4066ZM68.7486 48.0338H70.4381V50.0573H68.7685L68.7486 48.0338ZM68.7486 52.6611H70.4381V54.6885H68.7685L68.7486 52.6611ZM65.8307 29.5168H67.5003V31.5442H65.8307V29.5168ZM65.8307 34.148H67.5003V36.1755H65.8307V34.148ZM65.8307 38.7753H67.5003V40.8027H65.8307V38.7753ZM65.8307 48.0338H67.5003V50.0573H65.8307V48.0338ZM62.9247 38.7753H64.5944V40.8027H62.9247V38.7753ZM62.9247 43.4066H64.5944V45.43H62.9247V43.4066ZM62.9247 52.6611H64.5944V54.6885H62.9247V52.6611ZM62.9247 57.2924H64.5944V59.3158H62.9247V57.2924ZM60.0029 29.5168H61.6924V31.5442H60.0228L60.0029 29.5168ZM60.0029 34.148H61.6924V36.1755H60.0228L60.0029 34.148ZM60.0029 38.7753H61.6924V40.8027H60.0228L60.0029 38.7753ZM60.0029 48.0338H61.6924V50.0573H60.0228L60.0029 48.0338ZM60.0029 52.6611H61.6924V54.6885H60.0228L60.0029 52.6611ZM56.608 43.9154H57.8006V45.9389H56.608V43.9154ZM56.608 48.3638H57.8006V50.3872H56.608V48.3638ZM56.608 52.8122H57.8006V54.8356H56.608V52.8122ZM54.4971 48.3638H55.6897V50.3872H54.4971V48.3638ZM54.4971 57.2606H55.6897V59.284H54.4971V57.2606ZM54.4971 61.709H55.6897V63.7324H54.4971V61.709ZM52.3862 43.9154H53.5788V45.9389H52.3862V43.9154ZM52.3862 52.8122H53.5788V54.8356H52.3862V52.8122ZM52.3862 61.709H53.5788V63.7324H52.3862V61.709ZM50.2753 43.9154H51.4679V45.9389H50.2753V43.9154ZM50.2753 48.3638H51.4679V50.3872H50.2753V48.3638ZM50.2753 57.2606H51.4679V59.284H50.2753V57.2606Z" fill="#CCCCCC"/>
<path d="M152.799 85.2388C133.372 80.3969 106.423 77.3955 76.6359 77.3955C46.8488 77.3955 19.9001 80.3969 0.472656 85.2388C19.9001 83.3148 46.8488 82.1222 76.6359 82.1222C106.423 82.1222 133.372 83.3148 152.799 85.2388Z" fill="#CCCCCC"/>
<path d="M20.349 99.9952C19.4708 100.03 18.6005 99.8178 17.8366 99.383C17.1957 98.9997 16.6858 98.4315 16.3737 97.7531C16.0504 97.0124 15.8748 96.2157 15.8569 95.4077C15.8569 94.9426 15.8569 94.4456 15.8569 93.9129C15.8569 93.3802 15.8569 92.8714 15.8569 92.3824C15.8737 91.5607 16.052 90.7502 16.3817 89.9972C16.6868 89.3148 17.1949 88.7429 17.8366 88.3594C18.6057 87.932 19.478 87.7257 20.357 87.7631C21.0588 87.7462 21.7575 87.8622 22.4162 88.105C22.9352 88.3006 23.4067 88.6041 23.7996 88.9955C24.1371 89.3396 24.4069 89.7442 24.5947 90.1881C24.7627 90.5847 24.8634 91.0066 24.8928 91.4363C24.8998 91.4821 24.8946 91.529 24.8779 91.5722C24.8611 91.6154 24.8334 91.6536 24.7974 91.6828C24.7244 91.7453 24.6312 91.7792 24.5351 91.7782H24.1932C24.1072 91.7782 24.0235 91.7503 23.9547 91.6987C23.8756 91.6267 23.8273 91.5271 23.8195 91.4204C23.6048 90.4107 23.1994 89.7229 22.607 89.3493C21.9231 88.9508 21.14 88.755 20.349 88.7848C19.9027 88.7611 19.4561 88.8262 19.035 88.9763C18.614 89.1264 18.2269 89.3586 17.8963 89.6593C17.2881 90.2397 16.9621 91.1739 16.9183 92.4421C16.8865 93.3683 16.8865 94.3224 16.9183 95.2964C16.9607 96.5764 17.2867 97.504 17.8963 98.0791C18.2249 98.3848 18.6109 98.6223 19.0319 98.7779C19.4529 98.9335 19.9006 99.004 20.349 98.9855C21.1383 99.0156 21.9199 98.8213 22.6031 98.4249C23.1941 98.0513 23.5982 97.3595 23.8155 96.3498C23.8244 96.2435 23.8726 96.1443 23.9507 96.0715C24.02 96.0213 24.1036 95.9949 24.1892 95.996H24.5311C24.6267 95.9939 24.7198 96.0264 24.7935 96.0874C24.8291 96.1169 24.8566 96.1551 24.8733 96.1982C24.89 96.2414 24.8954 96.2881 24.8889 96.3339C24.8599 96.7637 24.7591 97.1857 24.5907 97.5822C24.4039 98.0266 24.1341 98.4314 23.7957 98.7748C23.4029 99.1674 22.9314 99.4722 22.4122 99.6692C21.7512 99.9071 21.0512 100.018 20.349 99.9952Z" fill="#CCCCCC"/>
<path d="M31.4206 99.9957C30.5972 100.019 29.78 99.847 29.0354 99.4948C28.3766 99.158 27.8461 98.6149 27.5247 97.9484C27.1419 97.1212 26.9438 96.2204 26.9443 95.3088C26.9443 94.796 26.9443 94.3229 26.9443 93.8817C26.9443 93.4404 26.9443 92.9634 26.9443 92.4545C26.9437 91.5497 27.1489 90.6565 27.5446 89.8428C27.8866 89.1716 28.4282 88.623 29.095 88.2725C29.8223 87.9373 30.6137 87.7637 31.4146 87.7637C32.2155 87.7637 33.0068 87.9373 33.7342 88.2725C34.4061 88.6214 34.9533 89.17 35.3005 89.8428C35.7087 90.6579 35.9159 91.5589 35.9047 92.4704C35.9286 92.9793 35.9365 93.4563 35.9365 93.8976C35.9365 94.3388 35.9365 94.8119 35.9047 95.3247C35.9146 96.236 35.7203 97.1379 35.3362 97.9643C35.008 98.63 34.4742 99.1722 33.8137 99.5107C33.0654 99.8589 32.2454 100.025 31.4206 99.9957ZM31.4206 98.978C32.3003 99.0066 33.1564 98.6898 33.8057 98.0955C34.4338 97.5032 34.7718 96.5491 34.8195 95.2214C34.8195 94.7125 34.8513 94.2673 34.8513 93.8817C34.8513 93.4961 34.8513 93.0469 34.8195 92.538C34.8267 91.7907 34.6607 91.0518 34.3345 90.3794C34.0678 89.8696 33.6517 89.4535 33.1419 89.1868C32.6049 88.9355 32.0193 88.8053 31.4265 88.8053C30.8337 88.8053 30.2481 88.9355 29.7112 89.1868C29.1998 89.4514 28.7832 89.8681 28.5186 90.3794C28.1885 91.0511 28.0171 91.7896 28.0177 92.538C28.0177 93.0469 27.9978 93.4961 27.9978 93.8817C27.9978 94.2673 27.9978 94.7125 28.0177 95.2214C28.0614 96.5491 28.4152 97.5032 29.0354 98.0955C29.6844 98.6913 30.5399 99.0107 31.4206 98.986V98.978Z" fill="#CCCCCC"/>
<path d="M39.0332 99.8246C38.9833 99.8282 38.9331 99.821 38.8862 99.8034C38.8392 99.7859 38.7966 99.7585 38.7612 99.7231C38.7257 99.6876 38.6983 99.645 38.6808 99.5981C38.6633 99.5511 38.656 99.501 38.6596 99.451V88.3201C38.6566 88.2672 38.6642 88.2144 38.682 88.1645C38.6997 88.1147 38.7273 88.0689 38.7629 88.0299C38.7988 87.9957 38.8413 87.9692 38.8878 87.9521C38.9343 87.935 38.9838 87.9277 39.0332 87.9305H39.391C39.4834 87.9243 39.5746 87.9542 39.6454 88.014C39.6851 88.0478 39.7187 88.0881 39.7448 88.1332L46.0139 97.7138V88.324C46.011 88.2712 46.0186 88.2183 46.0363 88.1685C46.0541 88.1187 46.0816 88.0729 46.1173 88.0338C46.1533 87.9998 46.1958 87.9735 46.2422 87.9564C46.2887 87.9393 46.3382 87.9319 46.3876 87.9345H46.6937C46.7462 87.931 46.799 87.938 46.8488 87.955C46.8986 87.9721 46.9445 87.9989 46.9839 88.0338C47.0196 88.0729 47.0471 88.1187 47.0648 88.1685C47.0826 88.2183 47.0902 88.2712 47.0873 88.324V99.4351C47.0911 99.5391 47.054 99.6404 46.9839 99.7173C46.9489 99.7531 46.9067 99.7812 46.8601 99.7997C46.8136 99.8182 46.7636 99.8267 46.7136 99.8246H46.3399C46.2952 99.8289 46.2502 99.8237 46.2077 99.8093C46.1653 99.7949 46.1263 99.7717 46.0934 99.7412L45.9821 99.6219L39.7289 90.0811V99.4589C39.7318 99.509 39.7245 99.5591 39.7074 99.6063C39.6904 99.6534 39.6639 99.6966 39.6295 99.7332C39.5902 99.7682 39.5442 99.795 39.4944 99.812C39.4446 99.8291 39.3919 99.8361 39.3393 99.8326L39.0332 99.8246Z" fill="#CCCCCC"/>
<path d="M53.8295 99.9952C53.0276 100.018 52.2303 99.8678 51.492 99.554C50.9124 99.3072 50.406 98.9157 50.0211 98.417C49.6958 97.99 49.5073 97.4744 49.4805 96.9382C49.4799 96.8938 49.4885 96.8497 49.5055 96.8087C49.5226 96.7677 49.5479 96.7306 49.5799 96.6997C49.6131 96.6662 49.6528 96.6398 49.6965 96.622C49.7402 96.6042 49.7871 96.5955 49.8343 96.5963H50.1643C50.2128 96.5942 50.2612 96.6022 50.3065 96.62C50.3517 96.6379 50.3926 96.665 50.4266 96.6997C50.4897 96.7642 50.529 96.8484 50.5379 96.9382C50.5941 97.2843 50.7409 97.6093 50.9633 97.8804C51.2422 98.2296 51.6045 98.503 52.0168 98.6754C52.5887 98.904 53.202 99.0109 53.8176 98.9895C54.9254 98.9895 55.735 98.7881 56.2465 98.3852C56.4936 98.1951 56.6917 97.9487 56.8244 97.6666C56.9572 97.3845 57.0207 97.0749 57.0098 96.7633C57.0191 96.5632 56.9888 96.3633 56.9206 96.175C56.8524 95.9867 56.7476 95.8137 56.6122 95.6661C56.2622 95.3364 55.8481 95.082 55.3958 94.9187C54.8498 94.6988 54.1528 94.4523 53.3048 94.1793C52.6203 93.9729 51.9552 93.7068 51.3171 93.3843C50.8343 93.168 50.4301 92.8079 50.1597 92.3532C49.8894 91.8986 49.766 91.3715 49.8065 90.844C49.8013 90.292 49.9604 89.751 50.2636 89.2897C50.5983 88.808 51.061 88.4293 51.5993 88.1965C52.2718 87.9091 52.9993 87.7734 53.7301 87.7989C54.3256 87.7881 54.9186 87.8795 55.4832 88.0692C55.9392 88.2287 56.3603 88.4743 56.7235 88.7928C57.0298 89.0677 57.2832 89.3965 57.4709 89.7627C57.6305 90.0768 57.7225 90.4207 57.7412 90.7725C57.7384 90.8562 57.7092 90.9369 57.6577 91.003C57.6237 91.0414 57.5812 91.0714 57.5336 91.0908C57.486 91.1101 57.4346 91.1181 57.3834 91.1143H57.0455C56.9692 91.1085 56.8954 91.084 56.8309 91.0428C56.7845 91.0139 56.7458 90.9743 56.7181 90.9272C56.6904 90.8801 56.6745 90.827 56.6719 90.7725C56.6349 90.4873 56.5356 90.2137 56.381 89.9712C56.2264 89.7287 56.0203 89.5231 55.7774 89.3692C55.1678 88.9797 54.4528 88.7881 53.7301 88.8206C53.013 88.7905 52.3016 88.9598 51.6749 89.3096C51.4706 89.4547 51.2971 89.6388 51.1643 89.8512C51.0315 90.0637 50.942 90.3003 50.901 90.5475C50.8599 90.7947 50.8682 91.0475 50.9253 91.2915C50.9824 91.5355 51.0872 91.7657 51.2336 91.969C51.5428 92.3082 51.9266 92.5708 52.3547 92.7363C52.8635 92.9549 53.5234 93.1974 54.3423 93.4558C55.0624 93.679 55.7664 93.9513 56.4492 94.2708C56.9391 94.4933 57.3655 94.835 57.6895 95.2646C57.9745 95.7196 58.1132 96.2509 58.0871 96.7871C58.1073 97.4131 57.9261 98.0289 57.5703 98.5442C57.1972 99.0472 56.6863 99.4311 56.0994 99.6494C55.3715 99.9075 54.6012 100.025 53.8295 99.9952Z" fill="#CCCCCC"/>
<path d="M63.3785 99.825C63.3283 99.8292 63.2779 99.8225 63.2306 99.8052C63.1833 99.7879 63.1404 99.7605 63.1048 99.7249C63.0693 99.6893 63.0419 99.6464 63.0246 99.5992C63.0073 99.5519 63.0005 99.5014 63.0048 99.4513V88.952H59.6375C59.5881 88.9546 59.5386 88.9471 59.4921 88.93C59.4457 88.9129 59.4031 88.8866 59.3672 88.8526C59.3323 88.8162 59.3052 88.7731 59.2875 88.726C59.2697 88.6788 59.2617 88.6286 59.2638 88.5783V88.3238C59.2609 88.271 59.2685 88.2181 59.2862 88.1683C59.304 88.1185 59.3315 88.0727 59.3672 88.0336C59.4031 87.9996 59.4457 87.9733 59.4921 87.9562C59.5386 87.9391 59.5881 87.9316 59.6375 87.9342H67.4215C67.5263 87.9283 67.6292 87.964 67.7078 88.0336C67.7435 88.0727 67.771 88.1185 67.7887 88.1683C67.8065 88.2181 67.8141 88.271 67.8111 88.3238V88.5783C67.8133 88.6286 67.8052 88.6788 67.7875 88.726C67.7697 88.7731 67.7426 88.8162 67.7078 88.8526C67.6292 88.9222 67.5263 88.9579 67.4215 88.952H64.0781V99.4513C64.0803 99.5016 64.0722 99.5519 64.0545 99.599C64.0367 99.6461 64.0096 99.6892 63.9748 99.7256C63.9354 99.7606 63.8895 99.7874 63.8396 99.8044C63.7898 99.8215 63.7371 99.8285 63.6846 99.825H63.3785Z" fill="#CCCCCC"/>
<path d="M70.2395 99.8241C70.1901 99.8267 70.1406 99.8192 70.0942 99.8021C70.0477 99.7851 70.0052 99.7587 69.9692 99.7247C69.9344 99.6883 69.9073 99.6453 69.8895 99.5981C69.8718 99.551 69.8637 99.5008 69.8659 99.4504V88.3195C69.8629 88.2667 69.8705 88.2138 69.8883 88.164C69.906 88.1142 69.9335 88.0684 69.9692 88.0293C70.0052 87.9953 70.0477 87.969 70.0942 87.9519C70.1406 87.9348 70.1901 87.9273 70.2395 87.9299H74.2149C75.2334 87.8763 76.2391 88.1769 77.0612 88.7807C77.7688 89.3451 78.1226 90.2078 78.1226 91.3606C78.1624 92.1433 77.9213 92.9145 77.4428 93.5351C76.9542 94.1018 76.2915 94.4904 75.5585 94.6403L78.2935 99.2954C78.3228 99.3535 78.3391 99.4172 78.3412 99.4822C78.3412 99.5718 78.3056 99.6578 78.2423 99.7212C78.1789 99.7845 78.093 99.8201 78.0033 99.8201H77.8006C77.7281 99.8242 77.6556 99.8136 77.5873 99.789C77.519 99.7644 77.4563 99.7263 77.4031 99.677C77.3115 99.5821 77.2314 99.4767 77.1645 99.363L74.4653 94.7913H70.963V99.4465C70.966 99.4965 70.9586 99.5467 70.9416 99.5938C70.9245 99.641 70.898 99.6842 70.8637 99.7207C70.8243 99.7557 70.7783 99.7825 70.7285 99.7996C70.6787 99.8166 70.626 99.8236 70.5735 99.8201L70.2395 99.8241ZM70.9352 93.7776H74.1155C75.0974 93.7776 75.8328 93.5749 76.3138 93.1734C76.7781 92.6856 77.037 92.038 77.037 91.3646C77.037 90.6912 76.7781 90.0436 76.3138 89.5558C75.8328 89.1583 75.0974 88.9516 74.1155 88.9516H70.9352V93.7776Z" fill="#CCCCCC"/>
<path d="M85.0198 99.9954C84.2058 100.017 83.3986 99.8429 82.6664 99.4865C82.0098 99.1418 81.4826 98.5937 81.1637 97.9242C80.7838 97.0753 80.6042 96.1504 80.639 95.221V88.3238C80.6355 88.2713 80.6425 88.2186 80.6596 88.1687C80.6766 88.1189 80.7034 88.073 80.7384 88.0336C80.775 87.9993 80.8182 87.9728 80.8653 87.9557C80.9125 87.9386 80.9626 87.9313 81.0127 87.9342H81.3188C81.4236 87.9283 81.5265 87.964 81.605 88.0336C81.6407 88.0727 81.6682 88.1185 81.6859 88.1683C81.7037 88.2181 81.7113 88.271 81.7084 88.3238V95.2727C81.7084 96.5395 82.0052 97.4737 82.5988 98.0753C83.268 98.6573 84.125 98.9778 85.0119 98.9778C85.8987 98.9778 86.7557 98.6573 87.4249 98.0753C88.0212 97.475 88.3153 96.5408 88.3153 95.2727V88.3238C88.3135 88.2704 88.3223 88.2172 88.3415 88.1674C88.3606 88.1175 88.3896 88.072 88.4267 88.0336C88.5042 87.965 88.6055 87.9293 88.7089 87.9342H89.015C89.0644 87.9316 89.1139 87.9391 89.1604 87.9562C89.2068 87.9733 89.2493 87.9996 89.2853 88.0336C89.321 88.0727 89.3485 88.1185 89.3663 88.1683C89.384 88.2181 89.3916 88.271 89.3887 88.3238V95.221C89.4226 96.1499 89.2445 97.0744 88.8679 97.9242C88.5551 98.5926 88.0332 99.141 87.3811 99.4865C86.647 99.8453 85.8366 100.02 85.0198 99.9954Z" fill="#CCCCCC"/>
<path d="M96.5045 99.9955C95.6243 100.035 94.7509 99.8251 93.9841 99.3912C93.3449 99.0046 92.8377 98.4336 92.5291 97.7534C92.201 97.0083 92.0227 96.206 92.0044 95.392C92.0044 94.9269 92.0044 94.43 92.0044 93.8973C92.0044 93.3646 92.0044 92.8558 92.0044 92.3668C92.0212 91.545 92.1995 90.7346 92.5291 89.9816C92.8343 89.2991 93.3423 88.7272 93.9841 88.3438C94.7532 87.9164 95.6254 87.71 96.5045 87.7475C97.205 87.7299 97.9026 87.8459 98.5597 88.0894C99.0803 88.284 99.5533 88.5876 99.9471 88.9798C100.285 89.324 100.554 89.7285 100.742 90.1724C100.914 90.5724 101.018 90.9984 101.048 91.4326C101.054 91.4784 101.049 91.525 101.032 91.5681C101.016 91.6112 100.988 91.6494 100.953 91.6791C100.88 91.7416 100.787 91.7755 100.69 91.7745H100.349C100.263 91.7745 100.179 91.7466 100.11 91.695C100.031 91.623 99.9827 91.5234 99.9749 91.4167C99.7603 90.407 99.3548 89.7193 98.7823 89.3456C98.0991 88.9492 97.3175 88.7549 96.5283 88.7851C96.082 88.7614 95.6353 88.8265 95.2143 88.9766C94.7933 89.1267 94.4062 89.3589 94.0755 89.6596C93.4673 90.24 93.1413 91.1742 93.0976 92.4423C93.0658 93.3686 93.0658 94.3227 93.0976 95.2966C93.1427 96.5767 93.4686 97.5043 94.0755 98.0794C94.4067 98.3794 94.7938 98.6111 95.2147 98.7612C95.6356 98.9112 96.082 98.9768 96.5283 98.9539C97.3175 98.9841 98.0991 98.7897 98.7823 98.3934C99.3733 98.0197 99.7709 97.328 99.9749 96.3183C99.9838 96.212 100.032 96.1128 100.11 96.04C100.179 95.9898 100.263 95.9633 100.349 95.9645H100.69C100.786 95.9624 100.879 95.9949 100.953 96.0559C100.988 96.0859 101.015 96.1241 101.032 96.1671C101.048 96.2101 101.054 96.2566 101.048 96.3024C101.019 96.7322 100.919 97.1541 100.75 97.5506C100.563 97.9951 100.293 98.3999 99.955 98.7432C99.5615 99.1367 99.0885 99.4416 98.5677 99.6377C97.909 99.8875 97.2087 100.009 96.5045 99.9955Z" fill="#CCCCCC"/>
<path d="M106.514 99.824C106.464 99.8282 106.414 99.8214 106.367 99.8042C106.319 99.7869 106.276 99.7595 106.241 99.7239C106.205 99.6883 106.178 99.6454 106.161 99.5982C106.143 99.5509 106.137 99.5004 106.141 99.4503V88.9515H102.774C102.724 88.9541 102.675 88.9466 102.628 88.9295C102.582 88.9124 102.539 88.8861 102.503 88.8521C102.469 88.8157 102.441 88.7726 102.424 88.7255C102.406 88.6784 102.398 88.6281 102.4 88.5778V88.3234C102.397 88.2705 102.405 88.2177 102.422 88.1678C102.44 88.118 102.468 88.0722 102.503 88.0332C102.539 87.9992 102.582 87.9728 102.628 87.9557C102.675 87.9387 102.724 87.9312 102.774 87.9338H110.557C110.611 87.9266 110.666 87.9319 110.718 87.9493C110.769 87.9668 110.816 87.9958 110.854 88.0343C110.893 88.0727 110.922 88.1195 110.939 88.1711C110.957 88.2226 110.962 88.2774 110.955 88.3313V88.5857C110.958 88.6362 110.95 88.6867 110.933 88.734C110.915 88.7812 110.887 88.8242 110.852 88.86C110.773 88.9296 110.67 88.9654 110.565 88.9594H107.21V99.4582C107.212 99.5086 107.204 99.5588 107.187 99.606C107.169 99.6531 107.142 99.6962 107.107 99.7325C107.028 99.8022 106.925 99.8379 106.821 99.8319L106.514 99.824Z" fill="#CCCCCC"/>
<path d="M113.372 99.8248C113.322 99.8274 113.273 99.8199 113.226 99.8028C113.18 99.7857 113.137 99.7594 113.101 99.7254C113.066 99.689 113.039 99.6459 113.022 99.5988C113.004 99.5516 112.996 99.5014 112.998 99.4511V88.3196C112.996 88.2184 113.033 88.1203 113.101 88.0453C113.137 88.0113 113.18 87.985 113.226 87.9679C113.273 87.9508 113.322 87.9433 113.372 87.9459H113.694C113.744 87.943 113.794 87.9503 113.841 87.9674C113.888 87.9845 113.931 88.011 113.968 88.0453C114.035 88.1209 114.07 88.2189 114.067 88.3196V99.4511C114.072 99.5012 114.065 99.5517 114.047 99.5989C114.03 99.6462 114.003 99.6891 113.967 99.7247C113.932 99.7603 113.889 99.7877 113.841 99.8049C113.794 99.8222 113.744 99.829 113.694 99.8248H113.372Z" fill="#CCCCCC"/>
<path d="M121.295 99.9957C120.471 100.019 119.654 99.847 118.909 99.4948C118.251 99.158 117.72 98.6149 117.399 97.9484C117.016 97.1212 116.818 96.2204 116.818 95.3088C116.818 94.796 116.818 94.3229 116.818 93.8817C116.818 93.4404 116.818 92.9634 116.818 92.4545C116.819 91.5434 117.028 90.6445 117.431 89.8269C117.776 89.161 118.319 88.6181 118.985 88.2725C119.712 87.9373 120.504 87.7637 121.305 87.7637C122.105 87.7637 122.897 87.9373 123.624 88.2725C124.292 88.6179 124.838 89.1606 125.186 89.8269C125.595 90.642 125.802 91.543 125.791 92.4545C125.815 92.9634 125.826 93.4404 125.826 93.8817C125.826 94.3229 125.826 94.796 125.791 95.3088C125.802 96.2203 125.608 97.1226 125.222 97.9484C124.895 98.6149 124.361 99.1575 123.7 99.4948C122.949 99.8503 122.125 100.022 121.295 99.9957ZM121.295 98.978C122.174 99.0066 123.03 98.6898 123.68 98.0955C124.312 97.5032 124.646 96.5491 124.693 95.2214C124.713 94.7125 124.725 94.2673 124.725 93.8817C124.725 93.4961 124.725 93.0469 124.693 92.538C124.701 91.7907 124.535 91.0518 124.208 90.3794C123.941 89.8701 123.525 89.4541 123.016 89.1868C122.48 88.9198 121.889 88.7835 121.291 88.7893C120.697 88.7844 120.111 88.9206 119.581 89.1868C119.07 89.4514 118.653 89.8681 118.389 90.3794C118.059 91.0511 117.887 91.7896 117.888 92.538C117.888 93.0469 117.888 93.4961 117.888 93.8817C117.888 94.2673 117.888 94.7125 117.888 95.2214C117.931 96.5491 118.285 97.5032 118.905 98.0955C119.556 98.6915 120.413 99.0109 121.295 98.986V98.978Z" fill="#CCCCCC"/>
<path d="M128.876 99.8249C128.826 99.8275 128.777 99.82 128.73 99.8029C128.684 99.7858 128.641 99.7595 128.605 99.7255C128.571 99.6891 128.544 99.646 128.526 99.5989C128.508 99.5518 128.5 99.5015 128.502 99.4512V88.3203C128.499 88.2675 128.507 88.2146 128.525 88.1648C128.542 88.1149 128.57 88.0691 128.605 88.0301C128.641 87.9961 128.684 87.9697 128.73 87.9526C128.777 87.9356 128.826 87.9281 128.876 87.9307H129.234C129.279 87.9272 129.325 87.9328 129.369 87.9471C129.413 87.9614 129.453 87.9842 129.488 88.0142C129.527 88.0495 129.562 88.0896 129.591 88.1334L135.86 97.714V88.3242C135.857 88.2717 135.864 88.219 135.881 88.1692C135.898 88.1194 135.925 88.0734 135.96 88.034C135.996 87.9997 136.04 87.9732 136.087 87.9562C136.134 87.9391 136.184 87.9318 136.234 87.9347H136.54C136.645 87.9287 136.748 87.9644 136.826 88.034C136.862 88.0731 136.89 88.1189 136.907 88.1687C136.925 88.2186 136.933 88.2714 136.93 88.3242V99.4353C136.934 99.5393 136.896 99.6406 136.826 99.7175C136.791 99.7533 136.749 99.7814 136.703 99.7999C136.656 99.8184 136.606 99.8269 136.556 99.8249H136.182C136.138 99.8291 136.093 99.8239 136.05 99.8095C136.008 99.7951 135.969 99.7719 135.936 99.7414L135.825 99.6221L129.571 90.0813V99.4591C129.574 99.5092 129.567 99.5593 129.55 99.6065C129.533 99.6537 129.506 99.6968 129.472 99.7334C129.433 99.7684 129.387 99.7952 129.337 99.8122C129.287 99.8293 129.234 99.8363 129.182 99.8328L128.876 99.8249Z" fill="#CCCCCC"/>
</svg>
