<svg width="60" height="61" viewBox="0 0 60 61" fill="none" xmlns="http://www.w3.org/2000/svg">
<circle cx="30" cy="30.5" r="30" fill="#EEEEEE"/>
<g clip-path="url(#clip0_329_1598)">
<path d="M27.8571 23C27.8571 22.4083 28.3368 21.9286 28.9286 21.9286C29.5203 21.9286 30 22.4083 30 23V30.5H34.2857C34.8774 30.5 35.3571 30.9797 35.3571 31.5714C35.3571 32.1632 34.8774 32.6429 34.2857 32.6429H28.9286C28.3368 32.6429 27.8571 32.1632 27.8571 31.5714V23ZM30 45.5C38.2843 45.5 45 38.7843 45 30.5C45 22.2157 38.2843 15.5 30 15.5C21.7157 15.5 15 22.2157 15 30.5C15 38.7843 21.7157 45.5 30 45.5ZM30 43.3571C22.8992 43.3571 17.1429 37.6008 17.1429 30.5C17.1429 23.3992 22.8992 17.6429 30 17.6429C37.1008 17.6429 42.8571 23.3992 42.8571 30.5C42.8571 37.6008 37.1008 43.3571 30 43.3571Z" fill="#212121"/>
</g>
<defs>
<clipPath id="clip0_329_1598">
<rect width="30" height="30" fill="white" transform="translate(15 15.5)"/>
</clipPath>
</defs>
</svg>
