<svg width="13" height="15" viewBox="0 0 13 15" fill="none" xmlns="http://www.w3.org/2000/svg">
<path id="Shape" d="M2.59969 4.85244C2.59969 4.60881 2.79368 4.41131 3.03298 4.41131H7.3658C7.6051 4.41131 7.79908 4.60881 7.79908 4.85244C7.79908 5.09607 7.6051 5.29357 7.3658 5.29357H3.03298C2.79368 5.29357 2.59969 5.09607 2.59969 4.85244ZM3.03298 7.05809C2.79368 7.05809 2.59969 7.25559 2.59969 7.49922C2.59969 7.74285 2.79368 7.94035 3.03298 7.94035H7.3658C7.6051 7.94035 7.79908 7.74285 7.79908 7.49922C7.79908 7.25559 7.6051 7.05809 7.3658 7.05809H3.03298ZM2.59969 10.146C2.59969 9.90238 2.79368 9.70488 3.03298 9.70488H4.76611C5.0054 9.70488 5.19939 9.90238 5.19939 10.146C5.19939 10.3896 5.0054 10.5871 4.76611 10.5871H3.03298C2.79368 10.5871 2.59969 10.3896 2.59969 10.146ZM1.73313 0.441131C1.73313 0.197501 1.92712 0 2.16641 0C2.40571 0 2.59969 0.197501 2.59969 0.441131V0.882261H4.76611V0.441131C4.76611 0.197501 4.96009 0 5.19939 0C5.43868 0 5.63267 0.197501 5.63267 0.441131V0.882261H7.79908V0.441131C7.79908 0.197501 7.99307 0 8.23237 0C8.47166 0 8.66565 0.197501 8.66565 0.441131V0.882261H9.09893C9.81682 0.882261 10.3988 1.47476 10.3988 2.20565V6.38019C10.1161 6.50349 9.85134 6.6826 9.62061 6.91751L9.53221 7.0075V2.20565C9.53221 1.96202 9.33823 1.76452 9.09893 1.76452H1.29985C1.06055 1.76452 0.866565 1.96202 0.866565 2.20565V12.7928C0.866565 13.0364 1.06055 13.2339 1.29985 13.2339H4.52388L4.38235 13.8103C4.35705 13.9133 4.34162 14.0155 4.3353 14.1162H1.29985C0.581961 14.1162 0 13.5237 0 12.7928V2.20565C0 1.47476 0.581961 0.882261 1.29985 0.882261H1.73313V0.441131ZM10.2334 7.54136L6.04841 11.8022C5.80441 12.0506 5.6313 12.3619 5.54761 12.7027L5.2231 14.0242C5.08198 14.599 5.5933 15.1195 6.15778 14.9759L7.45581 14.6455C7.79058 14.5603 8.09631 14.384 8.34032 14.1356L12.5253 9.87478C13.1582 9.23043 13.1582 8.18572 12.5253 7.54136C11.8924 6.897 10.8663 6.897 10.2334 7.54136Z" fill="#212121"/>
</svg>
