<svg width="60" height="60" viewBox="0 0 60 60" fill="none" xmlns="http://www.w3.org/2000/svg">
<circle cx="30" cy="30" r="30" fill="#EFEBE9"/>
<g clip-path="url(#clip0_500_7119)">
<path d="M24.2308 15.5771C23.5935 15.5771 23.0769 16.0937 23.0769 16.731V22.5002H20.7692C17.583 22.5002 15 25.0832 15 28.2695V38.6541C15 41.8403 17.583 44.4233 20.7692 44.4233H39.2308C42.417 44.4233 45 41.8403 45 38.6541V28.2695C45 25.0832 42.417 22.5002 39.2308 22.5002H36.9231V16.731C36.9231 16.0937 36.4065 15.5771 35.7692 15.5771H24.2308ZM34.6154 22.5002H25.3846V17.8848H34.6154V22.5002ZM20.7692 24.8079H39.2308C41.1425 24.8079 42.6923 26.3577 42.6923 28.2695V38.6541C42.6923 40.5658 41.1425 42.1156 39.2308 42.1156H20.7692C18.8575 42.1156 17.3077 40.5658 17.3077 38.6541V28.2695C17.3077 26.3577 18.8575 24.8079 20.7692 24.8079Z" fill="#4E342E"/>
</g>
<defs>
<clipPath id="clip0_500_7119">
<rect width="30" height="30" fill="white" transform="translate(15 15)"/>
</clipPath>
</defs>
</svg>
