<svg width="60" height="60" viewBox="0 0 60 60" fill="none" xmlns="http://www.w3.org/2000/svg">
<g id="Group 464">
<circle id="Ellipse 1" cx="30" cy="30" r="30" fill="#F2E1DA"/>
<path id="Vector" d="M38.01 20.19C37.654 20.19 37.306 20.2956 37.01 20.4934C36.714 20.6911 36.4833 20.9723 36.347 21.3012C36.2108 21.6301 36.1751 21.992 36.2446 22.3412C36.314 22.6903 36.4855 23.0111 36.7372 23.2628C36.9889 23.5145 37.3097 23.686 37.6588 23.7554C38.008 23.8249 38.3699 23.7892 38.6988 23.653C39.0277 23.5167 39.3089 23.286 39.5066 22.99C39.7044 22.694 39.81 22.346 39.81 21.99C39.81 21.5126 39.6204 21.0548 39.2828 20.7172C38.9452 20.3796 38.4874 20.19 38.01 20.19ZM44.91 23.82C44.8808 22.5754 44.6477 21.3441 44.22 20.175C43.8386 19.1747 43.245 18.2689 42.48 17.52C41.7372 16.7511 40.8293 16.1613 39.825 15.795C38.659 15.3542 37.4263 15.1158 36.18 15.09C34.59 15 34.08 15 30 15C25.92 15 25.41 15 23.82 15.09C22.5737 15.1158 21.341 15.3542 20.175 15.795C19.1725 16.165 18.2654 16.7543 17.52 17.52C16.7511 18.2628 16.1613 19.1707 15.795 20.175C15.3542 21.341 15.1158 22.5737 15.09 23.82C15 25.41 15 25.92 15 30C15 34.08 15 34.59 15.09 36.18C15.1158 37.4263 15.3542 38.659 15.795 39.825C16.1613 40.8293 16.7511 41.7372 17.52 42.48C18.2654 43.2457 19.1725 43.835 20.175 44.205C21.341 44.6458 22.5737 44.8842 23.82 44.91C25.41 45 25.92 45 30 45C34.08 45 34.59 45 36.18 44.91C37.4263 44.8842 38.659 44.6458 39.825 44.205C40.8293 43.8387 41.7372 43.2489 42.48 42.48C43.2484 41.7339 43.8425 40.8273 44.22 39.825C44.6477 38.6559 44.8808 37.4246 44.91 36.18C44.91 34.59 45 34.08 45 30C45 25.92 45 25.41 44.91 23.82ZM42.21 36C42.1991 36.9522 42.0266 37.8956 41.7 38.79C41.4605 39.4428 41.0758 40.0326 40.575 40.515C40.0885 41.0108 39.4998 41.3946 38.85 41.64C37.9556 41.9666 37.0122 42.1391 36.06 42.15C34.56 42.225 34.005 42.24 30.06 42.24C26.115 42.24 25.56 42.24 24.06 42.15C23.0713 42.1685 22.0869 42.0163 21.15 41.7C20.5287 41.4421 19.967 41.0592 19.5 40.575C19.0021 40.0931 18.6223 39.5028 18.39 38.85C18.0238 37.9427 17.8207 36.9779 17.79 36C17.79 34.5 17.7 33.945 17.7 30C17.7 26.055 17.7 25.5 17.79 24C17.7967 23.0266 17.9744 22.0619 18.315 21.15C18.5791 20.5169 18.9844 19.9525 19.5 19.5C19.9557 18.9843 20.5189 18.5746 21.15 18.3C22.0643 17.9701 23.028 17.7976 24 17.79C25.5 17.79 26.055 17.7 30 17.7C33.945 17.7 34.5 17.7 36 17.79C36.9522 17.8009 37.8956 17.9734 38.79 18.3C39.4716 18.553 40.0834 18.9643 40.575 19.5C41.0666 19.9608 41.4506 20.5241 41.7 21.15C42.0334 22.0634 42.2059 23.0277 42.21 24C42.285 25.5 42.3 26.055 42.3 30C42.3 33.945 42.285 34.5 42.21 36ZM30 22.305C28.4787 22.308 26.9924 22.7618 25.729 23.6091C24.4655 24.4565 23.4816 25.6593 22.9015 27.0656C22.3213 28.472 22.1711 30.0187 22.4697 31.5104C22.7683 33.0021 23.5024 34.3718 24.5791 35.4465C25.6559 36.5211 27.027 37.2525 28.5193 37.5482C30.0116 37.8439 31.558 37.6907 32.9632 37.1078C34.3684 36.525 35.5693 35.5387 36.4142 34.2736C37.2591 33.0084 37.71 31.5213 37.71 30C37.712 28.9877 37.5138 27.9849 37.1269 27.0494C36.7399 26.114 36.1718 25.2642 35.4553 24.5491C34.7388 23.8339 33.8879 23.2675 32.9517 22.8824C32.0155 22.4973 31.0123 22.301 30 22.305ZM30 34.995C29.0121 34.995 28.0464 34.702 27.2249 34.1532C26.4035 33.6043 25.7633 32.8242 25.3852 31.9115C25.0072 30.9988 24.9082 29.9945 25.101 29.0255C25.2937 28.0566 25.7694 27.1666 26.468 26.468C27.1666 25.7694 28.0566 25.2937 29.0255 25.101C29.9945 24.9082 30.9988 25.0072 31.9115 25.3852C32.8242 25.7633 33.6043 26.4035 34.1532 27.2249C34.702 28.0464 34.995 29.0121 34.995 30C34.995 30.656 34.8658 31.3055 34.6148 31.9115C34.3638 32.5175 33.9958 33.0682 33.532 33.532C33.0682 33.9958 32.5175 34.3638 31.9115 34.6148C31.3055 34.8658 30.656 34.995 30 34.995Z" fill="#DB6334"/>
</g>
</svg>
