<svg width="60" height="60" viewBox="0 0 60 60" fill="none" xmlns="http://www.w3.org/2000/svg">
<circle cx="30" cy="30" r="30" fill="#DADAF2"/>
<path d="M20.4318 18.7275H41.5682C43.9314 18.7275 45.8626 20.5773 45.993 22.9079L46 23.1594V38.8412C46 41.2044 44.1503 43.1356 41.8197 43.266L41.5682 43.273H20.4318C18.0686 43.273 16.1374 41.4233 16.007 39.0927L16 38.8412V23.1594C16 20.7961 17.8497 18.8649 20.1803 18.7346L20.4318 18.7275H41.5682H20.4318ZM43.9545 26.7798L31.4718 33.2713C31.2254 33.3994 30.9397 33.4208 30.6802 33.3354L30.5282 33.2713L18.0455 26.7798V38.8412C18.0455 40.0932 19.0097 41.1201 20.2361 41.2196L20.4318 41.2275H41.5682C42.8202 41.2275 43.8471 40.2633 43.9466 39.0369L43.9545 38.8412V26.7798ZM41.5682 20.773H20.4318C19.1798 20.773 18.1529 21.7372 18.0534 22.9636L18.0455 23.1594V24.4739L31 31.2112L43.9545 24.4739V23.1594C43.9545 21.9073 42.9903 20.8805 41.7639 20.7809L41.5682 20.773Z" fill="#5454CD"/>
</svg>
