<svg width="60" height="60" viewBox="0 0 60 60" fill="none" xmlns="http://www.w3.org/2000/svg">
<circle cx="30" cy="30" r="30" fill="#E1F5FE"/>
<path d="M19.5879 22.7028C19.1567 19.8597 21.1631 17.2999 24.2306 16.3617C25.3603 16.0162 26.5639 16.6092 26.9783 17.7155L27.9618 20.3405C28.2854 21.2045 28.0522 22.1785 27.3723 22.8022L24.4473 25.4852C24.1544 25.7538 24.0243 26.1584 24.104 26.5478L24.13 26.666C24.1461 26.7366 24.1699 26.8364 24.202 26.9613C24.2661 27.2109 24.3637 27.5618 24.5004 27.9796C24.7723 28.8108 25.2057 29.9288 25.8507 31.0459C26.4957 32.163 27.2471 33.0974 27.831 33.7484C28.1245 34.0757 28.3796 34.3357 28.5637 34.516C28.6558 34.6062 28.7304 34.6767 28.7835 34.726L28.8743 34.8089C29.1717 35.0726 29.5856 35.161 29.9647 35.0416L33.7507 33.85C34.6308 33.573 35.5909 33.858 36.1773 34.5703L37.9684 36.746C38.714 37.6516 38.6263 38.9809 37.7684 39.7808C35.4213 41.969 32.1943 42.4173 29.9481 40.6124C27.7826 38.8724 25.2341 36.2866 23.1051 32.6268C20.9712 28.9584 20.005 25.4524 19.5879 22.7028ZM26.4745 26.6966L28.902 24.4699C30.2619 23.2226 30.7283 21.2746 30.081 19.5466L29.0975 16.9215C28.2636 14.6956 25.8419 13.5025 23.5688 14.1977C19.7609 15.3622 16.7035 18.7768 17.3505 23.0422C17.8024 26.021 18.8475 29.8083 21.149 33.7647C23.4411 37.705 26.1885 40.4946 28.5306 42.3765C31.8967 45.0812 36.3927 44.1575 39.3116 41.436C41.0441 39.8208 41.2211 37.1364 39.7156 35.3077L37.9245 33.132C36.7517 31.7074 34.8315 31.1374 33.0713 31.6914L29.9292 32.6803C29.8084 32.5561 29.6684 32.4076 29.5157 32.2374C28.9994 31.6618 28.3537 30.8551 27.8105 29.9144C27.2674 28.9737 26.8917 28.011 26.6513 27.2761C26.5802 27.0588 26.5216 26.8633 26.4745 26.6966Z" fill="#01579B"/>
</svg>
