<svg width="60" height="60" viewBox="0 0 60 60" fill="none" xmlns="http://www.w3.org/2000/svg">
<g id="Group 465">
<circle id="Ellipse 1" cx="30" cy="30" r="30" fill="#E0F2F1"/>
<path id="Vector" d="M42.5888 15H17.4113C16.08 15 15 16.08 15 17.4113V42.5888C15 43.92 16.08 45 17.4113 45H42.5888C43.92 45 45 43.92 45 42.5888V17.4113C45 16.08 43.92 15 42.5888 15ZM42.5888 42.6C25.7963 42.5963 17.4 42.5925 17.4 42.5888C17.4038 25.7963 17.4075 17.4 17.4113 17.4C34.2038 17.4038 42.6 17.4075 42.6 17.4113C42.5963 34.2038 42.5925 42.6 42.5888 42.6ZM19.4475 26.2463H23.8988V40.5638H19.4475V26.2463ZM21.675 24.2888C23.0963 24.2888 24.255 23.1337 24.255 21.7088C24.255 21.3699 24.1883 21.0344 24.0586 20.7214C23.929 20.4084 23.7389 20.124 23.4993 19.8844C23.2598 19.6448 22.9753 19.4548 22.6623 19.3251C22.3493 19.1955 22.0138 19.1288 21.675 19.1288C21.3362 19.1288 21.0007 19.1955 20.6877 19.3251C20.3747 19.4548 20.0902 19.6448 19.8507 19.8844C19.6111 20.124 19.421 20.4084 19.2914 20.7214C19.1617 21.0344 19.095 21.3699 19.095 21.7088C19.0912 23.1337 20.2463 24.2888 21.675 24.2888ZM31.1362 33.48C31.1362 31.6125 31.4925 29.805 33.8063 29.805C36.0863 29.805 36.12 31.9388 36.12 33.6V40.5638H40.5675V32.7113C40.5675 28.8562 39.735 25.89 35.2313 25.89C33.0675 25.89 31.6163 27.0788 31.02 28.2038H30.96V26.2463H26.6888V40.5638H31.1362V33.48Z" fill="#004D40"/>
</g>
</svg>
