<svg width="60" height="60" viewBox="0 0 60 60" fill="none" xmlns="http://www.w3.org/2000/svg">
<circle cx="30" cy="30" r="30" fill="#F2E1DA"/>
<path d="M29.9993 15C36.8184 15 42.3463 20.5279 42.3463 27.347C42.3463 32.5639 38.6808 38.2494 31.4432 44.4654C30.6127 45.1787 29.3859 45.1787 28.5521 44.4626L28.0737 44.0479C21.1565 37.9956 17.6523 32.4476 17.6523 27.347C17.6523 20.5279 23.1803 15 29.9993 15ZM29.9993 16.8995C24.2294 16.8995 19.5519 21.577 19.5519 27.347C19.5519 31.7818 22.7791 36.8913 29.3213 42.6154L29.793 43.0244C29.9117 43.1263 30.0869 43.1263 30.2056 43.0244C37.0642 37.1338 40.4468 31.8873 40.4468 27.347C40.4468 21.577 35.7693 16.8995 29.9993 16.8995ZM29.9993 22.5981C32.622 22.5981 34.7482 24.7243 34.7482 27.347C34.7482 29.9697 32.622 32.0958 29.9993 32.0958C27.3766 32.0958 25.2505 29.9697 25.2505 27.347C25.2505 24.7243 27.3766 22.5981 29.9993 22.5981ZM29.9993 24.4977C28.4257 24.4977 27.15 25.7734 27.15 27.347C27.15 28.9206 28.4257 30.1963 29.9993 30.1963C31.573 30.1963 32.8486 28.9206 32.8486 27.347C32.8486 25.7734 31.573 24.4977 29.9993 24.4977Z" fill="#DB6334"/>
</svg>
