<svg width="70" height="84" viewBox="0 0 70 84" fill="none" xmlns="http://www.w3.org/2000/svg">
<path d="M68.0327 83.5C45.9956 83.5 23.9586 83.5 1.92157 83.5C0.995642 82.9907 0.76416 82.2037 0.76416 81.1852C0.810456 78.037 0.76416 74.8889 0.76416 71.7407C0.76416 68.6389 1.4586 65.7222 2.94009 62.9907C5.81046 57.7593 10.0697 54.3796 16.0419 53.4537C18.1716 53.1296 20.4401 53.2685 22.616 53.1759C22.9401 53.1759 23.2179 53.1759 23.5882 53.1759C23.5882 51.8796 23.6345 50.6759 23.5882 49.4722C23.5882 49.1018 23.403 48.6852 23.1253 48.4537C21.366 46.787 19.9308 44.8426 18.9123 42.6204C18.4956 41.6481 18.1253 40.6759 17.7086 39.7037C11.5975 39.8889 8.40305 33.2222 12.2456 28.7315C12.1993 28.6389 12.153 28.5463 12.0605 28.5C9.56046 26 10.4401 21.9722 13.4493 20.5833C13.6808 20.4907 13.866 20.1204 13.9586 19.8426C14.0512 19.5648 14.0049 19.1944 14.0975 18.8704C15.4864 11.787 19.6068 7.01851 26.4586 4.6574C26.6901 4.56481 26.9679 4.37962 27.0142 4.19444C27.616 2.1111 28.9123 0.76851 30.9493 0.120361C33.6808 0.120361 36.366 0.120361 39.0975 0.120361C40.9493 0.722213 42.2456 1.87962 42.8475 3.73147C43.0327 4.33332 43.3567 4.56481 43.9123 4.79629C50.903 7.34258 54.9771 12.3426 56.0419 19.7037C56.1345 20.1667 56.2734 20.4444 56.7364 20.6759C59.6067 22.1111 60.3475 25.6296 58.3104 28.1296C58.1253 28.3611 57.9401 28.5926 57.8012 28.7778C61.5049 33.1296 58.6345 39.8426 52.3382 39.7037C52.2919 39.75 52.2456 39.8426 52.1993 39.8889C51.1808 43.3148 49.3753 46.1852 46.7364 48.5926C46.5975 48.7315 46.4586 48.963 46.4586 49.1481C46.4123 50.4907 46.4586 51.787 46.4586 53.1759C48.079 53.1759 49.5604 53.1759 51.0882 53.1759C54.0049 53.1759 56.829 53.7315 59.3753 55.1667C65.8104 58.8241 69.0975 64.3796 69.2364 71.787C69.2827 74.8889 69.2364 78.037 69.2827 81.1389C69.2364 82.2037 68.9586 82.9907 68.0327 83.5ZM20.3475 29.9815C20.3475 31.463 20.3475 32.8055 20.3475 34.1944C20.3012 38.3611 21.6438 41.9722 24.3753 45.1204C28.4956 49.8426 35.4864 51.3241 41.1345 48.5C44.2364 46.9259 46.5512 44.5648 48.1253 41.463C50.0234 37.8055 49.6993 33.8704 49.653 29.9352C39.8382 29.9815 30.1623 29.9815 20.3475 29.9815ZM17.1068 56.5093C15.9493 56.787 14.8845 57.0648 13.9123 57.2963C13.9123 65.0278 13.9123 72.5741 13.9123 80.1667C15.0234 80.1667 16.0419 80.1667 17.1068 80.1667C17.1068 78.9167 17.0605 77.7593 17.1068 76.6019C17.153 75.213 18.4493 74.4259 19.5605 75.1204C20.1623 75.4907 20.3938 76.0926 20.3938 76.787C20.3938 77.8981 20.3938 79.0556 20.3938 80.1667C24.7919 80.1667 29.0975 80.1667 33.403 80.1667C33.403 75.4444 33.403 70.7685 33.403 66.1389C33.403 65.8611 33.2179 65.5833 33.0327 65.3981C30.3475 62.5741 27.6623 59.75 24.9308 56.9259C24.7919 56.7407 24.5605 56.5555 24.3753 56.5555C23.079 56.5093 21.7364 56.5555 20.3938 56.5555C20.3938 58.5926 20.3938 60.537 20.3938 62.4352C20.3938 63.8704 20.4401 65.3056 20.3938 66.7407C20.3475 67.713 19.653 68.4074 18.7271 68.4074C17.8475 68.4074 17.1993 67.713 17.153 66.7407C17.1067 66.3704 17.153 66.0463 17.153 65.6759C17.1067 62.6667 17.1068 59.7037 17.1068 56.5093ZM49.653 56.463C48.403 56.463 47.2456 56.4167 46.1345 56.463C45.7642 56.463 45.3012 56.6481 45.0234 56.9259C42.3382 59.6574 39.6993 62.4352 37.1067 65.213C36.829 65.4907 36.6438 65.9537 36.6438 66.3241C36.5975 70.6759 36.6438 75.0741 36.6438 79.4259C36.6438 79.6574 36.6901 79.8889 36.6901 80.1204C41.0419 80.1204 45.3012 80.1204 49.5605 80.1204C49.6067 80.0741 49.653 80.0278 49.653 80.0278C49.653 78.9167 49.6993 77.8056 49.6993 76.6944C49.6993 75.9537 49.9308 75.3519 50.6253 74.9815C51.7364 74.4259 52.9401 75.213 52.9864 76.5555C53.0327 77.7593 52.9864 78.9167 52.9864 80.0741C54.1438 80.0741 55.1623 80.0741 56.2271 80.0741C56.2271 75.3519 56.2271 70.6759 56.2271 66C56.2271 63.2685 56.2271 60.5833 56.2271 57.8518C56.2271 57.6204 56.0882 57.2037 55.903 57.1574C54.9771 56.8796 54.0512 56.6481 52.9864 56.3704C52.9864 56.787 52.9864 57.1111 52.9864 57.3889C52.9864 60.3981 52.9864 63.4074 52.9864 66.4167C52.9864 67.4815 52.2919 68.1759 51.366 68.2222C50.4401 68.2222 49.7919 67.4815 49.7456 66.463C49.7456 65.9074 49.7456 65.3055 49.7456 64.75C49.653 62.1111 49.653 59.3333 49.653 56.463ZM43.1716 8.08332C43.1716 9.6111 43.1716 11.0926 43.1716 12.5278C43.1716 13.4537 43.2179 14.3796 43.1716 15.3055C43.1253 16.1389 42.616 16.7407 41.8753 16.8796C41.1345 17.0185 40.579 16.7407 40.2086 16.1389C40.0234 15.7685 39.9308 15.3055 39.9308 14.8889C39.9308 11.9722 39.9308 9.00925 39.9308 6.09258C39.9308 5.67592 39.8845 5.21295 39.7456 4.79629C39.4679 3.87036 38.7734 3.4074 37.8012 3.4074C35.903 3.4074 34.0049 3.4074 32.1067 3.4074C31.4123 3.4074 30.903 3.68518 30.6253 4.24073C30.3475 4.74999 30.1623 5.35184 30.1623 5.9074C30.116 7.80555 30.1623 9.7037 30.1623 11.6018C30.1623 12.8055 30.1623 14.0093 30.1623 15.1667C30.116 16.1852 29.4679 16.8796 28.5882 16.8796C27.6623 16.8796 26.9679 16.1852 26.9216 15.1204C26.9216 14.6111 26.9216 14.1018 26.9216 13.5926C26.9216 11.7407 26.9216 9.93518 26.9216 8.08332C22.1068 9.33333 17.4771 15.1667 17.2919 20.1667C29.0975 20.1667 40.903 20.1667 52.7549 20.1667C52.3845 15.0741 48.3567 9.74999 43.1716 8.08332ZM35.0234 23.4537C28.7734 23.4537 22.4771 23.4537 16.2271 23.4537C15.9493 23.4537 15.6716 23.4537 15.3938 23.4537C14.5142 23.5463 13.866 24.2407 13.866 25.0741C13.866 25.9074 14.5142 26.5555 15.3938 26.6944C15.6253 26.7407 15.8105 26.6944 16.0419 26.6944C28.6808 26.6944 41.3197 26.6944 53.9586 26.6944C55.3475 26.6944 56.1345 26.0926 56.1345 25.0741C56.1345 24.0555 55.3475 23.4537 53.9586 23.4537C53.7734 23.4537 53.6345 23.4537 53.4493 23.4537C47.3382 23.4537 41.1808 23.4537 35.0234 23.4537ZM3.91231 80.1667C6.31971 80.1667 8.44934 80.1667 10.5327 80.1667C10.5327 73.1759 10.5327 66.2315 10.5327 59.1481C7.24564 61.6018 4.97712 64.7037 4.46786 68.6389C4.0049 72.4352 4.09749 76.3241 3.91231 80.1667ZM65.9493 80.213C65.9493 77.25 65.9956 74.3796 65.9493 71.463C65.903 67.713 64.5605 64.4259 62.153 61.6018C61.4123 60.7222 60.4864 59.9815 59.5142 59.0555C59.5142 66.2778 59.5142 73.2222 59.5142 80.213C61.5975 80.213 63.7271 80.213 65.9493 80.213ZM43.1716 51.1852C37.6623 53.9167 32.2919 53.8704 26.8753 51.1852C26.8753 51.9722 26.9216 52.6204 26.8753 53.2685C26.829 53.9167 27.0605 54.3796 27.4771 54.8426C29.7919 57.25 32.1067 59.6574 34.3753 62.0648C34.5605 62.2963 34.653 62.5741 34.8382 62.8981C37.6623 59.9352 40.3012 57.2037 42.8938 54.4722C43.0327 54.3333 43.1253 54.1018 43.1716 53.9167C43.1716 53.037 43.1716 52.2037 43.1716 51.1852ZM17.1068 30.0278C15.2549 30.0278 13.8197 31.463 13.866 33.2685C13.9123 35.0278 15.3938 36.463 17.1068 36.3704C17.1068 34.2407 17.1068 32.1574 17.1068 30.0278ZM52.9401 30.0278C52.9401 32.1574 52.9401 34.287 52.9401 36.463C54.8382 36.3704 56.2271 34.9352 56.1808 33.1296C56.1345 31.3704 54.7456 30.0278 52.9401 30.0278Z" fill="#CCCCCC"/>
</svg>
