<svg width="60" height="61" viewBox="0 0 60 61" fill="none" xmlns="http://www.w3.org/2000/svg">
<circle cx="30" cy="30.5" r="30" fill="#EEEEEE"/>
<path d="M42.8972 32.9534C43.0365 33.4141 43.4649 33.7141 43.9256 33.7141V33.7034C44.0327 33.7034 44.1291 33.6926 44.2362 33.6605C44.8039 33.4891 45.1253 32.8998 44.9539 32.3319C44.9218 32.2248 41.3761 20.8569 30 20.8569C18.6239 20.8569 15.0782 32.2248 15.0461 32.3427C14.8747 32.9105 15.1961 33.4998 15.7638 33.6712C16.3315 33.8426 16.9314 33.5212 17.1028 32.9534C17.2206 32.5462 20.2414 22.9998 30 22.9998C39.7547 22.9998 42.7664 32.5391 42.8972 32.9534ZM25.7185 33.7141C25.7185 31.3471 27.6373 29.4284 30.0042 29.4284C32.3711 29.4284 34.2899 31.3471 34.2899 33.7141C34.2899 36.081 32.3711 37.9998 30.0042 37.9998C27.6373 37.9998 25.7185 36.081 25.7185 33.7141ZM30.0042 27.2855C26.4538 27.2855 23.5756 30.1637 23.5756 33.7141C23.5756 37.2645 26.4538 40.1426 30.0042 40.1426C33.5546 40.1426 36.4328 37.2645 36.4328 33.7141C36.4328 30.1637 33.5546 27.2855 30.0042 27.2855Z" fill="#212121"/>
</svg>
