<svg width="60" height="60" viewBox="0 0 60 60" fill="none" xmlns="http://www.w3.org/2000/svg">
<circle cx="30" cy="30" r="30" fill="white"/>
<g clip-path="url(#clip0_160_929)">
<path d="M17.7998 30C17.7998 26.3 17.7998 22.7 17.7998 19C17.7998 17.2 18.7998 15.8 20.3998 15.2C20.7998 15.1 21.2998 15 21.7998 15C27.2998 15 32.7998 15 38.2998 15C40.5998 15 42.2998 16.6 42.2998 19C42.2998 24.8 42.2998 30.5 42.2998 36.3C42.2998 37.1 41.9998 37.7 41.4998 38.3C39.4998 40.3 37.4998 42.3 35.4998 44.3C34.9998 44.8 34.2998 45.1 33.4998 45.1C29.5998 45.1 25.6998 45.1 21.7998 45.1C19.4998 45.1 17.7998 43.5 17.7998 41.1C17.7998 37.3 17.7998 33.7 17.7998 30ZM40.0998 35.9C40.0998 35.7 40.0998 35.6 40.0998 35.5C40.0998 30 40.0998 24.5 40.0998 19C40.0998 17.8 39.3998 17.1 38.1998 17.1C32.7998 17.1 27.2998 17.1 21.8998 17.1C20.5998 17.1 19.8998 17.8 19.8998 19C19.8998 26.3 19.8998 33.6 19.8998 40.9C19.8998 42.1 20.5998 42.8 21.7998 42.9C25.3998 42.9 29.0998 42.9 32.6998 42.9C32.7998 42.9 32.8998 42.9 33.0998 42.9C33.0998 42.8 33.0998 42.6 33.0998 42.5C33.0998 41.1 33.0998 39.8 33.0998 38.4C33.0998 36.9 34.0998 35.9 35.5998 35.9C36.6998 35.9 37.6998 35.9 38.7998 35.9C39.1998 35.9 39.5998 35.9 40.0998 35.9ZM38.4998 38C37.5998 38 36.5998 38 35.6998 38C35.2998 38 35.1998 38.1 35.1998 38.5C35.1998 39.4 35.1998 40.2 35.1998 41.1C35.1998 41.2 35.1998 41.3 35.1998 41.3C36.2998 40.2 37.3998 39.1 38.4998 38Z" fill="#0072BB"/>
<path d="M29.9999 28.2002C28.1999 28.2002 26.2999 28.2002 24.4999 28.2002C23.7999 28.2002 23.3999 27.8002 23.3999 27.2002C23.3999 26.7002 23.6999 26.3002 24.1999 26.2002C24.2999 26.2002 24.4999 26.2002 24.5999 26.2002C28.1999 26.2002 31.7999 26.2002 35.2999 26.2002C35.3999 26.2002 35.4999 26.2002 35.5999 26.2002C36.1999 26.3002 36.5999 26.7002 36.5999 27.3002C36.5999 27.9002 36.1999 28.3002 35.5999 28.3002C33.6999 28.3002 31.7999 28.2002 29.9999 28.2002Z" fill="#0072BB"/>
<path d="M29.9999 22.6996C28.1999 22.6996 26.2999 22.6996 24.4999 22.6996C23.7999 22.6996 23.2999 22.1996 23.3999 21.4996C23.3999 20.9996 23.8999 20.5996 24.4999 20.5996C25.2999 20.5996 25.9999 20.5996 26.7999 20.5996C29.6999 20.5996 32.5999 20.5996 35.4999 20.5996C36.0999 20.5996 36.5999 20.9996 36.5999 21.5996C36.5999 22.1996 36.1999 22.6996 35.4999 22.6996C33.6999 22.6996 31.7999 22.6996 29.9999 22.6996Z" fill="#0072BB"/>
<path d="M27.8998 31.8002C29.0998 31.8002 30.1998 31.8002 31.3998 31.8002C31.8998 31.8002 32.2998 32.1002 32.3998 32.6002C32.4998 33.1002 32.2998 33.5002 31.8998 33.7002C31.6998 33.8002 31.4998 33.8002 31.2998 33.8002C28.9998 33.8002 26.6998 33.8002 24.3998 33.8002C23.7998 33.8002 23.2998 33.3002 23.2998 32.7002C23.2998 32.1002 23.6998 31.7002 24.3998 31.7002C25.5998 31.7002 26.7998 31.7002 27.8998 31.8002Z" fill="#0072BB"/>
<path d="M26.7999 39.3998C25.9999 39.3998 25.1999 39.3998 24.4999 39.3998C23.7999 39.3998 23.3999 38.9998 23.3999 38.2998C23.3999 37.6998 23.8999 37.2998 24.4999 37.2998C26.0999 37.2998 27.6999 37.2998 29.1999 37.2998C29.8999 37.2998 30.2999 37.6998 30.2999 38.3998C30.2999 38.9998 29.7999 39.3998 29.1999 39.3998C28.3999 39.3998 27.5999 39.3998 26.7999 39.3998Z" fill="#0072BB"/>
</g>
<defs>
<clipPath id="clip0_160_929">
<rect width="24.4" height="30" fill="white" transform="translate(17.7998 15)"/>
</clipPath>
</defs>
</svg>
