<svg width="60" height="60" viewBox="0 0 60 60" fill="none" xmlns="http://www.w3.org/2000/svg">
<circle cx="30" cy="30" r="30" fill="#FFFFFF"/>
<path fill-rule="evenodd" clip-rule="evenodd" d="M40.9091 19.091H19.0909C18.7293 19.091 18.3824 19.2347 18.1267 19.4904C17.8709 19.7462 17.7273 20.093 17.7273 20.4547V39.5456C17.7273 39.9072 17.8709 40.2541 18.1267 40.5098C18.3824 40.7656 18.7293 40.9092 19.0909 40.9092H40.9091C41.2708 40.9092 41.6176 40.7656 41.8733 40.5098C42.1291 40.2541 42.2727 39.9072 42.2727 39.5456V20.4547C42.2727 20.093 42.1291 19.7462 41.8733 19.4904C41.6176 19.2347 41.2708 19.091 40.9091 19.091ZM19.0909 16.3638C18.0059 16.3638 16.9654 16.7948 16.1982 17.562C15.431 18.3292 15 19.3697 15 20.4547V39.5456C15 40.6306 15.431 41.6711 16.1982 42.4383C16.9654 43.2055 18.0059 43.6365 19.0909 43.6365H40.9091C41.9941 43.6365 43.0346 43.2055 43.8018 42.4383C44.569 41.6711 45 40.6306 45 39.5456V20.4547C45 19.3697 44.569 18.3292 43.8018 17.562C43.0346 16.7948 41.9941 16.3638 40.9091 16.3638H19.0909ZM21.8182 23.182H24.5455V25.9092H21.8182V23.182ZM28.6364 23.182C28.2747 23.182 27.9279 23.3256 27.6721 23.5814C27.4164 23.8371 27.2727 24.1839 27.2727 24.5456C27.2727 24.9072 27.4164 25.2541 27.6721 25.5098C27.9279 25.7656 28.2747 25.9092 28.6364 25.9092H36.8182C37.1798 25.9092 37.5267 25.7656 37.7824 25.5098C38.0382 25.2541 38.1818 24.9072 38.1818 24.5456C38.1818 24.1839 38.0382 23.8371 37.7824 23.5814C37.5267 23.3256 37.1798 23.182 36.8182 23.182H28.6364ZM24.5455 28.6365H21.8182V31.3638H24.5455V28.6365ZM27.2727 30.0001C27.2727 29.6385 27.4164 29.2916 27.6721 29.0359C27.9279 28.7802 28.2747 28.6365 28.6364 28.6365H36.8182C37.1798 28.6365 37.5267 28.7802 37.7824 29.0359C38.0382 29.2916 38.1818 29.6385 38.1818 30.0001C38.1818 30.3618 38.0382 30.7086 37.7824 30.9644C37.5267 31.2201 37.1798 31.3638 36.8182 31.3638H28.6364C28.2747 31.3638 27.9279 31.2201 27.6721 30.9644C27.4164 30.7086 27.2727 30.3618 27.2727 30.0001ZM24.5455 34.091H21.8182V36.8183H24.5455V34.091ZM27.2727 35.4547C27.2727 35.093 27.4164 34.7462 27.6721 34.4904C27.9279 34.2347 28.2747 34.091 28.6364 34.091H36.8182C37.1798 34.091 37.5267 34.2347 37.7824 34.4904C38.0382 34.7462 38.1818 35.093 38.1818 35.4547C38.1818 35.8163 38.0382 36.1632 37.7824 36.4189C37.5267 36.6746 37.1798 36.8183 36.8182 36.8183H28.6364C28.2747 36.8183 27.9279 36.6746 27.6721 36.4189C27.4164 36.1632 27.2727 35.8163 27.2727 35.4547Z" fill="#0072BB"/>
</svg>
