<svg width="61" height="61" viewBox="0 0 61 61" fill="none" xmlns="http://www.w3.org/2000/svg">
<circle cx="30.5" cy="30.5" r="30" fill="#F2E9DA"/>
<g clip-path="url(#clip0_450_8837)">
<path fill-rule="evenodd" clip-rule="evenodd" d="M41.4091 19.5906H19.5909C19.2293 19.5906 18.8824 19.7342 18.6267 19.99C18.3709 20.2457 18.2273 20.5925 18.2273 20.9542V40.0451C18.2273 40.4068 18.3709 40.7536 18.6267 41.0093C18.8824 41.2651 19.2293 41.4087 19.5909 41.4087H41.4091C41.7708 41.4087 42.1176 41.2651 42.3733 41.0093C42.6291 40.7536 42.7727 40.4068 42.7727 40.0451V20.9542C42.7727 20.5925 42.6291 20.2457 42.3733 19.99C42.1176 19.7342 41.7708 19.5906 41.4091 19.5906ZM19.5909 16.8633C18.5059 16.8633 17.4654 17.2943 16.6982 18.0615C15.931 18.8287 15.5 19.8692 15.5 20.9542V40.0451C15.5 41.1301 15.931 42.1706 16.6982 42.9378C17.4654 43.705 18.5059 44.136 19.5909 44.136H41.4091C42.4941 44.136 43.5346 43.705 44.3018 42.9378C45.069 42.1706 45.5 41.1301 45.5 40.0451V20.9542C45.5 19.8692 45.069 18.8287 44.3018 18.0615C43.5346 17.2943 42.4941 16.8633 41.4091 16.8633H19.5909ZM22.3182 23.6815H25.0455V26.4087H22.3182V23.6815ZM29.1364 23.6815C28.7747 23.6815 28.4279 23.8251 28.1721 24.0809C27.9164 24.3366 27.7727 24.6834 27.7727 25.0451C27.7727 25.4068 27.9164 25.7536 28.1721 26.0093C28.4279 26.2651 28.7747 26.4087 29.1364 26.4087H37.3182C37.6798 26.4087 38.0267 26.2651 38.2824 26.0093C38.5382 25.7536 38.6818 25.4068 38.6818 25.0451C38.6818 24.6834 38.5382 24.3366 38.2824 24.0809C38.0267 23.8251 37.6798 23.6815 37.3182 23.6815H29.1364ZM25.0455 29.136H22.3182V31.8633H25.0455V29.136ZM27.7727 30.4996C27.7727 30.138 27.9164 29.7911 28.1721 29.5354C28.4279 29.2797 28.7747 29.136 29.1364 29.136H37.3182C37.6798 29.136 38.0267 29.2797 38.2824 29.5354C38.5382 29.7911 38.6818 30.138 38.6818 30.4996C38.6818 30.8613 38.5382 31.2081 38.2824 31.4639C38.0267 31.7196 37.6798 31.8633 37.3182 31.8633H29.1364C28.7747 31.8633 28.4279 31.7196 28.1721 31.4639C27.9164 31.2081 27.7727 30.8613 27.7727 30.4996ZM25.0455 34.5906H22.3182V37.3178H25.0455V34.5906ZM27.7727 35.9542C27.7727 35.5925 27.9164 35.2457 28.1721 34.99C28.4279 34.7342 28.7747 34.5906 29.1364 34.5906H37.3182C37.6798 34.5906 38.0267 34.7342 38.2824 34.99C38.5382 35.2457 38.6818 35.5925 38.6818 35.9542C38.6818 36.3158 38.5382 36.6627 38.2824 36.9184C38.0267 37.1742 37.6798 37.3178 37.3182 37.3178H29.1364C28.7747 37.3178 28.4279 37.1742 28.1721 36.9184C27.9164 36.6627 27.7727 36.3158 27.7727 35.9542Z" fill="#E7A133"/>
</g>
<defs>
<clipPath id="clip0_450_8837">
<rect width="30" height="30" fill="white" transform="translate(15.5 15.5)"/>
</clipPath>
</defs>
</svg>
