<svg width="280" height="125" viewBox="0 0 280 125" fill="none" xmlns="http://www.w3.org/2000/svg">
<g clip-path="url(#clip0_271_4664)">
<path d="M123.23 57.6162L126.957 53.1522C128.944 54.8882 131.677 56.1282 134.162 56.1282C136.895 56.1282 138.385 55.1362 138.385 53.4002C138.385 51.6642 136.646 50.9202 134.162 49.9282L130.435 48.1922C127.454 46.9522 124.472 44.4722 124.472 40.2562C124.472 35.2962 128.944 31.5762 134.907 31.5762C138.385 31.5762 141.864 32.8162 144.348 35.5442L140.87 39.7602C138.882 38.2722 137.143 37.5282 134.659 37.5282C132.423 37.5282 130.932 38.5202 130.932 40.2562C130.932 41.9922 132.919 42.7362 135.404 43.7282L139.131 45.2162C142.609 46.7042 145.093 49.1842 145.093 53.1522C145.093 58.1122 141.118 62.3282 133.913 62.3282C130.435 61.8322 126.211 60.3442 123.23 57.6162Z" fill="white"/>
<path d="M163.975 31.8242H171.925L181.118 61.3362H174.162L170.186 46.4562C169.441 43.4802 168.696 40.0082 167.702 37.0322H167.453C166.708 40.2562 165.963 43.4802 165.217 46.4562L161.242 61.3362H154.534L163.975 31.8242ZM160.745 49.1842H174.907V54.3922H160.745V49.1842Z" fill="white"/>
<path d="M192.05 31.8242H198.758V55.6322H210.435V61.0882H192.05V31.8242Z" fill="white"/>
<path d="M221.864 47.6962V31.8242H228.572V48.1922C228.572 53.8962 230.311 55.8802 233.789 55.8802C237.019 55.8802 239.007 53.8962 239.007 48.1922V31.8242H245.466V47.6962C245.466 57.6162 241.491 61.8322 233.789 61.8322C226.087 61.8322 221.864 57.6162 221.864 47.6962Z" fill="white"/>
<path d="M257.888 57.6162L261.615 53.1522C263.602 54.8882 266.335 56.1282 268.82 56.1282C271.553 56.1282 273.043 55.1362 273.043 53.4002C273.043 51.6642 271.304 50.9202 268.82 49.9282L265.093 48.1922C262.112 46.9522 259.13 44.4722 259.13 40.2562C259.13 35.2962 263.602 31.5762 269.565 31.5762C273.043 31.5762 276.522 32.8162 279.006 35.5442L275.528 39.7602C273.54 38.2722 271.801 37.5282 269.317 37.5282C267.081 37.5282 265.59 38.5202 265.59 40.2562C265.59 41.9922 267.578 42.7362 270.062 43.7282L273.789 45.2162C277.267 46.7042 279.752 49.1842 279.752 53.1522C279.752 58.1122 275.776 62.3282 268.571 62.3282C264.845 61.8322 260.87 60.3442 257.888 57.6162Z" fill="white"/>
<path d="M123.23 91.0963L124.721 89.3603C126.211 90.8483 128.199 91.8403 130.187 91.8403C132.919 91.8403 134.41 90.6003 134.41 88.6163C134.41 86.6323 132.919 85.8883 131.18 85.1443L128.199 83.9043C126.46 83.1603 124.224 81.6723 124.224 78.6963C124.224 75.7203 126.957 73.4883 130.435 73.4883C132.919 73.4883 134.907 74.4803 136.398 75.9683L135.155 77.7043C133.913 76.4643 132.423 75.7203 130.683 75.7203C128.447 75.7203 126.957 76.9603 126.957 78.6963C126.957 80.6803 128.696 81.4243 130.187 81.9203L132.919 83.1603C135.155 84.1523 137.143 85.6403 137.143 88.3683C137.143 91.5923 134.659 94.0723 130.435 94.0723C127.454 94.0723 124.969 93.0803 123.23 91.0963Z" fill="white"/>
<path d="M154.037 75.9683H148.075V73.7363H162.733V75.9683H156.522V93.8243H154.037V75.9683Z" fill="white"/>
<path d="M175.652 73.7363H178.137V93.5763H175.652V73.7363Z" fill="white"/>
<path d="M193.043 73.7363H195.528V91.5923H204.224V93.8243H193.043V73.7363Z" fill="white"/>
<path d="M217.143 73.7363H219.628V91.5923H228.572V93.8243H217.392V73.7363H217.143Z" fill="white"/>
<path d="M245.715 73.7363H248.696L255.404 93.5763H252.671L249.193 82.4163C248.447 80.1843 247.951 77.9523 247.205 75.7203C246.708 77.9523 245.963 80.1843 245.218 82.4163L241.739 93.5763H239.255L245.715 73.7363ZM242.485 85.6403H251.677V87.6243H242.485V85.6403Z" fill="white"/>
<path d="M266.087 91.0963L267.578 89.3603C269.068 90.8483 271.056 91.8403 273.043 91.8403C275.776 91.8403 277.267 90.6003 277.267 88.6163C277.267 86.6323 275.776 85.8883 274.037 85.1443L271.056 83.9043C269.317 83.1603 267.081 81.6723 267.081 78.6963C267.081 75.7203 269.814 73.4883 273.292 73.4883C275.776 73.4883 277.764 74.4803 279.255 75.9683L278.012 77.7043C276.77 76.4643 275.279 75.7203 273.54 75.7203C271.304 75.7203 269.814 76.9603 269.814 78.6963C269.814 80.6803 271.553 81.4243 273.043 81.9203L275.776 83.1603C278.012 84.1523 280 85.6403 280 88.3683C280 91.5923 277.515 94.0723 273.292 94.0723C270.311 94.0723 267.826 93.0803 266.087 91.0963Z" fill="white"/>
<path d="M4.96894 34.0561V90.6001L53.6646 118.624H53.9131V124.328H53.6646L0 93.3281V31.3281L53.6646 0.328125H53.9131V6.03212H53.6646L4.96894 34.0561Z" fill="#CCCCCC"/>
<path d="M107.578 31.3281V93.3281L53.9131 124.328V118.624L102.609 90.6001V34.0561L53.9131 6.03212V0.328125L107.578 31.3281Z" fill="white"/>
<path d="M8.44727 37.2802V89.6082L51.6771 113.664V100.024V41.2482L36.7702 55.1362V91.8402L33.292 89.8562V58.1122L23.851 66.2962V84.6482L20.1243 82.6642V43.9762L53.9131 24.6322V10.9922L8.44727 37.2802Z" fill="#CCCCCC"/>
<path d="M53.9131 10.9922V24.6322L87.4535 43.9762V82.6642L83.7268 84.6482V66.2962L74.2858 58.1122V89.8562L70.8075 91.8402V55.1362L55.9007 41.2482V100.024V113.664L99.1305 89.6082V37.2802L53.9131 10.9922Z" fill="white"/>
</g>
<defs>
<clipPath id="clip0_271_4664">
<rect width="280" height="124" fill="white" transform="translate(0 0.328125)"/>
</clipPath>
</defs>
</svg>
