<svg xmlns="http://www.w3.org/2000/svg" width="30" height="30" viewBox="0 0 30 30" fill="none">
  <path fill-rule="evenodd" clip-rule="evenodd" d="M25.9091 4.09104H4.09091C3.72925 4.09104 3.3824 4.23471 3.12667 4.49044C2.87094 4.74617 2.72727 5.09302 2.72727 5.45468V24.5456C2.72727 24.9072 2.87094 25.2541 3.12667 25.5098C3.3824 25.7656 3.72925 25.9092 4.09091 25.9092H25.9091C26.2708 25.9092 26.6176 25.7656 26.8733 25.5098C27.1291 25.2541 27.2727 24.9072 27.2727 24.5456V5.45468C27.2727 5.09302 27.1291 4.74617 26.8733 4.49044C26.6176 4.23471 26.2708 4.09104 25.9091 4.09104ZM4.09091 1.36377C3.00593 1.36377 1.96539 1.79477 1.1982 2.56197C0.431005 3.32916 0 4.3697 0 5.45468V24.5456C0 25.6306 0.431005 26.6711 1.1982 27.4383C1.96539 28.2055 3.00593 28.6365 4.09091 28.6365H25.9091C26.9941 28.6365 28.0346 28.2055 28.8018 27.4383C29.569 26.6711 30 25.6306 30 24.5456V5.45468C30 4.3697 29.569 3.32916 28.8018 2.56197C28.0346 1.79477 26.9941 1.36377 25.9091 1.36377H4.09091ZM6.81818 8.18195H9.54545V10.9092H6.81818V8.18195ZM13.6364 8.18195C13.2747 8.18195 12.9279 8.32562 12.6721 8.58135C12.4164 8.83708 12.2727 9.18393 12.2727 9.54559C12.2727 9.90725 12.4164 10.2541 12.6721 10.5098C12.9279 10.7656 13.2747 10.9092 13.6364 10.9092H21.8182C22.1798 10.9092 22.5267 10.7656 22.7824 10.5098C23.0382 10.2541 23.1818 9.90725 23.1818 9.54559C23.1818 9.18393 23.0382 8.83708 22.7824 8.58135C22.5267 8.32562 22.1798 8.18195 21.8182 8.18195H13.6364ZM9.54545 13.6365H6.81818V16.3638H9.54545V13.6365ZM12.2727 15.0001C12.2727 14.6385 12.4164 14.2916 12.6721 14.0359C12.9279 13.7802 13.2747 13.6365 13.6364 13.6365H21.8182C22.1798 13.6365 22.5267 13.7802 22.7824 14.0359C23.0382 14.2916 23.1818 14.6385 23.1818 15.0001C23.1818 15.3618 23.0382 15.7086 22.7824 15.9644C22.5267 16.2201 22.1798 16.3638 21.8182 16.3638H13.6364C13.2747 16.3638 12.9279 16.2201 12.6721 15.9644C12.4164 15.7086 12.2727 15.3618 12.2727 15.0001ZM9.54545 19.091H6.81818V21.8183H9.54545V19.091ZM12.2727 20.4547C12.2727 20.093 12.4164 19.7462 12.6721 19.4904C12.9279 19.2347 13.2747 19.091 13.6364 19.091H21.8182C22.1798 19.091 22.5267 19.2347 22.7824 19.4904C23.0382 19.7462 23.1818 20.093 23.1818 20.4547C23.1818 20.8163 23.0382 21.1632 22.7824 21.4189C22.5267 21.6746 22.1798 21.8183 21.8182 21.8183H13.6364C13.2747 21.8183 12.9279 21.6746 12.6721 21.4189C12.4164 21.1632 12.2727 20.8163 12.2727 20.4547Z" fill="#E7A133"/>
</svg>