<svg width="60" height="60" viewBox="0 0 60 60" fill="none" xmlns="http://www.w3.org/2000/svg">
<circle cx="30" cy="30" r="30" fill="#EEEEEE"/>
<g clip-path="url(#clip0_160_868)">
<path d="M27.5 27.9167C27.5 29.9877 25.8211 31.6667 23.75 31.6667C21.6789 31.6667 20 29.9877 20 27.9167C20 25.8456 21.6789 24.1667 23.75 24.1667C25.8211 24.1667 27.5 25.8456 27.5 27.9167ZM25.4167 27.9167C25.4167 26.9962 24.6705 26.25 23.75 26.25C22.8295 26.25 22.0833 26.9962 22.0833 27.9167C22.0833 28.8371 22.8295 29.5833 23.75 29.5833C24.6705 29.5833 25.4167 28.8371 25.4167 27.9167ZM23.75 40.8333C25.8211 40.8333 27.5 39.1544 27.5 37.0833C27.5 35.0123 25.8211 33.3333 23.75 33.3333C21.6789 33.3333 20 35.0123 20 37.0833C20 39.1544 21.6789 40.8333 23.75 40.8333ZM23.75 38.75C22.8295 38.75 22.0833 38.0038 22.0833 37.0833C22.0833 36.1629 22.8295 35.4167 23.75 35.4167C24.6705 35.4167 25.4167 36.1629 25.4167 37.0833C25.4167 38.0038 24.6705 38.75 23.75 38.75ZM21.0417 20C20.4664 20 20 20.4664 20 21.0417C20 21.617 20.4664 22.0833 21.0417 22.0833H38.9583C39.5336 22.0833 40 21.617 40 21.0417C40 20.4664 39.5336 20 38.9583 20H21.0417ZM29.1667 28.125C29.1667 27.5497 29.633 27.0833 30.2083 27.0833H38.9583C39.5336 27.0833 40 27.5497 40 28.125C40 28.7003 39.5336 29.1667 38.9583 29.1667H30.2083C29.633 29.1667 29.1667 28.7003 29.1667 28.125ZM30.2083 35.8333C29.633 35.8333 29.1667 36.2997 29.1667 36.875C29.1667 37.4503 29.633 37.9167 30.2083 37.9167H38.9583C39.5336 37.9167 40 37.4503 40 36.875C40 36.2997 39.5336 35.8333 38.9583 35.8333H30.2083ZM20.2083 15C17.3319 15 15 17.3319 15 20.2083V39.7917C15 42.6682 17.3319 45 20.2083 45H39.7917C42.6682 45 45 42.6682 45 39.7917V20.2083C45 17.3319 42.6682 15 39.7917 15H20.2083ZM17.0833 20.2083C17.0833 18.4824 18.4824 17.0833 20.2083 17.0833H39.7917C41.5176 17.0833 42.9167 18.4824 42.9167 20.2083V39.7917C42.9167 41.5176 41.5176 42.9167 39.7917 42.9167H20.2083C18.4824 42.9167 17.0833 41.5176 17.0833 39.7917V20.2083Z" fill="#212121"/>
</g>
<defs>
<clipPath id="clip0_160_868">
<rect width="30" height="30" fill="white" transform="translate(15 15)"/>
</clipPath>
</defs>
</svg>
