<svg width="1920" height="257" viewBox="0 0 1920 257" fill="none" xmlns="http://www.w3.org/2000/svg">
<g clip-path="url(#clip0_186_3804)">
<g opacity="0.5">
<path d="M41.2 288.272H0V152.072H41.2V288.272ZM1 287.172H40.2V153.172H1V287.172Z" fill="#929292"/>
<path d="M33.3 165.672H8V166.672H33.3V165.672Z" fill="#929292"/>
<path d="M33.3 181.072H8V182.072H33.3V181.072Z" fill="#929292"/>
<path d="M33.3 196.472H8V197.472H33.3V196.472Z" fill="#929292"/>
<path d="M33.3 211.972H8V212.972H33.3V211.972Z" fill="#929292"/>
<path d="M33.3 227.372H8V228.372H33.3V227.372Z" fill="#929292"/>
<path d="M33.3 242.771H8V243.771H33.3V242.771Z" fill="#929292"/>
<path d="M36.6002 152.672H4.7002V107.472H36.6002V152.672ZM5.7002 151.672H35.5002V108.472H5.7002V151.672Z" fill="#929292"/>
<path d="M29.7 117.071H11.5V118.071H29.7V117.071Z" fill="#929292"/>
<path d="M29.7 129.571H11.5V130.571H29.7V129.571Z" fill="#929292"/>
<path d="M29.7 142.071H11.5V143.071H29.7V142.071Z" fill="#929292"/>
<path d="M33.3 108.472H8V83.1719H33.3V108.472ZM9 107.472H32.3V84.1719H9V107.472Z" fill="#929292"/>
<path d="M29.6001 84.1717H11.6001V57.4717H29.6001V84.1717ZM12.6001 83.1717H28.6001V58.4717H12.6001V83.1717Z" fill="#929292"/>
<path d="M21.1001 32.6719H20.1001V57.9719H21.1001V32.6719Z" fill="#929292"/>
<path d="M116 288.272H74.7002V152.072H116V288.272ZM75.7002 287.172H114.9V153.172H75.7002V287.172Z" fill="#929292"/>
<path d="M108 165.672H82.7002V166.672H108V165.672Z" fill="#929292"/>
<path d="M108 181.072H82.7002V182.072H108V181.072Z" fill="#929292"/>
<path d="M108 196.472H82.7002V197.472H108V196.472Z" fill="#929292"/>
<path d="M108 211.972H82.7002V212.972H108V211.972Z" fill="#929292"/>
<path d="M108 227.372H82.7002V228.372H108V227.372Z" fill="#929292"/>
<path d="M108 242.771H82.7002V243.771H108V242.771Z" fill="#929292"/>
<path d="M111.3 152.672H79.4004V107.472H111.3V152.672ZM80.4004 151.672H110.2V108.472H80.4004V151.672Z" fill="#929292"/>
<path d="M104.4 117.071H86.2002V118.071H104.4V117.071Z" fill="#929292"/>
<path d="M104.4 129.571H86.2002V130.571H104.4V129.571Z" fill="#929292"/>
<path d="M104.4 142.071H86.2002V143.071H104.4V142.071Z" fill="#929292"/>
<path d="M108 108.472H82.7002V83.1719H108V108.472ZM83.7002 107.472H107V84.1719H83.7002V107.472Z" fill="#929292"/>
<path d="M104.3 84.1717H86.3003V57.4717H104.3V84.1717ZM87.3003 83.1717H103.3V58.4717H87.3003V83.1717Z" fill="#929292"/>
<path d="M95.8003 32.6719H94.8003V57.9719H95.8003V32.6719Z" fill="#929292"/>
<path d="M75.7002 185.172H40.2002V170.172H75.7002V185.172ZM41.2002 184.172H74.7002V171.172H41.2002V184.172Z" fill="#929292"/>
<path d="M75.7002 219.972H40.2002V204.972H75.7002V219.972ZM41.2002 218.972H74.7002V205.972H41.2002V218.972Z" fill="#929292"/>
<path d="M204.3 288.272H136.4V196.572H204.3V288.272ZM137.4 287.172H203.3V197.472H137.4V287.172Z" fill="#929292"/>
<path d="M166.1 227.072H148.1V209.072H166.1V227.072ZM149.1 226.072H165.1V210.072H149.1V226.072Z" fill="#929292"/>
<path d="M192.6 227.072H174.6V209.072H192.6V227.072ZM175.7 226.072H191.7V210.072H175.7V226.072Z" fill="#929292"/>
<path d="M166.1 251.372H148.1V233.372H166.1V251.372ZM149.1 250.372H165.1V234.372H149.1V250.372Z" fill="#929292"/>
<path d="M192.6 251.372H174.6V233.372H192.6V251.372ZM175.7 250.372H191.7V234.372H175.7V250.372Z" fill="#929292"/>
<path d="M925.5 288.272H857.6V196.572H925.5V288.272ZM858.6 287.172H924.5V197.472H858.6V287.172Z" fill="#929292"/>
<path d="M887.2 227.072H869.2V209.072H887.2V227.072ZM870.3 226.072H886.3V210.072H870.3V226.072Z" fill="#929292"/>
<path d="M913.8 227.072H895.8V209.072H913.8V227.072ZM896.8 226.072H912.8V210.072H896.8V226.072Z" fill="#929292"/>
<path d="M887.2 251.372H869.2V233.372H887.2V251.372ZM870.3 250.372H886.3V234.372H870.3V250.372Z" fill="#929292"/>
<path d="M913.8 251.372H895.8V233.372H913.8V251.372ZM896.8 250.372H912.8V234.372H896.8V250.372Z" fill="#929292"/>
<path d="M288.5 288.272H221.1V165.672H288.5V288.272ZM222.1 287.172H287.5V166.672H222.1V287.172Z" fill="#929292"/>
<path d="M276.1 182.972H233.5V183.972H276.1V182.972Z" fill="#929292"/>
<path d="M276.1 200.372H233.5V201.372H276.1V200.372Z" fill="#929292"/>
<path d="M276.1 217.771H233.5V218.771H276.1V217.771Z" fill="#929292"/>
<path d="M276.1 235.172H233.5V236.172H276.1V235.172Z" fill="#929292"/>
<path d="M276.1 252.571H233.5V253.571H276.1V252.571Z" fill="#929292"/>
<path d="M276.6 166.672H233V148.672H276.6V166.672ZM234 165.672H275.5V149.672H234V165.672Z" fill="#929292"/>
<path d="M836.8 288.272H769.4V165.672H836.8V288.272ZM770.4 287.172H835.8V166.672H770.4V287.172Z" fill="#929292"/>
<path d="M824.4 182.972H781.8V183.972H824.4V182.972Z" fill="#929292"/>
<path d="M824.4 200.372H781.8V201.372H824.4V200.372Z" fill="#929292"/>
<path d="M824.4 217.771H781.8V218.771H824.4V217.771Z" fill="#929292"/>
<path d="M824.4 235.172H781.8V236.172H824.4V235.172Z" fill="#929292"/>
<path d="M824.4 252.571H781.8V253.571H824.4V252.571Z" fill="#929292"/>
<path d="M824.9 166.672H781.3V148.672H824.9V166.672ZM782.3 165.672H823.8V149.672H782.3V165.672Z" fill="#929292"/>
<path d="M493.7 288.272H426.3V165.672H493.7V288.272ZM427.3 287.172H492.7V166.672H427.3V287.172Z" fill="#929292"/>
<path d="M481.3 182.972H438.7V183.972H481.3V182.972Z" fill="#929292"/>
<path d="M481.3 200.372H438.7V201.372H481.3V200.372Z" fill="#929292"/>
<path d="M481.3 217.771H438.7V218.771H481.3V217.771Z" fill="#929292"/>
<path d="M481.3 235.172H438.7V236.172H481.3V235.172Z" fill="#929292"/>
<path d="M481.3 252.571H438.7V253.571H481.3V252.571Z" fill="#929292"/>
<path d="M481.8 166.672H438.2V148.672H481.8V166.672ZM439.3 165.672H480.8V149.672H439.3V165.672Z" fill="#929292"/>
<path d="M404.6 288.272H310.3V83.1719H404.6V288.272ZM311.3 287.172H403.6V84.1719H311.3V287.172Z" fill="#929292"/>
<path d="M357.9 83.6719H356.9V287.772H357.9V83.6719Z" fill="#929292"/>
<path d="M347.5 104.672H322.2V105.672H347.5V104.672Z" fill="#929292"/>
<path d="M347.5 120.072H322.2V121.072H347.5V120.072Z" fill="#929292"/>
<path d="M347.5 135.472H322.2V136.472H347.5V135.472Z" fill="#929292"/>
<path d="M347.5 150.972H322.2V151.972H347.5V150.972Z" fill="#929292"/>
<path d="M347.5 166.372H322.2V167.372H347.5V166.372Z" fill="#929292"/>
<path d="M394.5 203.872H369.2V204.872H394.5V203.872Z" fill="#929292"/>
<path d="M394.5 219.372H369.2V220.372H394.5V219.372Z" fill="#929292"/>
<path d="M394.5 234.772H369.2V235.772H394.5V234.772Z" fill="#929292"/>
<path d="M394.5 250.172H369.2V251.172H394.5V250.172Z" fill="#929292"/>
<path d="M394.9 84.1715H321.6V70.2715H394.9V84.1715ZM322.7 83.1715H393.9V71.2715H322.7V83.1715Z" fill="#929292"/>
<path d="M662.9 288.272H511.7V217.772H662.9V288.272ZM512.7 287.172H661.8V218.672H512.7V287.172Z" fill="#929292"/>
<path d="M662.9 218.772H586.8V200.372H662.9V218.772ZM587.8 217.772H661.8V201.372H587.8V217.772Z" fill="#929292"/>
<path d="M587.8 218.272H586.8V287.772H587.8V218.272Z" fill="#929292"/>
<path d="M648.3 238.173H601.3V239.173H648.3V238.173Z" fill="#929292"/>
<path d="M648.3 228.772H601.3V229.772H648.3V228.772Z" fill="#929292"/>
<path d="M1103.2 288.272H952.1V217.772H1103.3V288.272H1103.2ZM953.1 287.172H1102.2V218.672H953.1V287.172Z" fill="#929292"/>
<path d="M1103.2 218.772H1027.1V200.372H1103.2V218.772ZM1028.2 217.772H1102.2V201.372H1028.2V217.772Z" fill="#929292"/>
<path d="M1028.1 218.272H1027.1V287.772H1028.1V218.272Z" fill="#929292"/>
<path d="M1088.7 238.173H1041.7V239.173H1088.7V238.173Z" fill="#929292"/>
<path d="M1088.7 228.772H1041.7V229.772H1088.7V228.772Z" fill="#929292"/>
<path d="M748.7 288.271H680.8V196.571H748.7V288.271ZM681.8 287.171H747.7V197.471H681.8V287.171Z" fill="#929292"/>
<path d="M710.5 227.071H692.5V209.071H710.5V227.071ZM693.5 226.071H709.5V210.071H693.5V226.071Z" fill="#929292"/>
<path d="M737.1 227.071H719.1V209.071H737.1V227.071ZM720.1 226.071H736.1V210.071H720.1V226.071Z" fill="#929292"/>
<path d="M710.5 251.371H692.5V233.371H710.5V251.371ZM693.5 250.371H709.5V234.371H693.5V250.371Z" fill="#929292"/>
<path d="M737.1 251.371H719.1V233.371H737.1V251.371ZM720.1 250.371H736.1V234.371H720.1V250.371Z" fill="#929292"/>
<path d="M737.1 197.571H692.5V142.271H737.1V197.571ZM693.5 196.471H736V143.271H693.5V196.471Z" fill="#929292"/>
<path d="M728.6 143.272H701V104.672H728.6V143.272ZM702 142.272H727.6V105.672H702V142.272Z" fill="#929292"/>
<path d="M715.3 70.7715H714.3V105.171H715.3V70.7715Z" fill="#929292"/>
<path d="M1742.2 288.272H1674.3V196.572H1742.2V288.272ZM1675.4 287.172H1741.3V197.472H1675.4V287.172Z" fill="#929292"/>
<path d="M1704 227.072H1686V209.072H1704V227.072ZM1687 226.072H1703V210.072H1687V226.072Z" fill="#929292"/>
<path d="M1730.6 227.072H1712.6V209.072H1730.6V227.072ZM1713.6 226.072H1729.6V210.072H1713.6V226.072Z" fill="#929292"/>
<path d="M1704 251.372H1686V233.372H1704V251.372ZM1687 250.372H1703V234.372H1687V250.372Z" fill="#929292"/>
<path d="M1730.6 251.372H1712.6V233.372H1730.6V251.372ZM1713.6 250.372H1729.6V234.372H1713.6V250.372Z" fill="#929292"/>
<path d="M1653.6 288.272H1586.2V165.672H1653.6V288.272ZM1587.1 287.172H1652.5V166.672H1587.1V287.172Z" fill="#929292"/>
<path d="M1641.2 182.972H1598.6V183.972H1641.2V182.972Z" fill="#929292"/>
<path d="M1641.2 200.372H1598.6V201.372H1641.2V200.372Z" fill="#929292"/>
<path d="M1641.2 217.771H1598.6V218.771H1641.2V217.771Z" fill="#929292"/>
<path d="M1641.2 235.172H1598.6V236.172H1641.2V235.172Z" fill="#929292"/>
<path d="M1641.2 252.571H1598.6V253.571H1641.2V252.571Z" fill="#929292"/>
<path d="M1641.6 166.672H1598V148.672H1641.6V166.672ZM1599.1 165.672H1640.6V149.672H1599.1V165.672Z" fill="#929292"/>
<path d="M1310.5 288.272H1243.1V165.672H1310.5V288.272ZM1244.1 287.172H1309.5V166.672H1244.1V287.172Z" fill="#929292"/>
<path d="M1298.1 182.972H1255.5V183.972H1298.1V182.972Z" fill="#929292"/>
<path d="M1298.1 200.372H1255.5V201.372H1298.1V200.372Z" fill="#929292"/>
<path d="M1298.1 217.771H1255.5V218.771H1298.1V217.771Z" fill="#929292"/>
<path d="M1298.1 235.172H1255.5V236.172H1298.1V235.172Z" fill="#929292"/>
<path d="M1298.1 252.571H1255.5V253.571H1298.1V252.571Z" fill="#929292"/>
<path d="M1298.6 166.672H1255V148.672H1298.6V166.672ZM1256 165.672H1297.5V149.672H1256V165.672Z" fill="#929292"/>
<path d="M1221.3 288.272H1127V83.1719H1221.3V288.272ZM1128 287.172H1220.3V84.1719H1128V287.172Z" fill="#929292"/>
<path d="M1174.7 83.6719H1173.7V287.772H1174.7V83.6719Z" fill="#929292"/>
<path d="M1164.2 104.672H1138.9V105.672H1164.2V104.672Z" fill="#929292"/>
<path d="M1164.2 120.072H1138.9V121.072H1164.2V120.072Z" fill="#929292"/>
<path d="M1164.2 135.472H1138.9V136.472H1164.2V135.472Z" fill="#929292"/>
<path d="M1164.2 150.972H1138.9V151.972H1164.2V150.972Z" fill="#929292"/>
<path d="M1164.2 166.372H1138.9V167.372H1164.2V166.372Z" fill="#929292"/>
<path d="M1211.2 203.872H1185.9V204.872H1211.2V203.872Z" fill="#929292"/>
<path d="M1211.2 219.372H1185.9V220.372H1211.2V219.372Z" fill="#929292"/>
<path d="M1211.2 234.772H1185.9V235.772H1211.2V234.772Z" fill="#929292"/>
<path d="M1211.2 250.172H1185.9V251.172H1211.2V250.172Z" fill="#929292"/>
<path d="M1211.7 84.1715H1138.4V70.2715H1211.7V84.1715ZM1139.4 83.1715H1210.6V71.2715H1139.4V83.1715Z" fill="#929292"/>
<path d="M1479.6 288.272H1328.4V217.772H1479.6V288.272ZM1329.5 287.172H1478.6V218.672H1329.5V287.172Z" fill="#929292"/>
<path d="M1479.6 218.772H1403.5V200.372H1479.6V218.772ZM1404.6 217.772H1478.6V201.372H1404.6V217.772Z" fill="#929292"/>
<path d="M1404.5 218.272H1403.5V287.772H1404.5V218.272Z" fill="#929292"/>
<path d="M1465.1 238.173H1418.1V239.173H1465.1V238.173Z" fill="#929292"/>
<path d="M1465.1 228.772H1418.1V229.772H1465.1V228.772Z" fill="#929292"/>
<path d="M1920 288.272H1768.8V217.772H1920V288.272ZM1769.9 287.172H1919V218.672H1769.9V287.172Z" fill="#929292"/>
<path d="M1920 218.772H1843.9V200.372H1920V218.772ZM1844.9 217.772H1918.9V201.372H1844.9V217.772Z" fill="#929292"/>
<path d="M1844.9 218.272H1843.9V287.772H1844.9V218.272Z" fill="#929292"/>
<path d="M1905.5 238.173H1858.5V239.173H1905.5V238.173Z" fill="#929292"/>
<path d="M1905.5 228.772H1858.5V229.772H1905.5V228.772Z" fill="#929292"/>
<path d="M1565.5 288.271H1497.6V196.571H1565.5V288.271ZM1498.6 287.171H1564.5V197.471H1498.6V287.171Z" fill="#929292"/>
<path d="M1527.3 227.071H1509.3V209.071H1527.3V227.071ZM1510.3 226.071H1526.3V210.071H1510.3V226.071Z" fill="#929292"/>
<path d="M1553.8 227.071H1535.8V209.071H1553.8V227.071ZM1536.8 226.071H1552.8V210.071H1536.8V226.071Z" fill="#929292"/>
<path d="M1527.3 251.371H1509.3V233.371H1527.3V251.371ZM1510.3 250.371H1526.3V234.371H1510.3V250.371Z" fill="#929292"/>
<path d="M1553.8 251.371H1535.8V233.371H1553.8V251.371ZM1536.8 250.371H1552.8V234.371H1536.8V250.371Z" fill="#929292"/>
<path d="M1553.8 197.571H1509.2V142.271H1553.8V197.571ZM1510.3 196.471H1552.8V143.271H1510.3V196.471Z" fill="#929292"/>
<path d="M1545.3 143.272H1517.7V104.672H1545.3V143.272ZM1518.8 142.272H1544.4V105.672H1518.8V142.272Z" fill="#929292"/>
<path d="M1532 70.7715H1531V105.171H1532V70.7715Z" fill="#929292"/>
</g>
</g>
<defs>
<clipPath id="clip0_186_3804">
<rect width="1920" height="255.6" fill="white" transform="translate(0 0.671875)"/>
</clipPath>
</defs>
</svg>
