<svg width="60" height="60" viewBox="0 0 60 60" fill="none" xmlns="http://www.w3.org/2000/svg">
<circle cx="30" cy="30" r="30" fill="#DAECF2"/>
<path d="M16.875 27.5C16.875 22.3223 21.0723 18.125 26.25 18.125C31.4277 18.125 35.625 22.3223 35.625 27.5C35.625 32.6777 31.4277 36.875 26.25 36.875C24.622 36.875 23.0935 36.4608 21.7614 35.7328C21.5499 35.6173 21.302 35.5876 21.0691 35.65L17.0062 36.7386L18.0956 32.6728C18.158 32.4402 18.1284 32.1926 18.0132 31.9813C17.2877 30.6509 16.875 29.125 16.875 27.5ZM26.25 16.25C20.0368 16.25 15 21.2868 15 27.5C15 29.3106 15.4284 31.0235 16.1899 32.5406L15.055 36.7762C14.7437 37.938 15.8068 39.0011 16.9687 38.6898L21.2008 37.5558C22.7201 38.32 24.4361 38.75 26.25 38.75C32.4632 38.75 37.5 33.7132 37.5 27.5C37.5 21.2868 32.4632 16.25 26.25 16.25ZM33.75 43.7501C30.4022 43.7501 27.3959 42.2878 25.3351 39.9671C25.6373 39.989 25.9424 40.0001 26.25 40.0001C26.8339 40.0001 27.4084 39.9601 27.971 39.8826C29.5634 41.1309 31.5698 41.8751 33.75 41.8751C35.378 41.8751 36.9065 41.461 38.2386 40.733C38.4501 40.6174 38.698 40.5877 38.9309 40.6501L42.9938 41.7387L41.9044 37.6729C41.8421 37.4403 41.8716 37.1928 41.9868 36.9814C42.7123 35.651 43.125 34.1251 43.125 32.5001C43.125 28.9913 41.1974 25.9327 38.3433 24.3256C38.1176 23.4632 37.802 22.6371 37.4072 21.8579C41.8251 23.3758 45 27.5672 45 32.5001C45 34.3107 44.5716 36.0236 43.8101 37.5407L44.945 41.7763C45.2563 42.9381 44.1932 44.0012 43.0313 43.6899L38.7992 42.5559C37.2799 43.3201 35.5639 43.7501 33.75 43.7501ZM27.5 33.125C27.5 33.8154 26.9404 34.375 26.25 34.375C25.5597 34.375 25 33.8154 25 33.125C25 32.4347 25.5597 31.875 26.25 31.875C26.9404 31.875 27.5 32.4347 27.5 33.125ZM24.375 24.0716L24.375 24.0696C24.3753 24.0637 24.3759 24.0502 24.3775 24.0302C24.3807 23.9898 24.3878 23.9252 24.4029 23.8447C24.4338 23.6798 24.4941 23.4714 24.6062 23.2721C24.7958 22.935 25.1907 22.5 26.25 22.5C27.3093 22.5 27.7042 22.935 27.8939 23.2721C28.0059 23.4714 28.0662 23.6798 28.0971 23.8447C28.1109 23.918 28.1199 23.9918 28.125 24.0662L28.125 24.0696C28.1222 24.722 27.7435 25.143 26.9828 25.988L26.9595 26.0139C26.2357 26.8179 25.3125 27.9066 25.3125 29.6875C25.3125 30.2053 25.7323 30.625 26.25 30.625C26.7678 30.625 27.1875 30.2053 27.1875 29.6875C27.1875 28.6559 27.6706 28.0265 28.3531 27.2683C28.4026 27.2133 28.4546 27.1564 28.5084 27.0976C29.135 26.4128 30 25.4673 30 24.0625L30 24.0602L29.9987 23.9993C29.9975 23.9686 29.9954 23.9283 29.9915 23.88C29.9838 23.7836 29.9689 23.653 29.94 23.4991C29.883 23.1952 29.7676 22.7786 29.5281 22.3529C29.0146 21.44 28.0033 20.625 26.25 20.625C24.4968 20.625 23.4855 21.44 22.972 22.3529C22.7325 22.7786 22.617 23.1952 22.56 23.4991C22.5312 23.653 22.5163 23.7836 22.5085 23.88C22.5046 23.9283 22.5025 23.9686 22.5014 23.9993C22.5008 24.0147 22.5004 24.0278 22.5003 24.0383L22.5001 24.0523L22.5 24.0579L22.5 24.0603C22.5 24.0636 22.5 24.0625 22.5 24.0625C22.5 24.5803 22.9197 25 23.4375 25C23.9522 25 24.3701 24.5852 24.375 24.0716Z" fill="#3A9EC3"/>
</svg>
