<svg width="60" height="60" viewBox="0 0 60 60" fill="none" xmlns="http://www.w3.org/2000/svg">
<circle cx="30" cy="30" r="30" fill="white"/>
<g clip-path="url(#clip0_500_7079)">
<path d="M31.25 22.5C31.25 23.1904 30.6904 23.75 30 23.75C29.3096 23.75 28.75 23.1904 28.75 22.5C28.75 21.8096 29.3096 21.25 30 21.25C30.6904 21.25 31.25 21.8096 31.25 22.5ZM29.0625 27.1875L29.0625 36.5625C29.0625 37.0803 29.4822 37.5 30 37.5C30.5178 37.5 30.9375 37.0803 30.9375 36.5625L30.9375 27.1875C30.9375 26.6697 30.5178 26.25 30 26.25C29.4822 26.25 29.0625 26.6697 29.0625 27.1875ZM15 30C15 21.7157 21.7157 15 30 15C38.2843 15 45 21.7157 45 30C45 38.2843 38.2843 45 30 45C21.7157 45 15 38.2843 15 30ZM30 16.875C22.7513 16.875 16.875 22.7513 16.875 30C16.875 37.2487 22.7513 43.125 30 43.125C37.2487 43.125 43.125 37.2487 43.125 30C43.125 22.7513 37.2487 16.875 30 16.875Z" fill="#0072BB"/>
</g>
<defs>
<clipPath id="clip0_500_7079">
<rect width="30" height="30" fill="white" transform="translate(15 15)"/>
</clipPath>
</defs>
</svg>
