<svg xmlns="http://www.w3.org/2000/svg" viewBox="0 0 975.13 600"><g id="Layer_2" data-name="Layer 2"><g id="Layer_1-2" data-name="Layer 1"><path d="M0,599.71V403.46a.13.13,0,0,1,.13-.14L81.6,395h0l42.55,2.58V251.36a.14.14,0,0,1,.12-.14l79-13.26h0l13.49,1.45V228.34a5.91,5.91,0,0,1-3.68-5.7c0-2.41,1.46-4.47,3.4-4.8h0l.1,0h0l.68-.09.3,0h.3a2.59,2.59,0,0,1,.48,0c2.45.36,4.37,2.93,4.37,5.85,0,2.59-1.55,4.72-3.5,4.91l-.68.09-.14,0h-.09l-.28,0H218v10.93L231.68,241v-7.67a4.23,4.23,0,0,1-2.22-3.85,3.32,3.32,0,0,1,2.2-3.34v-2.91a7.54,7.54,0,0,1-4.94-7.38c0-3.09,1.85-5.71,4.31-6.13h0l.13,0,0,.13v-.13l.86-.12a2.63,2.63,0,0,1,.39-.06h0l.35,0a4,4,0,0,1,.6.05c3.1.46,5.54,3.75,5.54,7.48,0,3.31-2,6-4.43,6.26l-.87.13-.18,0h-.1l-.36,0-.32,0V226h.11a1.87,1.87,0,0,1,.34,0,4,4,0,0,1,3.06,4.12c0,1.82-1.09,3.32-2.46,3.46l-.47.07h-.57v7.45l20,2.15V140.87a.16.16,0,0,1,.12-.14l34.24-7.06h.05l4.89.68.66-.17v-3.55a.16.16,0,0,1,.12-.14l4.77-1V117.37a.15.15,0,0,1,.12-.14l25.48-5.47V103.9a.16.16,0,0,1,.12-.14L342,99.66h.06l18.69,2.93a.14.14,0,0,1,.12.14v1l1.68-.36V41.52a.15.15,0,0,1,.14-.15l2.4-.12a.14.14,0,0,1,.15.15v61.34L387.12,98h.06l29.21,4.67,30.09-6.32V64.71a.13.13,0,0,1,.11-.14L484.88,56V26.89a.14.14,0,0,1,.05-.1.15.15,0,0,1,.11,0l1.75.09a.13.13,0,0,1,.13.14V55.52l1.22-.27h.06l5.52,1V.14a.14.14,0,0,1,0-.1.13.13,0,0,1,.1,0l2.67.1a.14.14,0,0,1,.14.14V56.76l36.38,6.51v-2.5a.14.14,0,0,1,.11-.14l17.77-3.87H551l23.59,4.31a.14.14,0,0,1,.12.14v9.55l26.54,4.72a.14.14,0,0,1,.12.14V222l60-8.93h0l6.18.84V203.26c-1.94-.94-3.23-3.3-3.23-6s1.37-4.83,3.18-5.18h.15l.63-.1.28,0h.29a2.28,2.28,0,0,1,.45,0c2.29.4,4.09,3.17,4.09,6.32,0,2.79-1.45,5.09-3.28,5.29l-.64.11-.13,0h-.08l-.27,0-.28,0v10.43l13.45,1.82v-7.37a4.76,4.76,0,0,1-1.93-4,3.63,3.63,0,0,1,1.93-3.55V198.1c-2.68-1.1-4.49-4.23-4.49-7.94,0-3.34,1.75-6.19,4.08-6.64h0l.13,0,0,.14v-.14l.82-.13a2.25,2.25,0,0,1,.36-.06h.36a2.78,2.78,0,0,1,.58.05c2.94.5,5.24,4.07,5.24,8.11,0,3.59-1.85,6.54-4.19,6.8l-.83.14-.16,0H684l-.34,0-.34,0v2.28h.08a1.73,1.73,0,0,1,.32,0c1.61.28,2.87,2.22,2.87,4.42,0,2-1,3.57-2.31,3.72l-.44.07-.09,0h-.44V216l26.73,3.63a.15.15,0,0,1,.12.15v34.64l8.37-1.11h0l7.19.89a.15.15,0,0,1,.13.14v.6l8.6,1V245.55a6.4,6.4,0,0,1-3.1-5.86c0-2.53,1.33-4.69,3.09-5h.13l0,.11h0v-.11l.62-.1.27,0h.28a2.12,2.12,0,0,1,.44,0c2.23.38,4,3.07,4,6.13,0,2.72-1.4,4.95-3.18,5.15l-.62.1-.13,0h-.08l-.25,0-.32,0v10.24L765,259.75v-8.6c-.59-.2-.89-.44-.9-.71h0V218.66c0-.58,1.45-1.11,4.32-1.56a71,71,0,0,1,9.74-.74c6.32-.07,11.67.61,12.7,1.61a.6.6,0,0,1,.19.4v31.75h0c0,.39-.57.71-1.74,1v11.63l23.44,2.89,2.61-.33h0l6.67.82a.14.14,0,0,1,.12.15V386.81l52-3.95h0L975,391.14a.14.14,0,0,1,.13.14V599.71H975V600H0v-.29Zm874.3,0h100.5V391.42l-100.5-8.26Zm-52.18,0h51.89V383.16l-51.89,3.94Zm-6.67,0h6.38V266.42l-6.38-.78ZM736.26,245.46a2.32,2.32,0,0,0,.52.07H737l.27-.05h0c1.51-.36,2.67-2.38,2.67-4.82,0-2.87-1.68-5.5-3.73-5.85a2.56,2.56,0,0,0-.39,0h-.23l-.28,0c-1.57.36-2.78,2.35-2.78,4.74C732.52,242.48,734.06,244.9,736.26,245.46Zm-.35.2c-2.18-.72-3.68-3.18-3.68-6.1a5.6,5.6,0,0,1,1.91-4.49c-1.42.55-2.44,2.44-2.44,4.62,0,2.92,1.54,5.35,3.74,5.91A3.78,3.78,0,0,0,735.91,245.66Zm-1.11,0v10.38l.54.07V245.87Zm55.93-27.32a.29.29,0,0,0-.11-.19c-.83-.81-5.73-1.6-12.49-1.53a72.33,72.33,0,0,0-9.7.73c-3.21.51-4.07,1.05-4.07,1.28V250c1.38-1,7.42-1.53,13.09-1.59,6.71-.07,12.06.45,13.28,1.29Zm0,31.76a.27.27,0,0,0-.08-.13c-.84-.82-6.51-1.38-13.19-1.3-8.53.09-13.08,1.06-13.1,1.73,0,.06.09.22.61.42v-.46a.15.15,0,0,1,.14-.15h1.22a.15.15,0,0,1,.12.07l.65,1a58.3,58.3,0,0,0,6.79.5l1.61-2.34V249a.14.14,0,0,1,.15-.14h.82a.15.15,0,0,1,.15.14v2.84h1a74.76,74.76,0,0,0,9.67-.64l.52-.69a.14.14,0,0,1,.12-.06h1.19a.15.15,0,0,1,.15.15v.22C790.58,250.51,790.71,250.22,790.73,250.13Zm-25.47.4v9.24l.57-.06v-9.18Zm5.13,8.08-.76,1.09,1.57.17Zm1.18,1.31.65.07-1.34-2.08-.31.44Zm3.93-9.09V250l-6.63,9.6.43.05Zm-.37,1h.37v-.52Zm-1.44.26a61.24,61.24,0,0,1-6.38-.46l3.21,5ZM770.34,257l-4.09-6.43h-.13v.83l3.92,6Zm5.45-7.78V261.1l.54.07v-12Zm.83,3v9l1,.13v-9.18h-1Zm1.32,0v9.23l.56.07v-9.3Zm5.45,6-.25.33,3.29,4,.64.08Zm4.1,4.42.62.07v-10.8l-4.54,6.07ZM783,258.7l-2.25,3,5.3.65Zm5.15-7.37v-.57H788l-8.07,10.85.44.06ZM782.29,258l-3.5-4.2v7.7l.82.1Zm.17-.24.29-.38-4-4.69v.66Zm.47-.62,4.13-5.56a73.71,73.71,0,0,1-8.27.58v.08Zm5.61-6.35h-.14v.18Zm-.14.67v11.23l.59.07v-12h-.09Zm24.47,308.13v40.15h2.33V265.64l-2.34.29v17.64a.16.16,0,0,1-.05.11.15.15,0,0,1-.07,0h0l-1.5.27V309.6l1.5.16a.14.14,0,0,1,.13.15v23.52a.13.13,0,0,1,0,.11.14.14,0,0,1-.09,0h-.11l-1.32.26V359.5l1.4.13a.15.15,0,0,1,.14.14v23.84a.16.16,0,0,1-.05.11.11.11,0,0,1-.08,0h0l-1.4.18v25.73l1.44.1a.15.15,0,0,1,.13.15v23.34a.13.13,0,0,1,0,.1l-.08,0h0l-1.46.26v25.7l1.4.07a.14.14,0,0,1,.14.14v23.56a.21.21,0,0,1,0,.11.11.11,0,0,1-.08,0h0l-1.46.28v25.79l1.46.05a.15.15,0,0,1,.14.15v23.67a.14.14,0,0,1-.14.15h0l-1.45,0v26.07l1.46,0A.16.16,0,0,1,812.87,559.56Zm-1.54-175.91-16.79-1.34,16.63,1.36Zm.21,49.68L775,431.08l36.16,2.32ZM774.91,599.71h37.67v-40l-37.67-.58Zm0-41.71,3.38,0V543.46l-3.38-.08Zm0-14.9,35.48.79v-.65l-35.48-.84Zm3.67.37v14.59H779V543.47Zm.67,0v14.59h.22V543.49Zm.51,0v14.59l6.36.1V543.64Zm6.65.15v14.54h.37V543.65Zm.66,0V558.2h.25V543.66Zm.54,0V558.2l6.37.11v-14.5Zm6.66.15v14.49h.31V543.83Zm.6,0v14.49h.27V543.84Zm.56,0v14.49l6.28.11V544ZM802,544v14.45h.34V544Zm.63,0v14.44h.26V544Zm.56,0v14.44l6.49.11v-14.4Zm6.78.15v14.4h.41v-14.4Zm.41-1.22v-8.62H810v8.62Zm-.7,0v-8.63l-6.52-.15v8.62Zm-6.81-.17v-8.62h-.24v8.63Zm-.53,0v-8.62H802v8.62Zm-.6,0v-8.63l-6.3-.15v8.63Zm-6.59-.16V534h-.27v8.62Zm-.56,0V534h-.33v8.62Zm-.62,0v-8.62l-6.37-.15v8.62Zm-6.66-.15v-8.63h-.23v8.62Zm-.52,0v-8.62h-.39v8.63Zm-.68,0v-8.63l-6.37-.15v8.63Zm-6.66-.16v-8.63h-.21v8.63Zm-.5,0v-8.63h-.38v8.63Zm-4.05-.1,3.38.08v-8.62l-3.38-.08Zm0-8.91,35.63.84a.15.15,0,0,1,.14.15v24.54a.14.14,0,0,1,0,.1.21.21,0,0,1-.11,0h0l-35.62-.59v.55l36.06.56V533.31l-36.06-.94Zm0-1.11,37.66,1V509.68l-37.66-1.3Zm0-24.64,3.37.11v-14.5l-3.37-.12Zm0-14.8,35.46,1.3v-.58l-35.46-1.49Zm3.66.43v14.49h.37V493.09Zm.66,0v14.49h.22V493.1Zm.51,0v14.49l6.38.21V493.35Zm6.67.24v14.47l.37,0V493.37Zm.66,0v14.47h.22V493.39Zm.51,0v14.47l6.36.22V493.64Zm6.65.25V508.1h.35V493.66Zm.64,0v14.45h.23V493.68Zm.52,0v14.45l6.32.21V493.92Zm6.61.24v14.43h.32V494Zm.62,0v14.42h.28V494Zm.57,0V508.4l6.54.22v-14.4Zm6.83.25v14.4l.35,0V494.24Zm.35-1.15v-8.71l-.35,0v8.72Zm-.64,0v-8.72l-6.53-.3v8.74Zm-6.83-.29V484h-.28v8.74Zm-.58,0V484H802v8.74Zm-.6,0V484l-6.33-.29v8.76Zm-6.62-.28v-8.77h-.21v8.76Zm-.5,0v-8.77h-.37v8.76Zm-.66,0v-8.77l-6.36-.28v8.78Zm-6.65-.28v-8.79h-.2v8.79Zm-.5,0V483.3l-.38,0v8.79Zm-.67,0v-8.79l-6.39-.29v8.81Zm-6.69-.28V483h-.2v8.81Zm-.49,0V483l-.31,0v8.82Zm-4-.17,3.43.14v-8.81l-3.43-.16Zm0-9.12,35.61,1.61a.15.15,0,0,1,.14.15V508.8a.14.14,0,0,1,0,.1.21.21,0,0,1-.1,0h0l-35.6-1.21v.36L811,509.33V483.56l-36.06-1.62Zm0-.82,36.19,1.63.33-.06-36.52-1.6Zm0-.32L812.55,483V459.71l-37.64-2Zm0-24.49,3.37.19V442.56l-3.37-.19Zm0-14.75,35.48,2v-.71l-35.48-2Zm3.66.49V457l.37,0V442.6Zm.66,0v14.46h.24V442.63Zm.53,0v14.46l6.36.34V443Zm6.65.37v14.44l.38,0V443Zm.68,0V457.5h.25V443.07Zm.55,0v14.44l6.32.34V443.44Zm6.61.37v14.42l.33,0V443.48Zm.62,0v14.43h.23V443.51Zm.52,0V458l6.29.33V443.87Zm6.59.37V458.3l.34,0V443.91Zm.63,0v14.4l.28,0V443.94Zm.57,0v14.4l6.52.35V444.32Zm6.81.38v14.39l.4,0V444.36Zm.4-1.27v-8.55l-.4,0v8.56Zm-.69,0v-8.56l-6.51-.41v8.6Zm-6.8-.39V434l-.29,0v8.61Zm-.58,0V434l-.29,0v8.61Zm-.59,0V434l-6.31-.41v8.66Zm-6.6-.38v-8.66h-.27v8.65Zm-.57,0v-8.66l-.31,0v8.66Zm-.6,0v-8.66l-6.35-.41v8.71Zm-6.64-.38V433h-.23v8.71Zm-.53,0V433l-.36,0v8.71Zm-.66,0V433l-6.37-.41v8.76Zm-6.66-.38v-8.77h-.26v8.76Zm-.55,0v-8.76l-.3,0v8.77Zm-4-.22,3.42.19v-8.77l-3.42-.22Zm0-9.09,35.63,2.28a.15.15,0,0,1,.14.14V458.9a.13.13,0,0,1,0,.11.15.15,0,0,1-.1,0h0l-35.62-1.92v.34l36.1,1.87V433.68l-36.1-2.32Zm0-1.18,37.68,2.32V410.05l-37.68-2.66Zm0-24.44,3.39.24V392.07l-3.39-.25Zm0-14.8,35.46,2.59v-.68l-35.46-2.51Zm3.68.55V406.6l.3,0V392.12Zm.6.05v14.51h.26V392.15Zm.55,0v14.51l6.39.45v-14.5Zm6.68.48v14.5l.38,0v-14.5Zm.67,0v14.5l.23,0v-14.5Zm.52,0v14.5l6.36.45V393.22Zm6.65.49v14.48l.32,0V393.26Zm.61,0v14.49h.24V393.3Zm.53,0V407.8l6.28.45V393.78Zm6.57.48v14.47l.37,0V393.83Zm.67.05v14.47l.28,0V393.87Zm.57,0v14.47l6.49.47V394.37Zm6.79.5v14.46l.37,0V394.42Zm.37-1.23v-8.58l-.37,0v8.58Zm-.67-.05v-8.58l-6.53-.52v8.64Zm-6.82-.48V384l-.24,0v8.65Zm-.54,0v-8.65l-.37,0v8.65Zm-.66,0v-8.65l-6.26-.5v8.71Zm-6.55-.46v-8.71l-.27,0v8.71Zm-.57,0v-8.72l-.3,0V392Zm-.59,0v-8.73l-6.36-.5v8.78Zm-6.65-.47v-8.78l-.23,0v8.78Zm-.52,0v-8.78l-.38,0v8.79Zm-.67-.05v-8.79l-6.36-.5V391Zm-6.65-.47v-8.85l-.27,0V391Zm-.56,0v-8.85l-.33,0v8.86Zm-4-.28,3.39.24V382l-3.39-.27Zm0-9.18,35.62,2.83a.15.15,0,0,1,.13.15V409a.15.15,0,0,1,0,.1.14.14,0,0,1-.1,0h0l-35.59-2.54v.47L811,409.65V384L774.91,381Zm0-1,37.63,3V359.91l-37.63-3.36Zm0-24.7,3.35.3V341.52l-3.35-.31Zm0-14.84,35.44,3.29v-.62L792.62,342l-12.29-1.12-4.05-.37-1.13-.1-.24,0Zm3.64.63v14.54l.38,0V341.59Zm.68.06v14.54l.26,0V341.64Zm.55.05V356.2l6.36.56V342.25Zm6.65.62v14.51l.35,0V342.31Zm.64.06v14.5l.19,0v-14.5Zm.49,0v14.51l6.37.56V343Zm6.67.62v14.48l.36,0V343Zm.65.06v14.48l.29,0V343.09Zm.58.05v14.48l6.24.55V343.69Zm6.53.61v14.45l.38,0V343.76Zm.67.06v14.45l.21,0V343.8Zm.5.05v14.44l7.19.64V344.49Zm7.19-.53v-8.7l-.36,0v8.7Zm-.65-.06v-8.7l-6.54-.63v8.74Zm-6.83-.62v-8.74l-.25,0v8.74Zm-.54-.05v-8.74l-.34,0v8.74Zm-.63-.06v-8.74l-6.24-.61V342Zm-6.53-.59v-8.78l-.29,0v8.78Zm-.58-.05v-8.79l-.35,0v8.78Zm-.64-.06V333l-6.34-.61v8.82Zm-6.63-.61v-8.82l-.25,0v8.83Zm-.54-.05v-8.82l-.35,0v8.83Zm-.64,0v-8.84l-6.41-.61v8.86Zm-6.71-.62v-8.86l-.2,0v8.86Zm-.5,0v-8.87l-.3,0v8.87Zm-4-.38,3.43.32v-8.87l-3.43-.33Zm0-9.17,35.6,3.44a.14.14,0,0,1,.13.14v24.6a.13.13,0,0,1,0,.1.14.14,0,0,1-.1,0h0l-35.57-3.16v.21l36.1,3.22V333.83l-36.1-3.54Zm0-.89,36.24,3.56.46-.1-36.7-3.61Zm0-.44,37.67,3.71V310L774.91,306Zm0-24.35,3.41.37V291.05l-3.41-.39Zm0-14.84,35.48,4v-.67l-35.48-3.81Zm3.71.71v14.53l.31,0V291.11Zm.6.07v14.53l.29,0V291.18Zm.58.06v14.53l6.37.69v-14.5Zm6.67.75v14.5l.31,0V292Zm.6.07v14.5l.22,0V292.06Zm.51.06v14.49l6.4.69V292.81Zm6.69.75V307.3l.33,0V292.88Zm.62.07v14.46l.3,0V293Zm.59.07v14.46l6.2.67V293.68Zm6.5.73v14.43l.38,0V293.76Zm.67.08v14.42l.25,0V293.82Zm.54.06v14.42l6.53.7V294.59Zm6.82.77V309l.38,0V294.66Zm.38-1.21v-8.66l-.38,0v8.66Zm-.67-.07v-8.67l-6.53-.78v8.75Zm-6.82-.73v-8.75l-.25,0v8.75Zm-.54-.06v-8.76l-.38,0v8.76Zm-.68-.08v-8.76l-6.26-.74v8.83Zm-6.55-.7v-8.84l-.24,0v8.85Zm-.53-.06v-8.84l-.36,0v8.85Zm-.65-.06v-8.86l-6.36-.76V291Zm-6.66-.72V282l-.2,0v8.94Zm-.49-.05v-8.94l-.31,0v8.94Zm-.6-.07v-8.94l-6.46-.77v9Zm-6.75-.72v-9l-.23,0v9Zm-.52,0v-9l-.36,0v9Zm-4-.44,3.37.36v-9l-3.37-.4Zm0-9.37,35.64,4.25a.14.14,0,0,1,.13.15v24.58a.12.12,0,0,1,0,.1.12.12,0,0,1-.1,0h0l-35.61-3.85v.2l36,3.87V284l-36-4.27Zm0-.8,36.18,4.28.63-.11-36.81-4.28Zm0-.4,37.66,4.38V265.93l-37.66-4.65Zm0-18.6V261l.59.07v-8.91h-.57l-3.87,5.5L772.6,260l2.18.25A.15.15,0,0,1,774.91,260.43Zm-7,339.28h6.68V260.55l-6.68-.76Zm-.13-340.22.73.08,1.32-1.91-3.74-5.77v7.78l1.65-.18Zm-2.5,299.35v40.87h2.33V259.79l-2.29.26V278a.14.14,0,0,1-.05.11.11.11,0,0,1-.07,0h0l-1.49.28V304.5l1.49.16a.14.14,0,0,1,.13.14v23.88a.13.13,0,0,1-.05.11.07.07,0,0,1-.06,0h0l-1.48.3v26.11l1.43.13a.14.14,0,0,1,.13.14v24.29a.16.16,0,0,1-.05.11s0,0-.08,0h0l-1.45.16v26.25l1.45.1a.15.15,0,0,1,.13.14v23.71a.18.18,0,0,1,0,.11l-.09,0h0l-1.44.14v26.28l1.41.07a.15.15,0,0,1,.14.15v24a.14.14,0,0,1,0,.1l-.07,0h0l-1.43.23v26.3l1.44,0a.15.15,0,0,1,.15.14v24.15a.12.12,0,0,1-.05.1.14.14,0,0,1-.1.05h0l-1.43,0v26.5l1.4,0A.14.14,0,0,1,765.31,558.84Zm-39.4,40.87H765V559l-39.11-.66Zm0-42.52,3.64,0V542.4l-3.64-.08Zm0-15.16,36.79.86v-.72l-36.79-.8Zm3.93.38v14.84h.32V542.41Zm.61,0v14.84h.22V542.43Zm.52,0v14.83l6.7.11V542.59Zm7,.17v14.77h.31V542.6Zm.6,0v14.77h.29V542.62Zm.58,0v14.76l6.56.1V542.78Zm6.86.15V557.5h.36V542.79Zm.65,0v14.71h.25v-14.7Zm.54,0v14.71l6.55.1V543ZM754,543v14.66h.35V543Zm.64,0v14.64h.3V543Zm.6,0v14.64l6.76.11V543.16Zm7.05.16v14.59h.38V543.17Zm.38-1.28v-8.8h-.38v8.79Zm-.67,0v-8.79l-6.79-.16v8.81Zm-7.08-.15V532.9h-.28v8.82Zm-.57,0v-8.81H754v8.81Zm-.64,0v-8.82l-6.55-.15v8.82Zm-6.84-.15v-8.83h-.25v8.83Zm-.54,0V532.7H746v8.83Zm-.66,0v-8.83l-6.56-.16v8.85Zm-6.85-.15v-8.84h-.29v8.84Zm-.58,0V532.5H738v8.84Zm-.6,0v-8.85l-6.7-.16v8.86Zm-7-.16v-8.86h-.23v8.86Zm-.52,0v-8.86h-.31v8.86Zm-4.24-.09,3.64.08V532.3l-3.64-.09Zm0-9.16,36.93.88a.15.15,0,0,1,.15.14v25a.16.16,0,0,1,0,.11.15.15,0,0,1-.1,0h0l-36.93-.57V558l37.57.64V532.16l-37.57-1Zm0-1,39.14,1V508.05l-39.14-1.36Zm0-25.15,3.6.12V491l-3.6-.14Zm0-15.16L762.73,492v-.66l-36.82-1.47Zm3.89.44v14.84l.38,0V491.05Zm.67,0v14.84h.26V491.08Zm.55,0v14.84l6.61.22v-14.8Zm6.91.27v14.8h.39v-14.8Zm.68,0v14.79l.26,0V491.39Zm.55,0V506.2l6.55.23V491.66Zm6.84.27v14.75l.4,0V491.69Zm.69,0v14.76h.24V491.71Zm.53,0v14.76l6.55.22V492Zm6.84.27v14.72h.36V492Zm.66,0v14.71H755V492Zm.57,0v14.71l6.77.23V492.3Zm7.06.27V507h.38V492.33Zm.38-1.22v-8.76l-.38,0v8.77Zm-.67,0V482.3l-6.8-.31v8.8Zm-7.09-.29V482h-.25v8.81Zm-.55,0V482l-.33,0v8.82Zm-.62,0v-8.82l-6.58-.3v8.85Zm-6.87-.28v-8.85h-.27v8.85Zm-.56,0v-8.86H746v8.86Zm-.66,0v-8.86l-6.58-.3v8.9Zm-6.87-.27v-8.9h-.28v8.9Zm-.57,0v-8.9H738v8.9Zm-.61,0v-8.9l-6.64-.31v8.94Zm-6.93-.28v-8.94h-.25v8.94Zm-.54,0v-8.94l-.39,0v8.95Zm-4.28-.17,3.6.15v-9l-3.6-.16Zm0-9.26,37,1.69a.13.13,0,0,1,.13.14v25a.15.15,0,0,1,0,.11.18.18,0,0,1-.1,0h0l-37-1.26v.36l37.55,1.31V481.43l-37.55-1.62Zm0-.83,37.69,1.62.13,0-37.82-1.64Zm0-.33L765,480.9V457.21l-39.11-2Zm0-24.84,3.64.18V439.68l-3.64-.21Zm0-15.18,36.77,2.1v-.77l-36.77-2.08Zm3.93.52v14.86h.31V439.71Zm.6,0v14.86h.27V439.74Zm.56,0v14.86l6.64.33V440.14Zm6.93.4V455l.37,0v-14.8Zm.66,0V455l.26,0v-14.8Zm.55,0V455l6.61.33V440.6Zm6.9.39v14.75h.33V440.64Zm.62,0V455.4h.21V440.67Zm.5,0v14.74l6.61.33V441.06Zm6.9.4v14.69h.33V441.09Zm.62,0V455.8H755V441.13Zm.59,0v14.69l6.77.33V441.53Zm7.06.41v14.63h.35V441.57Zm.35-1.33V431.5l-.35,0v8.73Zm-.64,0v-8.73l-6.79-.42v8.76Zm-7.08-.4V431l-.28,0v8.77Zm-.57,0V431l-.33,0v8.78Zm-.62,0v-8.78l-6.58-.41v8.82Zm-6.87-.39v-8.81l-.26,0v8.81Zm-.55,0v-8.82l-.31,0v8.82Zm-.6,0v-8.81l-6.61-.42v8.86Zm-6.9-.39V430l-.26,0v8.86Zm-.55,0V430l-.37,0v8.86Zm-.66,0v-8.86l-6.64-.41v8.9Zm-6.93-.39v-8.9h-.26v8.9Zm-.55,0v-8.9l-.32,0v8.9Zm-4.25-.24,3.64.21v-8.91l-3.64-.23Zm0-9.22,36.92,2.3a.14.14,0,0,1,.14.14v25a.14.14,0,0,1,0,.1.15.15,0,0,1-.11,0h0l-36.91-1.84v.23l37.56,2V430.58l-37.56-2.3Zm0-1.19L765,430.14V406.71L725.91,404Zm37.79-47.92-9.81-.79,9.71.81Zm-37.79,23.08,3.59.25V388.33l-3.59-.27Zm0-15.12,36.79,2.73v-.68l-36.79-2.59Zm3.88.58v14.81l.41,0V388.38Zm.7,0v14.81l.26,0V388.42Zm.55,0v14.81l6.62.46V388.93ZM738,389v14.78l.32,0V389Zm.62.05v14.77l.26,0V389Zm.56,0v14.77l6.58.45V389.53Zm6.88.51v14.73l.36,0V389.58Zm.65.05v14.73l.27,0V389.62Zm.56,0v14.73l6.55.45V390.13Zm6.84.51v14.69l.36,0V390.18Zm.65.05v14.69H755V390.22Zm.56,0v14.69l6.79.46V390.75Zm7.08.53v14.64l.35,0V390.79Zm.35-1.23v-8.86l-.35,0v8.86Zm-.64-.05v-8.86l-6.84-.52V389Zm-7.13-.5v-8.91h-.26V389Zm-.55,0V380l-.3,0v8.91Zm-.59,0V380l-6.56-.5v8.94Zm-6.85-.49v-8.95l-.28,0v8.95Zm-.57,0v-8.95l-.35,0v9Zm-.64,0v-9l-6.6-.5v9Zm-6.89-.49v-9l-.28,0v9Zm-.57,0v-9l-.32,0v9Zm-.61,0v-9l-6.63-.51v9Zm-6.92-.49v-9l-.25,0v9Zm-.54,0v-9l-.37,0v9Zm-4.29-.3,3.62.25v-9l-3.62-.28Zm0-9.36,36.94,2.82a.15.15,0,0,1,.14.14v25a.16.16,0,0,1,0,.11.15.15,0,0,1-.1,0h0l-36.92-2.56v.48l37.54,2.66V380.1L725.91,377Zm0-1.11L765,379.63v-24l-39.13-3.46Zm0-25.06,3.62.32V337l-3.62-.34Zm0-15,36.8,3.39v-.7l-36.8-3.33Zm3.91.65v14.73l.34,0V337.05Zm.63.06v14.73l.32,0V337.11Zm.62.06v14.72l6.59.58V337.75Zm6.88.63v14.7l.35,0V337.8Zm.64.06v14.7l.27,0V337.86Zm.57.05v14.7l6.56.58V338.49Zm6.85.64v14.66l.36,0V338.55Zm.65.05v14.67l.24,0V338.6Zm.53.05v14.66l6.58.58V339.23Zm6.87.64v14.63l.38,0V339.29Zm.67.06V354l.21,0V339.34Zm.5,0V354l6.81.6V340Zm7.1.66v14.6l.38,0v-14.6Zm.38-1.25V330l-.38,0v8.78Zm-.67-.06v-8.79l-6.81-.67v8.84Zm-7.1-.64v-8.85l-.21,0v8.85Zm-.5-.05v-8.85l-.32,0V338Zm-.61,0v-8.86l-6.61-.65v8.91Zm-6.9-.63v-8.91l-.24,0v8.91Zm-.54,0v-8.91l-.38,0v8.92Zm-.67-.06v-8.92l-6.56-.64v9Zm-6.86-.61v-9l-.3,0v9Zm-.59-.06v-9l-.31,0v9Zm-.61-.05v-9l-6.66-.66v9Zm-7-.63v-9.05l-.22,0v9.05Zm-.51-.05v-9.05l-.37,0v9.05Zm-4.28-.39,3.62.33v-9l-3.62-.36Zm0-9.37,37,3.64a.15.15,0,0,1,.13.15v24.95a.16.16,0,0,1,0,.11.15.15,0,0,1-.1,0h0l-36.93-3.26v.19l37.57,3.33V329.14l-37.57-3.7Zm0-.92,37.7,3.71.64-.13L725.91,325Zm0-.46,39.16,3.83V304.93l-39.16-4.19Zm0-24.77,3.59.39V285.56l-3.59-.4Zm0-15,36.75,4.06v-.73l-36.75-3.91Zm3.89.71v14.75l.37,0V285.64Zm.66.08v14.75l.22,0V285.69Zm.51.05v14.75l6.64.72V286.46Zm6.94.77v14.73l.43,0V286.54Zm.72.08V301.3l.24,0V286.6Zm.54.06v14.72l6.59.72V287.36Zm6.89.76V302.1l.3,0v-14.7Zm.59.07v14.7l.27,0v-14.7Zm.56.06v14.7l6.59.71V288.25Zm6.88.76V303l.31,0V288.32Zm.6.07V303l.24,0V288.38Zm.53.06v14.67l6.83.74V289.16Zm7.12.79v14.65l.32,0V289.23Zm.32-1.28v-8.74l-.32,0v8.74Zm-.61-.07v-8.74l-6.83-.81v8.83Zm-7.12-.75v-8.83l-.25,0v8.83Zm-.55-.06V278.2l-.31,0V287Zm-.6-.07v-8.84l-6.57-.77v8.92Zm-6.86-.73v-8.92l-.23,0v8.92Zm-.52-.05v-8.93l-.34,0v8.93Zm-.64-.07v-8.93l-6.65-.79v9Zm-6.94-.74v-9l-.25,0v9Zm-.54-.05v-9l-.3,0v9Zm-.59-.07v-9l-6.72-.79v9.1Zm-7-.74v-9.11l-.21,0v9.1Zm-.51-.06v-9.11l-.37,0v9.11Zm-4.26-.45,3.59.38v-9.12l-3.59-.42Zm0-9.45,36.91,4.35a.14.14,0,0,1,.13.14v25a.12.12,0,0,1-.05.1.11.11,0,0,1-.09,0h0l-36.88-4v.25l37.54,4V278.42l-37.54-4.36Zm0-.79,37.68,4.38.68-.13-38.36-4.53Zm0-.56,39.14,4.61V260.05l-39.14-4.78Zm-7.19,326.5h6.9V254.51l-6.9-.86Zm-49.4-396.55a2.48,2.48,0,0,0,.54.06h.21l.28-.05h0c1.56-.36,2.75-2.45,2.75-5,0-3-1.72-5.67-3.84-6a2.69,2.69,0,0,0-.4,0h-.24l-.29.05c-1.62.37-2.87,2.41-2.87,4.88C665.46,200.08,667.05,202.58,669.32,203.16Zm-.33.2c-2.26-.73-3.82-3.27-3.82-6.29a5.78,5.78,0,0,1,2-4.64c-1.47.56-2.54,2.51-2.54,4.78,0,3,1.59,5.51,3.86,6.08A1.7,1.7,0,0,0,669,203.36Zm-1.14,0v10.55l.58.08V203.58h0A5.05,5.05,0,0,1,667.85,203.39Zm12.68,1.07c0,2,1.08,3.77,2.62,4.17a4.58,4.58,0,0,1-2.33-4.27,4.25,4.25,0,0,1,1.13-3A3.66,3.66,0,0,0,680.53,204.46Zm1.94,4.22v7.24l.57.08v-7.11A2.78,2.78,0,0,1,682.47,208.68Zm1.6-10.8a2.88,2.88,0,0,0,.71.09,1.32,1.32,0,0,0,.28,0l.36,0h0c2-.48,3.59-3.2,3.59-6.46,0-3.84-2.24-7.35-5-7.83a3.07,3.07,0,0,0-.53-.05l-.31,0-.37.06c-2.11.48-3.74,3.14-3.74,6.34C679.06,193.89,681.12,197.14,684.07,197.88Zm-.16.26c-3-.82-5.14-4.16-5.14-8.16,0-2.72,1.15-5.07,2.79-6.12-2.06.58-3.59,3.22-3.59,6.3,0,3.91,2.06,7.16,5,7.9A2.93,2.93,0,0,0,683.91,198.14Zm-1.45.06v2.63h0l.52-.08h0v-2.36l-.14,0A3.88,3.88,0,0,1,682.46,198.2Zm1.29,10.34a1.47,1.47,0,0,0,.36,0h.15l.15,0c1.06-.24,1.91-1.7,1.91-3.41,0-2-1.18-3.88-2.63-4.14l-.27,0h-.16l-.2,0c-1.1.25-1.95,1.65-1.95,3.34C681.11,206.43,682.2,208.14,683.75,208.54ZM703,599.71h15.41V253.66l-15.41,2Zm-41.42,0h41.12V489.22L661.6,487.6Zm0-112.4,41.12,1.62V399.16l-41.12-3Zm0-91.44,41.12,3V309.06l-41.12-4.24Zm0-91.34,41.12,4.24v-53.2a.15.15,0,0,1,.13-.15l7-.93V219.94l-48.29-6.56ZM614.53,599.71h46.78V549.89l-46.78,1Zm0-49.14,46.78-1V499.17l-46.78,1.88Zm0-49.81,46.78-1.87v-50.4l-46.78,2.75Zm0-49.81,46.78-2.75V397.75l-46.78,3.65Zm0-49.84,46.78-3.65v-50.4l-46.78,4.55Zm0-49.79,46.78-4.55V296.28l-46.78,5.5Zm0-49.83,46.78-5.5v-50.4L614.53,252Zm-9.85,298.22h9.56V550.87l-9.56.2Zm0-48.93,9.56-.2V501.06l-9.56.38Zm0-49.63,9.56-.38V451.26l-9.56.56Zm0-49.62,9.56-.56V401.42l-9.56.74Zm0-49.65,9.56-.75V351.64l-9.56.92Zm0-49.61,9.56-.92V301.82l-9.56,1.12Zm0-49.62,9.56-1.12V252l-9.56,1.3Zm-3.31,297.06h3V551.07l-3,.07Zm0-48.86,3-.07V501.45l-3,.12Zm0-49.57,3-.12V451.84l-3,.18Zm0-49.55,3-.18V402.19l-3,.23Zm0-49.6,3-.23V352.59l-3,.3Zm0-49.53,3-.3V303l-3,.36Zm0-49.56,3-.36V253.33l-3,.41Zm0-49.59,59.94-8.15v-32l-59.94,8.93ZM293,130.74v18.42l44.33-8.91V121.47Zm45.39,412.7V530.75l-39.82,1.19v12.54l38.93-1.06Zm-.75.27V562.5l46.83.69V544.65Zm-.29,0L293,544.92l.09,18.41,44.26-.83Zm1.18-13.26L365,531l-27.42-.65-40.18,1.26,1,0Zm-.89-19.16v18.78L384,531.17l.46,0V512.64Zm.75-.27V498.36l-39.82,1.76v12.43L337.52,511Zm-1,19.05V511.3L293,513.06l.09,18.4Zm1.19-32,41.27,1.3.71,0-43-1.46-41.47,1.85,2.33.11Zm-.9-19.27v18.79l46.52,1.58.31,0V480.64Zm.75-.25V466.09l-39.82,2.24v12.25l38.93-2.07Zm-1,19V478.81L293,481.16l.09,18.41Zm1.19-31.8,41.28,1.68,2.06-.15-44.37-1.92-41.9,2.52,2.78.13Zm-.9-19.46v18.78l46.67,2,.16,0V448.6Zm.75-.25V433.61l-39.81,2.93V448.7L337.51,446h0Zm-1,19V446.33l-44.35,3,.09,18.41Zm1.17-31.8h0l41.28,2.23,2.55-.23-44.86-2.4L295,436l3.38.23Zm-37.68-28,34.53-3.18a.16.16,0,0,1,.12,0,.15.15,0,0,1,0,.11v11.22a.14.14,0,0,1-.13.14l-28.66,2.45,30.74-2.53h0l.89.05V401.33l-39.8,3.33v12.08l2.21-.18-.05,0a.14.14,0,0,1,0-.11v-11A.15.15,0,0,1,300.86,405.3Zm.16.28v10.7l.45,0v-10.7Zm.74-.07v10.7l5.3-.45V405Zm5.59-.51v10.74l.4,0V405Zm.69-.07v10.75l.5-.05V404.88Zm.8-.07v10.75l7.51-.64v-10.8Zm7.8-.72v10.8l.4,0V404.1Zm.69-.06v10.81l.5-.05V404Zm.79-.08v10.81l7.74-.65V403.29Zm8-.74v10.87l.42,0V403.22Zm.72-.06v10.87l.52-.05V403.15Zm.81-.08V414l7.58-.65V402.42Zm10,10.73v18.78l46.72,2.5h.11V416.59Zm-.29,18.78V413.85L293,417.49l.09,18.41Zm1.17-31.6h0l41.28,2.52,2.81-.28-45.12-2.88-42.69,3.76,3.57.24Zm-.88-19.7v18.78l46.75,3h.08V384.55Zm.75-.24V368.87l-39.82,3.95v12L337.5,381h0Zm-1,19V381.34L293,385.61l.09,18.41Zm1.17-31.56h0l41.28,3.06,2.94-.29-45.25-3.41-42.9,4.35,3.78.28Zm-.88-19.69v18.78l46.77,3.51h.06V352.63Zm16.19.73,10,.78V339.71l-10-.81Zm-.3,0v-10.9l-.61-.05v10.9Zm-.9-.07V338.69l-.32.08v10.72Zm-.62-.05V338.8l-10.79-.89v10.72Zm-51.17-8.13,34.53-3.72a.13.13,0,0,1,.12,0,.15.15,0,0,1,0,.11v11l1.95-.21h0l.91.07V336.56l-39.85,4.49v11.78l2.14-.23V341.48A.14.14,0,0,1,300.86,341.33Zm.16.35v10.88l.47-.05V341.85Zm5.15-.63-4.66.5.12.05Zm-4.38.82v10.61l5.26-.58V341.23Zm5.55-.95v10.95l.4,0V340.88Zm.69,0v10.88l.52-.05V341.07Zm6.35-.75-5.77.63.12,0Zm-5.54.94v10.61l7.48-.82V340.23Zm7.78-1.18v10.93l.4,0V339.88Zm.69,0v10.88l.55-.06V340Zm.84.13v10.66l7.73-.85v-10.7Zm8-1.14v10.92l.41-.05V338.85Zm.7,0v10.87l.5-.05V339Zm.79.12v10.66l7.6-.83V338.1Zm9.71,28.67V348.87L293,353.73l.09,18.4Zm1.17-31.39h0l41.27,3.41,3.24-.41-45.54-3.81-43,5,3.92.29Zm-.88-19.87v18.78l46.8,3.92h0V320.55Zm39,3.18V308.66l-.34.12v10.76Zm-.55-11-10.45-1v.05Zm-10.45-.63v10.68l10.37.92V308.82Zm-.29,10.65v-11l-.54-.05v11Zm-.83-.07v-11l-.35.11v10.83Zm-.65-.06V307.67l-10-1v10.84Zm-10.32-.91V306.45l-.59-.06v11.07Zm-.89-.08v-11l-.34.09v10.9Zm-.63-.06V306.55l-10.8-1v10.9Zm-51.19-7.78,34.54-4.38a.15.15,0,0,1,.11,0,.1.1,0,0,1,.05.1v11l1.95-.25h0l.91.08V304.12l-39.85,5.13V321l2.14-.27V309.75A.14.14,0,0,1,300.85,309.6Zm.17.33v10.74l.47-.06V310Zm.76.1v10.54l5.31-.66V309.34Zm5.6-1v10.8l.34,0V309Zm.63,0v10.75l.54-.07V309.15Zm.83.13v10.52l7.49-.94V308.19Zm7.78-1.28v10.82l.41,0V307.84Zm.7,0v10.77l.53-.06V307.93Zm.82.08v10.59l7.74-1V306.93Zm8-1.25v10.83l.41-.05V306.63Zm.7-.05v10.8l.52-.07V306.7Zm.82.08v10.61l7.57-.95V305.73Zm9.68,28.47V316.4L293,322l.09,18.4Zm1.16-31.36h0l41.27,3.88,3.31-.42-45.62-4.34-43.33,5.67,4.21.38Zm-.87-19.93v18.78l46.81,4.45h0V288.58Zm39,3.61V276.66l-.34.08v10.73Zm-.63-.06V276.76l-10.31-1v10.69Zm-10.6-1.06V275.46l-.6-.06v10.92Zm-.89-.09V275.41l-.41.08v10.76Zm-.71-.07V275.5l-10-1v10.71Zm-10.29-1V274.24l-.58-.06v10.95Zm-.87-.09V274.2l-.32.08v10.79Zm-.61-.06V274.32l-10.81-1.13V284Zm-51.2-7.28,34.54-4.87a.15.15,0,0,1,.11,0,.13.13,0,0,1,.05.11v10.81l1.94-.27h0l.91.09V271.78l-39.84,5.66V289l2.13-.29V277.9A.14.14,0,0,1,300.85,277.76Zm.17.34v10.53l.47-.07V278.24Zm6-.9v0l-5.5.77.08,0Zm-5.26,1v10.28l5.26-.72V277.49Zm5.56-1.1v10.62l.39-.06V277.08Zm.68,0v10.56l.52-.07V277.22Zm3.92-.61-3.28.46h.06Zm-3.11.75v10.31l7.5-1V276.13Zm7.79-1.41v10.64l.34-.05V275.78Zm.64-.05v10.6l.54-.07V275.85Zm.83.08v10.41l7.78-1.08V274.73Zm8.07-1.38v10.67l.4,0V274.43Zm.69-.06v10.64l.53-.08v-10.5Zm.82.07v10.45l7.59-1.05V273.43Zm9.7,28.18V283.89L293,290v18.46Zm1.16-31.2h0l41.26,4.27,3.5-.51-45.8-4.77-43.45,6.3,4.32.42Zm-.87-20.06v18.77l46.83,4.88h0V256.52Zm39,4V244.61l-.33.12v10.61Zm-.53-10.89h0l-10.49-1.17v0Zm-10.45-.87v10.56L376,255.31V244.77Zm-.29,10.52V243.28l-.57-.06v10.86Zm-.86-.09V243.26l-.33.12V254ZM364,243.14h0l-7.12-.79Zm-10.2-.86v10.6L363.9,254V243.41Zm-.29,10.57V242l-.57-.06v10.89Zm-.86-.1V241.93l-.31.08v10.71Zm-.6-.06V242.07l-10.82-1.21v10.65Zm-51.21-6.75,34.54-5.43a.11.11,0,0,1,.11,0,.13.13,0,0,1,.05.11V251.4l1.94-.3h0l.88.1V239.42l-39.79,6.25V257l2.11-.32V246.09A.16.16,0,0,1,300.85,245.94Zm.17.33v10.39l.47-.07V246.4Zm4.14-.71-3.6.56h0Zm-3.38.83v10.15l5.28-.8v-10.2Zm5.58-1.18v10.48l.39-.06V245.15Zm.68-.05v10.43l.52-.08V245.29Zm8.29-1.35h0L308.64,245l.07,0Zm-7.48,1.48v10.17l7.48-1.13V244.1Zm7.77-1.54v10.53l.38-.06V243.69Zm.67-.05v10.48l.55-.09V243.82Zm8.61-1.38v0l-8,1.26h0Zm-7.76,1.5v10.23l7.76-1.18V242.61Zm8.05-1.57v10.57l.37,0V242.19Zm.66-.05v10.52l.56-.08V242.33Zm8.19-1.35-7.59,1.2.12,0Zm-7.34,1.5v10.24l7.56-1.15V241.11Zm9.67,27.84V251.41L293,258.17v18.45Zm1.16-31.08h0l41.26,4.71,3.65-.62-46-5.26-43.6,6.95,4.48.52Zm-.87-20.22v18.78L384.49,243V224.49Zm39,4.37V212.64l-.38.13,0,10.45Zm-.54-10.74h.05l-10.47-1.28v0Zm-10.42-1V222L376,223.19l0-10.39Zm-.29,10.38V211.19l-.6-.07v10.73Zm-.89-.11V211.16l-.33.11v10.5ZM364,211h0l-10.16-1.24h0Zm-10.14-.95v10.46l10,1.2V211.31Zm-.3,10.42V209.74l-.61-.07v10.76Zm-.9-.1V209.72l-.32.13v10.51Zm-.56-10.76.14-.06-11-1.34v.07Zm-10.85-1V219l10.8,1.29v-10.4ZM300.85,214l25.86-4.39h0l8.67-1.47a.16.16,0,0,1,.12,0,.13.13,0,0,1,.05.11v10.65l1.94-.32h0l.88.1V207.05l-39.81,6.84v11.18l2.13-.36V214.12A.14.14,0,0,1,300.85,214Zm6.21-.66v-.1l-5.66,1,.22.08Zm-5.31,1.21v10l5.31-.88v-10Zm-.29,0-.44-.18v10.34l.44-.08Zm5.89-1.34v10.44l.4-.07V213.1Zm9-1.44v-.09l-7.9,1.34.28.11Zm-7.51,1.63v10l7.51-1.26V212Zm-.3,0-.48-.19V223.5l.48-.09Zm8.1-1.74v10.47L317,222V211.53Zm9.24-1.46V210l-8.12,1.37.25.09Zm-7.75,1.63v10.06l7.75-1.29V210.42Zm-.3,0-.5-.17V222l.5-.08Zm8.35-1.75v10.5l.42-.07v-10.5Zm9.09-1.49v-.06l-7.94,1.35.28.09Zm-7.59,1.67v10.07l7.59-1.27V208.79Zm-.3-.06-.49-.16v10.42l.49-.08Zm10,27.58V218.9L293,226.29v18.45Zm1.16-31h0l41.26,5.1,3.74-.68-46-5.68-43.65,7.63,4.52.53Zm-.87-20.31v18.77L384.49,211V192.43Zm39,4.71V180.65l-.33.13v10.31Zm-.54-10.58.11-.05-10.52-1.37v.05Zm-10.41-1.07v10.25L376,191.05V180.82Zm-.29,10.21v-10.6l-.58-.08v10.61Zm-.87-.11V179.05l-.35.12v10.36ZM364,178.93l.07,0-10.21-1.33h0Zm-10.14-1.06v10.34l10.06,1.29V179.21Zm-.29,10.3V177.54l-.59-.08v10.63Zm-.88-.11V177.49l-.33.09V188Zm-.62-.08V177.63l-10.81-1.43v10.39Zm-51.2-5.75,7-1.31h0l18.87-3.5h0l8.65-1.61a.13.13,0,0,1,.12,0,.13.13,0,0,1,.05.11v10.52l1.94-.35h.05l.88.12V174.72l-39.82,7.34V193.2l2.13-.39V182.37A.14.14,0,0,1,300.85,182.23Zm6.22-.75v-.12l-5.63,1,.17.06Zm-5.34,1.26v9.89l5.34-1v-9.89Zm-.29,0-.42-.15v10.19l.42-.08Zm5.93-1.41V191.6l.37-.07V181.24Zm8.95-1.6v-.07l-7.8,1.45.2.06Zm-7.47,1.71v9.91l7.47-1.36V180Zm-.3,0-.52-.14v10.22l.52-.09Zm8.06-1.81v10.33l.41-.08V179.51Zm9.27-1.64v-.08l-8.09,1.5.2.06Zm-7.78,1.76v9.94l7.78-1.42v-10Zm-.3,0-.49-.15v10.26l.49-.09Zm8.37-1.86v10.36l.43-.08V177.74Zm9.09-1.63v-.06l-7.93,1.47.24.08ZM327.71,178v10l7.55-1.38v-10Zm-.29,0-.53-.17V188l.53-.09Zm9.95,27.28V186.43L293,194.51V213Zm1.15-30.8h.05l41.26,5.51,3.78-.69L337.53,173l-43.74,8.18,4.61.61ZM337.66,154v18.78l46.83,6.32V160.52Zm39,5.17V148.7l-.35.11v10.27ZM365.7,147.39V157.6L376,159V148.83Zm10,1.1-10-1.42v0Zm-10.27,9.07V147l-.62-.09v10.53Zm-.92-.13V147l-.32.08v10.33Zm-10.68-11.74v10.24l10.07,1.41V147.08Zm4.25.3-4.25-.61v0Zm-4.54,9.9V145.34l-.59-.08v10.55Zm-.88-.12v-10.5l-.3.08v10.38Zm-.59-.08V145.4l-10.81-1.53v10.3Zm-51.2-5.25,7-1.41h0l9.27-1.87h0l18.24-3.68a.13.13,0,0,1,.12,0,.12.12,0,0,1,.05.11V154l1.94-.37h.05l.88.12V142.34l-39.82,7.91v11l2.13-.42V150.58A.16.16,0,0,1,300.85,150.44Zm.17.33v10l.45-.09v-9.77Zm6-1.23v0l-5.55,1.11.1,0Zm-5.3,1.35v9.71l5.3-1v-9.73Zm5.59-1.46v10.09l.4-.08v-10.1Zm.7-.08v10l.49-.1v-9.8Zm8.28-1.67v-.07l-7.78,1.57.12,0Zm-7.5,1.8v9.75l7.5-1.46V148Zm7.79-1.92v10.15l.4-.07V147.47Zm.7-.08v10.1l.5-.1v-9.87Zm8.58-1.68v-.12l-8.07,1.63.17.05Zm-7.79,1.83v9.79l7.79-1.51V146.1Zm8.09-2v10.23l.33-.06V145.56Zm9.06-1.72v-.1l-8,1.6.24.07Zm-7.57,1.84v9.82l7.57-1.47V144.2Zm-.3,0-.57-.16v10.16l.57-.11Zm10,27V154L293,162.6V181ZM338.54,142h0l43.35,6.28,3.2-.73v-.19l-47.64-6.87-43.77,8.79,4.75.67ZM427.66,541v-.66l-29.83.79h0a.12.12,0,0,1-.1,0,.12.12,0,0,1-.05-.1V529.38a.14.14,0,0,1,.14-.14l29.84-1v-.7l-31.76,1v13.1l30.24-.76Zm-1.38.24v19.67h1.38V541.26Zm1.38-1.19V528.56l-7.79.25v11.42Zm-8.09.22V528.82l-.49,0v11.41Zm-.78,0V528.84l-.45,0v11.41Zm-.75,0V528.87l-8.51.28v11.36Zm-8.8.23V529.15l-.46,0v11.35Zm-.75,0V529.18l-.52,0v11.35Zm-.81,0V529.21l-8.9.29v11.29Zm-9.19.25V529.51H398v11.29Zm-.64-33h0a.21.21,0,0,1-.11,0,.18.18,0,0,1,0-.11V496.05a.14.14,0,0,1,.14-.14l29.82-1.32v-.79l-31.73,1.47v13l30.2-1.16h0l1.51.1v-.6Zm29.81-1.49v-11.4l-7.77.35v11.36Zm-8.06.33V495.24l-.5,0v11.36Zm-.8,0V495.27l-.43,0v11.36Zm-.73,0V495.31l-8.52.37V507Zm-8.81.36V495.69l-.48,0V507Zm-.77,0V495.73l-.49,0v11.32Zm-.79,0V495.76l-8.93.4v11.29Zm-9.22.37V496.17l-.49,0v11.28Zm-.61-33h0a.15.15,0,0,1-.1,0,.16.16,0,0,1,0-.11V462.7a.15.15,0,0,1,.14-.15l29.8-1.72V460l-31.81,1.9v12.84l30.28-1.6h0l1.51.1v-.46Zm29.79-1.91V461.11l-7.7.45V473Zm-8,.44v-11.4l-.56,0V473Zm-.85,0V461.63l-.46,0v11.4Zm-.76.05v-11.4l-8.48.49v11.36Zm-8.77.47V462.18l-.53,0v11.36Zm-.82,0V462.23l-.43,0v11.36Zm-.72,0V462.27l-9,.52v11.32Zm-9.27.51V462.81l-.46,0v11.31Zm-.6-33h0a.15.15,0,0,1-.1,0,.16.16,0,0,1,0-.11V429.43a.15.15,0,0,1,.13-.15l29.81-2.16v-.79l-31.78,2.34v12.69l30.25-2h0l1.51.11v-.37Zm29.79-2.29V427.4l-7.8.57v11.36Zm-8.09.55V428l-.45,0v11.35Zm-.75,0V428.05l-.47,0v11.35Zm-.77.05V428.1l-8.49.62V440Zm-8.78.59v-11.3l-.49,0v11.3Zm-.78,0V428.8l-.53,0v11.29Zm-.82.06V428.86l-8.89.65v11.24Zm-9.18.62V429.53l-.48,0V440.8ZM397.85,296,427.66,292v-.69l-31.78,4.12v12.16l1.84-.23V296.1A.14.14,0,0,1,397.85,296Zm.16.3v11.09l.5-.06v-11Zm.79.07v10.92l8.87-1.11v-11Zm9.17-1.42V306.1l.5-.06V294.85Zm.79-.06V306l.52-.06v-11Zm.81.07v11l8.5-1.07v-11Zm8.79-1.37V304.8l.43-.06V293.49Zm.72-.05v11.21l.55-.07v-11Zm.84.13v11l6.2-.78h0l1.5.19V292.57Zm6.36,10.5v19.66l1.38.12V304.3Zm-.13,19.94-39.45,4.61,8.89.77v-.79a.14.14,0,0,1,.13-.15l31.94-3.72v-.59Zm-30.27,4.71V341l1.78-.2V329.4a.15.15,0,0,1,.13-.14l29.87-3.46v-.72Zm2.08.79v11.24l.57-.07V329.67Zm.86.1v11l8.88-1V328.63Zm9.18-1.3v11.32l.48-.06V328.31Zm.77-.06V339.6l.5-.05V328.38Zm.79.06v11.14l8.51-.94V327.42Zm8.8-1.2v11.37l.44-.05V327.12Zm.74,0v11.32l.51-.05V327.23Zm.81.09v11.14l6.21-.69h0l1.5.18V326.3ZM426.28,338v19.67l1.38.12V338.15Zm-.13,19.95-39.27,4,8.71.68V362a.15.15,0,0,1,.13-.14l31.94-3.28v-.48Zm-30.27,4.16v12.38l1.84-.17V362.78a.13.13,0,0,1,.13-.14l29.81-3.12v-.69Zm2.13.82v11.36l.46,0V362.86Zm.75-.08V374.2l9-.86V361.89Zm9.25-1v11.45l.48-.05V361.81Zm.77-.08v11.46l.46-.05V361.73Zm.75-.08v11.46l8.52-.81V360.81Zm8.81-.92v11.54l.47-.05V360.73Zm.76-.08v11.55l.48-.05V360.65Zm.77-.08v11.55l6.25-.6h0l1.5.19V359.81Zm6.41,11.26v19.66l1.38.12V372.05Zm-.13,19.94-39,3.4,8.45.57v-.56a.15.15,0,0,1,.13-.14l31.94-2.81V392Zm-30.27,3.55v12.57l2-.16a.09.09,0,0,1-.08,0,.12.12,0,0,1,0-.1V396.09a.15.15,0,0,1,.13-.14l29.81-2.61v-.77Zm2.13.85v11.26l.49,0V396.18Zm.78-.07v11.27l8.91-.74v-11.3Zm9.2-.8v11.3l.49,0v-11.3Zm.78-.07v11.31l.5,0V395.24Zm.79-.07v11.31l8.49-.7V394.47Zm8.79-.77v11.35l.46,0V394.4Zm.75-.06v11.35l.49,0V394.34Zm.78-.07v11.36l7.78-.65V393.63ZM401.31,407.5l24.82-2h0l1.51.11v-.26Zm25-1.74v19.66l1.38.05V405.86Zm-.13,19.95-38.6,2.82,8,.44v-.44a.14.14,0,0,1,.14-.14L427.66,426v-.28Zm.13,13.94v19.67l1.38,0V439.75Zm-.12,20-38.29,2.2,7.69.41v-.4a.15.15,0,0,1,.14-.15l32-1.91v-.1Zm.12,13.88v19.67l1.38,0V473.58Zm-.12,19.95-37.4,1.64,6.87.27v-.21a.16.16,0,0,1,.14-.15l31.89-1.47v0ZM395.75,528.3l30.81-1h-.41l-35.54,1.05,5,.12v0A.14.14,0,0,1,395.75,528.3Zm30.53-20.95V527l1.38.05V507.45ZM426,541.21l-40.57,1v19.31l40.57-.65Zm-39.36.7,9-.23V528.77l-9-.22ZM426,527V507.35l-40.57,1.56v19.32Zm-39.36-18.44,9-.35V495.62l-9-.35ZM426,493.15V473.48l-40.57,2.13v19.32Zm-39.34-17.89,8.91-.47V462.5l-8.91-.48ZM426,459.32V439.65l-40.57,2.69v19.31ZM386.67,442l8.92-.59V429.25l-8.92-.48ZM426,425.43V405.76l-40.57,3.33V428.4ZM386.68,408.7l8.91-.74V396.08l-8.91-.6ZM426,391.55V371.87l-40.57,3.9v19.31Zm-39.34-16.19,8.94-.86V362.91l-8.94-.7ZM426,357.65V338l-40.57,4.51V361.8Zm-39.34-15.59,8.94-1V329.74l-8.94-.78ZM426,323.8V304.13l-40.57,5.1v19.31Zm-30.4-16.14v-11.1l-8.94-.86v13.08Zm0-11.39v-.94a.15.15,0,0,1,.13-.14l31.94-4.14v-.73l-1.51-.12-39.6,5.21Zm2.26-33.59,29.81-4.39v-.72l-31.77,4.59v12l1.84-.26V262.82A.14.14,0,0,1,397.85,262.68Zm.17.3v10.91l.51-.07V263.05Zm.8.06v10.74l8.88-1.25V261.72Zm9.17-1.56v11l.49-.07v-11Zm.78-.08v11l.49-.07V261.44Zm.78,0v10.84l8.49-1.19V260.24Zm8.78-1.47V271l.47-.07V259.89Zm.77-.07v11l.49-.07V260Zm.78.08v10.85l6.24-.87h0l1.5.19V258.83Zm6.4,10.28v19.67l1.38.12V270.43ZM426,289.93V270.26L385.42,276v19.31Zm-30.39-15.7V263.41l-9-1v13.08Zm0-11.11V262a.14.14,0,0,1,.12-.14l31.94-4.63v-.84l-1.5-.09-39.75,5.75Zm2.23-33.82,29.83-4.79v-.69l-31.77,5.09v11.82l1.82-.28v-11A.14.14,0,0,1,397.83,229.3Zm.17.3v10.81l.53-.08V229.68Zm.82.07v10.61l8.88-1.36V228.26ZM408,228v10.91l.48-.07V227.88Zm.77-.08v10.87l.51-.08V228Zm.8.08v10.67l8.5-1.31V226.6Zm8.79-1.66v11l.44-.07v-11Zm.74-.07v10.94l.49-.08V226.33Zm.66-.16h0l7.86-1.27h0Zm.12.29V237l6.24-.95h0l1.51.15V225.1Zm6.4,10v19.67l1.38.08V236.53ZM426,256.07V236.4l-40.57,6.23v19.31Zm-39.34-13.92,9-1.37V230.15l-9-1Zm9-12.29v-1.07a.14.14,0,0,1,.12-.14l31.94-5.12v-.8l-1.51-.23-39.8,6.33Zm2.24-33.93,29.82-5.17v-.67l-31.77,5.58v11.66l1.83-.31v-11A.14.14,0,0,1,397.84,195.93Zm.17.32V207l.51-.09V196.36Zm9.59-1.72-9,1.56h.05Zm-8.78,1.83v10.47l8.88-1.49V194.8Zm9.17-1.9V205.3l.44-.08V194.38Zm.74-.08v10.79l.55-.09v-10.6Zm9.31-1.66h0l-8.63,1.49h0Zm-8.47,1.77V205l8.47-1.42V193Zm8.77-1.83v10.9l.46-.08v-10.9Zm.76-.07v10.84l.5-.09V192.7Zm.61-.16h.07l7.88-1.37v0Zm.18.28V203.3l6.23-1.05h.05l1.49.29V191.37Zm6.39,9.86v19.66l1.38.2v-19.6ZM426,222.24V202.56l-40.57,6.82v19.31Zm-39.34-13.36,8.94-1.5V197l-8.94-1.12Zm8.94-12.19v-1.14a.17.17,0,0,1,.13-.15l31.94-5.6v-1l-1.51-.23-39.9,6.9Zm2.26-34.07L427.66,157v-.67l-31.75,6v11.57l1.82-.34V162.76A.14.14,0,0,1,397.85,162.62Zm.17.31v10.55l.48-.09V163Zm.78.08v10.33l8.88-1.62V161.35Zm8.88-1.95h0l-2.3.44Zm.3-.06v10.67l.5-.09V160.9Zm.79-.09v10.62l.5-.1V161Zm9.3-1.78v0l-8.73,1.65.09,0Zm-8.51,1.9v10.35l8.51-1.54V159.42Zm8.8-2v10.74l.45-.08V159Zm.74-.08v10.69l.51-.1V159.09Zm.52-.16.12,0,7.92-1.52v0Zm.28.29V169.5l6.21-1.13h.06l1.49.29V157.6Zm6.38,9.6v19.66l1.38.2V169ZM426,188.36V168.69l-40.57,7.37v19.32Zm-39.33-12.81,9-1.63V163.8l-9-1.2Zm9-12.05v-1.32a.14.14,0,0,1,.12-.14l31.92-6V155l-1.51-.22-40,7.5Zm.11-34.73,31.93-6.45v-1.71L386.28,129l9.34,1.31v-1.4A.13.13,0,0,1,395.73,128.77Zm.18.26v11.41l1.82-.36V129.46a.16.16,0,0,1,.11-.14l29.82-6.07v-.64Zm2.11.61V140l.47-.09V129.71Zm2.6-.59-2,.4h0Zm-1.84.67v10.15l8.92-1.75V127.89Zm9.22-2.17v10.51l.46-.09V127.45Zm.75-.1v10.46l.54-.1V127.54Zm9.29-1.92v0l-8.65,1.76h0Zm-8.46,2v10.22l8.46-1.66V125.83Zm8.75-2.09V136l.49-.1V125.34Zm.78-.1v10.54l.49-.1V125.44Zm.6-.18.06,0,7.89-1.57v-.07Zm.18.29v10.27l6.22-1.22h.06l1.49.28V123.91Zm6.39,9.36v19.67l1.38.2v-19.6ZM426,154.49V134.82l-40.57,8V162.1Zm-30.37-14V130.6l-10.18-1.43-.12,0h0a.16.16,0,0,1-.09,0,.17.17,0,0,1-.05-.12v-.48l-47.51-7.1v18.78l47.49,6.85v-4.43a.15.15,0,0,1,.12-.14ZM341.85,100l-18.34,4v7.68l18.34-3.94Zm18.72,2.86L342.14,100v7.73l.85-.19v-2.16a.14.14,0,0,1,.12-.14l11-2.35a0,0,0,0,1,.05,0l6.16.93.21-.05Zm-17.28,2.61v2l10.74-2.3v-2Zm11-2.29v1.91l5.24-1.12Zm10.61-61.62-2.11.1v61.61l2.11-.46Zm22.13,56.8-89.16,19.14v11.93l39.54-8.26h.05l47.65,7.12V109.39a.14.14,0,0,1,.11-.14l1.81-.38Zm.29,0V108.8l28.24-5.93Zm-1.92,11.14v19.38L486.89,108.3V88.2Zm62.92,430.88,38.69-1h.54V525.75l-37.17,1-2.06,0Zm-4,.39v19.78l42.56-.76V539.67ZM544,117.92l-.39-.09-.19,0,.44.1Zm0,.32V551.07h.46v-433Zm1.25-27.84-9.72-1.72V96l8.24,1.38a.14.14,0,0,1,.12.14v2.72l1.36.25Zm.14-.26.1,0-10-1.74v0ZM491.61,111.9a.15.15,0,0,1,.11,0l11,1.79h0l32.9,5.32a.15.15,0,0,1,.13.14v11.16l2.78.44v-12l-50.67-8.08v12.11l3.67.58V112C491.56,112,491.57,111.92,491.61,111.9Zm10.38,2,.1,0-10.24-1.65v0Zm-10.14-1.36v10.85l10,1.57V114.13Zm10.31,1.61V125l.42.07V114Zm.71-.15v11.12l.62.1V114.06ZM514,115.82l.14,0-10.39-1.67v0Zm-10.25-1.37v10.78l10.18,1.6V116.1Zm10.47,1.61v10.82l.43.06v-11Zm.72-.15V127l.6.09V116Zm10.85,1.84.17-.06-10.13-1.63h0Zm-10-1.4v10.78l9.86,1.55V118ZM526,118v10.74l.45.07v-11Zm.75-.17v11l.64.1v-11Zm8.09,1.36.12,0L527.69,118h0Zm-7.16-.91V129l7.06,1.11V119.45Zm7.35,1.15v10.73l.45.07V119.3Zm-47.85,3.48V143l56.4,8.5V131.79Zm-34.41-4.7,32.55-6.53a.17.17,0,0,1,.12,0,.17.17,0,0,1,.06.11v11.08l1.51-.3h.05l.52.09V110.59l-39.21,7.87v11.72l4.28-.84v-11A.15.15,0,0,1,452.78,118.2Zm10.16-1.66v-.08l-9.57,1.92.23.07Zm-9.19,2.17v10.41l9.19-1.8V116.83Zm-.3,0-.5-.17v10.74l.5-.1Zm9.78-2.31v10.86l.48-.09V116.3Zm10.47-2v-.07l-9.25,1.86.2.06Zm-8.92,2.11V127l8.92-1.75V114.67Zm-.29,0-.49-.15v10.79l.49-.09Zm9.51-2.23v10.91l.54-.11V114.13Zm11.21-2.16V112l-9.94,2,.21.07Zm-9.6,2.23v10.52l9.6-1.88V112.37Zm-.3,0-.48-.15V125l.48-.1Zm16.33,32.11a.11.11,0,0,1,.11,0L535.61,153a.14.14,0,0,1,.12.14v11.32l2.83.42V152.77l-50.67-7.56v12.28l3.69.54V146.52A.14.14,0,0,1,491.64,146.41ZM502,148.26l.09,0-10.19-1.55v.06ZM491.88,147v11l10,1.47v-11Zm10.29,1.46v11.08l.4.06V148.38Zm.7-.14v11.32l.61.09V148.45Zm11.19,1.74.1,0-10.38-1.58v0Zm-10.28-1.3v11L514,161.31V150.38Zm10.47,1.54v11l.43.06V150.22Zm.72-.15v11.27l.61.08V150.28Zm10.85,1.66h0l-10-1.51v0Zm-10-1.21v11l9.86,1.44v-10.9ZM526,152.1v11l.44.07V152Zm.74,11.08.61.09v-11.2l-.61-.09Zm.9-10.78v10.91l7.08,1V153.48Zm7.37,1.07v10.92l.41.06V153.36Zm-47.84,4.21v20.11l56.4,7.88V165.94ZM491.65,181a.18.18,0,0,1,.12,0l43.86,6.14a.14.14,0,0,1,.13.14v11.45l2.8.38V186.78l-50.67-7v12.43l3.71.5V181.08A.16.16,0,0,1,491.65,181ZM502,182.69l.07,0-10.14-1.42v0Zm-10.07-1.13v11.19l9.94,1.34V183Zm10.23,1.38v11.19l.44.06V182.81Zm.73-.16v11.45l.61.08V182.87Zm.9.38v11.19L514,195.73V184.6Zm10.5,1.44v11.17l.41,0V184.5Zm.71-.12v11.38l.57.08V184.56Zm10.36,1.45-9.49-1.33v0Zm-9.49-1V196l9.88,1.33v-11ZM526,186.26v11.09l.44.06V186.18Zm.73-.13v11.32l.6.08V186.21Zm.89.38v11.06l7.07,1v-11Zm7.36,1v11.06l.48.06V187.4Zm-47.8,4.9v20.11l56.4,7.23V200Zm4.46,23.13a.17.17,0,0,1,.12,0l43.89,5.64a.15.15,0,0,1,.13.14v11.51l2.77.34V220.79l-50.67-6.41v12.51l3.71.45v-11.7A.12.12,0,0,1,491.65,215.54Zm.25.55v11.29l9.92,1.22V217.37Zm10.22,1.25v11.3l.44.05V217.24Zm.73-.12v11.51l.62.08V217.29ZM514,218.93l-10.21-1.34v11.25L514,230.1Zm.09-.28Zm.2.25v11.24l.4.05V218.8Zm.7-.13v11.45l.59.07V218.85Zm.88.38v11.18l9.86,1.22V220.44ZM526,220.43v11.15l.47.06V220.31Zm.76-.15v11.39l.63.08V220.36Zm.92.37v11.14l7,.87V221.54Zm7.33.89v11.15l.49.06v-11.3Zm-47.81,5.55V247.2l56.4,6.57V234Zm4.5,23a.15.15,0,0,1,.11,0l43.8,5.14a.14.14,0,0,1,.13.14v11.72l2.83.32V254.83L487.89,249v12.65l3.75.43V250.21A.16.16,0,0,1,491.69,250.1Zm1.8.45-1.56-.18h0Zm-1.56.12v11.42l9.89,1.12V251.77Zm10.19,1.09v11.49l.45.05V251.68Zm.74-.11v11.68l.63.07V251.72Zm.92.34v11.44L514,264.59v-11.4Zm10.46,1.18v11.45l.42.05V253.08Zm.72-.1V264.7l.62.07V253.14Zm.92.34v11.4l9.81,1.11V254.58Zm10.1,1.16V266l.5.06V254.47Zm.79-.12V266l.61.07V254.52Zm.9.31v11.38l7,.8V255.6Zm7.3.83V267l.47,0V255.51Zm-47.78,6.25V282l56.4,6V268.24Zm4.46,22.8a.16.16,0,0,1,.12,0l11,1.15h0l32.86,3.45a.14.14,0,0,1,.13.14v11.8l2.79.28V288.86h0l-50.67-5.29v12.78l3.71.37v-12A.16.16,0,0,1,491.65,284.64Zm.25.51v11.6l10,1v-11.6Zm10.24,1v11.64l.45,0V286.07Zm.74-.08v11.79l.63.07V286.13Zm.92.32V298l10.14,1V287.43Zm10.43,1V299l.43.05v-11.7Zm.73-.08v11.74l.64.06V287.4Zm.93.32v11.51l9.81,1V288.69Zm10.11,1v11.51l.43.05V288.58Zm.72-.1v11.69l.66.06V288.63Zm.95.37v11.41l7,.7V289.63Zm7.3.69v11.45l.5.06V289.52Zm-47.78,6.95v20.11l56.4,5.28V302.23Zm4.47,22.69a.25.25,0,0,1,.12,0l43.86,4.14a.14.14,0,0,1,.13.14v11.78s0,0,0,0l2.8.24V322.87l-50.67-4.72v13l3.73.33h0V319.37A.16.16,0,0,1,491.66,319.26Zm.25.26v11.77l9.93.88V320.46Zm10.22,1v11.7l.45,0v-11.7Zm.74.07v11.7l.61.05V320.62Zm.9.08v11.7l10.21.9V321.61Zm10.5,1v11.63l.41,0V321.67Zm.7.07v11.62l.57.05V321.75Zm.86.08V333.4l9.91.87V322.71Zm10.2,1v11.55l.46,0V322.78Zm.75.07v11.55l.59.05V322.87Zm.88.09v11.54l7.07.62v-11.5Zm7.36.69v11.49l.46,0V323.63Zm-47.83,7.74v20.12l56.4,4.56V336.27Zm0,34.74v20.11l56.4,3.95V370.39Zm51.37,3.65V356.88l-50.67-4.14v13.09Zm-51.37,31v20.12l56.4,3.37V404.5Zm51.37,3.13v-13l-50.67-3.53v13.19Zm-51.37,31.61v20.12l56.4,2.65V438.52ZM538.56,438V425l-50.67-3.05v13.34Zm-51.37,32.26v20.11l56.4,2V472.63Zm51.37,1.91v-13.2l-50.67-2.44V470Zm-51.37,32.81v20.11l56.4,1.43V506.75Zm51.37,1.35V492.93l-50.67-1.8v13.54Zm0,20.37h.28l-51.83-1.31-33,1,33.66-.92Zm-50.71-.9V539.4l50.67,1.06V526.94Zm51-19.45,4.85.15v-13.8l-4.85.26Zm0-34.17,4.85.21v-13.8l-4.85.37Zm0-34.16,4.85.26V424.53l-4.85.4Zm0-34.08,4.85.32V390.43l-4.85.41Zm0-34.16,4.85.37v-13.8l-4.85.54Zm0-34.17,4.85.42V322.27l-4.85.57Zm0-34.11,4.85.49V288.28l-4.85.55Zm0-34,4.85.55V254.09l-4.85.72Zm0-34.24,4.85.59v-13.7l-4.85.71Zm0-34.08,4.85.65V186l-4.85.76Zm0-34.14,4.85.71V151.84l-4.85.9Zm0-34.2,4.85.76V118.22l-1-.23-3.86.67Zm4.85,396-4.85.16v13.53l4.85.1Zm-.11,14.08-56.4-1.18v20.12l56.4.79Zm-56.69-15.8V504.94l-42.56,1.69V526.4Zm-38.54-18.87,38.69-1.53h.54V491.13l-37.18,1.68-2.05-.08Zm2.05-13.66,37.29-1.68,50.89,1.81,1.94-.11-53.48-1.92-39.35,1.8Zm36.49-2.19V470.22l-42.56,2.29v19.78ZM448.39,472l38.66-2.09.54,0V456.49l-37.18,2.25h0l-2-.08Zm2-13.56,37.32-2.26h0l50.86,2.46,2.78-.21-54.33-2.55L447,458.31Zm36.5-2.84V435.5l-42.56,2.9v19.78Zm-38.51-17.77L487,435.2h0l.53,0V421.89l-37.23,2.82h0l-1.94-.12Zm1.95-13.42,37.34-2.82h0l50.89,3.06,3.1-.25-54.64-3.26-40.71,3Zm36.56-3.55V400.76l-42.56,3.51V424Zm-11.26-19.74,9.56-.85V388.6l-9.56.9Zm-.29,0V389.52l-.52.05V401.2Zm-.82.08V389.6l-.52,0v11.62Zm-.81.07V389.68l-8.92.83v11.58Zm-9.21.82V390.54l-.51,0v11.58Zm-.8.07V390.61l-.47,0v11.58Zm-.76.07V390.68l-9.2.86v11.54Zm-9.49.84V391.57l-.53.05v11.53Zm-5.1.55,4.27-.36v-11.8a.14.14,0,0,1,.14-.14l32.56-3.05a.15.15,0,0,1,.11,0,.12.12,0,0,1,.05.1v12a.15.15,0,0,1-.14.14l-6.6.59,8.28-.68h0l.53,0V387.31l-37.16,3.3h0l-2.05-.14Zm2.06-13.32L487.64,387h0l50.95,3.55,3.25-.28-54.82-3.83L446,390Zm36.48-4.14V366.07l-34.1,3.23h0l-8.45.8v19.77Zm-1.7-20.46V354.05l-9.53,1v11.62Zm-9.82,1V355.1l-.55.06v11.62Zm-.84.09V355.19l-.52.05v11.62Zm-.81.08V355.27l-8.93,1V367.8Zm-9.22.94V356.25l-.51.06v11.57Zm-.8.08V356.34l-.52.05V368Zm-.81.08V356.43l-9.13,1,0,11.52Zm-9.42-10.56-.55.06V369l.49-.05Zm-5.14,12,4.29-.41V357.36a.15.15,0,0,1,.13-.15l32.57-3.46a.12.12,0,0,1,.11,0,.12.12,0,0,1,.05.1v12a.14.14,0,0,1,0,.06l1.56-.15h0l.53,0V352.74l-37.11,3.78h0l-2.11-.16Zm2.12-13.21,37.24-3.79h0l50.86,4.15,3.65-.4-55.18-4.47-41.2,4.17Zm36.44-4.78V331.34L444.34,336v19.77Zm-1.7-20.22v-11.7l-9.54,1.07v11.67Zm-9.83,1.07V320.63l-.55.07v11.66Zm-.84.1V320.73l-.5.06v11.66Zm-.79.08V320.82l-8.95,1v11.63Zm-9.24,1V321.86l-.49.05v11.63Zm-.78.09V322l-.49.05v11.63Zm-.78.08V322l-9.17,1v11.59Zm-9.47,1V323.1l-.54.06v11.59Zm-5.1.56,4.26-.46V323a.15.15,0,0,1,.13-.15l32.56-3.67a.15.15,0,0,1,.17.15V331.2L487,331h0l.53.05V318.15l-37.14,4.37h0l-2.05-.16Zm2.06-13,37.24-4.38s0,0,0,0l50.87,4.74,3.79-.46L487.05,317l-41.38,4.9Zm36.47-5.54V296.57L444.34,302v19.78Zm-11.24-30.36v11.38l9.52-1.21V285.08Zm9.52-1.54h0l-4.53.6Zm-9.81,12.95V286.32l-.54-.1v11.59Zm-.84.11V286.2l-.51.07v11.64Zm-.8.1V286.59l-8.92,1.13v11.36Zm-9.21,1.17v-11.4l-.52-.07v11.53Zm-.81.1V287.65l-.49.07v11.56Zm-.78.1V288l-9.16,1.2v11.31Zm-9.45,1.19V289.18l-.58-.05v11.46Zm-5.13.65,4.26-.54V289a.15.15,0,0,1,.12-.15l32.57-4.36a.24.24,0,0,1,.12,0,.16.16,0,0,1,.05.11v11.85l1.56-.19h0l.53.05V283.56l-37.19,4.86h0l-2-.2Zm2-13,37.29-4.87h0l50.87,5.31,3.84-.43-55.37-5.91-41.6,5.4ZM486.9,282V261.85l-42.56,5.86v19.78ZM475.7,252V263.1l9.51-1.31V250.63Zm3.52-.81-3.73.53h.07Zm-3.81,11.93V252l-.57-.13v11.34Zm-.86.12V251.87l-.53.07v11.39Zm-.82.11V252.23l-8.9,1.28V264.6Zm-9.19,1.27V253.5l-.55-.1v11.31Zm-.84.12V253.39l-.5.07v11.36Zm-9.91-9.67v11l9.12-1.26V253.78Zm4.94-1-5.13.72h0Zm-5.23,12.07V255.08L453,255v11.27Zm-5.14.71,4.31-.6v-11.5a.14.14,0,0,1,.13-.14l32.53-4.57a.15.15,0,0,1,.17.15v11.54l1.53-.21h0l.53.06V249l-37.18,5.37s0,0,0,0l-2-.24Zm2-12.8,37.28-5.4h0l50.92,5.88,4-.6-55.59-6.47-41.76,6Zm36.51-6.86V227.09l-42.56,6.43v19.77Zm-11.27-29.68v11l9.56-1.44V216Zm9.56-1.82v0l-9.78,1.54.1,0Zm-9.85,12.84v-11l-.54-.12v11.24Zm-.83.12V217.38l-.5.08v11.29Zm-9.7-9.46v10.93l8.91-1.35v-11Zm8.91-1.7h0l-9.1,1.43h.05Zm-9.2,12.67v-11l-.53-.12v11.17Zm-.82.12V219.08l-.49.08v11.22ZM453.76,221v10.84l9.16-1.39V219.51Zm9.16-1.75v0l-9.39,1.48.08,0Zm-9.45,12.63V221l-.54-.12v11.09Zm-5.1.77,4.26-.65V220.66a.16.16,0,0,1,.13-.15l32.55-5.13a.17.17,0,0,1,.12,0,.13.13,0,0,1,.05.11V227l1.55-.24h0l.53.07V214.37l-37.15,5.91h0l-2-.23Zm2-12.63,37.26-5.93h0l50.91,6.45,4.06-.59-55.63-7.13-41.79,6.62Zm36.49-7.46V192.41l-42.56,7.08v19.77ZM475.62,183.1V194l9.55-1.59V181.46Zm9.55-1.93v0l-9.66,1.69h0Zm-9.84,12.88v-11l-.51-.09v11.14Zm-.8.13V183l-.52.09v11.18ZM464.82,185v10.78l8.9-1.48V183.43Zm8.55-1.81-8.76,1.52.07,0Zm-8.84,12.64V185l-.53-.11v11Zm-.82.14v-11.1l-.48.09v11.09Zm-.78.13V185.25l-9.15,1.61v10.77Zm-9.44,1.57V186.87l-.54-.07v11Zm-5.13.85,4.3-.72V186.64a.14.14,0,0,1,.12-.14l32.51-5.68a.17.17,0,0,1,.12,0,.16.16,0,0,1,0,.11v11.4l1.56-.26h.05l.52.07v-12.4l-37.12,6.45h-.05l-2.06-.24Zm2.08-12.59,37.23-6.47h0l50.89,7,4.16-.65-55.71-7.78-41.85,7.26Zm36.46-8.14V157.69l-42.56,7.72v19.77Zm-11.23-29.09v10.72l9.52-1.73V146.92Zm9.52-2.08h0l-9.76,1.8.09,0Zm-9.81,12.86V148.71l-.55-.12v11Zm-.85.15v-11l-.51.09v11Zm-9.74-8.88v10.65l8.94-1.63v-10.7Zm8.94-2v0l-9.22,1.7.17,0Zm-9.23,12.67V150.74l-.52-.13v10.94Zm-.81.15v-11l-.48.09v11Zm-9.94-8.86v10.66l9.17-1.66V151.06Zm9.17-2v0l-9.4,1.74h.06Zm-9.46,12.69v-10.7l-.52-.12v10.92Zm-5.1.93,4.28-.78V152.46a.16.16,0,0,1,.13-.14l11-2h0l21.5-4a.17.17,0,0,1,.12,0,.13.13,0,0,1,.05.11v11.21l1.54-.28h.05l.52.08V145.2l-37.22,7h-.05l-2-.26Zm2-12.51,37.33-7a0,0,0,0,1,.05,0l50.9,7.59,4.25-.79-55.82-8.41-41.95,7.89ZM486.9,143V122.91l-42.56,8.35V151Zm.74-32.73h.06l50.92,8.12,4.25-.73L487,108.57l-43.77,8.88,5,.75Zm-1-83.17L485.17,27V55.91l1.46-.32ZM488,55.57l-41.26,9.25V96.33L487,87.88h.06l1,.16Zm-.85,32.62V108.3l56.41,9.2V97.69ZM496.39.38,494,.29v56l2.37.42Zm-8.07,55.18V88.09l45.78,7.7v-32Zm62.5,1.51-17.47,3.81v2.44l.92.17a.14.14,0,0,1,.12.14v2l16.43,2.91Zm-16.43,8.81v30l.84.15V88.2a.14.14,0,0,1,0-.11.13.13,0,0,1,.12,0l10.72,1.87a.14.14,0,0,1,.12.14v10.76a.15.15,0,0,1-.15.15h0l-2.18-.4v7.75l8.25,1.41V69Zm11.15,24.51v10.2l.41.07V90.26Zm55.54,509.32v-524L557.73,68l-.05,289.66,0,242Zm-48.66,0h4.93l0-280.6,0-251.07-5,1Zm5.14-532h.05l16.81,3V61.33l-23.3-4.26V68.56l1.15.2Zm-18.71,532h13.28V110l-8.25-1.41v9l.75.17a.15.15,0,0,1,.12.13h0V551.21a.15.15,0,0,1-.15.15h-.72v9.37a.12.12,0,0,1,0,.1.12.12,0,0,1-.1,0h0l-4.89-.07Zm-51,0h50.67V560.8l-50.67-.72Zm-39.53,0h39.23V560.08h-.54l-38.69.7Zm-5.78,0h5.48V560.77l-3.87.07a.13.13,0,0,1-.1,0,.14.14,0,0,1,0-.1V540.63a.15.15,0,0,1,.15-.14l3.87-.1V526.74l-3.87,0h0a.13.13,0,0,1-.1,0,.12.12,0,0,1,0-.1V506.49a.16.16,0,0,1,.15-.15l3.88-.15V492.72l-3.88-.14h0a.13.13,0,0,1-.1,0,.12.12,0,0,1,0-.1V472.38a.15.15,0,0,1,.14-.15l3.92-.21V458.64l-3.91-.16h0a.17.17,0,0,1-.1,0,.16.16,0,0,1,0-.11V438.27a.14.14,0,0,1,.14-.14l3.92-.27V424.58l-3.92-.24h0a.18.18,0,0,1-.09,0,.14.14,0,0,1,0-.11V404.13a.15.15,0,0,1,.14-.14l3.89-.32V390.45l-3.89-.27h0A.14.14,0,0,1,444,390V370a.15.15,0,0,1,.14-.15l3.87-.37V356.34l-3.87-.28h0a.16.16,0,0,1-.09,0,.14.14,0,0,1,0-.11V335.85a.15.15,0,0,1,.14-.14l3.9-.43V322.34l-3.9-.3h0l-.09,0a.16.16,0,0,1,0-.11V301.83a.15.15,0,0,1,.14-.14l3.88-.49v-13l-3.88-.39h0l-.09,0a.16.16,0,0,1,0-.11V267.59a.15.15,0,0,1,.13-.14l3.9-.54V254.07l-3.89-.47h0a.2.2,0,0,1-.08,0,.11.11,0,0,1-.06-.1V233.39a.15.15,0,0,1,.13-.14l3.91-.59V220l-3.9-.45h0a.11.11,0,0,1-.08,0,.17.17,0,0,1-.06-.11V199.37a.15.15,0,0,1,.13-.14l3.89-.65V186l-3.88-.45h0a.11.11,0,0,1-.08,0,.15.15,0,0,1-.06-.11V165.29a.14.14,0,0,1,.12-.14l3.91-.71V151.87l-3.9-.52h0s-.05,0-.07,0a.17.17,0,0,1-.06-.11V131.15a.16.16,0,0,1,.12-.15l3.93-.76V118.46l-5.51-.83Zm-14.63,0h14.34V117.64L428,120.55Zm-32,0h31.75V561.16h-1.51l-30.24.49Zm-9.29,0h9V561.66l-9,.15Zm-7,0h6.75v-37.9l-1.05,0h0a.14.14,0,0,1-.14-.14v-19.6a.15.15,0,0,1,.14-.15l1.07,0V528.55l-1.07,0h0a.14.14,0,0,1-.14-.14v-19.6a.15.15,0,0,1,.14-.15l1.07,0V495.26l-1.07,0h0a.13.13,0,0,1-.1,0,.18.18,0,0,1,0-.1v-19.6a.15.15,0,0,1,.14-.15l1.08-.05V462l-1.08-.06h0a.14.14,0,0,1-.14-.14V442.2a.15.15,0,0,1,.14-.14l1.11-.07V428.76l-1.11-.06h0a.14.14,0,0,1-.14-.14V409a.15.15,0,0,1,.13-.14l1.13-.09V395.45l-1.13-.07h0a.18.18,0,0,1-.09,0,.18.18,0,0,1,0-.11v-19.6a.14.14,0,0,1,.13-.14l1.1-.1v-13.2l-1.1-.08h0a.11.11,0,0,1-.08,0,.16.16,0,0,1-.05-.11v-19.6a.14.14,0,0,1,.13-.14l1.1-.13V328.94l-1.1-.1h0a.11.11,0,0,1-.08,0,.16.16,0,0,1-.05-.11V309.1a.14.14,0,0,1,.13-.14l1.09-.14V295.68l-1.09-.11h0a.11.11,0,0,1-.08,0,.16.16,0,0,1-.05-.11v-19.6a.13.13,0,0,1,.13-.14l1.1-.16V262.38l-1.1-.13h0a.11.11,0,0,1-.08,0,.16.16,0,0,1-.05-.11v-19.6a.14.14,0,0,1,.12-.14l1.11-.17V229.12l-1.1-.12h0s-.06,0-.08,0a.12.12,0,0,1-.05-.1v-19.6a.16.16,0,0,1,.12-.15l1.11-.18v-13.1l-1.1-.14h0s-.06,0-.08,0a.16.16,0,0,1-.05-.11V176a.16.16,0,0,1,.12-.15l1.12-.2v-13l-1.11-.15h0a.11.11,0,0,1-.08,0,.13.13,0,0,1-.05-.11V147.88l-3.17.72h0l-43.2-6.26v11.48l2.24.31v-10.7a.13.13,0,0,1,.05-.11.11.11,0,0,1,.11,0l35.71,5.07a.14.14,0,0,1,.12.14v10.67l7.72,1.08a.14.14,0,0,1,.12.14v18.83a.16.16,0,0,1,0,.11.15.15,0,0,1-.11,0l-.09,0-4.66.86h-.05l-41.11-5.49v11.54l2.24.29V175.76a.15.15,0,0,1,0-.11.27.27,0,0,1,.12,0l23.59,3.09h0l12.12,1.58a.14.14,0,0,1,.12.15v10.73l7.71,1a.14.14,0,0,1,.13.14v18.83a.13.13,0,0,1,0,.11.15.15,0,0,1-.11,0l-.1,0-4.65.86h-.05L338.7,207v11.69L341,219V208.07a.12.12,0,0,1,0-.1.19.19,0,0,1,.12,0l11.7,1.43h0l24,2.94a.13.13,0,0,1,.13.14V223.3l7.71.92a.14.14,0,0,1,.13.14v18.83a.16.16,0,0,1,0,.11.11.11,0,0,1-.11,0h-.11l-4.65.79h0l-41.12-4.7v11.82l2.25.24v-11a.15.15,0,0,1,0-.11.18.18,0,0,1,.12,0l35.7,4a.14.14,0,0,1,.13.15v11l7.71.84a.14.14,0,0,1,.13.14v18.83a.16.16,0,0,1,0,.11.15.15,0,0,1-.11,0l-.13,0-4.63.68h0l-41.09-4.25V283.7l2.22.22v-11.1a.15.15,0,0,1,0-.11.13.13,0,0,1,.12,0l35.7,3.66a.14.14,0,0,1,.13.14v11l7.71.78a.13.13,0,0,1,.13.14v18.83a.16.16,0,0,1,0,.11.14.14,0,0,1-.11,0h-.15l-4.61.57h0l-41.09-3.86V316.2l2.22.2V305.14a.12.12,0,0,1,0-.1.17.17,0,0,1,.11,0l35.71,3.31a.15.15,0,0,1,.13.15v11.13l7.71.69a.13.13,0,0,1,.13.14v18.83a.16.16,0,0,1,0,.11.14.14,0,0,1-.11,0h-.15l-4.61.57h0l-41.09-3.39v12.1l2.24.18a.19.19,0,0,1,0-.08V337.53a.15.15,0,0,1,0-.11.14.14,0,0,1,.11,0l35.71,2.87a.15.15,0,0,1,.13.15v11.11a.21.21,0,0,1,0,.11.19.19,0,0,1-.1,0h0l-18-1.38,25.84,2.07a.15.15,0,0,1,.13.14v18.83a.16.16,0,0,1,0,.11.14.14,0,0,1-.11,0l-.19,0-4.58.46h0l-41.13-3.05v12.25l45.95,3.17a.13.13,0,0,1,.13.14v18.83a.16.16,0,0,1,0,.11.13.13,0,0,1-.11,0h-.2l-4.57.46h0l-41.13-2.51v12.29l45.94,2.69a.14.14,0,0,1,.14.14v18.83a.14.14,0,0,1,0,.11.12.12,0,0,1-.1,0h-.24l-4.54.41h0l-41.13-2.22v12.48l45.94,2.23a.14.14,0,0,1,.14.14v18.83a.15.15,0,0,1,0,.11.21.21,0,0,1-.11,0l-.3,0-4.48.34h0l-41.13-1.67v12.47l45.94,1.79a.15.15,0,0,1,.14.15v18.83a.12.12,0,0,1,0,.1.12.12,0,0,1-.11,0h-.45l-4.35.19-41.13-1.29V511l45.94,1.31a.15.15,0,0,1,.14.15v18.83a.13.13,0,0,1,0,.1.15.15,0,0,1-.11,0H384l-4.2.15-41.13-.86v12.7l45.94.91a.15.15,0,0,1,.14.15v18.83a.13.13,0,0,1,0,.1.15.15,0,0,1-.11,0l-5.05-.07Zm-15.4-260V350.4l.37,0V339.61Zm.66-.09v10.86l.6.05V339.63Zm.89.26v10.67l10.28.8V340.71Zm10.58.83v10.66l.34,0V340.6Zm-37.61,259h40.59V563.4l-40.59-.6Zm-40.11,0h39.82V562.8h-.88l-38.94.72Zm-6.54,0h6.25V563.52l-5.33.1h0a.15.15,0,0,1-.1,0,.16.16,0,0,1-.05-.1l-.09-18.7a.15.15,0,0,1,.15-.14l5.42-.15V531.94l-5.33-.19h0a.12.12,0,0,1-.1,0,.12.12,0,0,1-.05-.1l-.09-18.69a.14.14,0,0,1,.14-.14l5.43-.22V500.12l-5.34-.26h0a.11.11,0,0,1-.09,0,.14.14,0,0,1-.05-.1l-.09-18.7a.14.14,0,0,1,.14-.14l5.43-.29V468.33l-5.34-.25h0l-.09,0a.16.16,0,0,1-.05-.11l-.09-18.69a.14.14,0,0,1,.14-.14l5.43-.38V436.55L293,436.2h0l-.09,0a.16.16,0,0,1-.05-.11l-.09-18.69a.14.14,0,0,1,.14-.14l5.45-.45v-12.1l-5.36-.35h0a.18.18,0,0,1-.09,0,.14.14,0,0,1-.05-.1l-.09-18.7a.15.15,0,0,1,.13-.14l5.44-.52v-12l-5.34-.4h0a.14.14,0,0,1-.14-.14l-.09-18.69a.14.14,0,0,1,.13-.14l5.44-.6v-11.8l-5.34-.39h0l-.09,0a.14.14,0,0,1-.05-.1l-.09-18.7a.15.15,0,0,1,.13-.14l5.44-.68V309.26l-5.44-.48h0a.11.11,0,0,1-.08,0,.16.16,0,0,1,0-.11V289.9a.15.15,0,0,1,.13-.14l5.44-.76V277.46l-5.44-.53h0a.13.13,0,0,1-.08,0,.14.14,0,0,1,0-.11V258a.15.15,0,0,1,.13-.14l5.47-.83V245.69l-5.47-.64h0l-.08,0a.16.16,0,0,1,0-.11V226.17a.14.14,0,0,1,.13-.14l5.44-.91V213.91l-5.44-.64h0a.09.09,0,0,1-.07,0,.14.14,0,0,1-.06-.11V194.39a.14.14,0,0,1,.12-.14l5.45-1V182.08l-5.44-.72h0s-.05,0-.07,0a.14.14,0,0,1-.06-.11V162.48a.14.14,0,0,1,.12-.14l5.45-1.06v-11l-5.45-.77h0s-.05,0-.07,0a.17.17,0,0,1-.06-.11V134.47l-.62.16h-.05Zm-4.75,0h4.46V134.59L287.3,134Zm-34.25,0H287V134l-33.95,7ZM218.42,228.13a2.86,2.86,0,0,0,.58.06h.24l.29,0h0c1.67-.34,2.95-2.27,2.95-4.58,0-2.73-1.84-5.23-4.11-5.57a3.25,3.25,0,0,0-.44,0h-.26l-.3,0c-1.74.34-3.08,2.23-3.08,4.5A5.54,5.54,0,0,0,218.42,228.13Zm-.42.19a5.88,5.88,0,0,1-4-5.81,5.09,5.09,0,0,1,2.07-4.26,4.52,4.52,0,0,0-2.68,4.39,5.54,5.54,0,0,0,4.13,5.62A3.93,3.93,0,0,0,218,228.32Zm-.93.12v11l.59.06V228.58l-.21,0Zm12.68,1.05a3.84,3.84,0,0,0,2.7,3.84,4.21,4.21,0,0,1-2.37-3.93,3.72,3.72,0,0,1,1.16-2.78A3.26,3.26,0,0,0,229.75,229.49Zm2.22,4V241l.48.06v-7.48A3.37,3.37,0,0,1,232,233.47ZM233.46,223a3.19,3.19,0,0,0,.75.08h.31l.37-.06h0c2.15-.44,3.8-2.93,3.8-5.92,0-3.53-2.37-6.76-5.28-7.2a5.46,5.46,0,0,0-.56,0l-.34,0-.39.05c-2.23.44-4,2.88-4,5.83A7.14,7.14,0,0,0,233.46,223Zm-.24.24a7.46,7.46,0,0,1-5.35-7.49,6.42,6.42,0,0,1,2.88-5.61c-2.15.56-3.74,3-3.74,5.77a7.15,7.15,0,0,0,5.3,7.26A3.5,3.5,0,0,0,233.22,223.19Zm-1.27.14v2.76l.47-.06h0v-2.58l-.19,0Zm1.24,9.94a1.72,1.72,0,0,0,.39,0h.16l.2,0h0a3,3,0,0,0,2-3.14,3.81,3.81,0,0,0-2.8-3.84l-.3,0h-.17l-.21,0a3,3,0,0,0-2.09,3.09A3.82,3.82,0,0,0,233.19,233.27Zm15.23,366.44h4.34V276.84l-4.34.7Zm-45,0h44.71V496.38L203.42,495Zm0-105,44.71,1.41V412l-44.71-2.59Zm0-85.57,44.71,2.59V327.51l-44.71-3.76Zm0-85.65,44.71,3.76v-49.8a.14.14,0,0,1,.12-.14l4.51-.73v-33l-49.34-5.31ZM167,599.71h36.18V553.33l-36.18.84Zm0-45.83,36.18-.84V505.83L167,507.47Zm0-46.7,36.18-1.64V458.3L167,460.73Zm0-46.74L203.13,458V410.82L167,414Zm0-46.69,36.18-3.22V363.29l-36.18,4ZM167,367l36.18-4V315.81L167,320.61Zm0-46.7,36.18-4.8v-47.2L167,273.9Zm-7.64,279.39h7.35V554.18l-7.35.16Zm0-45.65,7.35-.17V507.48l-7.35.33Zm0-46.54,7.35-.33V460.74l-7.35.5Zm0-46.57,7.35-.49v-46.4l-7.35.66Zm0-46.52,7.35-.65V367.34l-7.35.82Zm0-46.56,7.35-.82V320.64l-7.35,1Zm0-46.54,7.35-1V274l-7.35,1.13ZM124.47,599.71H159V554.35l-34.55.79Zm0-44.85,34.55-.8V507.83l-34.55,1.56Zm0-45.76L159,507.54V461.26l-34.55,2.31Zm0-45.81L159,461V414.74l-34.55,3.08Zm0-45.76L159,414.45V368.19L124.47,372Zm0-45.79L159,367.9V321.65l-34.55,4.58Zm0-45.8L159,321.36V275.12l-34.55,5.34Zm0-45.78L203.13,268V238.27l-78.66,13.21ZM81.76,599.71h42.42V397.87L81.76,395.3Zm-81.43,0H81.47V395.31L.33,403.59Z"/><path d="M535.64,539.77h0l-43.93-1a.14.14,0,0,1-.14-.14v-12a.15.15,0,0,1,0-.11.21.21,0,0,1,.11,0l43.92,1.11a.15.15,0,0,1,.15.15v11.89a.14.14,0,0,1,0,.1A.12.12,0,0,1,535.64,539.77ZM501.82,527l-10-.26V538.5l10,.23Zm.81,0-.52,0v11.7l.52,0Zm.9,0-.61,0v11.7l.61,0Zm10.44.26-10.15-.25v11.69L514,539Zm.71,0h-.42V539h.42Zm.88,0H515V539h.59Zm10.18.26-9.89-.25V539l9.89.22Zm.73,0H526v11.63h.44Zm.91,0-.62,0v11.64h.62Zm7.35.19-7.06-.18V539.3l7.06.16Zm.76,0-.47,0v11.61h.47Z"/><path d="M452.77,527.51l32.58-1a.15.15,0,0,1,.1,0,.16.16,0,0,1,.05.11v11.94a.15.15,0,0,1-.14.15l-32.58.95h0a.14.14,0,0,1-.11,0,.13.13,0,0,1,0-.1V527.65A.14.14,0,0,1,452.77,527.51Zm22.86,11.2,9.58-.28V526.78l-9.58.3Zm-.78,0,.49,0V527.09h-.49Zm-.83,0h.53V527.11l-.53,0Zm-9.22.27,8.93-.26V527.14l-8.93.28Zm-.81,0h.52V527.43H464Zm-.82,0,.53,0V527.45l-.53,0Zm-9.4.27,9.11-.26V527.48l-9.11.28Zm-.85,0,.56,0V527.77l-.56,0Z"/><path d="M491.77,491.94l43.86,1.62a.15.15,0,0,1,.14.15v11.78a.16.16,0,0,1,0,.1.12.12,0,0,1-.1,0h0l-43.86-1.34a.15.15,0,0,1-.15-.15V492.08a.14.14,0,0,1,.05-.1A.12.12,0,0,1,491.77,491.94ZM535,505.32l.46,0V493.85l-.46,0Zm-7.3-.22,7,.21V493.82l-7-.26Zm-1,0,.66,0V493.55l-.66,0Zm-.73,0h.44V493.51H526Zm-10.13-.31,9.84.3V493.49l-9.84-.37Zm-.93,0,.63,0V493.11l-.63,0Zm-.73,0h.44V493.08l-.44,0Zm-10.45-.32,10.16.31V493.05l-10.16-.38Zm-.94,0,.64,0v-11.7l-.64,0Zm-.74,0,.45,0v-11.7l-.45,0ZM491.91,504l9.92.31V492.6l-9.92-.37Z"/><path d="M452.78,493.43l32.56-1.49a.14.14,0,0,1,.1,0,.14.14,0,0,1,.05.1v12a.15.15,0,0,1-.14.14l-32.56,1.34h0a.13.13,0,0,1-.1,0,.12.12,0,0,1-.05-.1V493.57A.14.14,0,0,1,452.78,493.43ZM475.6,504.3l9.6-.39V492.23l-9.6.44Zm-.74,0,.44,0V492.68l-.44,0Zm-.84,0,.55,0V492.72l-.55,0Zm-9.23.38,8.93-.37V492.76l-8.93.4Zm-.79,0,.49,0V493.18l-.49,0Zm-.77,0h.48V493.21l-.48,0Zm-9.48.4,9.19-.38V493.25l-9.19.42Zm-.82,0,.52,0V493.68l-.52,0Z"/><path d="M491.77,457.42l43.86,2.08a.14.14,0,0,1,.14.14v11.78a.12.12,0,0,1,0,.1.12.12,0,0,1-.1,0h0l-43.86-1.8a.15.15,0,0,1-.15-.14V457.56a.14.14,0,0,1,.05-.1A.15.15,0,0,1,491.77,457.42ZM535,471.25l.48,0V459.78l-.48,0Zm-7.33-.3,7,.29v-11.5l-7-.33Zm-.86,0,.57,0V459.39l-.57,0Zm-.8,0,.51,0V459.35l-.51,0Zm-10.12-.41,9.83.4V459.32l-9.83-.47Zm-.88,0,.58,0V458.84l-.58,0Zm-.79,0,.5,0V458.79l-.5,0ZM503.77,470l10.16.42V458.76l-10.16-.48Zm-.91,0,.62,0v-11.7l-.62,0Zm-.7,0h.41v-11.7l-.41,0Zm-10.25-.43,10,.41v-11.7l-10-.48Z"/><path d="M452.77,459.36l32.56-1.94a.15.15,0,0,1,.11,0,.14.14,0,0,1,.05.1v12a.14.14,0,0,1-.14.14l-32.56,1.8h0a.18.18,0,0,1-.1,0,.16.16,0,0,1-.05-.11V459.5A.14.14,0,0,1,452.77,459.36Zm22.84,10.56,9.59-.53V457.71l-9.59.58Zm-.78,0,.49,0V458.3l-.49,0Zm-.8,0,.51,0V458.35l-.51,0Zm-9.24.52,8.95-.5V458.4l-8.95.53Zm-.77,0,.47,0V459l-.47,0Zm-.79,0,.5,0V459l-.5,0Zm-9.43.52,9.13-.5V459l-9.13.55Zm-.87.05.57,0V459.6l-.57,0Z"/><path d="M491.77,422.83l43.86,2.67a.15.15,0,0,1,.14.15v11.78a.14.14,0,0,1,0,.1.12.12,0,0,1-.1,0h0l-43.86-2.4a.14.14,0,0,1-.14-.14V423a.12.12,0,0,1,.05-.1A.12.12,0,0,1,491.77,422.83ZM535,437.25l.47,0v-11.5l-.47,0Zm-7.37-.4,7.08.38V425.74l-7.08-.44Zm-.87-.05.58,0V425.29l-.58,0Zm-.73,0,.44,0V425.23l-.44,0Zm-10.15-.56,9.86.54V425.19l-9.86-.6Zm-.9-.05.61,0V424.57l-.61,0Zm-.74,0,.45,0V424.51l-.45,0Zm-10.5-.58,10.2.56V424.47l-10.2-.62Zm-.88-.05.59,0v-11.7l-.59,0Zm-.72,0,.42,0v-11.7l-.42,0Zm-10.24-.55,9.95.54V423.73l-9.95-.61Z"/><path d="M452.77,425.37l32.56-2.54a.12.12,0,0,1,.11,0,.12.12,0,0,1,.05.1v12a.15.15,0,0,1-.14.15l-32.56,2.4h0a.18.18,0,0,1-.1,0,.16.16,0,0,1-.05-.11V425.51A.14.14,0,0,1,452.77,425.37Zm22.83,10.14,9.6-.71V423.13l-9.6.75Zm-.77.05.47,0V423.9l-.47,0Zm-.81.06.52,0V424l-.52,0Zm-9.21.68,8.91-.66V424l-8.91.7Zm-.81.06.51,0V424.74l-.51,0Zm-.78.06.49,0V424.8l-.49,0Zm-9.41.69,9.12-.67V424.86l-9.12.71Zm-.88.07.59-.05V425.6l-.59,0Z"/><path d="M491.77,388.3l43.86,3.18a.15.15,0,0,1,.14.15v11.78a.14.14,0,0,1,0,.1.18.18,0,0,1-.1,0h0l-43.86-2.9a.16.16,0,0,1-.14-.15V388.44a.12.12,0,0,1,.05-.1A.15.15,0,0,1,491.77,388.3ZM535,403.22l.5,0V391.76l-.5,0Zm-7.31-.49,7,.47V391.7l-7-.51Zm-.9-.05.6,0V391.17l-.6,0Zm-.73-.05.44,0V391.11l-.44,0Zm-10.2-.68,9.9.66V391.05l-9.9-.71Zm-.88-.06.59,0V390.32l-.59-.05Zm-.7,0,.41,0V390.25l-.41,0Zm-10.49-.7,10.2.68V390.2l-10.2-.74Zm-.88-.06.58.05v-11.7l-.58,0Zm-.74,0,.44,0V389.37l-.44,0Zm-10.24-.68,9.95.66V389.32l-9.95-.72Z"/><path d="M491.77,353.75l43.86,3.6a.15.15,0,0,1,.14.15v11.77a.16.16,0,0,1,0,.11.18.18,0,0,1-.1,0h0l-43.86-3.32a.16.16,0,0,1-.14-.15V353.89a.12.12,0,0,1,.05-.1A.15.15,0,0,1,491.77,353.75ZM535,369.08l.46,0V357.63l-.46,0Zm-7.34-.55,7.05.53V357.57l-7.05-.58Zm-.92-.07.63.05V357l-.63,0Zm-.71-.06.42,0V356.89l-.42,0Zm-10.22-.77,9.93.75V356.83l-9.93-.82Zm-.85-.06.56,0V356l-.56-.05Zm-.72-.06.43,0V355.92l-.43,0Zm-10.45-.79,10.16.77V355.86L503.81,355Zm-.92-.07.63.05V355l-.63-.05Zm-.74-.06.45,0v-11.7l-.45,0Zm-10.24-.77,9.94.75v-11.7l-9.94-.82Z"/><path d="M376.8,543.61h0l-35.7-.62a.15.15,0,0,1-.14-.15V531.61a.13.13,0,0,1,0-.1.14.14,0,0,1,.11,0l35.7.74a.14.14,0,0,1,.14.14v11.11a.15.15,0,0,1,0,.11A.21.21,0,0,1,376.8,543.61ZM352,532l-10.76-.22V542.7l10.76.19Zm.64,0h-.35v10.9h.35Zm.89,0h-.6v10.91h.6Zm10.32.22-10-.21v10.9l10,.17Zm.67,0h-.38V543.1h.38Zm.85,0h-.56v10.86h.56Zm10.64.22-10.35-.22v10.87l10.35.18Zm.64,0h-.35v10.83h.35Z"/><path d="M335.41,543l-34.53.87h0a.14.14,0,0,1-.11,0,.13.13,0,0,1,0-.1v-11a.14.14,0,0,1,.14-.14l34.54-1.1a.11.11,0,0,1,.1,0,.13.13,0,0,1,0,.1v11.22A.14.14,0,0,1,335.41,543Zm-33.94-10.13H301v10.7h.45Zm5.57-.18-5.28.17v10.7l5.28-.13Zm.71,0h-.41v10.74h.41Zm.81,0-.52,0v10.74h.52Zm7.76-.25-7.46.24v10.75l7.46-.19Zm.71,0h-.41v10.81H317Zm.77,0h-.48v10.81h.48Zm8.08-.26-7.78.25v10.81l7.78-.2Zm.73,0h-.44v10.87h.44Zm.78,0h-.49V542.9h.49Zm7.87-.25-7.58.24v10.88l7.58-.19Z"/><path d="M376.8,511.62h0l-35.7-.95a.15.15,0,0,1-.14-.15V499.29a.12.12,0,0,1,0-.1.14.14,0,0,1,.11,0l35.7,1.07a.15.15,0,0,1,.14.15v11.11a.13.13,0,0,1,0,.1A.14.14,0,0,1,376.8,511.62ZM352,499.76l-10.8-.32v10.94l10.8.29Zm.62,0h-.33v10.91h.33Zm.86,0-.57,0V510.7h.57Zm10.35.31-10.06-.3v10.9l10.06.27Zm.63,0h-.34V511h.34Zm.9,0-.61,0V511h.61Zm10.6.32-10.31-.32V511l10.31.27Zm.65,0h-.35v10.82h.35Z"/><path d="M335.41,510.65,300.88,512h0a.21.21,0,0,1-.11,0,.14.14,0,0,1,0-.1v-11a.15.15,0,0,1,.14-.15l34.53-1.57a.12.12,0,0,1,.11,0,.12.12,0,0,1,0,.1v11.22A.14.14,0,0,1,335.41,510.65ZM301.47,501l-.45,0v10.7l.45,0Zm5.61-.26-5.32.24v10.71l5.32-.21Zm.66,0-.37,0v10.74l.37,0Zm.81,0-.52,0v10.74l.52,0Zm7.78-.35-7.49.34V511.4l7.49-.29Zm.73,0-.44,0V511.1l.44,0Zm.79,0-.5,0v10.81l.5,0Zm8.07-.37-7.78.35V511l7.78-.31Zm.66,0h-.37v10.87h.37Zm.81,0-.51,0V510.7l.51,0Zm7.87-.36-7.57.35v10.87l7.57-.29Z"/><path d="M376.8,479.61h0l-35.7-1.28a.14.14,0,0,1-.14-.14V467a.15.15,0,0,1,0-.11.21.21,0,0,1,.11,0l35.7,1.4a.14.14,0,0,1,.14.14v11.11a.15.15,0,0,1,0,.11A.21.21,0,0,1,376.8,479.61ZM352,467.53l-10.77-.42v10.94l10.77.39Zm.65,0h-.36v10.91h.36Zm.84,0-.55,0v10.9l.55,0Zm10.35.4-10.05-.39v10.9l10.05.36Zm.69,0-.4,0v10.87h.4Zm.86,0-.57,0v10.86l.57,0Zm10.59.41-10.29-.4v10.86l10.29.37Zm.66,0h-.37V479.3l.37,0Z"/><path d="M335.42,478.32l-34.54,1.84h0a.15.15,0,0,1-.11,0,.14.14,0,0,1,0-.11V469a.13.13,0,0,1,.13-.14l34.54-2.08a.14.14,0,0,1,.15.15v11.22A.14.14,0,0,1,335.42,478.32Zm-34-9.18-.42,0v10.71l.42,0Zm5.62-.34-5.32.32v10.71l5.32-.29Zm.69,0-.4,0v10.75l.4,0Zm.79-.05-.49,0v10.75l.49,0Zm7.79-.46-7.5.45v10.75l7.5-.4Zm.7-.05-.41,0V479l.41,0Zm.78,0-.49,0V479l.49,0Zm8.07-.49-7.78.47V479l7.78-.41Zm.71,0-.42,0v10.86l.42,0Zm.8-.05-.51,0v10.88l.51,0Zm7.87-.47-7.57.46v10.87l7.57-.4Z"/><path d="M376.8,447.73h0L341.08,446a.15.15,0,0,1-.13-.15V434.61a.15.15,0,0,1,0-.11.21.21,0,0,1,.11,0l35.7,1.87a.14.14,0,0,1,.14.14v11.12a.13.13,0,0,1,0,.1A.14.14,0,0,1,376.8,447.73ZM352,435.32l-10.77-.56V445.7l10.77.53Zm.65,0-.36,0v10.9l.36,0Zm.85,0-.56,0v10.91l.56,0Zm10.35.54-10.06-.52v10.9l10.06.49Zm.71,0-.42,0v10.86l.42,0Zm.84,0-.55,0v10.87l.55,0Zm10.6.56L365.7,436V446.9l10.31.5Zm.64,0-.35,0v10.83h.35Z"/><path d="M335.42,446l-34.54,2.41h0a.21.21,0,0,1-.11,0,.15.15,0,0,1,0-.11v-11a.15.15,0,0,1,.13-.14l34.54-2.64a.14.14,0,0,1,.15.15v11.22A.15.15,0,0,1,335.42,446Zm-33.93-8.63-.47,0v10.7l.47,0Zm5.56-.42-5.26.4V448l5.26-.36Zm.72-.06-.43,0v10.74l.43,0Zm.77-.06-.48,0v10.74l.48,0Zm7.81-.59-7.51.57v10.75l7.51-.52Zm.72-.06-.43,0V447l.43,0Zm.78-.06-.49,0v10.81l.49,0Zm8.06-.61-7.77.59v10.81l7.77-.54Zm.68-.05-.39,0v10.87l.39,0Zm.8-.07-.51,0v10.88l.51,0Zm7.87-.6-7.58.58v10.88l7.58-.53Z"/><path d="M376.8,415.67h0l-35.71-2a.13.13,0,0,1-.13-.14V402.27a.14.14,0,0,1,.15-.15l35.7,2.15a.14.14,0,0,1,.14.14v11.11a.15.15,0,0,1,0,.11A.21.21,0,0,1,376.8,415.67ZM352,403.07l-10.8-.65v10.94L352,414Zm.63,0-.34,0V414l.34,0Zm.85.05-.56,0V414l.56,0Zm10.35.62-10.06-.61v10.91l10.06.57Zm.68,0-.39,0v10.87l.39,0Zm.87.05-.57,0V414.7l.57,0Zm10.54.63-10.24-.61v10.86l10.33.59Zm.69.05-.4,0,.09,10.83.31,0Z"/><path d="M376.8,383.63h0l-35.71-2.39a.15.15,0,0,1-.13-.14V369.86a.12.12,0,0,1,0-.1.15.15,0,0,1,.11,0l35.7,2.51a.14.14,0,0,1,.14.14v11.12a.14.14,0,0,1,0,.1A.21.21,0,0,1,376.8,383.63ZM352,371l-10.8-.79V381l10.8.72Zm.61-.1-.32.06V381.7l.32,0Zm.88,0-.59,0v10.9l.59,0Zm10.36.91-10.06-.68V381.8l10.06.68Zm.6-.1-.31.06V382.5l.31,0Zm.92,0-.62-.05v10.87l.62,0Zm10.6.94-10.31-.73V382.6l10.31.69Zm.64-.11-.35.09v10.67l.35,0Z"/><path d="M335.42,381.22l-34.53,3.32h0a.15.15,0,0,1-.11,0,.14.14,0,0,1,0-.11v-11a.13.13,0,0,1,.13-.14l34.53-3.55a.21.21,0,0,1,.12,0,.15.15,0,0,1,0,.11v11.22A.13.13,0,0,1,335.42,381.22Zm-33.93-7.52-.47-.1v10.64l.47-.05Zm5.6-.59-5.3.6v10.45l5.3-.5Zm.68-.27-.39,0v10.75l.39,0Zm.77.15-.48-.12v10.69l.48,0Zm.21-.25h0l.58-.07Zm7.56-.53-7.47.82v10.46l7.47-.72Zm.72-.32-.43.05v10.8l.43,0Zm.82.16-.53-.13v10.75l.53-.05Zm8-.84-7.74.85v10.53l7.74-.74Zm.65-.29-.36,0v10.87l.36,0Zm.85.16-.55-.14v10.82l.55-.05Zm.15-.27,0,0,3-.33Zm7.72-.52-7.57.81v10.58l7.57-.73Z"/><path d="M678.14,331.86h0l-9.76-.88a.13.13,0,0,1-.13-.14v-5.31a.14.14,0,0,1,0-.11.19.19,0,0,1,.12,0l9.76,1.05a.15.15,0,0,1,.13.14v5.15a.12.12,0,0,1,0,.1A.18.18,0,0,1,678.14,331.86Zm-9.61-1.15,7.27.65V326.9l-7.27-.72Zm0-5v.2l7.42.73.71-.06Zm9.47,1-1.9.17v4.49l1.9.17Z"/><path d="M678.11,435.62h0l-9.7-.53a.15.15,0,0,1-.14-.15V429.6a.12.12,0,0,1,0-.1.12.12,0,0,1,.11,0l9.7.59a.14.14,0,0,1,.14.14v5.29a.12.12,0,0,1,0,.1A.13.13,0,0,1,678.11,435.62Zm-9.55-.82,7.2.41v-4.67l-7.2-.44Zm0-5.05v.06l7.34.45.37,0Zm9.41.6-1.92.18v4.69l1.92.11Z"/><path d="M678.15,539.47h0l-9.75-.27a.14.14,0,0,1-.14-.14v-5.34a.15.15,0,0,1,0-.11l.11,0,9.75.27a.16.16,0,0,1,.15.15v5.34a.14.14,0,0,1,0,.1A.13.13,0,0,1,678.15,539.47Zm-2.39-5.4-7.22-.2v5l7.22.2Zm2.24.06-2-.06v5.06l2,0Z"/><path d="M651.86,267.86,635.15,270h0a.16.16,0,0,1-.14-.14V259.34a.14.14,0,0,1,.12-.14l16.71-2.32a.14.14,0,0,1,.11,0,.16.16,0,0,1,.05.11v10.7A.14.14,0,0,1,651.86,267.86Zm-16.58,1.8,1.71-.21v-9.7l-1.71-.24Zm6.86-11.15-6,.83,1,.15,5-.74Zm0,.53-4.85.71v9.66l4.85-.61Zm2.27-.84-2,.27v10.29l2-.25Zm.29,10.28,1.75-.22v-9.77l-1.75-.29Zm7-11.29-6.18.86,1.08.18,5.1-.7Zm0,.63-5,.68v9.72l5-.62Z"/><path d="M651.83,318.32l-16.73,1.85h0a.18.18,0,0,1-.1,0,.16.16,0,0,1-.05-.11V309.57a.15.15,0,0,1,.13-.15l16.74-2a.15.15,0,0,1,.11,0,.14.14,0,0,1,.06.11v10.59A.14.14,0,0,1,651.83,318.32Zm-16.6,1.55,1.71-.19V310l-1.71-.23Zm6.92-11-5.92.7.86.11,5.06-.58Zm0,.52-4.91.56v9.69l4.91-.54Zm2.3-.8-2,.24v10.23l2-.22Zm.29,10.22,1.69-.19V308.9l-1.69-.29Zm6.93-11.07-6.06.72,1,.16,5.09-.65Zm0,.52-4.95.63v9.7l4.95-.55Z"/><path d="M651.92,368.87l-16.74,1.51h0a.15.15,0,0,1-.09,0,.16.16,0,0,1-.05-.11v-10.5a.15.15,0,0,1,.13-.14L651.89,358a.14.14,0,0,1,.11,0,.16.16,0,0,1,0,.11v10.57A.15.15,0,0,1,651.92,368.87Zm-16.61,1.21,1.66-.15v-9.74l-1.66-.29Zm6.87-10.87-5.93.56.87.15,5.06-.53Zm0,.47-4.92.52v9.7l4.92-.44Zm2.27-.68-2,.19v10.24l2-.18Zm.29,10.22,1.71-.15v-9.81l-1.71-.25Zm7-10.91-6,.56.79.12,5.17-.54Zm0,.43-5,.52v9.79l5-.46Z"/><path d="M651.85,419.49l-16.74,1.05h0a.18.18,0,0,1-.1,0,.16.16,0,0,1,0-.11V410a.14.14,0,0,1,.14-.14l16.74-1.24a.11.11,0,0,1,.11,0,.15.15,0,0,1,0,.11v10.59A.14.14,0,0,1,651.85,419.49Zm-16.61.75,1.81-.11v-9.77l-1.81-.2Zm6.93-10.62-5.51.41.54.06,5-.44Zm0,.32-4.82.42v9.75l4.82-.3Zm2.28-.49-2,.15v10.19l2-.13Zm.29,10.2,1.69-.11v-9.88l-1.69-.2Zm7-10.74-5.6.42.49.06,5.11-.41Zm0,.36-5,.39v9.86l5-.31Z"/><path d="M651.84,470l-16.64.79h0a.13.13,0,0,1-.1,0,.12.12,0,0,1-.05-.1V460.24a.14.14,0,0,1,.14-.14l16.64-1a.15.15,0,0,1,.11,0,.12.12,0,0,1,.05.1v10.58A.15.15,0,0,1,651.84,470Zm-14.92-9.44-1.58-.16v10.1l1.58-.08Zm5.21-.57-5.13.29h.07l5.06-.28Zm0,.31-4.92.27v9.84l4.92-.24Zm2.32-.45-2,.12v10.19l2-.1Zm.29,10.2,1.71-.08v-9.91l-1.71-.2Zm6.94-10.61-5.42.31.33,0,5.09-.32Zm0,.31-4.94.32V470l4.94-.24Z"/><path d="M651.84,520.52l-16.68.43h0a.13.13,0,0,1-.1,0,.14.14,0,0,1,0-.1V510.45a.15.15,0,0,1,.14-.15l16.68-.63a.16.16,0,0,1,.11.05.12.12,0,0,1,0,.1v10.55A.15.15,0,0,1,651.84,520.52Zm-14.88-10-1.66.07v10.07l1.66,0Zm5.15-.19-4.86.18v10.1l4.86-.13Zm2.34-.09-2,.08v10.15l2-.05Zm2-.07-1.74.06v10.19l1.74,0Zm5.21-.2-4.92.18v10.21l4.92-.13Z"/><path d="M651.86,571l-16.7.2h0a.13.13,0,0,1-.1,0,.14.14,0,0,1,0-.1V560.62a.15.15,0,0,1,.14-.15l16.7-.19a.22.22,0,0,1,.11.05.12.12,0,0,1,0,.1v10.44A.14.14,0,0,1,651.86,571ZM637,560.74l-1.69,0v10.16l1.69,0Zm5.12-.06-4.83.06V570.9l4.83-.06Zm2.34,0-2.05,0v10.16l2.05,0Zm2,0-1.72,0v10.16l1.72,0Zm5.25-.06-5,.06v10.16l5-.06Z"/><path d="M611.6,295.79l-4.32.47h0a.13.13,0,0,1-.1,0,.12.12,0,0,1,0-.1V257a.14.14,0,0,1,.13-.14l4.31-.66a.19.19,0,0,1,.12,0,.13.13,0,0,1,.05.11v39.3A.15.15,0,0,1,611.6,295.79Zm-4.18.17.87-.1V257.29l-.87-.12Zm4-39.45-3.16.49.17,0,3-.39Zm0,.41-2.84.37v38.54l2.84-.31Z"/><path d="M611.62,345.56l-4.29.34h0a.18.18,0,0,1-.1,0,.16.16,0,0,1-.05-.1V306.71a.15.15,0,0,1,.13-.14l4.29-.57a.18.18,0,0,1,.12,0,.15.15,0,0,1,0,.11v39.28A.13.13,0,0,1,611.62,345.56ZM608.28,307l-.82-.12V345.6l.82-.07Zm.06-.28h.09l1.58-.23Zm3.12-.14-2.89.42v38.51l2.89-.23Z"/><path d="M611.59,395.31l-4.31.27h0a.18.18,0,0,1-.1,0,.16.16,0,0,1,0-.11V356.36a.15.15,0,0,1,.14-.15l4.31-.41a.15.15,0,0,1,.11,0,.12.12,0,0,1,.05.1v39.23A.14.14,0,0,1,611.59,395.31Zm-3.28-38.67-.89-.12v38.76l.89,0Zm3.12-.54-2.11.2,2.11-.17Zm0,.32-2.83.23v38.56l2.83-.17Z"/><path d="M611.61,445.11l-4.28.22h0a.15.15,0,0,1-.1,0,.16.16,0,0,1-.05-.11V406a.14.14,0,0,1,.14-.14l4.28-.29a.15.15,0,0,1,.11,0,.16.16,0,0,1,0,.1V445A.14.14,0,0,1,611.61,445.11Zm-3.29-38.8-.86-.11V445l.86,0Zm3.13-.2-2.84.21V445l2.84-.15Z"/><path d="M611.61,494.8l-4.3.18h0a.15.15,0,0,1-.11,0,.15.15,0,0,1,0-.1V455.76a.15.15,0,0,1,.14-.15l4.29-.21a.21.21,0,0,1,.11,0,.16.16,0,0,1,0,.11v39.11A.14.14,0,0,1,611.61,494.8Zm-3.32-38.95-.84,0v38.8l.84,0Zm3.16-.15-2.87.14v38.8l2.87-.12Z"/><path d="M611.61,544.49l-4.3.16h0a.15.15,0,0,1-.11,0,.18.18,0,0,1,0-.1V505.44a.15.15,0,0,1,.14-.15l4.3-.16a.14.14,0,0,1,.11,0,.15.15,0,0,1,0,.11v39.08A.14.14,0,0,1,611.61,544.49Zm-3.32-38.95-.84,0v38.79l.84,0Zm3.17-.12-2.88.11v38.79l2.88-.11Z"/><path d="M611.61,594.32h-4.34a.15.15,0,0,1-.15-.14v-39a.16.16,0,0,1,.15-.15l4.33-.06a.15.15,0,0,1,.11,0,.13.13,0,0,1,0,.1v39.12A.14.14,0,0,1,611.61,594.32Zm-3.33-39.06h-.86V594h.86Zm3.18,0-2.89,0V594h2.89Z"/><path d="M221.39,349h0l-10.6-.7a.15.15,0,0,1-.14-.15v-5a.12.12,0,0,1,.05-.1.15.15,0,0,1,.11,0l10.6.89a.14.14,0,0,1,.13.15v4.83a.14.14,0,0,1-.14.14Zm-10.45-1,8.6.57V344.4l-8.6-.67Zm0-4.73v.13l8.74.68.34,0Zm10.3.9-1.41.18v4.24l1.41.09Z"/><path d="M221.36,446.2h0l-10.55-.45a.15.15,0,0,1-.14-.15v-5a.12.12,0,0,1,0-.1.15.15,0,0,1,.11,0l10.55.52a.15.15,0,0,1,.14.15v4.89a.12.12,0,0,1,0,.1A.12.12,0,0,1,221.36,446.2Zm-1.84-4.69-8.56-.45v4.41l8.56.37Zm.06-.29h0Zm1.64.11-1.4.17v4.35l1.4.06Z"/><path d="M221.35,543.4h0l-10.53-.12a.14.14,0,0,1-.14-.14v-5a.21.21,0,0,1,0-.1.15.15,0,0,1,.11,0l10.52.25a.15.15,0,0,1,.15.15v4.85a.14.14,0,0,1-.05.1A.12.12,0,0,1,221.35,543.4Zm-1.84-4.9-8.54-.2V543l8.54.09Zm1.7,0-1.41,0v4.59h1.41Z"/><path d="M195.86,289.07l-12.93,1.85h0a.16.16,0,0,1-.14-.14V281a.14.14,0,0,1,.12-.14l12.94-2a.13.13,0,0,1,.12,0,.16.16,0,0,1,.05.11v9.88A.14.14,0,0,1,195.86,289.07Zm-12.81,1.54,1.93-.28v-8.88l-1.93-.24Zm5.2-10.25-4.32.67,1.19.15,3.13-.59Zm0,.52-3,.57v8.84l3-.42Zm1.81-.79-1.51.23v9.5l1.51-.21Zm.29,9.48,1.89-.27v-8.95l-1.89-.27Zm5.34-10.35-4.5.69,1.19.17,3.31-.55Zm0,.6-3.16.53v8.91l3.16-.45Z"/><path d="M143.46,296.77l-12.28,1.75h0a.17.17,0,0,1-.1,0,.16.16,0,0,1-.05-.11v-9.63a.14.14,0,0,1,.12-.14l12.28-1.89a.12.12,0,0,1,.12,0,.13.13,0,0,1,.05.11v9.77A.14.14,0,0,1,143.46,296.77Zm-12.16,1.44,1.81-.25v-8.81l-1.81-.24Zm4.93-10.1-4,.63,1.08.14,3-.57Zm0,.5-2.82.53v8.77l2.82-.4Zm1.71-.76-1.42.22v9.4l1.42-.2Zm.29,9.37L140,297V288.1l-1.78-.25ZM143.29,287l-4.22.65,1.08.15,3.14-.52Zm0,.57-3,.5v8.83l3-.43Z"/><path d="M195.88,336.43,182.94,338h0a.11.11,0,0,1-.09,0,.1.1,0,0,1-.05-.1V328a.14.14,0,0,1,.12-.14l12.95-1.66a.11.11,0,0,1,.11,0,.16.16,0,0,1,0,.11v9.92A.14.14,0,0,1,195.88,336.43Zm-12.81,1.23,1.85-.22v-9l-1.85-.23Zm5.21-10.17-4.22.54,1,.13,3.22-.46Zm0,.5-3.07.44v9l3.07-.36Zm1.79-.73-1.5.19V337l1.5-.17Zm.29,9.53,1.86-.22v-9.11l-1.86-.2Zm5.36-10.26-4.29.55.94.11,3.35-.41Zm0,.54-3.2.39v9.08l3.2-.38Z"/><path d="M143.53,343l-12.28,1.45h0a.15.15,0,0,1-.15-.15v-9.6a.15.15,0,0,1,.13-.14L143.5,333a.11.11,0,0,1,.11,0,.16.16,0,0,1,0,.11v9.73A.14.14,0,0,1,143.53,343Zm-12.15,1.14,1.73-.2v-8.86l-1.73-.22Zm4.92-9.95-3.93.51.89.11,3-.44Zm0,.47-2.89.42v8.82l2.89-.34Zm1.71-.69-1.41.18v9.38l1.41-.17Zm.29,9.36,1.75-.21v-9l-1.75-.19Zm5.07-10.05-4,.52.84.09,3.17-.39Zm0,.51-3,.37v8.93l3-.36Z"/><path d="M195.85,383.69,182.93,385h0a.12.12,0,0,1-.1,0,.12.12,0,0,1,0-.1v-9.72a.15.15,0,0,1,.13-.15l12.91-1.44a.16.16,0,0,1,.12,0,.15.15,0,0,1,0,.11v9.85A.15.15,0,0,1,195.85,383.69Zm-12.78,1,1.83-.19v-9l-1.83-.19Zm5.23-10-4,.45.75.07,3.26-.39Zm0,.42-3.11.37v9l3.11-.31Zm1.8-.62-1.51.17v9.49l1.51-.15Zm.29,9.48,1.83-.19V374.7l-1.83-.23Zm5.29-10.1-4.21.47.9.11,3.31-.38Zm0,.49-3.17.36v9l3.17-.32Z"/><path d="M143.52,389.1l-12.2,1.23h0a.14.14,0,0,1-.1,0,.12.12,0,0,1,0-.1v-9.55a.13.13,0,0,1,.13-.14l12.2-1.37a.16.16,0,0,1,.12,0,.15.15,0,0,1,0,.11V389A.14.14,0,0,1,143.52,389.1Zm-12.07.93,1.72-.17V381l-1.72-.17Zm4.93-9.81-3.71.41.64.07,3.07-.38Zm0,.39-2.92.36v8.86l2.92-.3Zm1.7-.58-1.41.16v9.31l1.41-.14Zm.3,9.3,1.71-.17v-8.92l-1.71-.21Zm5-9.89-3.9.43.78.1,3.12-.36Zm0,.46-3,.34v8.89l3-.31Z"/><path d="M195.87,431.11l-13,1h0a.14.14,0,0,1-.1,0,.12.12,0,0,1,0-.1V422.2a.14.14,0,0,1,.13-.14l13-1.2a.15.15,0,0,1,.11,0,.12.12,0,0,1,0,.1v10A.15.15,0,0,1,195.87,431.11Zm-12.83.67,1.88-.14v-9.13l-1.88-.15Zm5.26-9.93-3.71.34.47,0,3.24-.33Zm0,.34-3.09.31v9.12l3.09-.23Zm1.81-.51-1.52.14v9.55l1.52-.12Zm.3,9.55,1.82-.14V421.9l-1.82-.22Zm5.31-10.07-4.07.38.73.08,3.34-.32Zm0,.43-3.19.31v9.17l3.19-.24Z"/><path d="M143.53,435.24l-12.33.93h0a.21.21,0,0,1-.1,0,.14.14,0,0,1,0-.1v-9.44a.15.15,0,0,1,.13-.15l12.33-1.14a.14.14,0,0,1,.11,0,.16.16,0,0,1,0,.11v9.66A.14.14,0,0,1,143.53,435.24Zm-12.19.63,1.77-.13v-8.86l-1.77-.14Zm5-9.62-3.44.33.36,0,3.08-.31Zm0,.33-2.93.3v8.84l2.93-.22Zm1.72-.48-1.43.13v9.24l1.43-.11Zm.3,9.24,1.72-.13V426.3l-1.72-.2Zm5-9.74-3.79.35.63.08,3.16-.31Zm0,.41-3,.29v8.89l3-.23Z"/><path d="M195.84,478.46l-12.89.7h0a.18.18,0,0,1-.1,0,.16.16,0,0,1-.05-.1v-9.75a.14.14,0,0,1,.14-.14l12.89-.84a.2.2,0,0,1,.11,0,.15.15,0,0,1,0,.11v9.88A.15.15,0,0,1,195.84,478.46Zm-10.94-8.92-1.81-.12v9.44l1.81-.1Zm3.4-.24-3.11.23v9.22l3.11-.17Zm1.81-.36-1.52.1v9.52l1.52-.08Zm2.18.09-1.89-.09v9.53l1.89-.11Zm3.39-.17-3.1.17v9.32l3.1-.17Z"/><path d="M143.5,481.46l-12.23.66h0a.13.13,0,0,1-.1,0,.12.12,0,0,1,0-.1v-9.45a.14.14,0,0,1,.14-.14l12.23-.8a.15.15,0,0,1,.11,0,.14.14,0,0,1,0,.1v9.58A.15.15,0,0,1,143.5,481.46Zm-10.39-8.67-1.7-.11v9.14l1.7-.09Zm3.22-.22-2.93.22v8.93l2.93-.16Zm1.72-.34-1.42.09v9.22l1.42-.08Zm2.07.08-1.77-.08v9.22l1.77-.1Zm3.22-.16-2.92.16v9l2.92-.17Z"/><path d="M195.85,525.87l-13,.31h0a.18.18,0,0,1-.1,0,.16.16,0,0,1-.05-.11V516.3a.16.16,0,0,1,.14-.15l13-.48a.16.16,0,0,1,.1.05.12.12,0,0,1,.05.1v9.9A.15.15,0,0,1,195.85,525.87Zm-10.95-9.5-1.87.07v9.45l1.87,0Zm3.36-.13-3.07.12v9.47l3.07-.07Zm1.85-.06-1.56.05v9.52l1.56,0Zm2.13-.08-1.84.06v9.55l1.84-.05Zm3.45-.13-3.16.12v9.57l3.16-.08Z"/><path d="M143.52,527.66l-12.4.3h0a.15.15,0,0,1-.1,0,.16.16,0,0,1-.05-.11v-9.39a.14.14,0,0,1,.14-.14l12.4-.46a.15.15,0,0,1,.11,0,.14.14,0,0,1,0,.1v9.55A.15.15,0,0,1,143.52,527.66ZM133,518.49l-1.78.07v9.11l1.78,0Zm3.22-.12-2.93.11v9.14l2.93-.07Zm1.76-.06-1.47.05v9.18l1.47,0Zm2-.08-1.74.07v9.2l1.74,0Zm3.31-.12-3,.11v9.23l3-.08Z"/><path d="M195.84,573.12l-12.91.11h0a.14.14,0,0,1-.14-.14v-9.75a.15.15,0,0,1,.14-.15l12.91-.23a.1.1,0,0,1,.1,0,.12.12,0,0,1,.05.1V573A.15.15,0,0,1,195.84,573.12ZM185,563.44l-1.89,0v9.46H185Zm3.29-.06-3,.06v9.49l3,0Zm1.82,0-1.53,0v9.52h1.53Zm2.16,0-1.86,0v9.54l1.86,0Zm3.45-.06-3.16.06v9.55l3.16,0Z"/><path d="M143.49,573.87l-12.35.1h0a.13.13,0,0,1-.1,0,.12.12,0,0,1,0-.1v-9.45a.14.14,0,0,1,.14-.14l12.35-.22a.1.1,0,0,1,.1,0,.14.14,0,0,1,0,.1v9.57A.15.15,0,0,1,143.49,573.87Zm-10.41-9.38-1.79,0v9.16h1.79Zm3.15,0-2.85,0v9.18l2.85,0Zm1.75,0-1.46,0v9.21H138Zm2.06,0-1.77,0v9.23l1.77,0Zm3.31-.06-3,.05v9.25l3,0Z"/><path d="M164.71,315l-3.34.51h0l-.09,0a.16.16,0,0,1-.05-.11V278.59a.14.14,0,0,1,.12-.14l3.35-.54a.14.14,0,0,1,.12,0,.16.16,0,0,1,.05.11v36.77A.14.14,0,0,1,164.71,315Zm-3.22.2.91-.14V278.86l-.91-.11Zm3-36.94-2.15.35.15,0,2-.31Zm0,.35-1.85.28V315l1.85-.28Z"/><path d="M164.7,361.64l-3.34.37h0a.14.14,0,0,1-.09,0,.13.13,0,0,1-.05-.11V325.14a.14.14,0,0,1,.12-.14l3.34-.42a.17.17,0,0,1,.12,0,.14.14,0,0,1,.05.11V361.5A.15.15,0,0,1,164.7,361.64Zm-3.21.07.9-.1V325.47l-.9-.16Zm3-36.82-2.19.28.2,0,2-.31Zm0,.29-1.85.29v36.1l1.85-.2Z"/><path d="M164.7,408.31l-3.36.24h0a.19.19,0,0,1-.1,0,.21.21,0,0,1,0-.11v-36.6a.15.15,0,0,1,.13-.14l3.36-.44a.12.12,0,0,1,.11,0,.12.12,0,0,1,.05.1v36.79A.14.14,0,0,1,164.7,408.31ZM162.4,372l-.93-.06v36.28l.93-.06Zm2.14-.21-1.84.21v36.14l1.84-.14Z"/><path d="M164.67,455l-3.32.1h0a.14.14,0,0,1-.1,0,.12.12,0,0,1,0-.1V418.37a.15.15,0,0,1,.13-.15l3.32-.24a.21.21,0,0,1,.11,0,.16.16,0,0,1,.05.11v36.75A.16.16,0,0,1,164.67,455Zm-2.3-36.59-.88.06v36.34l.88,0Zm2.14-.16-1.85.14V454.8l1.85-.06Z"/><path d="M164.67,501.66l-3.3.08h0a.13.13,0,0,1-.1,0,.12.12,0,0,1,0-.1V465a.15.15,0,0,1,.13-.14l3.31-.19a.15.15,0,0,1,.11,0,.13.13,0,0,1,0,.1v36.75A.15.15,0,0,1,164.67,501.66ZM162.36,465l-.85,0v36.36l.85,0Zm2.16-.12-1.87.1v36.4l1.87-.05Z"/><path d="M164.69,548.24l-3.34.07h0a.21.21,0,0,1-.1,0,.15.15,0,0,1,0-.11V511.51a.14.14,0,0,1,.14-.14l3.34-.11a.14.14,0,0,1,.11,0,.13.13,0,0,1,0,.1v36.69A.15.15,0,0,1,164.69,548.24Zm-2.31-36.62-.89,0V548l.89,0Zm2.16-.07-1.86.06V548l1.86,0Z"/><path d="M164.65,594.9l-3.22,0h0a.21.21,0,0,1-.11,0,.14.14,0,0,1,0-.1V558.12a.14.14,0,0,1,.15-.14l3.24-.07a.21.21,0,0,1,.1,0,.15.15,0,0,1,0,.11l0,36.69A.15.15,0,0,1,164.65,594.9Zm-2.27-36.65h-.81v36.39h.81Zm.29,0v36.4l1.83,0,0-36.41Z"/></g></g></svg>