<svg width="60" height="60" viewBox="0 0 60 60" fill="none" xmlns="http://www.w3.org/2000/svg">
<circle cx="30" cy="30" r="30" fill="#F2E9DA"/>
<g clip-path="url(#clip0_500_7103)">
<path d="M27.8571 22.5C27.8571 21.9083 28.3368 21.4286 28.9286 21.4286C29.5203 21.4286 30 21.9083 30 22.5V30H34.2857C34.8774 30 35.3571 30.4797 35.3571 31.0714C35.3571 31.6632 34.8774 32.1429 34.2857 32.1429H28.9286C28.3368 32.1429 27.8571 31.6632 27.8571 31.0714V22.5ZM30 45C38.2843 45 45 38.2843 45 30C45 21.7157 38.2843 15 30 15C21.7157 15 15 21.7157 15 30C15 38.2843 21.7157 45 30 45ZM30 42.8571C22.8992 42.8571 17.1429 37.1008 17.1429 30C17.1429 22.8992 22.8992 17.1429 30 17.1429C37.1008 17.1429 42.8571 22.8992 42.8571 30C42.8571 37.1008 37.1008 42.8571 30 42.8571Z" fill="#E7A133"/>
</g>
<defs>
<clipPath id="clip0_500_7103">
<rect width="30" height="30" fill="white" transform="translate(15 15)"/>
</clipPath>
</defs>
</svg>
