<svg width="60" height="60" viewBox="0 0 60 60" fill="none" xmlns="http://www.w3.org/2000/svg">
<circle cx="30" cy="30" r="30" fill="#EEEEEE"/>
<g clip-path="url(#clip0_160_944)">
<path d="M39.9001 24.3998C40.0001 24.1998 40.2001 23.9998 40.3001 23.8998C41.0001 23.1998 41.6001 22.5998 42.3001 21.8998C42.7001 21.4998 43.3001 21.4998 43.7001 21.8998C44.1001 22.2998 44.1001 22.7998 43.6001 23.2998C42.6001 24.2998 41.6001 25.2998 40.6001 26.2998C40.3001 26.5998 40.2001 26.7998 40.3001 27.1998C40.4001 28.3998 40.3001 29.4998 40.0001 30.6998C39.7001 31.6998 39.3001 32.7998 39.0001 33.7998H38.9001C39.0001 33.8998 39.1001 33.8998 39.2001 33.9998C40.8001 35.5998 42.4001 37.1998 44.0001 38.7998C45.5001 40.2998 45.5001 42.4998 44.1001 43.9998C42.6001 45.4998 40.2001 45.4998 38.8001 44.0998C37.2001 42.4998 35.6001 40.8998 34.0001 39.2998C33.9001 39.1998 33.9001 39.0998 33.8001 38.9998C26.5001 42.5998 18.3001 38.8998 15.8001 31.9998C13.4001 25.3998 16.9001 17.9998 23.5001 15.6998C30.8001 13.1998 38.0001 17.6998 39.9001 24.3998ZM36.4001 27.7998C36.9001 27.2998 37.3001 26.7998 37.8001 26.3998C38.2001 26.0998 38.2001 25.7998 38.1001 25.2998C36.9001 19.3998 30.9001 15.6998 25.0001 17.1998C19.6001 18.5998 16.1001 23.7998 17.0001 29.3998C17.9001 35.1998 23.5001 39.2998 29.2001 38.2998C33.8001 37.4998 36.7001 34.7998 38.0001 30.2998C38.2001 29.6998 38.2001 29.0998 38.3001 28.4998C38.2001 28.4998 38.2001 28.4998 38.2001 28.4998C37.8001 28.8998 37.5001 29.1998 37.1001 29.5998C36.6001 30.0998 36.1001 30.0998 35.6001 29.5998C34.7001 28.6998 33.8001 27.7998 32.9001 26.8998C32.8001 26.7998 32.7001 26.7998 32.6001 26.6998C31.5001 27.8998 30.3001 28.9998 29.2001 30.0998C28.7001 30.5998 28.2001 31.0998 27.7001 31.4998C27.3001 31.7998 27.0001 31.8998 26.6001 31.5998C26.4001 31.4998 26.2001 31.2998 26.0001 31.1998C25.6001 30.7998 25.3001 30.4998 25.0001 30.0998C24.8001 29.7998 24.5001 29.5998 24.2001 29.2998C24.1001 29.3998 24.0001 29.4998 24.0001 29.5998C23.1001 30.4998 22.2001 31.3998 21.2001 32.2998C21.0001 32.4998 20.8001 32.5998 20.5001 32.6998C20.1001 32.7998 19.7001 32.4998 19.6001 32.1998C19.4001 31.7998 19.5001 31.4998 19.8001 31.0998C21.0001 29.8998 22.1001 28.7998 23.3001 27.5998C23.9001 26.9998 24.4001 26.9998 25.0001 27.5998C25.6001 28.1998 26.3001 28.8998 27.0001 29.5998C27.1001 29.4998 27.1001 29.3998 27.2001 29.2998C28.7001 27.7998 30.2001 26.2998 31.7001 24.7998C32.2001 24.2998 32.7001 24.2998 33.2001 24.7998C33.8001 25.3998 34.5001 26.0998 35.1001 26.6998C35.7001 26.9998 36.0001 27.3998 36.4001 27.7998ZM35.2001 37.7998C36.8001 39.3998 38.4001 40.9998 40.0001 42.5998C40.4001 42.9998 41.0001 43.1998 41.6001 42.9998C43.0001 42.5998 43.5001 40.8998 42.5001 39.8998C41.0001 38.2998 39.4001 36.7998 37.9001 35.2998L37.8001 35.1998C36.9001 36.0998 36.0001 36.9998 35.2001 37.7998Z" fill="black"/>
</g>
<defs>
<clipPath id="clip0_160_944">
<rect width="30" height="29.9" fill="white" transform="translate(15 15)"/>
</clipPath>
</defs>
</svg>
