<svg width="24" height="24" viewBox="0 0 24 24" fill="none" xmlns="http://www.w3.org/2000/svg">
<path d="M12.001 9C11.2053 9 10.4423 9.31607 9.87968 9.87868C9.31707 10.4413 9.001 11.2044 9.001 12C9.001 12.7956 9.31707 13.5587 9.87968 14.1213C10.4423 14.6839 11.2053 15 12.001 15C12.7966 15 13.5597 14.6839 14.1223 14.1213C14.6849 13.5587 15.001 12.7956 15.001 12C15.001 11.2044 14.6849 10.4413 14.1223 9.87868C13.5597 9.31607 12.7966 9 12.001 9ZM12.001 7C13.3271 7 14.5989 7.52678 15.5365 8.46447C16.4742 9.40215 17.001 10.6739 17.001 12C17.001 13.3261 16.4742 14.5979 15.5365 15.5355C14.5989 16.4732 13.3271 17 12.001 17C10.6749 17 9.40315 16.4732 8.46547 15.5355C7.52778 14.5979 7.001 13.3261 7.001 12C7.001 10.6739 7.52778 9.40215 8.46547 8.46447C9.40315 7.52678 10.6749 7 12.001 7ZM18.501 6.75C18.501 7.08152 18.3693 7.39946 18.1349 7.63388C17.9005 7.8683 17.5825 8 17.251 8C16.9195 8 16.6015 7.8683 16.3671 7.63388C16.1327 7.39946 16.001 7.08152 16.001 6.75C16.001 6.41848 16.1327 6.10054 16.3671 5.86612C16.6015 5.6317 16.9195 5.5 17.251 5.5C17.5825 5.5 17.9005 5.6317 18.1349 5.86612C18.3693 6.10054 18.501 6.41848 18.501 6.75ZM12.001 4C9.527 4 9.123 4.007 7.972 4.058C7.188 4.095 6.662 4.2 6.174 4.39C5.76562 4.53994 5.39641 4.78026 5.094 5.093C4.78101 5.3954 4.54035 5.76458 4.39 6.173C4.2 6.663 4.095 7.188 4.059 7.971C4.007 9.075 4 9.461 4 12C4 14.475 4.007 14.878 4.058 16.029C4.095 16.812 4.2 17.339 4.389 17.826C4.559 18.261 4.759 18.574 5.091 18.906C5.428 19.242 5.741 19.443 6.171 19.609C6.665 19.8 7.191 19.906 7.971 19.942C9.075 19.994 9.461 20 12 20C14.475 20 14.878 19.993 16.029 19.942C16.811 19.905 17.337 19.8 17.826 19.611C18.234 19.4603 18.6031 19.2201 18.906 18.908C19.243 18.572 19.444 18.259 19.61 17.828C19.8 17.336 19.906 16.81 19.942 16.028C19.994 14.925 20 14.538 20 12C20 9.526 19.993 9.122 19.942 7.971C19.905 7.189 19.799 6.661 19.61 6.173C19.4593 5.76502 19.219 5.39598 18.907 5.093C18.6047 4.77985 18.2355 4.53917 17.827 4.389C17.337 4.199 16.811 4.094 16.029 4.058C14.926 4.006 14.541 4 12.001 4ZM12.001 2C14.718 2 15.057 2.01 16.124 2.06C17.188 2.11 17.914 2.277 18.551 2.525C19.211 2.779 19.767 3.123 20.323 3.678C20.8315 4.1779 21.225 4.78259 21.476 5.45C21.723 6.087 21.891 6.813 21.941 7.878C21.988 8.944 22.001 9.283 22.001 12C22.001 14.717 21.991 15.056 21.941 16.122C21.891 17.187 21.723 17.912 21.476 18.55C21.2256 19.2178 20.8321 19.8226 20.323 20.322C19.823 20.8303 19.2183 21.2238 18.551 21.475C17.914 21.722 17.188 21.89 16.124 21.94C15.057 21.987 14.718 22 12.001 22C9.284 22 8.945 21.99 7.878 21.94C6.814 21.89 6.089 21.722 5.451 21.475C4.78333 21.2245 4.17853 20.8309 3.679 20.322C3.17043 19.8222 2.77696 19.2175 2.526 18.55C2.278 17.913 2.111 17.187 2.061 16.122C2.013 15.056 2.001 14.717 2.001 12C2.001 9.283 2.011 8.944 2.061 7.878C2.111 6.812 2.278 6.088 2.526 5.45C2.77624 4.78218 3.1698 4.17732 3.679 3.678C4.17867 3.16923 4.78343 2.77573 5.451 2.525C6.088 2.277 6.813 2.11 7.878 2.06C8.945 2.013 9.284 2 12.001 2Z" fill="white"/>
</svg>
