<svg width="60" height="60" viewBox="0 0 60 60" fill="none" xmlns="http://www.w3.org/2000/svg">
<circle cx="30" cy="30" r="30" fill="#E0F2F1"/>
<path d="M24.9375 25.1494H18.1875C17.7897 25.1494 17.4081 24.9914 17.1268 24.7101C16.8455 24.4288 16.6875 24.0472 16.6875 23.6494V16.8994C16.6875 16.5016 16.8455 16.1201 17.1268 15.8388C17.4081 15.5574 17.7897 15.3994 18.1875 15.3994C18.5853 15.3994 18.9669 15.5574 19.2482 15.8388C19.5295 16.1201 19.6875 16.5016 19.6875 16.8994V22.1494H24.9375C25.3353 22.1494 25.7169 22.3074 25.9982 22.5888C26.2795 22.8701 26.4375 23.2516 26.4375 23.6494C26.4375 24.0472 26.2795 24.4288 25.9982 24.7101C25.7169 24.9914 25.3353 25.1494 24.9375 25.1494Z" fill="#004D40"/>
<path d="M43.4986 31.8993C43.1008 31.8993 42.7193 31.7413 42.438 31.46C42.1567 31.1787 41.9986 30.7971 41.9986 30.3993C41.9998 27.7586 41.1293 25.1914 39.5223 23.096C37.9153 21.0006 35.6616 19.4942 33.1109 18.8105C30.5602 18.1269 27.8552 18.3042 25.4157 19.315C22.9761 20.3258 20.9383 22.1135 19.6186 24.4008C19.4193 24.7451 19.0914 24.9962 18.707 25.0987C18.3226 25.2012 17.9132 25.1469 17.5689 24.9476C17.2246 24.7483 16.9735 24.4203 16.871 24.0359C16.7685 23.6515 16.8228 23.2421 17.0221 22.8978C18.6725 20.0392 21.2202 17.8051 24.2699 16.5422C27.3195 15.2792 30.7008 15.058 33.889 15.9129C37.0772 16.7678 39.8942 18.6509 41.9029 21.2702C43.9117 23.8895 44.9998 27.0985 44.9986 30.3993C44.9986 30.7971 44.8406 31.1787 44.5593 31.46C44.278 31.7413 43.8965 31.8993 43.4986 31.8993ZM41.8111 45.3993C41.4133 45.3993 41.0318 45.2413 40.7505 44.96C40.4692 44.6787 40.3111 44.2971 40.3111 43.8993V38.6493H35.0611C34.6633 38.6493 34.2818 38.4913 34.0005 38.21C33.7192 37.9287 33.5611 37.5471 33.5611 37.1493C33.5611 36.7515 33.7192 36.37 34.0005 36.0887C34.2818 35.8074 34.6633 35.6493 35.0611 35.6493H41.8111C42.209 35.6493 42.5905 35.8074 42.8718 36.0887C43.1531 36.37 43.3111 36.7515 43.3111 37.1493V43.8993C43.3111 44.2971 43.1531 44.6787 42.8718 44.96C42.5905 45.2413 42.209 45.3993 41.8111 45.3993Z" fill="#004D40"/>
<path d="M30 45.3994C26.0232 45.3946 22.2107 43.8128 19.3987 41.0008C16.5866 38.1887 15.0048 34.3762 15 30.3994C15 30.0016 15.158 29.6201 15.4393 29.3388C15.7206 29.0574 16.1022 28.8994 16.5 28.8994C16.8978 28.8994 17.2794 29.0574 17.5607 29.3388C17.842 29.6201 18 30.0016 18 30.3994C17.9989 33.0401 18.8693 35.6073 20.4764 37.7028C22.0834 39.7982 24.3371 41.3046 26.8877 41.9882C29.4384 42.6719 32.1434 42.4945 34.583 41.4837C37.0226 40.4729 39.0603 38.6852 40.38 36.3979C40.4787 36.2274 40.61 36.078 40.7664 35.9583C40.9228 35.8386 41.1013 35.7508 41.2916 35.7C41.482 35.6493 41.6804 35.6365 41.8757 35.6624C42.071 35.6883 42.2593 35.7525 42.4297 35.8512C42.6002 35.9499 42.7496 36.0812 42.8694 36.2376C42.9891 36.394 43.0769 36.5725 43.1276 36.7628C43.1784 36.9531 43.1912 37.1516 43.1653 37.3469C43.1393 37.5422 43.0752 37.7304 42.9765 37.9009C41.6573 40.1756 39.765 42.0649 37.4882 43.3806C35.2114 44.6962 32.6296 45.3923 30 45.3994Z" fill="#004D40"/>
</svg>
