<svg width="182" height="81" viewBox="0 0 182 81" fill="none" xmlns="http://www.w3.org/2000/svg">
<g clip-path="url(#clip0_141_1123)">
<path d="M80.2002 37.4602L82.6002 34.5802C83.8802 35.7002 85.6402 36.5002 87.2402 36.5002C89.0002 36.5002 89.9602 35.8602 89.9602 34.7402C89.9602 33.6202 88.8402 33.1402 87.2402 32.5002L84.8402 31.3802C82.9202 30.5802 81.0002 28.9802 81.0002 26.2602C81.0002 23.0602 83.8802 20.6602 87.7202 20.6602C89.9602 20.6602 92.2002 21.4602 93.8002 23.2202L91.5602 25.9402C90.2802 24.9802 89.1602 24.5002 87.5602 24.5002C86.1202 24.5002 85.1602 25.1402 85.1602 26.2602C85.1602 27.3802 86.4402 27.8602 88.0402 28.5002L90.4402 29.4602C92.6802 30.4202 94.2802 32.0202 94.2802 34.5802C94.2802 37.7802 91.7202 40.5002 87.0802 40.5002C84.8402 40.1802 82.1202 39.2202 80.2002 37.4602Z" fill="#36454F"/>
<path d="M106.44 20.8203H111.56L117.48 39.8603H113L110.44 30.2603C109.96 28.3403 109.48 26.1003 108.84 24.1803H108.68C108.2 26.2603 107.72 28.3403 107.24 30.2603L104.68 39.8603H100.36L106.44 20.8203ZM104.36 32.0203H113.48V35.3803H104.36V32.0203Z" fill="#36454F"/>
<path d="M124.521 20.8203H128.841V36.1803H136.36V39.7003H124.521V20.8203Z" fill="#36454F"/>
<path d="M143.72 31.0603V20.8203H148.04V31.3803C148.04 35.0603 149.16 36.3403 151.4 36.3403C153.48 36.3403 154.76 35.0603 154.76 31.3803V20.8203H158.92V31.0603C158.92 37.4603 156.36 40.1803 151.4 40.1803C146.44 40.1803 143.72 37.4603 143.72 31.0603Z" fill="#36454F"/>
<path d="M166.92 37.4602L169.32 34.5802C170.6 35.7002 172.36 36.5002 173.96 36.5002C175.72 36.5002 176.68 35.8602 176.68 34.7402C176.68 33.6202 175.56 33.1402 173.96 32.5002L171.56 31.3802C169.64 30.5802 167.72 28.9802 167.72 26.2602C167.72 23.0602 170.6 20.6602 174.44 20.6602C176.68 20.6602 178.92 21.4602 180.52 23.2202L178.28 25.9402C177 24.9802 175.88 24.5002 174.28 24.5002C172.84 24.5002 171.88 25.1402 171.88 26.2602C171.88 27.3802 173.16 27.8602 174.76 28.5002L177.16 29.4602C179.4 30.4202 181 32.0202 181 34.5802C181 37.7802 178.44 40.5002 173.8 40.5002C171.4 40.1802 168.84 39.2202 166.92 37.4602Z" fill="#36454F"/>
<path d="M80.2002 59.0602L81.1602 57.9402C82.1202 58.9002 83.4002 59.5402 84.6802 59.5402C86.4402 59.5402 87.4002 58.7402 87.4002 57.4602C87.4002 56.1802 86.4402 55.7002 85.3202 55.2202L83.4002 54.4202C82.2802 53.9402 80.8402 52.9802 80.8402 51.0602C80.8402 49.1402 82.6002 47.7002 84.8402 47.7002C86.4402 47.7002 87.7202 48.3402 88.6802 49.3002L87.8802 50.4202C87.0802 49.6202 86.1202 49.1402 85.0002 49.1402C83.5602 49.1402 82.6002 49.9402 82.6002 51.0602C82.6002 52.3402 83.7202 52.8202 84.6802 53.1402L86.4402 53.9402C87.8802 54.5802 89.1602 55.5402 89.1602 57.3002C89.1602 59.3802 87.5602 60.9802 84.8402 60.9802C82.9202 60.9802 81.3202 60.3402 80.2002 59.0602Z" fill="#36454F"/>
<path d="M100.04 49.3004H96.2002V47.8604H105.64V49.3004H101.64V60.8204H100.04V49.3004Z" fill="#36454F"/>
<path d="M113.96 47.8604H115.56V60.6603H113.96V47.8604Z" fill="#36454F"/>
<path d="M125.16 47.8604H126.76V59.3804H132.36V60.8204H125.16V47.8604Z" fill="#36454F"/>
<path d="M140.681 47.8604H142.281V59.3804H148.041V60.8204H140.841V47.8604H140.681Z" fill="#36454F"/>
<path d="M159.08 47.8604H161L165.32 60.6603H163.56L161.32 53.4603C160.84 52.0203 160.52 50.5804 160.04 49.1404C159.72 50.5804 159.24 52.0203 158.76 53.4603L156.52 60.6603H154.92L159.08 47.8604ZM157 55.5404H162.92V56.8204H157V55.5404Z" fill="#36454F"/>
<path d="M172.2 59.0602L173.16 57.9402C174.12 58.9002 175.4 59.5402 176.68 59.5402C178.44 59.5402 179.4 58.7402 179.4 57.4602C179.4 56.1802 178.44 55.7002 177.32 55.2202L175.4 54.4202C174.28 53.9402 172.84 52.9802 172.84 51.0602C172.84 49.1402 174.6 47.7002 176.84 47.7002C178.44 47.7002 179.72 48.3402 180.68 49.3002L179.88 50.4202C179.08 49.6202 178.12 49.1402 177 49.1402C175.56 49.1402 174.6 49.9402 174.6 51.0602C174.6 52.3402 175.72 52.8202 176.68 53.1402L178.44 53.9402C179.88 54.5802 181.16 55.5402 181.16 57.3002C181.16 59.3802 179.56 60.9802 176.84 60.9802C174.92 60.9802 173.32 60.3402 172.2 59.0602Z" fill="#36454F"/>
<path d="M4.03984 22.26V58.74L35.3998 76.82H35.5598V80.5H35.3998L0.839844 60.5V20.5L35.3998 0.5H35.5598V4.18H35.3998L4.03984 22.26Z" fill="#424242"/>
<path d="M70.1196 20.5V60.5L35.5596 80.5V76.82L66.9196 58.74V22.26L35.5596 4.18V0.5L70.1196 20.5Z" fill="#7A7A7A"/>
<path d="M6.28027 24.3399V58.0999L34.1203 73.6199V64.8199V26.8999L24.5203 35.8599V59.5399L22.2803 58.2599V37.7799L16.2003 43.0599V54.8999L13.8003 53.6199V28.6599L35.5603 16.1799V7.37988L6.28027 24.3399Z" fill="#424242"/>
<path d="M35.5605 7.37988V16.1799L57.1605 28.6599V53.6199L54.7605 54.8999V43.0599L48.6805 37.7799V58.2599L46.4405 59.5399V35.8599L36.8405 26.8999V64.8199V73.6199L64.6805 58.0999V24.3399L35.5605 7.37988Z" fill="#7A7A7A"/>
</g>
<defs>
<clipPath id="clip0_141_1123">
<rect width="180.32" height="80" fill="white" transform="translate(0.839844 0.5)"/>
</clipPath>
</defs>
</svg>
