<svg width="24" height="25" viewBox="0 0 24 25" fill="none" xmlns="http://www.w3.org/2000/svg">
<path d="M5.25 4.5H18.75C20.483 4.5 21.8992 5.85645 21.9949 7.56558L22 7.75V17.25C22 18.983 20.6435 20.3992 18.9344 20.4949L18.75 20.5H5.25C3.51697 20.5 2.10075 19.1435 2.00514 17.4344L2 17.25V7.75C2 6.01697 3.35645 4.60075 5.06558 4.50514L5.25 4.5H18.75H5.25ZM20.5 9.873L12.3493 14.1637C12.1619 14.2623 11.9431 14.2764 11.7468 14.206L11.6507 14.1637L3.5 9.874V17.25C3.5 18.1682 4.20711 18.9212 5.10647 18.9942L5.25 19H18.75C19.6682 19 20.4212 18.2929 20.4942 17.3935L20.5 17.25V9.873ZM18.75 6H5.25C4.33183 6 3.57881 6.70711 3.5058 7.60647L3.5 7.75V8.179L12 12.6525L20.5 8.178V7.75C20.5 6.83183 19.7929 6.07881 18.8935 6.0058L18.75 6Z" fill="#0072BB"/>
</svg>
