<svg xmlns="http://www.w3.org/2000/svg" width="30" height="30" viewBox="0 0 30 30" fill="none">
<g clip-path="url(#clip0_209_3740)">
<path d="M12.5 12.9167C12.5 14.9877 10.8211 16.6667 8.75 16.6667C6.67893 16.6667 5 14.9877 5 12.9167C5 10.8456 6.67893 9.16667 8.75 9.16667C10.8211 9.16667 12.5 10.8456 12.5 12.9167ZM10.4167 12.9167C10.4167 11.9962 9.67047 11.25 8.75 11.25C7.82953 11.25 7.08333 11.9962 7.08333 12.9167C7.08333 13.8371 7.82953 14.5833 8.75 14.5833C9.67047 14.5833 10.4167 13.8371 10.4167 12.9167ZM8.75 25.8333C10.8211 25.8333 12.5 24.1544 12.5 22.0833C12.5 20.0123 10.8211 18.3333 8.75 18.3333C6.67893 18.3333 5 20.0123 5 22.0833C5 24.1544 6.67893 25.8333 8.75 25.8333ZM8.75 23.75C7.82953 23.75 7.08333 23.0038 7.08333 22.0833C7.08333 21.1629 7.82953 20.4167 8.75 20.4167C9.67047 20.4167 10.4167 21.1629 10.4167 22.0833C10.4167 23.0038 9.67047 23.75 8.75 23.75ZM6.04167 5C5.46637 5 5 5.46637 5 6.04167C5 6.61696 5.46637 7.08333 6.04167 7.08333H23.9583C24.5336 7.08333 25 6.61696 25 6.04167C25 5.46637 24.5336 5 23.9583 5H6.04167ZM14.1667 13.125C14.1667 12.5497 14.633 12.0833 15.2083 12.0833H23.9583C24.5336 12.0833 25 12.5497 25 13.125C25 13.7003 24.5336 14.1667 23.9583 14.1667H15.2083C14.633 14.1667 14.1667 13.7003 14.1667 13.125ZM15.2083 20.8333C14.633 20.8333 14.1667 21.2997 14.1667 21.875C14.1667 22.4503 14.633 22.9167 15.2083 22.9167H23.9583C24.5336 22.9167 25 22.4503 25 21.875C25 21.2997 24.5336 20.8333 23.9583 20.8333H15.2083ZM5.20833 0C2.33185 0 0 2.33185 0 5.20833V24.7917C0 27.6682 2.33185 30 5.20833 30H24.7917C27.6682 30 30 27.6682 30 24.7917V5.20833C30 2.33185 27.6682 0 24.7917 0H5.20833ZM2.08333 5.20833C2.08333 3.48244 3.48244 2.08333 5.20833 2.08333H24.7917C26.5176 2.08333 27.9167 3.48244 27.9167 5.20833V24.7917C27.9167 26.5176 26.5176 27.9167 24.7917 27.9167H5.20833C3.48244 27.9167 2.08333 26.5176 2.08333 24.7917V5.20833Z" fill="#DB6334"/>
</g>
<defs>
<clipPath id="clip0_209_3740">
<rect width="30" height="30" fill="white"/>
</clipPath>
</defs>
</svg>