<svg width="61" height="61" viewBox="0 0 61 61" fill="none" xmlns="http://www.w3.org/2000/svg">
<circle cx="30.5" cy="30.5" r="30" fill="#F2E1DA"/>
<g clip-path="url(#clip0_450_8828)">
<path d="M28 28.4167C28 30.4877 26.3211 32.1667 24.25 32.1667C22.1789 32.1667 20.5 30.4877 20.5 28.4167C20.5 26.3456 22.1789 24.6667 24.25 24.6667C26.3211 24.6667 28 26.3456 28 28.4167ZM25.9167 28.4167C25.9167 27.4962 25.1705 26.75 24.25 26.75C23.3295 26.75 22.5833 27.4962 22.5833 28.4167C22.5833 29.3371 23.3295 30.0833 24.25 30.0833C25.1705 30.0833 25.9167 29.3371 25.9167 28.4167ZM24.25 41.3333C26.3211 41.3333 28 39.6544 28 37.5833C28 35.5123 26.3211 33.8333 24.25 33.8333C22.1789 33.8333 20.5 35.5123 20.5 37.5833C20.5 39.6544 22.1789 41.3333 24.25 41.3333ZM24.25 39.25C23.3295 39.25 22.5833 38.5038 22.5833 37.5833C22.5833 36.6629 23.3295 35.9167 24.25 35.9167C25.1705 35.9167 25.9167 36.6629 25.9167 37.5833C25.9167 38.5038 25.1705 39.25 24.25 39.25ZM21.5417 20.5C20.9664 20.5 20.5 20.9664 20.5 21.5417C20.5 22.117 20.9664 22.5833 21.5417 22.5833H39.4583C40.0336 22.5833 40.5 22.117 40.5 21.5417C40.5 20.9664 40.0336 20.5 39.4583 20.5H21.5417ZM29.6667 28.625C29.6667 28.0497 30.133 27.5833 30.7083 27.5833H39.4583C40.0336 27.5833 40.5 28.0497 40.5 28.625C40.5 29.2003 40.0336 29.6667 39.4583 29.6667H30.7083C30.133 29.6667 29.6667 29.2003 29.6667 28.625ZM30.7083 36.3333C30.133 36.3333 29.6667 36.7997 29.6667 37.375C29.6667 37.9503 30.133 38.4167 30.7083 38.4167H39.4583C40.0336 38.4167 40.5 37.9503 40.5 37.375C40.5 36.7997 40.0336 36.3333 39.4583 36.3333H30.7083ZM20.7083 15.5C17.8319 15.5 15.5 17.8319 15.5 20.7083V40.2917C15.5 43.1682 17.8319 45.5 20.7083 45.5H40.2917C43.1682 45.5 45.5 43.1682 45.5 40.2917V20.7083C45.5 17.8319 43.1682 15.5 40.2917 15.5H20.7083ZM17.5833 20.7083C17.5833 18.9824 18.9824 17.5833 20.7083 17.5833H40.2917C42.0176 17.5833 43.4167 18.9824 43.4167 20.7083V40.2917C43.4167 42.0176 42.0176 43.4167 40.2917 43.4167H20.7083C18.9824 43.4167 17.5833 42.0176 17.5833 40.2917V20.7083Z" fill="#DB6334"/>
</g>
<defs>
<clipPath id="clip0_450_8828">
<rect width="30" height="30" fill="white" transform="translate(15.5 15.5)"/>
</clipPath>
</defs>
</svg>
