<svg width="25" height="24" viewBox="0 0 25 24" fill="none" xmlns="http://www.w3.org/2000/svg">
<path d="M12.0703 17C12.6007 17 13.1095 17.2107 13.4845 17.5858C13.8596 17.9609 14.0703 18.4696 14.0703 19C14.0703 19.5304 13.8596 20.0391 13.4845 20.4142C13.1095 20.7893 12.6007 21 12.0703 21C11.5399 21 11.0312 20.7893 10.6561 20.4142C10.281 20.0391 10.0703 19.5304 10.0703 19C10.0703 18.4696 10.281 17.9609 10.6561 17.5858C11.0312 17.2107 11.5399 17 12.0703 17ZM12.0703 10C12.6007 10 13.1095 10.2107 13.4845 10.5858C13.8596 10.9609 14.0703 11.4696 14.0703 12C14.0703 12.5304 13.8596 13.0391 13.4845 13.4142C13.1095 13.7893 12.6007 14 12.0703 14C11.5399 14 11.0312 13.7893 10.6561 13.4142C10.281 13.0391 10.0703 12.5304 10.0703 12C10.0703 11.4696 10.281 10.9609 10.6561 10.5858C11.0312 10.2107 11.5399 10 12.0703 10ZM12.0703 3C12.6007 3 13.1095 3.21071 13.4845 3.58579C13.8596 3.96086 14.0703 4.46957 14.0703 5C14.0703 5.53043 13.8596 6.03914 13.4845 6.41421C13.1095 6.78929 12.6007 7 12.0703 7C11.5399 7 11.0312 6.78929 10.6561 6.41421C10.281 6.03914 10.0703 5.53043 10.0703 5C10.0703 4.46957 10.281 3.96086 10.6561 3.58579C11.0312 3.21071 11.5399 3 12.0703 3Z" fill="black"/>
</svg>
