<svg width="60" height="60" viewBox="0 0 60 60" fill="none" xmlns="http://www.w3.org/2000/svg">
<circle cx="30" cy="30" r="30" fill="#E1F5FE"/>
<path d="M23.8396 15C21.9164 15 20.3574 16.559 20.3574 18.4821V41.5179C20.3574 43.441 21.9164 45 23.8396 45H36.161C38.0841 45 39.6431 43.441 39.6431 41.5179V18.4821C39.6431 16.559 38.0841 15 36.161 15H23.8396ZM22.5003 18.4821C22.5003 17.7425 23.0999 17.1429 23.8396 17.1429H36.161C36.9007 17.1429 37.5003 17.7425 37.5003 18.4821V41.5179C37.5003 42.2575 36.9007 42.8571 36.161 42.8571H23.8396C23.0999 42.8571 22.5003 42.2575 22.5003 41.5179V18.4821ZM27.8574 38.5714C27.2657 38.5714 26.786 39.0511 26.786 39.6429C26.786 40.2346 27.2657 40.7143 27.8574 40.7143H32.1431C32.7349 40.7143 33.2146 40.2346 33.2146 39.6429C33.2146 39.0511 32.7349 38.5714 32.1431 38.5714H27.8574Z" fill="#01579B"/>
</svg>
