<svg xmlns="http://www.w3.org/2000/svg" viewBox="0 0 112.66 50"><defs><style>.cls-1{fill:#424242;}.cls-2{fill:#7a7a7a;}.cls-3{fill:#36454f;}</style></defs><g id="Layer_2" data-name="Layer 2"><g id="Layer_1-2" data-name="Layer 1"><polygon class="cls-1" points="1.98 13.64 1.98 36.36 21.65 47.72 21.65 47.71 21.65 49.99 21.65 50 0 37.5 0 12.5 21.65 0 21.65 0.01 21.65 2.29 21.65 2.28 1.98 13.64"/><polygon class="cls-2" points="43.3 12.5 43.3 37.5 21.65 49.99 21.65 47.71 41.32 36.36 41.32 13.64 21.65 2.29 21.65 0.01 43.3 12.5"/><polygon class="cls-1" points="3.37 14.87 3.37 35.98 20.83 45.69 20.83 40.18 20.83 16.54 14.8 22.13 14.8 36.86 13.36 36.07 13.36 23.29 9.64 26.6 9.64 34.04 8.14 33.23 8.14 17.62 21.65 9.82 21.65 4.31 3.37 14.87"/><polygon class="cls-2" points="21.65 4.31 21.65 9.82 35.16 17.62 35.16 33.23 33.66 34.04 33.66 26.6 29.94 23.29 29.94 36.07 28.5 36.86 28.5 22.13 22.47 16.54 22.47 40.18 22.47 45.69 39.93 35.98 39.93 14.87 21.65 4.31"/><path class="cls-3" d="M49.61,23l1.54-1.84a4.69,4.69,0,0,0,2.91,1.24c1.12,0,1.67-.44,1.67-1.14s-.67-1-1.71-1.41l-1.54-.66A3.46,3.46,0,0,1,50.09,16c0-2,1.75-3.53,4.22-3.53A5.52,5.52,0,0,1,58.13,14l-1.36,1.69a3.84,3.84,0,0,0-2.46-.92c-.93,0-1.51.38-1.51,1.06s.77,1,1.81,1.4l1.51.62a3.26,3.26,0,0,1,2.35,3.22c0,2-1.64,3.68-4.47,3.68A6.54,6.54,0,0,1,49.61,23Z"/><path class="cls-3" d="M66,12.67h3.21l3.72,11.86H70.08l-1.56-6c-.33-1.18-.64-2.59-1-3.82h-.07c-.29,1.25-.61,2.64-.94,3.82l-1.55,6H62.25Zm-1.27,7h5.71V21.7H64.71Z"/><path class="cls-3" d="M77.33,12.67H80v9.61H84.7v2.25H77.33Z"/><path class="cls-3" d="M89.3,19V12.67H92v6.64c0,2.32.73,3.12,2.06,3.12s2.1-.8,2.1-3.12V12.67h2.59V19c0,4-1.62,5.72-4.69,5.72S89.3,23,89.3,19Z"/><path class="cls-3" d="M103.8,23l1.54-1.84a4.67,4.67,0,0,0,2.91,1.24c1.12,0,1.67-.44,1.67-1.14s-.68-1-1.71-1.41l-1.55-.66A3.47,3.47,0,0,1,104.27,16c0-2,1.76-3.53,4.23-3.53A5.5,5.5,0,0,1,112.31,14L111,15.69a3.86,3.86,0,0,0-2.46-.92c-.93,0-1.52.38-1.52,1.06s.78,1,1.81,1.4l1.51.62a3.27,3.27,0,0,1,2.36,3.22c0,2-1.64,3.68-4.47,3.68A6.52,6.52,0,0,1,103.8,23Z"/><path d="M49.88,36.11a3.84,3.84,0,0,0,1.92.54c1.1,0,1.74-.58,1.74-1.42S53.1,34,52,33.58c-1.36-.48-2.2-1.18-2.2-2.35S50.86,29,52.47,29a3.78,3.78,0,0,1,1.84.41l-.3.87a3.27,3.27,0,0,0-1.58-.39c-1.13,0-1.56.67-1.56,1.24,0,.78.5,1.16,1.65,1.61,1.41.54,2.12,1.21,2.12,2.44s-1,2.39-2.91,2.39A4.35,4.35,0,0,1,49.61,37Z"/><path d="M63.15,37.14a5.22,5.22,0,0,1-2.19.4,3.88,3.88,0,0,1-4.11-4.21A4.13,4.13,0,0,1,61.19,29a4.38,4.38,0,0,1,2,.37l-.25.87a4.05,4.05,0,0,0-1.68-.34A3.09,3.09,0,0,0,58,33.3a3,3,0,0,0,3.19,3.34,4.29,4.29,0,0,0,1.75-.35Z"/><path d="M67.13,34.8l-.87,2.61H65.15L68,29.1h1.29l2.84,8.31H71l-.89-2.61ZM69.85,34,69,31.57c-.19-.54-.31-1-.43-1.52h0c-.12.5-.26,1-.42,1.51L67.35,34Z"/><path d="M74.57,29.1H79V30h-3.4v2.77h3.14v.88H75.64v3.76H74.57Z"/><path d="M81.81,29.1h4.47V30h-3.4v2.77H86v.88H82.88v3.76H81.81Z"/><path d="M96.15,33.17c0,2.86-1.74,4.38-3.86,4.38s-3.73-1.7-3.73-4.22S90.2,29,92.42,29,96.15,30.71,96.15,33.17Zm-6.45.14c0,1.77,1,3.36,2.65,3.36S95,35.11,95,33.22c0-1.65-.87-3.38-2.65-3.38S89.7,31.48,89.7,33.31Z"/><path d="M98.78,29.1h1.08v7.41h3.55v.9H98.78Z"/><path d="M105.84,29.22a15.07,15.07,0,0,1,2.28-.18,4.77,4.77,0,0,1,3.37,1,3.83,3.83,0,0,1,1.17,3,4.37,4.37,0,0,1-1.2,3.23,5.11,5.11,0,0,1-3.67,1.2,17.6,17.6,0,0,1-2-.1Zm1.07,7.34a6.63,6.63,0,0,0,1.09.07,3.2,3.2,0,0,0,3.54-3.53c0-2-1.1-3.21-3.37-3.21a6.26,6.26,0,0,0-1.26.11Z"/></g></g></svg>