<svg width="288" height="200" viewBox="0 0 288 200" fill="none" xmlns="http://www.w3.org/2000/svg">
<path d="M92 48.875C92 41.7736 97.7736 36 104.875 36H182.125C189.226 36 195 41.7736 195 48.875V113.25C195 120.351 189.226 126.125 182.125 126.125H104.875C97.7736 126.125 92 120.351 92 113.25V48.875ZM157.139 70.2998C156.234 68.9721 154.746 68.1875 153.156 68.1875C151.567 68.1875 150.058 68.9721 149.173 70.2998L131.671 95.9693L126.34 89.3105C125.415 88.1639 124.027 87.5 122.578 87.5C121.13 87.5 119.721 88.1639 118.816 89.3105L105.941 105.404C104.774 106.853 104.553 108.844 105.358 110.514C106.163 112.184 107.852 113.25 109.703 113.25H129.016H135.453H177.297C179.087 113.25 180.737 112.264 181.562 110.675C182.387 109.086 182.286 107.175 181.28 105.706L157.139 70.2998ZM114.531 68.1875C117.092 68.1875 119.548 67.1701 121.359 65.3593C123.17 63.5484 124.188 61.0922 124.188 58.5312C124.188 55.9703 123.17 53.5141 121.359 51.7033C119.548 49.8924 117.092 48.875 114.531 48.875C111.97 48.875 109.514 49.8924 107.703 51.7033C105.892 53.5141 104.875 55.9703 104.875 58.5312C104.875 61.0922 105.892 63.5484 107.703 65.3593C109.514 67.1701 111.97 68.1875 114.531 68.1875Z" fill="#0072BB"/>
<path d="M0 0H288V200H0V0Z" fill="#0072BB" fill-opacity="0.1"/>
<path d="M110.26 165H108.16L100.52 153.14H100.44C100.453 153.38 100.467 153.647 100.48 153.94C100.507 154.233 100.527 154.553 100.54 154.9C100.553 155.233 100.567 155.58 100.58 155.94C100.593 156.3 100.6 156.66 100.6 157.02V165H98.94V150.72H101.02L108.64 162.54H108.72C108.707 162.38 108.693 162.16 108.68 161.88C108.667 161.587 108.653 161.267 108.64 160.92C108.627 160.56 108.613 160.193 108.6 159.82C108.587 159.447 108.58 159.1 108.58 158.78V150.72H110.26V165ZM123.215 159.62C123.215 160.513 123.095 161.307 122.855 162C122.629 162.68 122.295 163.26 121.855 163.74C121.429 164.22 120.902 164.587 120.275 164.84C119.662 165.08 118.975 165.2 118.215 165.2C117.509 165.2 116.855 165.08 116.255 164.84C115.655 164.587 115.135 164.22 114.695 163.74C114.255 163.26 113.909 162.68 113.655 162C113.415 161.307 113.295 160.513 113.295 159.62C113.295 158.433 113.495 157.433 113.895 156.62C114.295 155.793 114.869 155.167 115.615 154.74C116.362 154.3 117.249 154.08 118.275 154.08C119.249 154.08 120.102 154.3 120.835 154.74C121.582 155.167 122.162 155.793 122.575 156.62C123.002 157.433 123.215 158.433 123.215 159.62ZM115.115 159.62C115.115 160.46 115.222 161.193 115.435 161.82C115.662 162.433 116.009 162.907 116.475 163.24C116.942 163.573 117.535 163.74 118.255 163.74C118.975 163.74 119.569 163.573 120.035 163.24C120.502 162.907 120.842 162.433 121.055 161.82C121.282 161.193 121.395 160.46 121.395 159.62C121.395 158.767 121.282 158.04 121.055 157.44C120.829 156.84 120.482 156.38 120.015 156.06C119.562 155.727 118.969 155.56 118.235 155.56C117.142 155.56 116.349 155.92 115.855 156.64C115.362 157.36 115.115 158.353 115.115 159.62ZM135.46 165H130.3V163.96L131.98 163.58V152.16L130.3 151.76V150.72H135.46V151.76L133.78 152.16V163.58L135.46 163.96V165ZM149.737 154.08C150.951 154.08 151.857 154.393 152.457 155.02C153.057 155.633 153.357 156.633 153.357 158.02V165H151.617V158.1C151.617 157.26 151.437 156.627 151.077 156.2C150.731 155.773 150.184 155.56 149.437 155.56C148.397 155.56 147.651 155.86 147.197 156.46C146.757 157.06 146.537 157.933 146.537 159.08V165H144.797V158.1C144.797 157.54 144.717 157.073 144.557 156.7C144.397 156.313 144.157 156.027 143.837 155.84C143.517 155.653 143.104 155.56 142.597 155.56C141.877 155.56 141.311 155.713 140.897 156.02C140.484 156.313 140.184 156.747 139.997 157.32C139.824 157.893 139.737 158.6 139.737 159.44V165H137.977V154.28H139.397L139.657 155.74H139.757C139.984 155.367 140.257 155.06 140.577 154.82C140.911 154.567 141.277 154.38 141.677 154.26C142.077 154.14 142.491 154.08 142.917 154.08C143.744 154.08 144.431 154.227 144.977 154.52C145.537 154.813 145.944 155.267 146.197 155.88H146.297C146.657 155.267 147.144 154.813 147.757 154.52C148.384 154.227 149.044 154.08 149.737 154.08ZM160.729 154.1C162.035 154.1 163.002 154.387 163.629 154.96C164.255 155.533 164.569 156.447 164.569 157.7V165H163.289L162.949 163.48H162.869C162.562 163.867 162.242 164.193 161.909 164.46C161.589 164.713 161.215 164.9 160.789 165.02C160.375 165.14 159.869 165.2 159.269 165.2C158.629 165.2 158.049 165.087 157.529 164.86C157.022 164.633 156.622 164.287 156.329 163.82C156.035 163.34 155.889 162.74 155.889 162.02C155.889 160.953 156.309 160.133 157.149 159.56C157.989 158.973 159.282 158.653 161.029 158.6L162.849 158.54V157.9C162.849 157.007 162.655 156.387 162.269 156.04C161.882 155.693 161.335 155.52 160.629 155.52C160.069 155.52 159.535 155.607 159.029 155.78C158.522 155.94 158.049 156.127 157.609 156.34L157.069 155.02C157.535 154.767 158.089 154.553 158.729 154.38C159.369 154.193 160.035 154.1 160.729 154.1ZM161.249 159.82C159.915 159.873 158.989 160.087 158.469 160.46C157.962 160.833 157.709 161.36 157.709 162.04C157.709 162.64 157.889 163.08 158.249 163.36C158.622 163.64 159.095 163.78 159.669 163.78C160.575 163.78 161.329 163.533 161.929 163.04C162.529 162.533 162.829 161.76 162.829 160.72V159.76L161.249 159.82ZM171.68 154.08C172.386 154.08 173.02 154.213 173.58 154.48C174.153 154.747 174.64 155.153 175.04 155.7H175.14L175.38 154.28H176.78V165.18C176.78 166.193 176.606 167.04 176.26 167.72C175.913 168.413 175.386 168.933 174.68 169.28C173.973 169.627 173.073 169.8 171.98 169.8C171.206 169.8 170.493 169.74 169.84 169.62C169.2 169.513 168.626 169.347 168.12 169.12V167.5C168.466 167.673 168.846 167.82 169.26 167.94C169.673 168.073 170.12 168.173 170.6 168.24C171.08 168.307 171.573 168.34 172.08 168.34C173 168.34 173.72 168.067 174.24 167.52C174.773 166.987 175.04 166.253 175.04 165.32V164.9C175.04 164.74 175.046 164.513 175.06 164.22C175.073 163.913 175.086 163.7 175.1 163.58H175.02C174.646 164.127 174.18 164.533 173.62 164.8C173.073 165.067 172.433 165.2 171.7 165.2C170.313 165.2 169.226 164.713 168.44 163.74C167.666 162.767 167.28 161.407 167.28 159.66C167.28 158.513 167.453 157.527 167.8 156.7C168.16 155.86 168.666 155.213 169.32 154.76C169.973 154.307 170.76 154.08 171.68 154.08ZM171.92 155.56C171.32 155.56 170.806 155.72 170.38 156.04C169.966 156.36 169.646 156.827 169.42 157.44C169.206 158.053 169.1 158.8 169.1 159.68C169.1 161 169.34 162.013 169.82 162.72C170.313 163.413 171.026 163.76 171.96 163.76C172.506 163.76 172.973 163.693 173.36 163.56C173.746 163.413 174.066 163.193 174.32 162.9C174.573 162.593 174.76 162.207 174.88 161.74C175 161.273 175.06 160.72 175.06 160.08V159.66C175.06 158.687 174.946 157.9 174.72 157.3C174.506 156.7 174.166 156.26 173.7 155.98C173.233 155.7 172.64 155.56 171.92 155.56ZM184.324 154.08C185.244 154.08 186.031 154.28 186.684 154.68C187.351 155.08 187.858 155.647 188.204 156.38C188.564 157.1 188.744 157.947 188.744 158.92V159.98H181.404C181.431 161.193 181.738 162.12 182.324 162.76C182.924 163.387 183.758 163.7 184.824 163.7C185.504 163.7 186.104 163.64 186.624 163.52C187.158 163.387 187.704 163.2 188.264 162.96V164.5C187.718 164.74 187.178 164.913 186.644 165.02C186.111 165.14 185.478 165.2 184.744 165.2C183.731 165.2 182.831 164.993 182.044 164.58C181.271 164.167 180.664 163.553 180.224 162.74C179.798 161.913 179.584 160.907 179.584 159.72C179.584 158.547 179.778 157.54 180.164 156.7C180.564 155.86 181.118 155.213 181.824 154.76C182.544 154.307 183.378 154.08 184.324 154.08ZM184.304 155.52C183.464 155.52 182.798 155.793 182.304 156.34C181.824 156.873 181.538 157.62 181.444 158.58H186.904C186.904 157.967 186.811 157.433 186.624 156.98C186.438 156.527 186.151 156.173 185.764 155.92C185.391 155.653 184.904 155.52 184.304 155.52Z" fill="#0072BB"/>
</svg>
