<svg width="60" height="60" viewBox="0 0 60 60" fill="none" xmlns="http://www.w3.org/2000/svg">
<circle cx="30" cy="30" r="30" fill="#FFFFFF"/>
<g clip-path="url(#clip0_500_7145)">
<path d="M15 38.6998C15 32.8998 15 27.0998 15 21.2998C15.2 20.2998 16 19.7998 17.2 19.7998C22.2 19.7998 27.2 19.7998 32.2 19.7998C35.8 19.7998 39.4 19.7998 43 19.7998C43.3 19.7998 43.7 19.8998 44 19.9998C44.6 20.1998 44.8 20.6998 45 21.2998C45 27.0998 45 32.8998 45 38.5998C44.8 39.5998 44 40.0998 42.8 40.0998C37.8 40.0998 32.8 40.0998 27.8 40.0998C24.2 40.0998 20.6 40.0998 17 40.0998C16.7 40.0998 16.3 39.9998 16 39.8998C15.4 39.7998 15.2 39.2998 15 38.6998ZM16.2 28.1998C16.2 28.2998 16.2 28.3998 16.2 28.4998C16.2 31.6998 16.2 34.8998 16.2 38.0998C16.2 38.7998 16.4 38.9998 17.1 38.9998C25.7 38.9998 34.4 38.9998 43 38.9998C43.7 38.9998 43.9 38.7998 43.9 38.0998C43.9 34.8998 43.9 31.6998 43.9 28.4998C43.9 28.3998 43.9 28.2998 43.9 28.1998C34.6 28.1998 25.4 28.1998 16.2 28.1998ZM43.8 24.5998C43.8 24.4998 43.8 24.3998 43.8 24.2998C43.8 23.4998 43.8 22.5998 43.8 21.7998C43.8 21.1998 43.6 20.9998 43 20.9998C34.3 20.9998 25.7 20.9998 17 20.9998C16.4 20.9998 16.2 21.1998 16.2 21.7998C16.2 22.5998 16.2 23.4998 16.2 24.2998C16.2 24.3998 16.2 24.4998 16.2 24.5998C25.4 24.5998 34.6 24.5998 43.8 24.5998Z" fill="#0072BB"/>
<path d="M25.7999 31.7998C27.4999 31.7998 29.1999 31.7998 30.9999 31.7998C31.0999 31.7998 31.1999 31.7998 31.3999 31.7998C31.6999 31.7998 31.8999 32.0998 31.8999 32.3998C31.8999 32.6998 31.6999 32.8998 31.3999 32.9998C31.2999 32.9998 31.1999 32.9998 31.0999 32.9998C27.5999 32.9998 24.1999 32.9998 20.6999 32.9998C20.5999 32.9998 20.4999 32.9998 20.3999 32.9998C20.0999 32.9998 19.8999 32.6998 19.8999 32.3998C19.8999 32.0998 20.0999 31.8998 20.3999 31.7998C20.4999 31.7998 20.5999 31.7998 20.7999 31.7998C22.3999 31.7998 24.0999 31.7998 25.7999 31.7998Z" fill="#0072BB"/>
<path d="M23.3999 35.4002C22.3999 35.4002 21.4999 35.4002 20.4999 35.4002C20.0999 35.4002 19.8999 35.2002 19.7999 34.9002C19.6999 34.6002 19.8999 34.3002 20.2999 34.2002C20.3999 34.2002 20.4999 34.2002 20.5999 34.2002C22.4999 34.2002 24.3999 34.2002 26.1999 34.2002H26.2999C26.6999 34.2002 26.9999 34.4002 26.9999 34.8002C26.9999 35.1002 26.6999 35.4002 26.2999 35.4002C25.2999 35.4002 24.3999 35.4002 23.3999 35.4002Z" fill="#0072BB"/>
</g>
<defs>
<clipPath id="clip0_500_7145">
<rect width="30" height="20.4" fill="white" transform="translate(15 19.7998)"/>
</clipPath>
</defs>
</svg>
