<svg width="60" height="60" viewBox="0 0 60 60" fill="none" xmlns="http://www.w3.org/2000/svg">
<circle cx="30" cy="30" r="30" fill="#EEEEEE"/>
<g clip-path="url(#clip0_160_889)">
<path d="M36.1498 15C36.2498 15 36.4498 15.1 36.5498 15.1C38.7498 15.6 40.3498 17.4 40.3498 19.8C40.3498 22.1 40.3498 24.5 40.3498 26.8C40.3498 27.4 40.0498 27.9 39.5498 28C39.0498 28.2 38.5498 28 38.2498 27.6C38.1498 27.3 38.0498 27 38.0498 26.7C38.0498 24.4 38.0498 22.2 38.0498 19.9C38.0498 19.1 37.7498 18.4 37.1498 17.8C36.7498 17.5 36.2498 17.3 35.6498 17.3C30.8498 17.3 26.0498 17.3 21.3498 17.3C20.0498 17.3 19.0498 18.2 18.9498 19.6C18.9498 19.7 18.9498 19.8 18.9498 19.9C18.9498 26.6 18.9498 33.3 18.9498 40.1C18.9498 41.1 19.3498 42 20.2498 42.4C20.5498 42.6 21.0498 42.6 21.4498 42.6C22.6498 42.6 23.9498 42.6 25.1498 42.6C25.6498 42.6 26.1498 42.9 26.2498 43.4C26.4498 43.9 26.2498 44.4 25.9498 44.7C25.7498 44.8 25.5498 44.9 25.4498 45C23.8498 45 22.3498 45 20.7498 45C20.6498 45 20.5498 45 20.4498 44.9C18.5498 44.7 16.8498 43 16.6498 41.1C16.5498 40.3 16.5498 39.5 16.5498 38.6C16.5498 32.3 16.5498 26.1 16.5498 19.8C16.5498 17.3 18.2498 15.4 20.3498 15C20.4498 15.1 20.6498 15 20.7498 15C25.8498 15 31.0498 15 36.1498 15Z" fill="black"/>
<path d="M30.1499 45.0001C29.4499 44.7001 29.1499 44.1001 29.3499 43.5001C29.7499 42.0001 30.2499 40.5001 30.7499 38.9001C30.8499 38.7001 30.9499 38.5001 31.1499 38.3001C33.2499 36.2001 35.3499 34.1001 37.4499 32.0001C38.4499 31.0001 39.6499 30.7001 41.0499 31.1001C42.3499 31.5001 43.1499 32.5001 43.4499 33.8001C43.6499 34.9001 43.3499 35.8001 42.6499 36.7001C42.5499 36.9001 42.3499 37.0001 42.1499 37.2001C40.1499 39.2001 38.1499 41.2001 36.2499 43.1001C35.9499 43.4001 35.6499 43.5001 35.3499 43.6001C33.8499 44.0001 32.2499 44.5001 30.7499 44.9001C30.4499 45.0001 30.3499 45.0001 30.1499 45.0001ZM37.1499 35.5001C37.1499 35.6001 37.0499 35.7001 36.9499 35.7001C35.7499 36.9001 34.5499 38.1001 33.3499 39.3001C32.9499 39.7001 32.7499 40.0001 32.5499 40.5001C32.4499 41.0001 32.2499 41.5001 32.0499 42.1001C32.7499 41.9001 33.4499 41.7001 34.1499 41.5001C34.3499 41.4001 34.4499 41.4001 34.6499 41.2001C35.6499 40.2001 36.7499 39.1001 37.7499 38.1001C38.0499 37.8001 38.4499 37.4001 38.7499 37.1001C38.2499 36.6001 37.7499 36.1001 37.1499 35.5001ZM38.9499 33.8001C39.5499 34.4001 40.0499 34.9001 40.5499 35.4001C40.9499 35.1001 41.1499 34.7001 41.0499 34.1001C40.9499 33.6001 40.6499 33.3001 40.1499 33.2001C39.6499 33.2001 39.2499 33.4001 38.9499 33.8001Z" fill="black"/>
<path d="M28.45 22C30.45 22 32.45 22 34.45 22C35.35 22 35.85 22.8 35.55 23.6C35.35 24.1 35.05 24.3 34.55 24.4C34.35 24.4 34.15 24.4 33.95 24.4C30.15 24.4 26.35 24.4 22.55 24.4C21.75 24.4 21.25 23.9 21.25 23.2C21.25 22.5 21.75 22 22.45 22C24.05 22 25.65 22 27.25 22C27.65 22 28.05 22 28.45 22Z" fill="black"/>
<path d="M28.45 29.0998C26.45 29.0998 24.45 29.0998 22.45 29.0998C21.65 29.0998 21.15 28.4998 21.25 27.7998C21.35 27.2998 21.75 26.8998 22.25 26.7998C22.35 26.7998 22.35 26.7998 22.45 26.7998C26.45 26.7998 30.35 26.7998 34.35 26.7998C35.05 26.7998 35.55 27.2998 35.55 27.8998C35.55 28.5998 35.05 29.0998 34.35 29.0998C32.95 29.0998 31.55 29.0998 30.15 29.0998C29.65 29.0998 29.05 29.0998 28.45 29.0998Z" fill="black"/>
<path d="M26.0499 31.3998C27.2499 31.3998 28.4499 31.3998 29.6499 31.3998C30.1499 31.3998 30.6499 31.6998 30.7499 32.1998C30.8499 32.6998 30.7499 33.1998 30.3499 33.4998C30.1499 33.5998 29.8499 33.6998 29.6499 33.6998C27.2499 33.6998 24.8499 33.6998 22.3499 33.6998C21.6499 33.6998 21.1499 33.1998 21.1499 32.4998C21.1499 31.7998 21.6499 31.2998 22.3499 31.2998C23.6499 31.3998 24.8499 31.3998 26.0499 31.3998Z" fill="black"/>
</g>
<defs>
<clipPath id="clip0_160_889">
<rect width="26.9" height="30" fill="white" transform="translate(16.5498 15)"/>
</clipPath>
</defs>
</svg>
