<svg width="40" height="40" viewBox="0 0 40 40" fill="none" xmlns="http://www.w3.org/2000/svg">
<g id="file-type-pdf2 1">
<path id="Vector" d="M30.1249 2.58984L37.0799 9.83984V37.4098H11.0986V37.4998H37.1686V9.93109L30.1249 2.58984Z" fill="#CCCCCC"/>
<path id="Vector_2" d="M30.0388 2.5H11.01V37.41H37.08V9.84125L30.0388 2.5Z" fill="#F4F4F4"/>
<path id="Vector_3" d="M10.8188 4.375H2.8313V12.9087H27.9563V4.375H10.8188Z" fill="#7A7B7C"/>
<path id="Vector_4" d="M28.0899 12.7636H2.99365V4.22363H28.0899V12.7636Z" fill="#DD2025"/>
<path id="Vector_5" d="M11.3149 5.66736H9.68115V11.6674H10.9662V9.64362L11.2499 9.65986C11.5256 9.65512 11.7987 9.60573 12.0587 9.51361C12.2865 9.43524 12.4962 9.3115 12.6749 9.14986C12.8568 8.99589 13.0002 8.80156 13.0937 8.58237C13.219 8.21799 13.2638 7.83074 13.2249 7.44736C13.2171 7.1735 13.1691 6.90227 13.0824 6.64236C13.0035 6.45475 12.8864 6.28561 12.7385 6.14573C12.5907 6.00585 12.4153 5.89828 12.2237 5.82986C12.0579 5.76986 11.8867 5.72632 11.7124 5.69986C11.5804 5.6795 11.4472 5.66864 11.3137 5.66736M11.0774 8.53486H10.9662V6.68486H11.2074C11.3139 6.67719 11.4207 6.69353 11.52 6.73269C11.6193 6.77185 11.7086 6.83283 11.7812 6.91111C11.9316 7.11238 12.0119 7.35737 12.0099 7.60861C12.0099 7.91611 12.0099 8.19486 11.7324 8.39111C11.5325 8.50107 11.3049 8.55183 11.0774 8.53486ZM15.6662 5.65111C15.5274 5.65111 15.3924 5.66111 15.2974 5.66486L14.9999 5.67236H14.0249V11.6724H15.1724C15.6109 11.6844 16.0475 11.6101 16.4574 11.4536C16.7873 11.3228 17.0794 11.1118 17.3074 10.8399C17.5291 10.5654 17.6882 10.2459 17.7737 9.90361C17.8719 9.51595 17.9197 9.11726 17.9162 8.71736C17.9404 8.24506 17.9038 7.7716 17.8074 7.30861C17.7159 6.96782 17.5445 6.65373 17.3074 6.39236C17.1214 6.18132 16.8937 6.01108 16.6387 5.89236C16.4196 5.79101 16.1892 5.71631 15.9524 5.66986C15.8582 5.65431 15.7628 5.6472 15.6674 5.64861M15.4399 10.5699H15.3149V6.73986H15.3312C15.5889 6.71021 15.8496 6.75671 16.0812 6.87361C16.2507 7.00902 16.3889 7.17961 16.4862 7.37361C16.5911 7.57778 16.6516 7.80187 16.6637 8.03111C16.6749 8.30611 16.6637 8.53111 16.6637 8.71736C16.6687 8.93191 16.6549 9.14649 16.6224 9.35861C16.5839 9.5764 16.5127 9.78711 16.4112 9.98361C16.2963 10.1663 16.141 10.3202 15.9574 10.4336C15.8032 10.5334 15.6206 10.5799 15.4374 10.5661M21.7874 5.67236H18.7499V11.6724H20.0349V9.29236H21.6599V8.17736H20.0349V6.78736H21.7849V5.67236" fill="#464648"/>
<path id="Vector_6" d="M27.2264 25.3189C27.2264 25.3189 31.2114 24.5964 31.2114 25.9576C31.2114 27.3189 28.7426 26.7651 27.2264 25.3189ZM24.2801 25.4226C23.647 25.5625 23.03 25.7674 22.4389 26.0339L22.9389 24.9089C23.4389 23.7839 23.9576 22.2501 23.9576 22.2501C24.5542 23.2543 25.2484 24.1972 26.0301 25.0651C25.4406 25.153 24.8564 25.2732 24.2801 25.4251V25.4226ZM22.7026 17.2976C22.7026 16.1114 23.0864 15.7876 23.3851 15.7876C23.6839 15.7876 24.0201 15.9314 24.0314 16.9614C23.934 17.9971 23.7172 19.018 23.3851 20.0039C22.9303 19.1762 22.6949 18.2458 22.7014 17.3014L22.7026 17.2976ZM16.8914 30.4426C15.6689 29.7114 19.4551 27.4601 20.1414 27.3876C20.1376 27.3889 18.1714 31.2076 16.8914 30.4426ZM32.3751 26.1189C32.3626 25.9939 32.2501 24.6101 29.7876 24.6689C28.7612 24.6523 27.7353 24.7247 26.7214 24.8851C25.7392 23.8956 24.8934 22.7795 24.2064 21.5664C24.6392 20.3157 24.9011 19.0122 24.9851 17.6914C24.9489 16.1914 24.5901 15.3314 23.4401 15.3439C22.2901 15.3564 22.1226 16.3626 22.2739 17.8601C22.422 18.8664 22.7015 19.849 23.1051 20.7826C23.1051 20.7826 22.5739 22.4364 21.8714 24.0814C21.1689 25.7264 20.6889 26.5889 20.6889 26.5889C19.4673 26.9866 18.3173 27.5774 17.2826 28.3389C16.2526 29.2976 15.8339 30.0339 16.3764 30.7701C16.8439 31.4051 18.4801 31.5489 19.9426 29.6326C20.7197 28.6429 21.4296 27.6022 22.0676 26.5176C22.0676 26.5176 24.2976 25.9064 24.9914 25.7389C25.6851 25.5714 26.5239 25.4389 26.5239 25.4389C26.5239 25.4389 28.5601 27.4876 30.5239 27.4151C32.4876 27.3426 32.3926 26.2414 32.3801 26.1214" fill="#DD2025"/>
<path id="Vector_7" d="M29.9424 2.59619V9.93744H36.9836L29.9424 2.59619Z" fill="#CCCCCC"/>
<path id="Vector_8" d="M30.0388 2.5V9.84125H37.0801L30.0388 2.5Z" fill="#F4F4F4"/>
<path id="Vector_9" d="M11.2187 5.57117H9.58496V11.5712H10.875V9.54867L11.16 9.56492C11.4357 9.56018 11.7088 9.51079 11.9687 9.41867C12.1966 9.34026 12.4062 9.21653 12.585 9.05492C12.7655 8.90053 12.9076 8.70624 13 8.48742C13.1253 8.12305 13.1701 7.7358 13.1312 7.35242C13.1234 7.07856 13.0754 6.80733 12.9887 6.54742C12.9098 6.35981 12.7927 6.19067 12.6449 6.05079C12.497 5.91091 12.3217 5.80333 12.13 5.73492C11.9635 5.67434 11.7914 5.63037 11.6162 5.60367C11.4842 5.58331 11.351 5.57245 11.2175 5.57117M10.9812 8.43867H10.87V6.58867H11.1125C11.2189 6.58099 11.3258 6.59734 11.4251 6.6365C11.5244 6.67566 11.6136 6.73664 11.6862 6.81492C11.8366 7.01619 11.917 7.26118 11.915 7.51242C11.915 7.81992 11.915 8.09867 11.6375 8.29492C11.4375 8.40488 11.21 8.45438 10.9825 8.43742M15.57 5.55492C15.4312 5.55492 15.2962 5.56492 15.2012 5.56867L14.9075 5.57617H13.9325V11.5762H15.08C15.5185 11.5882 15.9551 11.5139 16.365 11.3574C16.6949 11.2266 16.987 11.0156 17.215 10.7437C17.4367 10.4692 17.5958 10.1497 17.6812 9.80742C17.7794 9.41976 17.8273 9.02107 17.8237 8.62117C17.848 8.14887 17.8114 7.67541 17.715 7.21242C17.6234 6.87163 17.452 6.55754 17.215 6.29617C17.029 6.08513 16.8013 5.91489 16.5462 5.79617C16.3272 5.69482 16.0968 5.62012 15.86 5.57367C15.7658 5.55812 15.6704 5.551 15.575 5.55242M15.3475 10.4737H15.2225V6.64367H15.2387C15.4964 6.61402 15.7571 6.66052 15.9887 6.77742C16.1583 6.91283 16.2965 7.08342 16.3937 7.27742C16.4987 7.48159 16.5591 7.70568 16.5712 7.93492C16.5825 8.20992 16.5712 8.43492 16.5712 8.62117C16.5763 8.83572 16.5625 9.0503 16.53 9.26242C16.4914 9.48021 16.4202 9.69092 16.3187 9.88742C16.2038 10.0701 16.0486 10.2241 15.865 10.3374C15.7107 10.4372 15.5281 10.4837 15.345 10.4699M21.6912 5.57617H18.6537V11.5762H19.9387V9.19617H21.5637V8.08117H19.9387V6.69117H21.6887V5.57617" fill="white"/>
</g>
</svg>
