<svg width="24" height="25" viewBox="0 0 24 25" fill="none" xmlns="http://www.w3.org/2000/svg">
<path d="M17.7545 14.4997C18.9966 14.4997 20.0034 15.5065 20.0034 16.7486V17.324C20.0034 18.2183 19.6838 19.0831 19.1023 19.7625C17.5329 21.596 15.1457 22.5008 12.0004 22.5008C8.8545 22.5008 6.46849 21.5957 4.90219 19.7614C4.32242 19.0825 4.00391 18.219 4.00391 17.3262V16.7486C4.00391 15.5065 5.01076 14.4997 6.25278 14.4997H17.7545ZM17.7545 15.9997H6.25278C5.83919 15.9997 5.50391 16.335 5.50391 16.7486V17.3262C5.50391 17.8619 5.69502 18.38 6.04287 18.7874C7.29618 20.255 9.26206 21.0008 12.0004 21.0008C14.7387 21.0008 16.7063 20.255 17.9627 18.7871C18.3117 18.3795 18.5034 17.8605 18.5034 17.324V16.7486C18.5034 16.335 18.1681 15.9997 17.7545 15.9997ZM12.0004 2.50439C14.7618 2.50439 17.0004 4.74297 17.0004 7.50439C17.0004 10.2658 14.7618 12.5044 12.0004 12.5044C9.23894 12.5044 7.00036 10.2658 7.00036 7.50439C7.00036 4.74297 9.23894 2.50439 12.0004 2.50439ZM12.0004 4.00439C10.0674 4.00439 8.50036 5.5714 8.50036 7.50439C8.50036 9.43739 10.0674 11.0044 12.0004 11.0044C13.9334 11.0044 15.5004 9.43739 15.5004 7.50439C15.5004 5.5714 13.9334 4.00439 12.0004 4.00439Z" fill="#212121"/>
</svg>
