<svg width="60" height="60" viewBox="0 0 60 60" fill="none" xmlns="http://www.w3.org/2000/svg">
<circle cx="30" cy="30" r="30" fill="#DADAF2"/>
<path d="M37.4997 22.5C37.4997 26.6421 34.1418 30 29.9997 30C25.8576 30 22.4997 26.6421 22.4997 22.5C22.4997 18.3579 25.8576 15 29.9997 15C34.1418 15 37.4997 18.3579 37.4997 22.5ZM35.3569 22.5C35.3569 19.5413 32.9584 17.1429 29.9997 17.1429C27.041 17.1429 24.6426 19.5413 24.6426 22.5C24.6426 25.4586 27.041 27.8571 29.9997 27.8571C32.9584 27.8571 35.3569 25.4586 35.3569 22.5ZM20.8926 32.1428C18.8215 32.1428 17.1425 33.8218 17.1426 35.8929L17.1426 36.4286C17.1426 38.993 18.774 41.1615 21.0907 42.6358C23.4201 44.1182 26.5728 45 29.9996 45C33.4265 45 36.5792 44.1182 38.9087 42.6358C41.2254 41.1615 42.8569 38.993 42.8569 36.4286V35.8928C42.8569 33.8217 41.1779 32.1428 39.1069 32.1428H20.8926ZM19.2854 35.8929C19.2854 35.0052 20.005 34.2857 20.8926 34.2857H39.1069C39.9945 34.2857 40.714 35.0052 40.714 35.8928V36.4286C40.714 38.0063 39.7071 39.5878 37.7582 40.828C35.8221 42.06 33.0819 42.8571 29.9996 42.8571C26.9174 42.8571 24.1773 42.06 22.2412 40.828C20.2923 39.5878 19.2854 38.0063 19.2854 36.4286L19.2854 35.8929Z" fill="#5454CD"/>
</svg>
