<svg width="61" height="61" viewBox="0 0 61 61" fill="none" xmlns="http://www.w3.org/2000/svg">
<circle cx="30.25" cy="30.5" r="30" fill="#DADAF2"/>
<path d="M15.25 20.6923C15.25 17.8247 17.5747 15.5 20.4423 15.5H40.0577C42.9253 15.5 45.25 17.8247 45.25 20.6923V40.3077C45.25 43.1753 42.9253 45.5 40.0577 45.5H20.4423C17.5747 45.5 15.25 43.1753 15.25 40.3077V20.6923ZM20.4423 17.8077C18.8492 17.8077 17.5577 19.0992 17.5577 20.6923V40.3077C17.5577 40.7985 17.6803 41.2607 17.8965 41.6653L28.1559 30.8182C29.2941 29.6148 31.2096 29.615 32.3476 30.8185L42.6035 41.6654C42.8197 41.2607 42.9423 40.7985 42.9423 40.3077V20.6923C42.9423 19.0992 41.6508 17.8077 40.0577 17.8077H20.4423ZM20.4423 43.1923H40.0577C40.3086 43.1923 40.552 43.1603 40.7841 43.1001L30.6708 32.404C30.4432 32.1633 30.0601 32.1633 29.8324 32.4039L19.7159 43.1001C19.948 43.1603 20.1914 43.1923 20.4423 43.1923ZM38.3269 24.7308C38.3269 23.7749 37.552 23 36.5962 23C35.6403 23 34.8654 23.7749 34.8654 24.7308C34.8654 25.6866 35.6403 26.4615 36.5962 26.4615C37.552 26.4615 38.3269 25.6866 38.3269 24.7308ZM40.6346 24.7308C40.6346 26.9612 38.8265 28.7692 36.5962 28.7692C34.3658 28.7692 32.5577 26.9612 32.5577 24.7308C32.5577 22.5004 34.3658 20.6923 36.5962 20.6923C38.8265 20.6923 40.6346 22.5004 40.6346 24.7308Z" fill="#5454CD"/>
</svg>
