<svg width="60" height="60" viewBox="0 0 60 60" fill="none" xmlns="http://www.w3.org/2000/svg">
<circle cx="30" cy="30" r="30" fill="#EEEEEE"/>
<g clip-path="url(#clip0_160_919)">
<path d="M15 20.1923C15 17.3247 17.3247 15 20.1923 15H39.8077C42.6753 15 45 17.3247 45 20.1923V39.8077C45 42.6753 42.6753 45 39.8077 45H20.1923C17.3247 45 15 42.6753 15 39.8077V20.1923ZM20.1923 17.3077C18.5992 17.3077 17.3077 18.5992 17.3077 20.1923V39.8077C17.3077 40.2985 17.4303 40.7607 17.6465 41.1653L27.9059 30.3182C29.0441 29.1148 30.9596 29.115 32.0976 30.3185L42.3535 41.1654C42.5697 40.7607 42.6923 40.2985 42.6923 39.8077V20.1923C42.6923 18.5992 41.4008 17.3077 39.8077 17.3077H20.1923ZM20.1923 42.6923H39.8077C40.0586 42.6923 40.302 42.6603 40.5341 42.6001L30.4208 31.904C30.1932 31.6633 29.8101 31.6633 29.5824 31.9039L19.4659 42.6001C19.698 42.6603 19.9414 42.6923 20.1923 42.6923ZM38.0769 24.2308C38.0769 23.2749 37.302 22.5 36.3462 22.5C35.3903 22.5 34.6154 23.2749 34.6154 24.2308C34.6154 25.1866 35.3903 25.9615 36.3462 25.9615C37.302 25.9615 38.0769 25.1866 38.0769 24.2308ZM40.3846 24.2308C40.3846 26.4612 38.5765 28.2692 36.3462 28.2692C34.1158 28.2692 32.3077 26.4612 32.3077 24.2308C32.3077 22.0004 34.1158 20.1923 36.3462 20.1923C38.5765 20.1923 40.3846 22.0004 40.3846 24.2308Z" fill="#212121"/>
</g>
<defs>
<clipPath id="clip0_160_919">
<rect width="30" height="30" fill="white" transform="translate(15 15)"/>
</clipPath>
</defs>
</svg>
