<svg width="60" height="60" viewBox="0 0 60 60" fill="none" xmlns="http://www.w3.org/2000/svg">
<circle cx="30" cy="30" r="30" fill="white"/>
<path d="M25.7812 25.625H20.1562C19.8247 25.625 19.5068 25.4933 19.2724 25.2589C19.0379 25.0245 18.9062 24.7065 18.9062 24.375V18.75C18.9062 18.4185 19.0379 18.1005 19.2724 17.8661C19.5068 17.6317 19.8247 17.5 20.1562 17.5C20.4878 17.5 20.8057 17.6317 21.0401 17.8661C21.2746 18.1005 21.4062 18.4185 21.4062 18.75V23.125H25.7812C26.1128 23.125 26.4307 23.2567 26.6651 23.4911C26.8996 23.7255 27.0312 24.0435 27.0312 24.375C27.0312 24.7065 26.8996 25.0245 26.6651 25.2589C26.4307 25.4933 26.1128 25.625 25.7812 25.625Z" fill="#0072BB"/>
<path d="M41.25 31.2502C40.9185 31.2502 40.6005 31.1186 40.3661 30.8841C40.1317 30.6497 40 30.3318 40 30.0002C40.001 27.7997 39.2756 25.6603 37.9364 23.9141C36.5972 22.168 34.7191 20.9126 32.5935 20.3429C30.468 19.7732 28.2138 19.921 26.1809 20.7633C24.1479 21.6056 22.4498 23.0954 21.35 25.0015C21.1839 25.2884 20.9106 25.4976 20.5903 25.5831C20.27 25.6685 19.9288 25.6232 19.6419 25.4571C19.3549 25.291 19.1457 25.0178 19.0603 24.6974C18.9749 24.3771 19.0202 24.0359 19.1863 23.749C20.5616 21.3668 22.6846 19.5051 25.226 18.4526C27.7674 17.4002 30.5851 17.2158 33.242 17.9282C35.8988 18.6406 38.2463 20.2099 39.9203 22.3927C41.5942 24.5754 42.501 27.2495 42.5 30.0002C42.5 30.3318 42.3683 30.6497 42.1339 30.8841C41.8995 31.1186 41.5815 31.2502 41.25 31.2502ZM39.8438 42.5002C39.5122 42.5002 39.1943 42.3686 38.9599 42.1341C38.7254 41.8997 38.5938 41.5818 38.5938 41.2502V36.8752H34.2188C33.8872 36.8752 33.5693 36.7436 33.3349 36.5091C33.1004 36.2747 32.9688 35.9568 32.9688 35.6252C32.9688 35.2937 33.1004 34.9758 33.3349 34.7414C33.5693 34.5069 33.8872 34.3752 34.2188 34.3752H39.8438C40.1753 34.3752 40.4932 34.5069 40.7276 34.7414C40.9621 34.9758 41.0938 35.2937 41.0938 35.6252V41.2502C41.0938 41.5818 40.9621 41.8997 40.7276 42.1341C40.4932 42.3686 40.1753 42.5002 39.8438 42.5002Z" fill="#0072BB"/>
<path d="M30 42.5C26.686 42.496 23.5089 41.1778 21.1655 38.8344C18.8222 36.4911 17.504 33.314 17.5 30C17.5 29.6685 17.6317 29.3505 17.8661 29.1161C18.1005 28.8817 18.4185 28.75 18.75 28.75C19.0815 28.75 19.3995 28.8817 19.6339 29.1161C19.8683 29.3505 20 29.6685 20 30C19.999 32.2006 20.7244 34.3399 22.0636 36.0861C23.4028 37.8323 25.2809 39.0876 27.4065 39.6573C29.532 40.2271 31.7862 40.0793 33.8191 39.2369C35.8521 38.3946 37.5502 36.9048 38.65 34.9987C38.7322 34.8567 38.8417 34.7322 38.972 34.6324C39.1024 34.5326 39.2511 34.4595 39.4097 34.4172C39.5683 34.3749 39.7337 34.3642 39.8964 34.3858C40.0592 34.4074 40.2161 34.4609 40.3581 34.5431C40.5002 34.6254 40.6247 34.7348 40.7245 34.8651C40.8243 34.9955 40.8974 35.1442 40.9397 35.3028C40.982 35.4614 40.9927 35.6268 40.9711 35.7896C40.9494 35.9523 40.896 36.1092 40.8137 36.2512C39.7144 38.1468 38.1375 39.7213 36.2401 40.8176C34.3428 41.914 32.1913 42.4941 30 42.5Z" fill="#0072BB"/>
</svg>
