<svg width="70" height="84" viewBox="0 0 70 84" fill="none" xmlns="http://www.w3.org/2000/svg">
<path d="M18.8193 43.0832C21.0415 41.6017 23.31 40.4906 25.81 39.7499C25.9026 39.7036 25.9489 39.6573 26.0415 39.6573C27.4304 39.611 27.6156 38.5925 27.8471 37.5277C25.9952 36.8795 24.56 35.7684 23.6341 34.0092C23.5415 33.8703 23.2174 33.7777 22.9859 33.7777C19.7452 33.5925 17.6156 31.3703 17.5693 28.1295C17.5693 25.9999 17.5693 23.8703 17.5693 21.7869C15.4397 21.1851 14.8841 20.4443 14.8841 18.2221C14.8841 17.6203 14.8841 17.0647 14.8841 16.4629C14.8841 14.8888 15.7637 13.9166 17.2915 13.5925C17.523 13.5462 17.8471 13.2684 17.8934 13.0369C19.6526 5.25916 26.0415 0.120274 33.8656 0.16657C41.5508 0.212866 47.8471 5.53694 49.5137 13.2684C49.5137 13.361 49.56 13.4073 49.6063 13.4999C51.8748 14.0092 52.4767 14.7499 52.4767 17.0647C52.4767 17.5277 52.4767 18.0369 52.4767 18.4999C52.4767 20.4443 51.736 21.324 49.7915 21.7406C49.7915 23.7314 49.7915 25.7684 49.7915 27.8055C49.7915 28.4073 49.7452 29.0092 49.6526 29.5647C49.1434 31.9721 47.1063 33.6851 44.6526 33.7314C44.0508 33.7314 43.773 33.9166 43.4952 34.4258C42.6156 35.9999 41.2267 36.9258 39.6063 37.4814C39.7452 38.6851 40.1619 39.3332 41.4582 39.6573C48.0322 41.5092 53.2174 45.3055 57.1063 50.9536C57.2452 51.1851 57.4304 51.4166 57.7082 51.8332C57.8471 50.5369 57.986 49.4258 58.1248 48.3147C58.4489 45.7684 58.6804 43.1758 59.0508 40.6295C59.1897 39.7962 58.9582 39.2406 58.31 38.7314C56.3656 37.2499 56.3193 35.1666 56.5971 32.9906C56.7822 31.6943 57.523 30.7684 58.6804 30.074C58.9119 29.9351 59.1434 29.5647 59.1897 29.2869C59.4674 27.111 61.0878 25.6295 63.2637 25.5832C64.1434 25.5832 65.0693 25.5832 65.9489 25.5832C68.1711 25.6295 69.8841 27.3425 69.9304 29.5647C69.9304 39.6573 69.9767 49.7962 69.9304 59.8888C69.9304 64.0092 67.06 67.8518 63.0785 69.2869C59.1434 70.7684 54.6989 69.7036 51.8748 66.6018C51.6897 66.4166 51.5045 66.1851 51.2267 65.861C51.2267 71.7406 51.2267 77.4814 51.2267 83.361C50.8563 83.361 50.5322 83.361 50.2545 83.361C40.8563 83.361 31.4582 83.361 22.1063 83.361C18.5878 83.361 16.3193 81.0925 16.3656 77.6203C16.3656 76.6943 16.0878 76.2314 15.3008 75.7221C10.1619 72.3888 7.93965 67.574 8.35632 61.5092C8.5415 58.9166 9.14336 56.3703 10.1156 53.9166C10.2082 53.6388 10.1619 53.1295 9.97669 52.8518C6.96743 48.3147 3.95817 43.7777 0.902615 39.2406C0.0692814 37.9906 -0.0233112 36.6943 0.671133 35.4443C1.0878 34.7036 1.68965 33.9166 2.3378 33.4073C5.48595 31.0462 9.05076 30.3055 12.8471 31.4166C14.6063 31.9258 15.81 33.0832 16.3193 34.9351C17.0137 37.7592 17.9397 40.398 18.8193 43.0832ZM51.1341 55.3055C51.1341 56.8332 51.1341 58.2684 51.1341 59.7036C51.1341 60.0277 51.1804 60.398 51.3193 60.6758C51.7359 61.6017 52.1526 62.4814 52.6619 63.361C54.0971 65.8147 56.2267 67.2036 59.0508 67.2962C63.4952 67.4814 67.1526 64.0092 67.1989 59.5184C67.2452 53.3147 67.1989 47.1573 67.1989 40.9536C67.1989 40.8147 67.1526 40.6295 67.1526 40.4906C65.3008 40.4906 63.4952 40.4906 61.6897 40.4906C60.8563 47.7129 59.9767 54.8888 59.1434 62.111C58.1711 61.9721 57.3841 61.8795 56.5045 61.7869C56.6897 60.1666 56.8748 58.6851 57.0137 57.1573C57.06 56.8332 56.9674 56.4166 56.8285 56.1388C54.8378 51.8332 51.8748 48.3147 47.9397 45.6758C45.6248 44.1018 43.1711 42.9443 40.4397 42.2499C40.4397 42.4351 40.3934 42.5277 40.3934 42.6203C40.3934 50.7684 40.3934 58.9166 40.3934 67.0647C40.3934 67.3425 40.6711 67.7129 40.9026 67.8517C42.3378 68.6851 43.0322 69.9351 43.0322 71.6018C43.0322 72.3425 43.0322 73.1295 43.0322 73.8703C43.0322 75.5832 42.2915 76.8795 40.81 77.7129C40.6248 77.8055 40.3934 78.0369 40.3934 78.2221C40.3471 79.0555 40.3934 79.9351 40.3934 80.7684C43.1248 80.7684 45.7637 80.7684 48.4489 80.7684C48.4489 72.2499 48.4489 63.824 48.4489 55.3517C49.3285 55.3055 50.1619 55.3055 51.1341 55.3055ZM25.6248 21.6943C25.6248 24.7962 25.6248 27.8055 25.6248 30.8147C25.6248 33.4073 27.3378 35.074 29.9304 35.1203C32.4304 35.1203 34.8841 35.1203 37.3841 35.1203C40.023 35.1203 41.6897 33.4536 41.6897 30.8147C41.6897 28.0369 41.6897 25.2129 41.6897 22.4351C41.6897 22.2036 41.6434 21.9721 41.6434 21.6943C36.3193 21.6943 31.0415 21.6943 25.6248 21.6943ZM18.9119 54.611C18.9119 57.6666 18.9119 60.6758 18.9119 63.6388C18.9119 66.4166 18.8656 66.5555 21.6434 66.9721C24.0045 67.2962 26.4119 67.2499 28.8193 67.2962C29.0508 67.2962 29.3285 67.0184 29.56 66.8332C30.3008 66.2314 30.9489 65.5369 31.7822 65.074C32.1989 64.7962 32.3841 64.611 32.3841 64.148C32.3841 61.2314 32.3841 58.2684 32.3841 55.3517C32.3841 55.1203 32.3378 54.8888 32.3378 54.611C29.7915 55.5369 21.5508 55.5369 18.9119 54.611ZM12.1526 56.4166C12.06 56.4166 11.9674 56.4166 11.8748 56.4166C11.5508 58.1295 11.1804 59.8425 10.9952 61.5555C10.2082 68.1295 14.2359 73.9629 20.5785 75.1666C22.8934 75.5832 25.3471 75.398 27.7545 75.4443C27.9397 75.4443 28.1248 75.398 28.2637 75.398C28.2637 73.6388 28.2637 71.8795 28.2637 70.0277C22.1063 70.5832 16.5508 69.4721 12.4767 64.1943C13.2174 63.6388 13.9119 63.1295 14.6989 62.5277C15.2082 63.1295 15.6711 63.6388 16.1341 64.148C16.2267 63.4999 16.3656 62.8517 16.0878 62.4351C14.8378 60.3517 13.4952 58.4073 12.1526 56.4166ZM14.6526 38.9629C12.06 41.1851 9.09706 41.9258 5.67113 41.8332C9.18965 47.111 12.6619 52.2962 16.0878 57.4814C16.2267 54.9814 16.1804 52.574 16.273 50.2129C16.3193 49.2406 16.6897 48.2684 16.9211 47.2962C16.9674 47.0647 17.1063 46.7869 17.06 46.6018C16.273 44.0555 15.4859 41.5555 14.6526 38.9629ZM17.6156 18.9166C28.3563 18.9166 39.0508 18.9166 49.7452 18.9166C49.7452 18.0369 49.7452 17.2036 49.7452 16.324C39.0045 16.324 28.3563 16.324 17.6156 16.324C17.6156 17.2036 17.6156 18.0369 17.6156 18.9166ZM29.6063 3.5462C24.7915 4.7962 20.9952 9.70361 20.6711 13.5462C23.6341 13.5462 26.6434 13.5462 29.6063 13.5462C29.6063 10.2129 29.6063 6.92583 29.6063 3.5462ZM37.7545 3.5462C37.7545 6.92583 37.7545 10.2129 37.7545 13.5462C40.7637 13.5462 43.773 13.5462 46.7359 13.5462C46.2267 9.24064 41.9674 4.51842 37.7545 3.5462ZM61.8285 32.4351C61.273 32.4351 60.8563 32.3888 60.4397 32.4351C59.6526 32.5277 59.2359 32.9443 59.1434 33.7314C59.0971 34.2406 59.0971 34.7962 59.1434 35.3055C59.1897 35.9073 60.6711 37.7592 61.2267 37.7592C63.2174 37.8055 65.1619 37.7592 67.1989 37.7592C67.1989 34.9814 67.1989 32.3425 67.1989 29.7036C67.1989 28.9166 66.6434 28.4073 65.8563 28.4073C65.0693 28.361 64.2359 28.4073 63.4026 28.4073C62.3378 28.4073 61.8285 28.9166 61.8285 30.0277C61.8285 30.7684 61.8285 31.5555 61.8285 32.4351ZM36.3656 70.074C36.3656 69.5647 36.4582 69.148 36.3656 68.7777C36.2267 68.361 35.9952 67.6666 35.7174 67.6203C34.7452 67.4814 33.6804 67.3425 32.8008 67.6203C32.1063 67.898 31.1804 68.7314 31.0878 69.4258C30.8563 71.3703 30.9952 73.361 30.9952 75.398C33.773 75.398 36.4582 75.398 39.1434 75.398C39.9304 75.398 40.3471 74.7962 40.3934 74.0092C40.4397 73.1758 40.3934 72.3888 40.3934 71.5555C40.3934 70.5832 39.8841 70.074 38.8656 70.074C38.0785 70.0277 37.2452 70.074 36.3656 70.074ZM24.7452 47.2036C23.773 47.2036 22.6619 47.1573 21.5508 47.2036C20.0693 47.2499 18.9119 48.4073 18.9119 49.8888C18.9119 51.3703 20.0693 52.5277 21.5971 52.574C24.2822 52.6203 27.0137 52.6203 29.6989 52.574C31.1804 52.574 32.3378 51.324 32.3378 49.8888C32.3378 48.4536 31.0878 47.2499 29.6526 47.2499C28.1711 47.2499 27.0137 48.4073 26.9674 49.9351C26.9674 50.3518 26.9674 50.8147 26.9674 51.2314C25.9952 51.2314 25.1619 51.2314 24.1434 51.2314C24.3285 49.7962 24.56 48.5462 24.7452 47.2036ZM37.6156 65.4906C37.6156 58.5462 37.6156 51.5555 37.6156 44.4258C36.8285 45.398 36.1804 46.2777 35.486 47.111C34.9304 47.7129 34.6063 48.3147 34.9304 49.1943C35.0693 49.5184 35.023 49.9814 35.023 50.3518C35.023 54.8425 35.023 59.2869 35.023 63.7777C35.023 64.1017 35.023 64.3795 35.023 64.5184C35.9489 64.8425 36.7822 65.1666 37.6156 65.4906ZM6.18039 39.1943C8.86558 39.0555 10.8563 38.5925 12.5693 37.1573C14.0508 35.9073 13.8193 34.7036 12.0137 34.1018C10.5322 33.5925 9.00447 33.6388 7.47669 34.0092C5.90261 34.3795 4.37484 34.9814 3.31002 36.2777C2.61558 37.1573 2.70817 37.9443 3.72669 38.4073C4.60632 38.8703 5.67113 39.0555 6.18039 39.1943ZM33.6804 45.0277C34.6063 43.824 35.3934 42.6666 36.4119 41.6943C37.4767 40.6295 37.6619 39.5647 36.9211 38.3147C36.7822 38.0832 36.4582 37.8055 36.2267 37.8055C34.9767 37.7592 33.7267 37.7592 32.4767 37.7592C30.6711 37.7592 30.6248 37.7592 30.0693 39.5184C29.9767 39.7962 29.9767 40.2592 30.1619 40.4906C31.2267 42.0184 32.4304 43.4999 33.6804 45.0277ZM32.2915 78.1758C27.8008 77.898 23.3563 78.5925 19.0045 77.6203C18.773 79.4258 19.8841 80.7684 21.5971 80.8147C24.2822 80.861 26.9674 80.861 29.6526 80.8147C31.1341 80.7684 32.1989 79.7499 32.2915 78.1758ZM32.3841 2.89805C32.3841 6.50916 32.3841 10.0277 32.3841 13.4999C33.31 13.4999 34.1434 13.4999 34.9304 13.4999C34.9304 9.93509 34.9304 6.41657 34.9304 2.89805C34.0971 2.89805 33.2637 2.89805 32.3841 2.89805ZM21.7359 44.4258C24.5137 44.4258 27.1063 44.4258 29.7452 44.4258C29.1434 43.6851 28.6341 42.9906 28.0785 42.3888C27.9397 42.2499 27.6619 42.0647 27.4767 42.111C25.5322 42.574 23.6341 43.3147 21.7359 44.4258ZM22.8934 31.0462C22.8934 29.2406 22.8934 27.4814 22.8934 25.7221C21.3193 25.8147 20.2545 26.9258 20.2545 28.361C20.2545 29.8425 21.3193 30.9073 22.8934 31.0462ZM44.4674 25.7221C44.4674 27.5277 44.4674 29.2869 44.4674 31.0462C46.0415 30.9073 47.1063 29.7962 47.1063 28.361C47.06 26.9258 45.9952 25.861 44.4674 25.7221ZM35.1619 78.1758C34.8841 79.1017 34.6526 79.9351 34.4211 80.7684C35.5322 80.7684 36.5971 80.7684 37.6619 80.7684C37.6619 79.8425 37.6619 79.0092 37.6619 78.1758C36.7359 78.1758 35.9026 78.1758 35.1619 78.1758ZM22.8934 22.8981C22.8934 22.5277 22.8934 22.1573 22.8934 21.7406C22.0137 21.7406 21.1804 21.7406 20.3008 21.7406C20.3008 22.3888 20.3008 23.0369 20.3008 23.6388C21.1804 23.361 22.0137 23.1295 22.8934 22.8981ZM47.06 23.5925C47.06 22.9906 47.06 22.3425 47.06 21.6943C46.1804 21.6943 45.3471 21.6943 44.4674 21.6943C44.4674 22.1573 44.4674 22.5277 44.4674 22.8981C45.3471 23.1295 46.1804 23.361 47.06 23.5925Z" fill="#0072BB"/>
</svg>
