<svg width="60" height="60" viewBox="0 0 60 60" fill="none" xmlns="http://www.w3.org/2000/svg">
<circle cx="30" cy="30" r="30" fill="#FFFFFF"/>
<g clip-path="url(#clip0_500_7095)">
<path d="M20.1136 15C17.2895 15 15 17.2895 15 20.1136V39.8864C15 42.7105 17.2895 45 20.1136 45H31.7146C33.0708 45 34.3715 44.4612 35.3305 43.5022L43.5023 35.3305C44.4612 34.3715 45 33.0708 45 31.7146V20.1136C45 17.2895 42.7105 15 39.8864 15H20.1136ZM17.0455 20.1136C17.0455 18.4191 18.4191 17.0455 20.1136 17.0455H39.8864C41.5809 17.0455 42.9545 18.4191 42.9545 20.1136V31.3636H36.4773C33.6531 31.3636 31.3636 33.6531 31.3636 36.4773V42.9545H20.1136C18.4191 42.9545 17.0455 41.5809 17.0455 39.8864V20.1136ZM33.4091 42.4442V36.4773C33.4091 34.7828 34.7828 33.4091 36.4773 33.4091H42.4442C42.3318 33.5788 42.202 33.738 42.0559 33.8841L33.8841 42.0559C33.738 42.202 33.5788 42.3318 33.4091 42.4442Z" fill="#0072BB"/>
</g>
<defs>
<clipPath id="clip0_500_7095">
<rect width="30" height="30" fill="white" transform="translate(15 15)"/>
</clipPath>
</defs>
</svg>
