<svg width="170" height="71" viewBox="0 0 170 71" fill="none" xmlns="http://www.w3.org/2000/svg">
<g id="Frame" clip-path="url(#clip0_902_7632)">
<g id="Group" opacity="0.85">
<path id="Vector" d="M67.032 54.7647C67.0737 52.8909 67.9065 50.6422 68.6561 48.3519C69.9886 44.4376 71.5294 40.5649 73.195 36.7754C73.3616 36.4007 73.6947 35.9426 73.4865 35.6511C73.195 35.1931 72.6537 35.5678 72.2373 35.6511C69.0725 36.2757 65.991 37.1086 62.9511 38.1496C62.8679 38.1913 62.7846 38.2329 62.7429 38.2329C62.1183 38.3995 61.3271 38.6493 61.1189 37.7749C60.9107 36.9837 61.6186 36.7755 62.2432 36.6089C64.7417 35.9843 67.2403 35.4013 69.6971 34.8183C70.9047 34.5268 72.0707 34.2769 73.2783 34.0687C74.1944 33.9022 74.6941 33.4441 75.0273 32.6113C77.2343 27.531 79.483 22.4923 82.0231 17.5785C82.731 16.2044 83.3557 14.7885 84.0636 13.4144C84.3134 12.9147 84.5633 12.4566 85.063 12.2484C85.5627 12.0402 86.0624 12.1235 86.3955 12.5399C86.9785 13.2061 86.7703 13.9557 86.3122 14.5387C84.8964 16.4126 83.7721 18.4114 82.7727 20.5351C80.9404 24.3245 79.1498 28.1139 77.3592 31.9034C77.1927 32.2781 76.7346 32.7362 77.1094 33.111C77.4425 33.4441 77.9839 33.1943 78.4003 33.111C84.1052 31.9034 89.8102 30.8623 95.5567 29.9045C106.342 28.0723 117.169 26.5316 128.037 25.3239C139.822 24.033 151.607 23.3251 163.391 22.2424C164.391 22.1592 165.432 22.1592 166.431 22.1592C166.931 22.1592 167.347 22.3674 167.389 22.9087C167.431 23.4917 167.014 23.6999 166.556 23.7415C165.848 23.8248 165.099 23.9081 164.349 23.9081C152.648 23.9914 141.03 25.1157 129.412 26.3233C111.964 28.1139 94.6822 31.0705 77.4842 34.4851C76.4015 34.6934 75.8185 35.1931 75.4021 36.1925C73.2783 41.2311 71.113 46.2282 69.5306 51.4334C69.1558 52.6827 68.8643 53.9319 68.7394 55.2645C68.4895 57.6797 69.7388 58.6791 71.9874 57.763C75.3188 56.4721 78.1921 54.39 80.9821 52.1829C85.1463 48.8932 88.894 45.1455 91.7257 40.6065C92.0588 40.1068 92.3919 39.6071 92.8084 39.149C93.2248 38.691 93.7661 38.5244 94.3491 38.8992C94.9321 39.274 94.9737 39.8986 94.6823 40.3983C94.2242 41.2311 93.6828 41.9807 93.1415 42.7302C91.2676 45.2704 90.2266 48.102 90.06 51.2252C89.9351 53.1824 90.7679 53.7237 92.5169 52.8492C97.6388 50.3091 101.928 46.7695 105.134 41.9807C105.509 41.3977 105.801 40.7731 106.134 40.1484C106.467 39.5238 106.758 38.7743 107.633 39.1074C108.549 39.4822 108.299 40.315 108.008 40.9813C107.466 42.2722 106.925 43.5214 106.717 44.8956C106.425 46.8944 106.259 48.8516 107.675 50.5589C108.049 50.9753 108.133 51.5583 107.591 51.9747C107.008 52.3912 106.467 52.1413 106.134 51.6C105.218 50.2674 105.218 48.685 105.134 47.1443C105.093 46.6446 105.468 45.9367 104.843 45.7285C104.343 45.5619 104.093 46.2282 103.76 46.5613C100.804 49.6428 97.4723 52.1829 93.6412 54.0985C90.1433 55.8474 88.1861 54.5565 88.3527 50.6838C88.3943 50.1425 88.436 49.6428 88.5193 49.1015C88.5609 48.8516 88.6858 48.5185 88.3943 48.3519C88.0612 48.1853 87.8946 48.4768 87.6864 48.685C86.0207 50.2674 84.3134 51.7665 82.5228 53.1407C79.7745 55.2644 76.9012 57.18 73.8197 58.7624C73.4449 58.9289 73.0701 59.0955 72.6953 59.2621C69.1141 60.553 66.9904 59.0122 67.032 54.7647Z" fill="#0072BB"/>
<path id="Vector_2" d="M131.285 51.4748C130.036 51.4748 128.204 51.3915 126.497 50.6419C123.249 49.2261 122.915 47.1856 123.124 44.4789C123.124 44.1874 123.29 43.771 123.498 43.6044C125.331 42.1053 126.788 40.2315 129.037 39.2737C129.828 38.9406 130.619 38.6074 131.494 38.6074C132.077 38.6074 132.66 38.6907 132.951 39.3153C133.243 39.94 132.993 40.5229 132.493 40.9394C131.161 42.1886 129.578 43.0215 127.996 43.8543C127.371 44.1874 126.747 44.3956 126.122 44.6871C124.664 45.3534 124.331 46.6027 125.289 47.9768C126.039 49.0179 127.163 49.5176 128.371 49.8091C131.119 50.4754 133.867 50.1839 136.616 49.8091C146.027 48.4349 155.354 46.6443 164.641 44.4373C165.765 44.1458 166.931 43.9792 168.097 43.8127C168.722 43.7294 169.388 43.8127 169.554 44.5622C169.721 45.395 169.096 45.6865 168.43 45.8531C165.931 46.4361 163.35 46.5194 160.851 46.9774C154.105 48.1434 147.318 49.4343 140.572 50.6003C137.657 51.0583 134.783 51.4748 131.285 51.4748Z" fill="#0072BB"/>
<path id="Vector_3" d="M44.7953 55.5983C44.7537 54.8904 44.9619 54.0992 45.3366 53.3913C47.044 49.7685 49.5841 46.8535 53.1653 44.9796C54.9976 44.0219 56.9547 43.7304 58.9535 44.3134C59.9946 44.6049 60.9107 45.1462 61.452 46.104C61.8685 46.8119 62.1183 47.728 61.6186 48.2694C59.8697 50.1432 60.411 52.4752 60.1611 54.6406C60.0362 55.5567 60.1611 56.5144 60.1611 57.4306C60.1611 58.1801 60.1611 59.0962 59.0785 58.9297C58.1207 58.8047 58.2456 57.9719 58.4122 57.264C58.8703 55.1403 58.9952 53.0165 59.1201 50.8511C59.1617 50.518 59.245 50.1432 58.9119 49.9767C58.4955 49.7268 58.2456 50.1849 57.9958 50.3931C55.7888 52.4752 53.4568 54.474 50.9999 56.3062C50.0422 57.0141 49.0844 57.6388 47.9184 58.0136C46.0862 58.6382 44.8369 57.6804 44.7953 55.5983ZM56.9547 45.8958C52.2492 46.0623 47.1689 51.5591 46.4193 55.3068C46.336 55.7232 46.336 56.1813 46.7108 56.4312C47.2105 56.7227 47.7519 56.5561 48.2099 56.2646C51.9993 53.891 55.3723 51.101 58.2873 47.728C59.1617 46.7286 58.8702 46.1873 57.5377 45.9791C57.3295 45.8958 57.1213 45.8958 56.9547 45.8958Z" fill="#0072BB"/>
<path id="Vector_4" d="M112.422 51.35C113.046 46.5612 114.67 42.4803 118.876 39.8985C120 39.2322 121.125 38.6076 122.291 37.983C122.957 37.6498 123.707 37.2334 124.456 37.7747C124.789 38.0246 124.873 38.3994 124.748 38.7741C124.456 39.607 123.707 39.6903 122.999 39.8985C119.001 40.8979 116.378 43.3548 115.17 47.3107C114.879 48.2685 114.754 49.3095 114.795 50.3089C114.795 50.6837 114.837 51.0585 114.795 51.3916C114.712 52.1412 114.462 52.8491 113.588 52.7658C112.671 52.7658 112.422 52.0579 112.422 51.35Z" fill="#0072BB"/>
<path id="Vector_5" d="M31.5948 0.671875C32.2194 1.33815 32.0945 2.0877 31.9279 2.87889C31.1783 6.21025 29.9707 9.37503 28.9297 12.6231C26.4312 20.3268 24.0992 28.0722 22.4752 36.0258C21.4341 41.1478 20.7679 46.3114 21.101 51.5583C21.2259 53.682 21.6423 55.7224 22.6834 57.5963C23.8077 59.6784 25.7233 60.4696 28.0136 59.8866C29.8874 59.3869 31.4282 58.2626 32.844 57.0133C36.5918 53.7236 39.5067 49.726 42.0469 45.4369C46.0861 38.6493 49.3758 31.4869 52.3741 24.1995C53.7899 20.7433 54.8726 17.1621 56.0385 13.6225C56.4133 12.3732 56.913 11.9152 57.5376 12.2483C58.4538 12.748 58.0374 13.5392 57.7875 14.2055C55.872 19.5773 53.6233 24.7825 51.333 29.9878C48.543 36.4006 45.5031 42.6885 41.6305 48.5184C39.0903 52.3911 36.3003 56.0556 32.5942 58.8872C31.0951 60.0116 29.5127 60.9277 27.6388 61.2608C25.1403 61.7189 23.308 60.6778 21.9338 58.679C20.6013 56.7635 20.1432 54.4732 19.8934 52.1829C19.2688 45.9366 20.3931 39.8152 21.684 33.7355C23.308 25.8236 25.7233 18.1198 28.1801 10.4577C28.3883 9.79145 28.5965 9.12518 28.6798 8.41726C27.5139 11.2906 26.3479 14.1638 25.2236 17.0371C20.7679 28.2388 16.7703 39.607 12.1896 50.7671C9.64949 56.6802 7.02605 62.5101 3.90291 68.1317C3.52813 68.8396 3.11171 69.5059 2.52873 70.1305C1.94574 70.7552 1.19619 70.8801 0.738126 70.3804C0.238424 69.8807 0.363349 69.2561 1.15455 68.6731C2.11231 68.0068 2.65365 67.0074 3.15336 66.0496C7.56739 58.0544 10.982 49.6427 14.2301 41.1478C17.8113 31.8616 21.3509 22.5755 24.9737 13.2894C26.3895 9.70816 27.7637 6.08532 29.471 2.5874C29.8042 1.87949 30.1789 1.12994 30.8452 0.671875C31.0951 0.671875 31.3449 0.671875 31.5948 0.671875Z" fill="#0072BB"/>
</g>
</g>
<defs>
<clipPath id="clip0_902_7632">
<rect width="169.024" height="70" fill="white" transform="translate(0.488281 0.671875)"/>
</clipPath>
</defs>
</svg>
