<svg width="50" height="30" viewBox="0 0 50 30" fill="none" xmlns="http://www.w3.org/2000/svg">
<g id="Group" opacity="0.85">
<g id="Group_2">
<path id="Vector" d="M49.9087 23.2962C49.9087 23.2962 49.9201 23.2962 49.9201 23.2848C49.9315 23.262 49.9429 23.2279 49.9656 23.2051C49.9542 23.2279 49.9315 23.2506 49.9201 23.2848C49.9087 23.2848 49.9087 23.2962 49.9087 23.2962Z" fill="#0072BB"/>
<path id="Vector_2" d="M49.9772 23.1836C49.9658 23.195 49.9658 23.195 49.9658 23.2064C49.9658 23.2064 49.9772 23.195 49.9772 23.1836C49.9772 23.1836 49.9886 23.1836 50 23.1836C49.9886 23.1836 49.9886 23.1836 49.9772 23.1836Z" fill="#0072BB"/>
<path id="Vector_3" d="M29.2541 15.8734C29.2655 15.8392 29.2541 15.8165 29.2427 15.7823C29.1858 15.6684 29.1061 15.5887 29.0263 15.4976C28.958 15.4179 28.8669 15.3496 28.7645 15.3496C28.6961 15.3496 28.6278 15.3952 28.5937 15.4635C28.5595 15.5318 28.5595 15.6001 28.5823 15.6684C28.6051 15.7367 28.6392 15.7937 28.6848 15.8506C28.7075 15.8848 28.7417 15.9189 28.7758 15.9645C28.7872 15.9873 28.81 15.9986 28.8328 16.01C28.8556 16.0214 28.8669 16.0214 28.8897 16.01C29.0036 15.9986 29.1061 15.9759 29.1971 15.9189C29.2199 15.9189 29.2541 15.8962 29.2541 15.8734Z" fill="#0072BB"/>
<path id="Vector_4" d="M45.1949 6.74023C45.0583 7.51451 44.8875 8.7784 44.7622 10.3042C44.7964 10.0423 44.8305 9.78041 44.8647 9.52991C44.9785 8.59622 45.0924 7.66253 45.1949 6.74023Z" fill="#0072BB"/>
<path id="Vector_5" d="M45.2174 6.74023C45.1377 7.67392 45.0466 8.59622 44.9555 9.52991C44.8531 10.4978 44.7506 11.477 44.6367 12.4448C44.6253 12.5132 44.6253 12.5815 44.6139 12.6498C44.261 19.6638 44.8531 28.9324 49.92 23.2961C43.8624 28.8071 45.0808 14.0048 45.2174 6.74023Z" fill="#0072BB"/>
<path id="Vector_6" d="M44.9558 9.53016C45.0469 8.59647 45.138 7.67417 45.2177 6.74048C45.2177 6.69494 45.2291 6.64939 45.2291 6.61523H45.2063C45.2063 6.66078 45.1949 6.70633 45.1949 6.74048C45.0925 7.67417 44.9786 8.59647 44.8647 9.51877C44.8306 9.78066 44.7964 10.0425 44.7623 10.2931C44.6712 10.999 44.5801 11.7164 44.4776 12.4223C44.341 13.3902 44.1815 14.358 44.0449 15.3145C43.9766 15.7927 43.8969 16.2823 43.8058 16.7605C43.7602 16.9997 43.7147 17.2388 43.6692 17.4779C43.6122 17.717 43.5667 17.9561 43.4756 18.1838L43.487 18.1952C43.7033 17.7512 43.8172 17.2729 43.931 16.7947C44.0449 16.3165 44.136 15.8382 44.2157 15.3486C44.3751 14.4491 44.4776 13.5496 44.5915 12.6387C44.6028 12.5703 44.6028 12.502 44.6142 12.4337C44.7509 11.4772 44.8533 10.498 44.9558 9.53016Z" fill="#0072BB"/>
<path id="Vector_7" d="M23.9478 19.6418C23.8909 19.6987 23.8226 19.7557 23.7657 19.8126C23.6518 19.9037 23.5265 19.9948 23.4127 20.0745C23.4127 20.0745 23.4013 20.0745 23.4013 20.0859L23.3899 20.0973C22.9117 20.3933 22.3424 20.4502 21.8413 20.1314C21.5225 19.9265 21.2037 19.7443 20.8735 19.5393C20.2928 19.1863 19.9398 19.3685 19.5982 19.8126C19.5071 19.9265 19.4274 20.0289 19.3477 20.1428C19.268 20.2453 19.1883 20.3591 19.0972 20.4502C19.0858 20.4616 19.0744 20.473 19.0517 20.473C19.0403 20.473 19.0289 20.4616 19.0289 20.4502C19.0289 20.4389 19.0289 20.4275 19.0289 20.4161C19.0289 20.3478 19.0631 20.2908 19.0858 20.2339C19.12 20.1656 19.1428 20.1086 19.1769 20.0403C19.3136 19.7557 19.4502 19.471 19.5868 19.1863C19.7235 18.9017 19.8601 18.617 20.0081 18.3324C20.0765 18.1957 20.1789 18.0705 20.3383 18.0363C20.5205 18.0022 20.7027 18.1046 20.828 18.2185C20.919 18.2982 20.9988 18.3893 21.0557 18.4918L21.0671 18.5259C21.0443 18.4007 21.0215 18.2868 20.9874 18.173C20.9646 18.0933 20.9418 18.0249 20.9077 17.9452C20.7596 17.615 20.3611 17.4784 20.0195 17.5467C19.6438 17.615 19.268 17.6833 18.915 17.7972C17.9472 18.0819 16.9907 18.3893 16.0343 18.6967C15.9432 18.7309 15.8407 18.8106 15.8862 18.5829C16.0001 18.0249 16.0457 17.4442 16.1367 16.8749C16.2165 16.3967 16.3075 15.9298 16.3872 15.4516C16.467 14.9734 16.5353 14.4951 16.615 14.0169C16.6833 13.5956 16.7744 13.1743 16.8427 12.753C16.9566 12.1268 17.059 11.4891 17.1729 10.8629C17.2526 10.4074 17.3437 9.94057 17.4234 9.48511C17.5031 8.98411 17.5828 8.48311 17.6511 7.9821C17.7081 7.54942 17.7536 7.12812 17.7878 6.69544C17.7878 6.64989 17.7992 6.59296 17.7992 6.54741C17.8106 6.388 17.8106 6.2286 17.7992 6.06919C17.7992 5.98948 17.7992 5.90977 17.7992 5.83007C17.7992 5.77314 17.7878 5.70482 17.7536 5.65927C17.7081 5.60234 17.5828 5.60234 17.5487 5.65927C17.5373 5.68205 17.5259 5.70482 17.5145 5.72759C17.4462 5.92116 17.412 6.1375 17.3665 6.33107C17.2298 6.92317 17.0818 7.50387 16.9338 8.08458C16.7972 8.61974 16.6491 9.15491 16.5011 9.69007C16.3645 10.1797 16.2165 10.6579 16.0684 11.1361C15.9318 11.5688 15.7952 12.0129 15.6357 12.4456C15.4991 12.8441 15.3625 13.2312 15.2144 13.6184C15.0778 13.9714 14.9412 14.3243 14.7931 14.6659C14.6565 14.9848 14.5199 15.2922 14.3832 15.5996C14.3149 15.7476 14.2466 15.8843 14.1783 16.0209C14.11 16.1576 14.0303 16.2828 13.9733 16.4194C13.9619 16.4422 13.9506 16.465 13.9392 16.4764C13.6659 17.0343 13.3471 17.5695 12.9941 18.0933C12.4248 18.9358 11.7302 19.6646 10.9559 20.325C10.8762 20.3933 10.8079 20.4616 10.7168 20.5072C10.6826 20.5299 10.6485 20.5527 10.6143 20.5755C10.5802 20.5983 10.5346 20.621 10.4891 20.6438C10.4663 20.6552 10.4663 20.6552 10.4435 20.6324C10.4321 20.621 10.4208 20.5755 10.4094 20.5527C10.3866 20.4616 10.3524 20.3819 10.3183 20.2908C10.2841 20.2225 10.25 20.1542 10.2158 20.0973C10.1133 19.9606 9.95392 19.8695 9.78312 19.9037C9.56678 19.9379 9.44153 20.0745 9.39598 20.2908C9.32767 20.7007 9.4643 20.9512 9.87421 21.0537C10.045 21.0993 10.0678 21.0196 10.0792 21.2245C10.1133 21.7255 10.0792 22.2151 9.80589 22.6592C9.73758 22.7731 9.64649 22.7958 9.56678 22.7617C9.52123 22.7389 9.48708 22.7048 9.45292 22.6478C9.44153 22.625 9.43014 22.6023 9.41876 22.5795C9.40737 22.5567 9.39598 22.534 9.3846 22.5112C8.97469 21.7141 8.88359 20.8032 8.88359 20.1086C8.86082 19.7443 8.88359 19.4027 8.9633 19.0497C8.99746 18.9245 9.1341 18.7195 9.28212 18.674C9.43014 18.6284 9.55539 18.7651 9.6351 18.8675C9.64649 18.8789 9.73758 19.0269 9.84005 19.1863C9.94253 19.3571 10.045 19.5621 10.045 19.6873C10.045 19.6646 10.0564 19.6304 10.0564 19.6076C10.0564 19.5849 10.0564 19.5621 10.0564 19.5393C10.0564 19.4938 10.045 19.4368 10.045 19.3913C10.0336 19.2888 10.0222 19.1863 9.99946 19.0953C9.95392 18.9017 9.87421 18.7081 9.76035 18.5373C9.74896 18.5259 9.73758 18.5145 9.73758 18.5032C9.47569 18.1502 9.27073 18.1388 8.90637 18.4007C8.43952 18.7309 7.97268 19.0725 7.49445 19.3913C7.1984 19.5963 7.1984 19.5963 7.00483 19.2888C6.54938 18.5487 5.85481 18.2527 5.03498 18.321C4.61369 18.3551 4.19239 18.5145 3.79386 18.6626C3.77109 18.674 3.73693 18.6853 3.71416 18.6967C3.31563 18.8561 2.93988 19.0497 2.57552 19.2774C2.39333 19.3913 2.22254 19.5166 2.05174 19.6418C1.96065 19.7101 1.88094 19.7671 1.80124 19.8354C1.73292 19.8923 1.64183 19.9948 1.55074 20.0062C1.51658 20.0062 1.48242 19.9948 1.47103 19.972C1.47103 19.9606 1.47103 19.9606 1.45965 19.9492C1.44826 19.8809 1.45965 19.8126 1.47103 19.7329C1.48242 19.6532 1.4938 19.5735 1.51658 19.5052C1.55074 19.3458 1.57351 19.1977 1.60767 19.0383C1.68737 18.674 1.77847 18.3096 1.99481 17.9794C2.45026 17.262 2.90572 16.5447 3.30425 15.7932C3.77109 14.9278 4.22655 14.0511 4.61369 13.1515C5.12607 11.956 5.61569 10.749 6.00283 9.50788C6.3672 8.36924 6.72017 7.21921 6.84542 6.01225C6.91374 5.32907 7.08454 4.64588 7.1187 3.9627C7.17563 2.92653 7.20979 1.89037 7.05038 0.865588C7.05038 0.865588 7.05038 0.865589 7.05038 0.854202C7.01622 0.649246 7.00483 0.421518 6.90236 0.239335C6.79988 0.0571523 6.62908 -0.0339391 6.4469 0.0116066C6.40135 0.022993 6.35581 0.0343794 6.31026 0.0571523C6.11669 0.171017 5.96867 0.353199 5.84342 0.535382C5.68401 0.785884 5.54737 1.05916 5.41074 1.33243C5.2741 1.60571 5.13746 1.89037 5.0236 2.17503C4.45428 3.56417 4.07852 5.01025 3.7597 6.4791C3.55475 7.44694 3.38395 8.41479 3.19038 9.39402C3.07652 9.9975 2.93988 10.5896 2.82602 11.1931C2.70077 11.8535 2.5869 12.5253 2.45026 13.1857C2.22254 14.2788 1.96065 15.3719 1.72153 16.4536C1.4938 17.3873 1.30024 18.3324 1.09528 19.2661C1.04973 19.471 0.992802 19.676 0.947256 19.8809C0.913097 20.0289 0.878938 20.1656 0.867551 20.3136C0.856165 20.4047 0.867551 20.5072 0.90171 20.5983C0.947256 20.7121 1.08389 20.8374 1.20914 20.8374C1.35717 20.8374 1.47103 20.7007 1.57351 20.6097C2.0859 20.2225 2.57551 19.8012 3.11068 19.471C3.79386 19.0497 4.51121 18.7195 5.36519 18.7537C6.03699 18.7764 6.45829 19.118 6.76572 19.6646C6.8682 19.8581 6.83404 19.9948 6.67463 20.1428C6.40135 20.4047 6.13947 20.6894 5.87758 20.9626C5.04637 21.8166 4.44289 22.83 3.88495 23.8662C3.49782 24.5949 3.31563 25.3692 3.32702 26.2118C3.33841 26.7242 3.9305 27.2593 4.47705 27.0771C4.94389 26.9177 5.30826 26.6331 5.63846 26.3029C6.12808 25.8246 6.51522 25.2667 6.83404 24.6632C7.20979 23.9573 7.52861 23.2171 7.58554 22.4087C7.64247 21.68 7.69941 20.9399 7.44891 20.2225C7.40336 20.0745 7.43752 19.9492 7.57416 19.8354C7.72218 19.7101 7.8702 19.5849 8.00684 19.4596C8.07516 19.3913 8.15486 19.3344 8.22318 19.2661C8.28011 19.2091 8.34843 19.1408 8.42814 19.1294C8.43952 19.1294 8.45091 19.1294 8.4623 19.1294C8.48507 19.1294 8.50784 19.1522 8.51923 19.175C8.53062 19.1977 8.53062 19.2319 8.53062 19.2547C8.542 19.5393 8.55339 19.8354 8.56477 20.12C8.63309 21.2473 8.87221 23.1033 9.70342 23.2285C9.70342 23.2285 10.2044 23.3082 10.4321 22.0671C10.4663 21.8735 10.4891 21.6572 10.5119 21.3953C10.5119 21.327 10.5119 21.2701 10.5119 21.2017C10.5119 21.1107 10.5232 21.0309 10.6371 20.9512C11.0129 20.6894 11.3772 20.4047 11.7188 20.1086C13.108 18.9245 13.9733 17.3645 14.6907 15.7249C15.2372 14.4724 15.7041 13.1857 16.0343 11.8535C16.3189 10.7148 16.6264 9.58759 16.911 8.44895C17.0249 7.9821 17.1388 7.51526 17.2412 7.04842C17.264 6.96871 17.2754 6.88901 17.2982 6.8093C17.3209 6.74098 17.3209 6.66128 17.3551 6.59296C17.3665 6.58157 17.3779 6.5588 17.3893 6.5588C17.4006 6.54741 17.4234 6.54741 17.4348 6.54741C17.4462 6.54741 17.4576 6.57019 17.4576 6.58157C17.4576 6.59296 17.4576 6.61573 17.4576 6.62712C17.4576 6.7296 17.4234 6.84346 17.4006 6.94594C17.4006 6.94594 17.4006 6.95733 17.4006 6.9801L17.3893 7.07119C17.3893 7.08258 17.3893 7.09396 17.3893 7.10535L17.3665 7.21921L17.3551 7.31031L16.8199 10.4302L16.8085 10.4871C16.7972 10.5782 16.7744 10.6693 16.763 10.7718C16.7288 10.9995 16.6833 11.2272 16.6491 11.455L15.5105 18.1274V18.1388C15.4877 18.3096 15.4649 18.469 15.4536 18.6398C15.4308 18.822 15.4308 18.8903 15.2031 18.9928C14.9184 19.1294 14.6451 19.2774 14.3719 19.4255C14.2352 19.5052 14.2011 19.6418 14.2808 19.7557C14.3149 19.8012 14.4743 19.8126 14.554 19.7784C14.6793 19.7329 14.7931 19.6646 14.9184 19.5963C15.0323 19.5393 15.1461 19.471 15.26 19.4368C15.2714 19.4368 15.2942 19.4255 15.3055 19.4368C15.3283 19.4482 15.3283 19.471 15.3283 19.4824C15.3511 19.5963 15.3283 19.7101 15.3055 19.824C15.3055 19.824 15.3055 19.824 15.3055 19.8354C15.3055 19.8468 15.3055 19.8581 15.3055 19.8695C15.2714 20.1314 15.0778 21.5661 14.9867 23.2855C14.907 25.0276 14.9412 27.0658 15.3966 28.4321C15.8407 29.7757 16.6833 30.4817 18.2091 29.6277C17.6284 29.8668 17.1615 29.8554 16.7744 29.6732C16.4442 29.5138 16.1823 29.2178 15.9887 28.8307V28.8193C14.6907 26.3256 15.6585 19.9265 15.7155 19.5621C15.7155 19.5621 15.7155 19.5621 15.7155 19.5507V19.5393C15.7496 19.2661 15.7382 19.175 16.1026 19.0611C16.6264 18.9017 17.1388 18.6853 17.6625 18.5259C17.97 18.4348 18.266 18.3438 18.5734 18.2527C18.7215 18.2071 18.8809 18.173 19.0289 18.1274C19.1769 18.0819 19.3249 18.0363 19.473 18.0022C19.4957 18.0022 19.5299 17.9794 19.5641 17.9908C19.5754 17.9908 19.5754 18.0135 19.5754 18.0249C19.5754 18.0363 19.5754 18.0477 19.5641 18.0591C19.5413 18.1274 19.5185 18.1843 19.4844 18.2413C19.1997 18.8334 18.9036 19.4255 18.6418 20.0289C18.5734 20.1884 18.5051 20.3478 18.471 20.5186C18.4254 20.7007 18.4026 20.9057 18.4824 21.0765C18.5165 21.1676 18.5734 21.2131 18.6759 21.2359C18.7556 21.2473 18.8467 21.2359 18.915 21.1904C18.9606 21.1676 19.0175 21.122 19.0517 21.0879C19.3591 20.7235 19.6552 20.3364 19.9512 19.9492C20.1903 19.6418 20.2814 19.6304 20.6002 19.824C20.8393 19.972 21.0671 20.12 21.3062 20.2794C21.7958 20.5983 22.2285 20.7121 22.7409 20.6324C23.0255 20.5869 23.2988 20.4958 23.5379 20.3364C23.6746 20.2453 23.7998 20.12 23.9023 19.9834C23.9592 19.9037 23.9934 19.8354 24.0389 19.7443C24.0617 19.6987 24.0845 19.6418 24.0959 19.5963C24.1072 19.5621 24.1072 19.5166 24.1186 19.4824C24.1186 19.4596 24.1186 19.4368 24.13 19.4141C24.13 19.4027 24.13 19.3913 24.13 19.3685C24.0731 19.5052 24.0162 19.5735 23.9478 19.6418ZM10.0222 20.5641C10.0109 20.5983 9.98808 20.6324 9.96531 20.6552C9.94253 20.678 9.91976 20.6894 9.8856 20.6894C9.84006 20.6894 9.8059 20.6666 9.78312 20.6324C9.74896 20.5869 9.72619 20.5299 9.73758 20.4844C9.73758 20.4047 9.82867 20.3022 9.90837 20.325C9.95392 20.3364 9.96531 20.3819 9.98808 20.4161C10.0109 20.4616 10.0336 20.5072 10.0222 20.5641ZM1.89233 17.82C1.89233 17.7972 1.90372 17.763 1.90372 17.7403C1.90372 17.7061 1.9151 17.672 1.9151 17.6264C1.96065 17.3531 2.02897 17.0685 2.0859 16.7952C2.15422 16.4764 2.22254 16.1689 2.29085 15.8501C2.35917 15.5313 2.42749 15.2239 2.49581 14.9051C2.56413 14.5862 2.63245 14.2788 2.68938 13.96C2.87156 13.0946 3.01959 12.2179 3.20177 11.3525C3.33841 10.6351 3.49782 9.92918 3.64584 9.21184C3.87357 8.11874 4.05575 7.01426 4.31764 5.92116C4.64784 4.5434 5.00082 3.16565 5.63846 1.87898C5.74094 1.66264 5.85481 1.45768 5.95728 1.25273C6.01422 1.15025 6.07115 1.04777 6.12808 0.945293C6.16224 0.888361 6.18501 0.842816 6.21917 0.785884C6.24194 0.740338 6.25333 0.706179 6.28749 0.672019C6.29888 0.660633 6.31026 0.649246 6.32165 0.63786C6.34442 0.615087 6.37858 0.592314 6.40135 0.580928C6.45829 0.558155 6.5266 0.580928 6.57215 0.626474C6.62908 0.683406 6.65186 0.785884 6.66324 0.865588C6.67463 0.979453 6.68601 1.09332 6.6974 1.20718C6.72017 1.43491 6.74295 1.65125 6.75433 1.87898C6.76572 1.95869 6.75433 2.03839 6.75433 2.1181H6.76572C6.76572 2.43692 6.77711 2.74435 6.76572 3.06317C6.74295 3.71219 6.75433 4.38399 6.65186 5.02163C6.43551 6.42216 6.17363 7.79992 5.74094 9.15491C5.33103 10.4416 4.90973 11.7055 4.37457 12.9352C4.26071 13.1971 4.14684 13.4476 4.03298 13.7095C3.90773 13.9941 3.78248 14.2674 3.65723 14.5521C3.53197 14.8253 3.39534 15.11 3.2587 15.3833C3.12206 15.6566 2.98543 15.9298 2.84879 16.2031C2.71215 16.4764 2.56413 16.7497 2.41611 17.0115C2.3364 17.1482 2.26808 17.2734 2.18838 17.4101C2.15422 17.4784 2.10867 17.5467 2.07451 17.6036C2.04035 17.6606 2.01758 17.7289 1.97203 17.7858C1.94926 17.82 1.9151 17.8769 1.88094 17.8997C1.88094 17.8883 1.89233 17.8428 1.89233 17.82ZM7.02761 23.2627V23.2741C7.01622 23.3082 7.00483 23.3424 6.99345 23.3766C6.95929 23.4676 6.93652 23.5587 6.90236 23.6384C6.89097 23.6726 6.87958 23.7068 6.85681 23.7409C6.85681 23.7523 6.85681 23.7523 6.84542 23.7637C6.83404 23.7978 6.81127 23.832 6.79988 23.8776C6.78849 23.9117 6.76572 23.9573 6.75433 23.9914C6.74295 24.0256 6.72017 24.0711 6.70879 24.1053C6.68602 24.1394 6.67463 24.185 6.65186 24.2191C6.65186 24.2191 6.65186 24.2191 6.65186 24.2305C6.64047 24.2419 6.64047 24.2647 6.62908 24.2761C6.6177 24.2989 6.60631 24.3102 6.59492 24.333C6.57215 24.3672 6.56076 24.4127 6.53799 24.4469C6.52661 24.4697 6.51522 24.4924 6.50383 24.5152C6.48106 24.5494 6.45829 24.5835 6.4469 24.6177C6.42413 24.6632 6.40135 24.7088 6.3672 24.7543C6.33304 24.8112 6.29888 24.8568 6.26472 24.9137C6.24194 24.9479 6.21917 24.982 6.1964 25.0162C6.17363 25.0617 6.13947 25.0959 6.10531 25.1414C6.07115 25.187 6.04837 25.2212 6.01422 25.2667C5.99144 25.3009 5.95728 25.3464 5.92312 25.3806C5.88897 25.4261 5.85481 25.4717 5.82065 25.5172C5.54737 25.8474 5.23994 26.1548 4.92112 26.4395C4.67062 26.6558 4.37457 26.8608 4.03298 26.6786C3.70277 26.5078 3.69138 26.1662 3.72554 25.8474C3.81664 25.0162 4.12407 24.2533 4.56814 23.5473C4.96666 22.8983 5.42212 22.2607 5.88897 21.6572C6.18501 21.2701 6.54938 20.9512 6.87958 20.5983C7.01622 20.4616 7.1187 20.4844 7.14147 20.6666C7.15286 20.7235 7.16424 20.7918 7.17563 20.8488C7.17563 20.8602 7.17563 20.8602 7.17563 20.8715C7.17563 20.8943 7.18702 20.9171 7.18702 20.9512C7.30088 21.7027 7.25534 22.4998 7.02761 23.2627ZM17.4348 7.24199L17.4576 7.12812C17.4576 7.16228 17.4462 7.20783 17.4348 7.24199L17.4234 7.33308C17.4348 7.31031 17.4348 7.27615 17.4348 7.24199Z" fill="#0072BB"/>
<path id="Vector_8" d="M17.4233 7.33328L17.4347 7.24219C17.4347 7.27635 17.4347 7.31051 17.4233 7.33328Z" fill="#0072BB"/>
<path id="Vector_9" d="M17.4346 7.24277C17.446 7.19722 17.446 7.16307 17.4573 7.12891L17.4346 7.24277Z" fill="#0072BB"/>
<path id="Vector_10" d="M28.2178 20.3368C28.1494 19.7447 28.0356 19.164 27.842 18.5947C27.7395 18.2873 27.5232 18.1165 27.2613 18.0937C27.0222 18.0709 26.7489 18.1848 26.6009 18.4353C26.2593 19.016 25.9177 19.5967 25.5647 20.1774C25.5419 20.2116 25.5306 20.2457 25.4964 20.2799C25.4964 20.2913 25.485 20.2913 25.4736 20.2913C25.4508 20.3027 25.4508 20.2799 25.4508 20.2571C25.4508 20.1547 25.4508 20.0522 25.4508 19.9497C25.4508 19.5284 25.4508 19.1071 25.4508 18.6858C25.4395 18.5264 25.4281 18.3556 25.4167 18.1962C25.4053 18.0596 25.3825 17.9229 25.3484 17.7977C25.3256 17.7066 25.2914 17.6155 25.2345 17.5472C25.2117 17.5244 25.189 17.5016 25.1662 17.5016C25.1434 17.4902 25.132 17.4902 25.1093 17.4902C25.0751 17.4902 25.0409 17.5016 25.0182 17.513C25.0979 17.5016 25.1434 17.5244 25.1776 17.6269C25.2231 17.8432 25.2345 18.0823 25.2459 18.2987C25.2573 18.6061 25.2459 18.9022 25.2345 19.2096C25.2231 19.517 25.2003 19.8245 25.1662 20.1319C25.1434 20.371 25.1093 20.6101 25.0523 20.8492C25.0296 20.9517 25.0068 21.0542 25.0182 21.1567C25.0296 21.225 25.0523 21.2933 25.1093 21.3388C25.1776 21.4072 25.2801 21.4186 25.3711 21.3958C25.5761 21.3388 25.6444 21.0883 25.7241 20.9175C25.8266 20.7012 25.9177 20.4963 26.0316 20.2799C26.0999 20.1433 26.1682 20.0066 26.2365 19.87C26.4415 19.4829 26.6806 19.1071 26.9425 18.7541C27.2157 18.4011 27.3865 18.4239 27.5118 18.8566C27.6712 19.4145 27.7851 19.9839 27.8648 20.5646C27.8989 20.8606 27.9103 21.0314 27.9559 21.2591C27.9672 21.3275 28.0811 21.4186 28.1722 21.4299C28.3316 21.4641 28.3202 21.3275 28.3202 21.225C28.2747 20.9289 28.2519 20.6329 28.2178 20.3368Z" fill="#0072BB"/>
<path id="Vector_11" d="M41.9613 19.6653C41.8588 19.6197 41.7677 19.54 41.688 19.4376L41.6766 19.4262C41.4375 19.1871 41.2895 18.9138 41.2667 18.891C40.9365 18.4242 40.5949 18.4242 40.2419 18.8682C40.037 19.1415 39.7865 19.3806 39.536 19.6084C39.3538 19.7791 39.2627 19.7564 39.1602 19.5173C38.9553 18.9821 39.0008 18.4583 39.3196 17.9915C39.4563 17.7865 39.5815 17.6727 39.7409 17.6385C40.2761 17.4108 40.8454 17.8548 40.9707 17.9573V17.9459C40.9707 17.9345 40.9593 17.9232 40.9479 17.9118C40.8568 17.7979 40.7771 17.6954 40.6974 17.6043C40.1622 17.0464 39.6498 17.0806 39.2741 17.3994C39.2058 17.4563 39.1375 17.5246 39.0805 17.593C39.0122 17.6727 38.9553 17.7524 38.9097 17.8548C38.887 17.9004 38.8642 17.9459 38.8414 17.9801C38.7503 18.1623 38.6934 18.3786 38.6478 18.595V18.6063C38.6251 18.743 38.6251 18.8796 38.6137 19.0163C38.6023 19.1984 38.5681 19.3351 38.4201 19.4603C37.9191 19.8589 37.4181 20.2004 36.8829 20.542C36.2111 20.9633 35.4596 21.2138 34.6284 21.1455C33.9794 21.1 33.3531 20.5876 33.1482 20.0866C32.8977 19.4831 33.1026 18.7999 33.4329 18.5039C33.7858 18.1964 34.1957 18.2306 34.4462 18.4355C34.4804 18.4583 34.7537 18.686 34.8562 18.9707C34.8448 18.6974 34.7651 18.4697 34.6626 18.3103C34.5601 18.1509 34.4462 18.037 34.3552 17.9801C34.1502 17.8776 34.0249 17.8207 33.6606 17.889C33.0116 18.0143 32.8408 18.686 32.6813 19.2668C32.3625 20.7812 31.5541 21.3277 31.4972 21.3505C31.2239 21.5782 30.9962 21.5327 30.7343 21.2366C30.5976 21.0772 30.4952 20.9178 30.4041 20.7356C30.3016 20.5193 30.2333 20.2915 30.1763 20.0524C29.96 19.244 29.812 18.3217 29.8006 18.242C29.7778 18.1281 29.7323 17.9459 29.5615 18.0029C29.5159 18.0256 29.4818 18.0712 29.4362 18.1167C29.0832 18.5494 28.9238 19.7222 28.9238 19.7564C28.9352 19.7222 29.1402 18.9593 29.2996 18.6633C29.3793 18.5266 29.4362 18.4811 29.4704 18.6519C29.4818 18.686 29.4932 18.7202 29.5045 18.7658C29.5615 19.0846 29.607 19.4034 29.6639 19.7222C29.7778 20.394 29.9714 21.0317 30.4041 21.5896C30.6773 21.954 31.0872 22.045 31.4744 21.7945C31.9982 21.4643 32.3511 20.9861 32.5903 20.4168C32.6244 20.3485 32.67 20.2346 32.7041 20.1663C32.7497 20.2346 32.7952 20.3371 32.8294 20.4054C33.2507 21.1797 33.9339 21.5554 34.7992 21.601C35.4141 21.6351 35.9834 21.4416 36.5186 21.1683C37.2473 20.8039 37.8849 20.3257 38.477 19.7678C38.6251 19.6311 38.682 19.5742 38.8072 19.7905C39.0464 20.2118 39.3993 20.2801 39.7637 19.9727C40.0484 19.7336 40.2989 19.4489 40.538 19.1643C40.7202 18.9593 40.7316 18.9479 40.9023 19.1643C41.1073 19.4148 41.3009 19.6881 41.5286 19.9158C41.8588 20.2346 42.3598 20.2801 42.6672 20.0183C42.7925 19.9158 42.8494 19.745 42.9405 19.6084C42.5989 19.9044 42.2459 19.8475 41.9613 19.6653Z" fill="#0072BB"/>
</g>
</g>
</svg>
