<svg width="20" height="20" viewBox="0 0 20 20" fill="none" xmlns="http://www.w3.org/2000/svg">
<g id="Group 595">
<path id="Vector" d="M4.11328 9.99998C4.11328 9.7657 4.2065 9.54101 4.37244 9.37535C4.53838 9.20968 4.76344 9.11662 4.99811 9.11662H9.11906V5.0025C9.11906 4.76822 9.21228 4.54353 9.37822 4.37787C9.54416 4.21221 9.76922 4.11914 10.0039 4.11914C10.2386 4.11914 10.4636 4.21221 10.6296 4.37787C10.7955 4.54353 10.8887 4.76822 10.8887 5.0025V9.11662H15.0097C15.2443 9.11662 15.4694 9.20968 15.6353 9.37535C15.8013 9.54101 15.8945 9.7657 15.8945 9.99998C15.8945 10.2343 15.8013 10.4589 15.6353 10.6246C15.4694 10.7903 15.2443 10.8833 15.0097 10.8833H10.8887V14.9975C10.8887 15.2317 10.7955 15.4564 10.6296 15.6221C10.4636 15.7877 10.2386 15.8808 10.0039 15.8808C9.76922 15.8808 9.54416 15.7877 9.37822 15.6221C9.21228 15.4564 9.11906 15.2317 9.11906 14.9975V10.8833H4.99811C4.76344 10.8833 4.53838 10.7903 4.37244 10.6246C4.2065 10.4589 4.11328 10.2343 4.11328 9.99998Z" fill="#0072BB"/>
<path id="Vector_2" fill-rule="evenodd" clip-rule="evenodd" d="M4.47478 0.304797C8.14678 -0.101599 11.8525 -0.101599 15.5245 0.304797C17.68 0.545072 19.4201 2.23995 19.6726 4.4036C20.1091 8.12196 20.1091 11.878 19.6726 15.5964C19.419 17.76 17.6788 19.4537 15.5245 19.6952C11.8525 20.1016 8.14678 20.1016 4.47478 19.6952C2.31933 19.4537 0.57917 17.76 0.326699 15.5964C-0.1089 11.8781 -0.1089 8.12186 0.326699 4.4036C0.57917 2.23995 2.32051 0.545072 4.47478 0.304797ZM15.3287 2.05974C11.7868 1.66781 8.21247 1.66781 4.67062 2.05974C4.01495 2.13236 3.40296 2.42354 2.9335 2.88624C2.46404 3.34893 2.16454 3.95612 2.08338 4.60972C1.66379 8.19142 1.66379 11.8097 2.08338 15.3914C2.16479 16.0448 2.4644 16.6517 2.93383 17.1142C3.40327 17.5767 4.01513 17.8677 4.67062 17.9402C8.18281 18.3313 11.8165 18.3313 15.3287 17.9402C15.984 17.8674 16.5956 17.5763 17.0648 17.1139C17.534 16.6514 17.8334 16.0446 17.9148 15.3914C18.3344 11.8097 18.3344 8.19142 17.9148 4.60972C17.8332 3.95673 17.5336 3.35021 17.0644 2.88801C16.5952 2.42581 15.9838 2.13486 15.3287 2.0621V2.05974Z" fill="#0072BB"/>
</g>
</svg>
