<svg width="108" height="71" viewBox="0 0 108 71" fill="none" xmlns="http://www.w3.org/2000/svg">
<g id="Frame" clip-path="url(#clip0_902_8828)">
<g id="Group" opacity="0.85">
<g id="Group_2">
<path id="Vector" d="M29.5241 11.0834C26.8538 9.49313 23.7033 9.01307 19.9528 9.64316C18.3325 9.91319 16.6223 10.4533 14.762 11.2634C12.0016 12.4636 9.75132 13.8138 7.86105 15.434C7.38098 15.824 6.96092 16.2441 6.48085 16.6642C6.36083 16.7842 6.21081 16.9042 6.09079 17.0242C6.09079 16.9642 6.09079 16.9342 6.06079 16.9042C6.00078 16.5741 5.94077 16.2441 5.91077 15.9141C5.73074 14.4738 5.79075 13.1537 6.06079 11.9235C6.60087 9.55314 7.68102 7.36283 9.24124 5.41255C11.0115 3.19223 13.3518 1.81204 16.2322 1.30196C16.3823 1.27196 16.5023 1.24196 16.6223 1.24196L17.1924 1.12194L16.9223 0.851901C16.7723 0.731884 16.6223 0.671875 16.4723 0.671875C16.3523 0.671875 16.2022 0.701879 16.0822 0.701879C15.7222 0.731884 15.3321 0.731884 14.9421 0.821896C12.3017 1.36197 10.1114 2.62215 8.43113 4.51242C6.48085 6.70274 5.22067 9.22309 4.65059 11.9535C4.23053 13.9338 4.32054 16.0341 4.89062 18.1344C4.95063 18.3444 4.92063 18.4644 4.7706 18.6444C4.50057 18.9445 4.23053 19.3045 3.93048 19.7846C1.9202 22.605 0.720025 25.3954 0.239956 28.2458C-0.480147 32.5964 0.479991 36.317 3.15037 39.2274C4.7706 40.9976 6.8409 42.2278 9.36126 42.8279C11.3415 43.308 13.3518 43.428 15.3921 43.1579C16.9823 42.9479 18.6326 42.4978 20.2528 41.8378C22.1731 41.0576 23.8233 39.8875 25.2035 38.4173C26.0136 37.5171 26.7337 36.497 27.3338 35.2668C28.654 32.5964 28.9241 29.806 28.1739 27.0156C27.9039 26.0255 27.4838 25.0354 26.8538 24.0452L26.8838 24.0152C27.0038 23.9252 27.1538 23.8352 27.2738 23.7452C29.4341 22.275 30.9043 20.6547 31.8345 18.7645C32.3745 17.6243 32.5846 16.6041 32.4646 15.584C32.2845 13.6337 31.2644 12.1035 29.5241 11.0834ZM10.4414 41.5077C6.69088 40.6976 4.0205 38.6573 2.52028 35.4168C1.83018 33.9766 1.50014 32.2664 1.56014 30.4361C1.65016 27.7357 2.43027 25.1554 3.99049 22.515C4.35054 21.8849 4.7406 21.2848 5.16066 20.6547C5.28068 20.4447 5.4307 20.2347 5.55071 20.0246V20.0546C5.64073 20.2647 5.76075 20.4447 5.85076 20.6247C6.72088 22.305 8.04107 23.6852 9.72131 24.6753C12.0016 26.0255 14.582 26.7456 17.4024 26.7756C19.4127 26.8056 21.483 26.4156 23.5833 25.6354C24.0334 25.4554 24.4834 25.2754 24.9635 25.0654C25.1435 24.9753 25.3235 24.9153 25.5036 24.8253C25.5936 25.0053 25.6836 25.1554 25.7736 25.3354C26.0136 25.8155 26.2537 26.2955 26.4337 26.8056C27.6939 30.4661 26.9738 33.9766 24.2434 37.2171C22.7432 39.0173 20.6729 40.2775 17.9125 41.0876C15.2721 41.8678 12.7517 42.0178 10.4414 41.5077ZM25.9236 22.845C25.7436 22.665 25.5636 22.515 25.4136 22.365C24.4534 21.4648 23.1932 20.8048 21.633 20.4147C21.0629 20.2647 20.5229 20.5347 19.9828 20.8047L19.6827 20.9548L19.9528 21.1348C20.0728 21.1948 20.1628 21.2848 20.2528 21.3448C20.6429 21.6149 21.0029 21.8549 21.453 21.9749C22.7432 22.335 23.7933 22.9051 24.6034 23.7452C24.5434 23.7752 24.5134 23.7752 24.4534 23.8052C24.1834 23.9252 23.9133 24.0452 23.6733 24.1352C21.393 25.0354 19.2627 25.4254 17.1924 25.3354C13.9819 25.2454 11.4016 24.2852 9.30125 22.515C8.19109 21.5849 7.32097 20.3547 6.69088 18.8545C6.66087 18.7645 6.66087 18.7044 6.78089 18.5544C7.77103 17.4743 8.85119 16.4841 10.0214 15.644C12.1817 14.0838 14.582 12.7936 17.1624 11.8635C18.5126 11.3834 19.7727 11.0534 20.9429 10.9033C21.1529 10.8733 21.363 10.8433 21.573 10.8433C24.2134 10.6333 26.4937 11.0534 28.504 12.1035C30.0942 12.9436 30.9343 14.1438 31.1144 15.734C31.2044 16.6642 30.9943 17.5643 30.4543 18.5544C29.5241 20.2647 28.0839 21.7349 26.0736 22.9651L25.9236 22.845Z" fill="#0072BB"/>
</g>
<g id="NGOT5m_1_">
<g id="Group_3">
<g id="Group_4">
<path id="Vector_2" d="M52.2672 27.1661C51.6371 27.7362 51.037 28.3063 50.3769 28.7864C49.5968 29.3864 48.6967 29.7765 47.7365 29.8965C46.5364 30.0165 45.5462 29.5065 45.0661 28.4563C44.6761 27.6162 44.6461 26.7161 44.8561 25.7859C44.8861 25.6959 44.8861 25.6359 44.8861 25.4859C44.5261 25.5459 44.226 25.6059 43.896 25.6059C42.9658 25.5759 42.2157 25.1858 41.6457 24.4657C41.3456 24.0757 41.0756 23.6556 40.8055 23.2356C40.2655 22.3654 39.5754 22.2154 38.6752 22.8155C38.2252 23.1155 37.7751 23.4756 37.355 23.8356C36.6049 24.4657 35.8848 25.0658 35.1647 25.7259C35.0147 25.8759 34.8947 26.056 34.8047 26.236C33.6345 28.9964 32.4643 31.7868 31.2942 34.5472C31.1742 34.8472 30.7841 35.0272 30.4841 34.9072C30.154 34.7872 30.004 34.4872 30.154 34.1271C31.0541 31.9668 31.9543 29.8065 32.8844 27.6462C33.4845 26.206 34.1446 24.7958 34.7447 23.3556C34.7747 23.2956 34.7747 23.2356 34.7447 23.1155C34.6547 23.2056 34.5946 23.2656 34.5046 23.3556C33.1544 24.7958 31.6542 26.086 29.914 27.0761C29.4339 27.3462 28.9238 27.5562 28.3838 27.5862C28.2937 27.5862 28.2037 27.5862 27.9937 27.5562C28.1137 27.4662 28.1437 27.4362 28.2037 27.4362C29.2239 27.3161 30.064 26.7461 30.8741 26.176C32.1643 25.2759 33.3645 24.2257 34.3846 23.0255C34.6847 22.6955 34.9247 22.3054 35.1947 21.9454C35.2847 21.8254 35.4948 21.6753 35.6148 21.6753C35.8848 21.7053 36.1849 21.7654 36.1249 22.1254C36.0349 22.6055 35.9448 23.0855 35.7948 23.5656C35.6748 24.0157 35.4648 24.4657 35.2847 25.0058C35.6148 24.7058 35.8548 24.4957 36.1249 24.2557C36.965 23.5356 37.8051 22.8155 38.6752 22.1254C39.7854 21.2553 40.9255 21.3753 41.7657 22.3954C42.0657 22.7555 42.3057 23.1756 42.5758 23.5356C43.3259 24.5558 44.136 24.5257 45.1562 24.0757C45.3062 24.0157 45.4262 23.8657 45.4862 23.7156C45.9963 22.6955 46.5964 21.7654 47.4365 21.0152C48.7267 19.8151 50.1969 19.215 51.9371 19.6651C52.3272 19.7551 52.7172 19.8151 52.9273 20.1751C52.9573 20.2351 52.9873 20.3251 52.9573 20.3852C52.9273 20.4152 52.8072 20.4452 52.7472 20.4452C51.337 20.3852 49.9868 20.5652 48.7867 21.5553C47.7965 22.3954 47.0464 23.3856 46.6264 24.5858C46.4163 25.1858 46.2363 25.7859 46.1463 26.416C46.0863 26.8061 46.2063 27.2561 46.3263 27.6462C46.4763 28.0963 46.9864 28.2463 47.4965 28.2163C48.1866 28.1563 48.7867 27.8562 49.3868 27.4962C50.797 26.596 51.7571 25.3359 52.5072 23.8957C52.7472 23.4156 52.9873 22.9355 53.2273 22.4555C53.4073 22.0954 53.4973 22.0654 53.8874 22.2154C54.0374 22.2754 54.1574 22.3054 54.3075 22.3654C54.6975 22.4855 54.7275 22.8455 54.6675 23.1456C54.4275 24.2857 54.1874 25.4259 53.8874 26.566C53.4073 28.3663 52.8973 30.1666 52.3872 31.9668C52.3572 32.0268 52.3572 32.1168 52.3572 32.2368C52.9573 31.7868 53.5273 31.3667 54.0974 30.9767C55.3576 30.1365 56.5878 29.2964 57.878 28.5163C58.328 28.2463 58.8981 28.1263 59.4382 27.9762C58.8381 28.8464 58.178 29.6265 57.3079 30.2566C55.6577 31.4867 54.0074 32.7769 52.3572 34.0371C52.2372 34.1271 52.1472 34.2171 52.0271 34.2771C51.5771 34.5172 51.5171 34.9972 51.367 35.4173C50.767 37.2776 50.1669 39.1678 49.5368 41.0281C48.9667 42.7383 48.3666 44.4486 47.7665 46.1288C46.7764 48.8292 45.6662 51.5296 44.376 54.11C43.3559 56.2103 42.2457 58.2806 41.0756 60.3209C40.2655 61.7311 39.3353 63.0813 38.3452 64.4014C37.355 65.7516 36.2149 66.9818 34.9247 68.062C33.8745 68.9621 32.7344 69.7422 31.4142 70.1923C29.6439 70.7624 27.9037 70.8224 26.3735 69.8022C25.3533 69.1421 24.7232 68.122 24.3632 66.9518C23.8831 65.4216 23.9431 63.8314 24.2132 62.2411C24.6032 60.0208 25.4133 57.9505 26.4635 55.9402C27.6336 53.7799 29.1039 51.7996 30.7841 49.9694C32.4943 48.1091 34.2646 46.3389 36.1849 44.6886C37.9551 43.1284 39.7854 41.6582 41.6156 40.158C42.8758 39.1378 44.166 38.1777 45.4562 37.2176C46.6264 36.3474 47.8265 35.5073 48.9967 34.6372C49.3568 34.3672 49.7168 34.1271 50.0769 33.8271C50.1969 33.7371 50.3169 33.557 50.3469 33.407C50.797 31.9368 51.217 30.4366 51.6671 28.9664C51.9371 28.4263 52.0871 27.7962 52.2672 27.1661ZM49.5968 36.2574C49.4768 36.3174 49.4468 36.3174 49.4168 36.3474C47.7965 37.5476 46.1763 38.7178 44.5861 39.978C42.9358 41.2381 41.3456 42.5583 39.7554 43.8785C38.1952 45.1987 36.6649 46.5189 35.1947 47.8991C33.8445 49.1893 32.5844 50.5395 31.2942 51.9197C29.944 53.3599 28.8338 54.9801 27.9037 56.6903C27.0636 58.1906 26.4035 59.7508 25.9834 61.401C25.5634 63.0813 25.2933 64.7615 25.7734 66.4117C26.0134 67.1918 26.4035 67.8219 27.0336 68.302C27.8137 68.8721 28.7438 69.0221 29.764 68.9021C31.5042 68.7221 32.8844 67.8219 34.1746 66.6818C35.8848 65.1516 37.385 63.4413 38.5852 61.521C39.7254 59.7208 40.8055 57.8905 41.8257 56.0302C43.1159 53.6599 44.226 51.1696 45.1862 48.6792C46.0563 46.4589 46.8964 44.2086 47.7065 41.9582C48.2166 40.518 48.6667 39.0778 49.1467 37.6376C49.2967 37.2176 49.4468 36.7675 49.5968 36.2574Z" fill="#0072BB"/>
</g>
<g id="Group_5">
<path id="Vector_3" d="M107.355 16.0036C106.815 17.3538 105.945 18.3439 104.745 19.064C102.644 20.3542 100.424 21.3144 98.0537 21.8544C96.5235 22.1845 94.9633 22.3345 93.4031 22.0045C93.073 21.9444 92.773 21.8244 92.4429 21.7344C92.1729 22.2745 91.7528 22.6345 91.2428 22.9046C90.4927 23.3546 89.7125 23.8047 88.8124 23.9247C87.2522 24.1348 86.022 23.1746 85.902 21.5544C85.812 20.3542 86.082 19.154 86.2621 17.9539C86.2921 17.8039 86.3221 17.6238 86.2921 17.4438C86.082 17.8039 85.902 18.1339 85.692 18.494C85.0319 19.6041 84.3718 20.7443 83.6817 21.8544C83.3816 22.3645 83.0516 22.8746 82.7216 23.3546C82.0615 24.2548 81.2213 24.8549 80.0512 24.7949C78.941 24.7048 78.0709 23.8347 77.9809 22.5745C77.9209 21.6444 78.0109 20.7143 78.0109 19.7541C78.0109 19.094 78.0409 18.4039 77.9809 17.7438C77.9209 17.1138 77.4408 16.8737 76.7807 17.0537C75.8506 17.3238 75.1005 17.8939 74.3804 18.494C73.8403 18.944 73.3302 19.4241 72.8501 19.9342C72.7001 20.0842 72.6101 20.2942 72.5201 20.5042C71.98 22.0645 71.4399 23.5947 70.8999 25.1549C70.7798 25.545 70.5698 25.905 70.2398 26.1751C70.0897 26.2951 69.9697 26.3851 69.8197 26.5051C69.7297 26.5651 69.6697 26.6251 69.5797 26.6851C68.4995 27.7053 67.4194 28.0053 66.1292 27.5252C65.049 27.1052 64.4489 26.2651 64.2089 25.1849C64.1189 24.8249 64.0889 24.4648 63.9989 24.0748C63.7288 24.4648 63.4888 24.8249 63.2188 25.1849C62.5287 26.025 61.7786 26.7451 60.7284 27.1352C59.5882 27.5552 58.4781 27.2252 57.788 26.3251C57.2179 25.575 57.1579 24.6748 57.2779 23.7747C57.5179 21.8544 58.5081 20.2942 60.0083 19.004C60.6984 18.4339 61.4785 18.0739 62.3786 18.0439C62.4386 18.0439 62.5287 18.0139 62.5887 18.0439C62.7087 18.1039 62.7987 18.1939 62.8887 18.2539C62.7987 18.3139 62.7087 18.3739 62.5887 18.4039C62.0186 18.584 61.4485 18.824 60.9984 19.2741C59.7683 20.4442 58.8681 21.8244 58.5381 23.4747C58.4481 23.9547 58.3881 24.5248 58.5081 24.9749C58.7181 25.935 59.6783 26.4451 60.7884 25.755C61.7486 25.1249 62.4687 24.2848 62.9487 23.2946C63.6688 21.7944 64.0889 20.2342 64.4489 18.644C64.539 18.1939 64.659 18.1039 65.169 18.1639C65.4991 18.1939 65.6491 18.3739 65.5891 18.764C65.4691 20.0542 65.2891 21.3744 65.199 22.6646C65.139 23.5347 65.169 24.4048 65.4691 25.2149C65.9191 26.5351 67.2393 26.9852 68.4995 26.2051C69.3696 25.665 69.8797 24.8549 70.2398 23.9847C70.8399 22.4245 71.3799 20.8643 71.92 19.2741C72.16 18.614 72.4001 17.9239 72.6401 17.2638C72.6701 17.1738 72.7001 17.0838 72.7601 17.0537C72.8201 16.9937 72.9702 16.8737 73.0302 16.9037C73.1202 16.9337 73.2402 17.0838 73.2102 17.1438C73.1802 17.4738 73.1202 17.7739 73.0602 18.1039C73.0002 18.3739 72.9402 18.614 72.9402 18.914C73.2702 18.554 73.6002 18.2239 73.9003 17.8639C74.6504 17.0237 75.5505 16.4237 76.6007 16.1236C77.7108 15.7936 78.911 16.1836 79.121 17.5638C79.2411 18.2839 79.181 19.064 79.151 19.7841C79.151 20.6243 79.121 21.4644 79.121 22.3045C79.121 22.5445 79.211 22.7546 79.3011 22.9646C79.5711 23.5647 80.2012 23.7447 80.8013 23.3847C81.0713 23.2346 81.2813 22.9946 81.5214 22.7846C81.7914 22.5145 82.0615 22.2445 82.3015 21.9444C82.5115 21.7044 82.6315 21.4044 82.7816 21.1043C83.5617 19.7241 84.3418 18.3439 85.1219 16.9637C85.512 16.2736 85.872 15.5535 86.232 14.8634C86.3821 14.5934 86.5321 14.3234 86.6821 14.0833C86.8021 13.9033 86.9822 13.7833 87.2222 13.8733C87.8523 14.0833 87.8223 14.0233 87.7623 14.5934C87.6423 15.7036 87.4322 16.8137 87.2822 17.9539C87.1322 19.064 86.9822 20.1742 86.9522 21.2844C86.9522 22.5145 87.7923 23.0246 89.0225 22.7546C89.9526 22.5445 90.7027 22.0345 91.3328 21.3444C91.3628 21.3144 91.3928 21.2844 91.3928 21.2543C91.1528 20.9843 90.9127 20.7143 90.7027 20.4442C90.1326 19.6041 90.0426 18.644 90.2526 17.6238C90.5827 16.0336 91.3028 14.6534 92.623 13.6033C93.7031 12.7331 94.9033 12.4031 96.2235 12.7331C96.7336 12.8531 97.2436 13.0332 97.5437 13.5132C97.6637 13.6933 97.6337 13.8433 97.5137 14.0233C97.3936 14.2033 97.2436 14.1433 97.0936 14.1133C96.5835 14.0233 96.0735 13.8733 95.5634 13.8433C94.4232 13.7833 93.5231 14.2634 92.773 15.1035C91.9029 16.1236 91.4228 17.2638 91.3928 18.554C91.3928 19.5441 91.9029 20.2042 92.773 20.5643C93.7931 21.0143 94.9033 21.0143 96.0435 20.8943C98.8639 20.5943 101.414 19.5441 103.845 18.0739C105.135 17.4138 106.215 16.7237 107.355 16.0036Z" fill="#0072BB"/>
</g>
<g id="Group_6">
<path id="Vector_4" d="M88.4222 8.74325C88.7522 8.71324 88.8422 8.77325 88.7822 9.0733C88.7822 9.19331 88.8122 9.28333 88.8122 9.40334C88.7822 9.76339 88.5122 9.91342 88.2421 10.0934C87.9721 10.2435 87.702 10.3335 87.432 10.1234C87.192 9.94342 87.192 9.73339 87.342 9.49336C87.582 9.04329 88.0021 8.83326 88.4222 8.74325Z" fill="#0072BB"/>
</g>
</g>
</g>
</g>
</g>
<defs>
<clipPath id="clip0_902_8828">
<rect width="107.355" height="70" fill="white" transform="translate(0 0.671875)"/>
</clipPath>
</defs>
</svg>
