<svg width="61" height="60" viewBox="0 0 61 60" fill="none" xmlns="http://www.w3.org/2000/svg">
<circle cx="30.5" cy="30" r="30" fill="#DAF2E5"/>
<path d="M30.2998 14.7998C38.5841 14.7998 45.2998 21.5155 45.2998 29.7998C45.2998 38.0841 38.5841 44.7998 30.2998 44.7998C22.0155 44.7998 15.2998 38.0841 15.2998 29.7998C15.2998 21.5155 22.0155 14.7998 30.2998 14.7998ZM30.2998 16.7735C23.1056 16.7735 17.2735 22.6056 17.2735 29.7998C17.2735 36.994 23.1056 42.8261 30.2998 42.8261C37.494 42.8261 43.3261 36.994 43.3261 29.7998C43.3261 22.6056 37.494 16.7735 30.2998 16.7735ZM29.313 20.3261C29.8239 20.3261 30.2442 20.7144 30.2947 21.2121L30.2998 21.313V29.7998H35.6288C36.1738 29.7998 36.6156 30.2416 36.6156 30.7866C36.6156 31.2976 36.2273 31.7179 35.7297 31.7684L35.6288 31.7735H29.313C28.802 31.7735 28.3818 31.3852 28.3312 30.8875L28.3261 30.7866V21.313C28.3261 20.7679 28.7679 20.3261 29.313 20.3261Z" fill="#2DA867"/>
</svg>
