<svg width="61" height="60" viewBox="0 0 61 60" fill="none" xmlns="http://www.w3.org/2000/svg">
<circle cx="30.5" cy="30" r="30" fill="#EFEBE9"/>
<path d="M36.6498 15C36.7498 15 36.9498 15.1 37.0498 15.1C39.2498 15.6 40.8498 17.4 40.8498 19.8C40.8498 22.1 40.8498 24.5 40.8498 26.8C40.8498 27.4 40.5498 27.9 40.0498 28C39.5498 28.2 39.0498 28 38.7498 27.6C38.6498 27.3 38.5498 27 38.5498 26.7C38.5498 24.4 38.5498 22.2 38.5498 19.9C38.5498 19.1 38.2498 18.4 37.6498 17.8C37.2498 17.5 36.7498 17.3 36.1498 17.3C31.3498 17.3 26.5498 17.3 21.8498 17.3C20.5498 17.3 19.5498 18.2 19.4498 19.6C19.4498 19.7 19.4498 19.8 19.4498 19.9C19.4498 26.6 19.4498 33.3 19.4498 40.1C19.4498 41.1 19.8498 42 20.7498 42.4C21.0498 42.6 21.5498 42.6 21.9498 42.6C23.1498 42.6 24.4498 42.6 25.6498 42.6C26.1498 42.6 26.6498 42.9 26.7498 43.4C26.9498 43.9 26.7498 44.4 26.4498 44.7C26.2498 44.8 26.0498 44.9 25.9498 45C24.3498 45 22.8498 45 21.2498 45C21.1498 45 21.0498 45 20.9498 44.9C19.0498 44.7 17.3498 43 17.1498 41.1C17.0498 40.3 17.0498 39.5 17.0498 38.6C17.0498 32.3 17.0498 26.1 17.0498 19.8C17.0498 17.3 18.7498 15.4 20.8498 15C20.9498 15.1 21.1498 15 21.2498 15C26.3498 15 31.5498 15 36.6498 15Z" fill="#4E342E"/>
<path d="M30.6499 45.0001C29.9499 44.7001 29.6499 44.1001 29.8499 43.5001C30.2499 42.0001 30.7499 40.5001 31.2499 38.9001C31.3499 38.7001 31.4499 38.5001 31.6499 38.3001C33.7499 36.2001 35.8499 34.1001 37.9499 32.0001C38.9499 31.0001 40.1499 30.7001 41.5499 31.1001C42.8499 31.5001 43.6499 32.5001 43.9499 33.8001C44.1499 34.9001 43.8499 35.8001 43.1499 36.7001C43.0499 36.9001 42.8499 37.0001 42.6499 37.2001C40.6499 39.2001 38.6499 41.2001 36.7499 43.1001C36.4499 43.4001 36.1499 43.5001 35.8499 43.6001C34.3499 44.0001 32.7499 44.5001 31.2499 44.9001C30.9499 45.0001 30.8499 45.0001 30.6499 45.0001ZM37.6499 35.5001C37.6499 35.6001 37.5499 35.7001 37.4499 35.7001C36.2499 36.9001 35.0499 38.1001 33.8499 39.3001C33.4499 39.7001 33.2499 40.0001 33.0499 40.5001C32.9499 41.0001 32.7499 41.5001 32.5499 42.1001C33.2499 41.9001 33.9499 41.7001 34.6499 41.5001C34.8499 41.4001 34.9499 41.4001 35.1499 41.2001C36.1499 40.2001 37.2499 39.1001 38.2499 38.1001C38.5499 37.8001 38.9499 37.4001 39.2499 37.1001C38.7499 36.6001 38.2499 36.1001 37.6499 35.5001ZM39.4499 33.8001C40.0499 34.4001 40.5499 34.9001 41.0499 35.4001C41.4499 35.1001 41.6499 34.7001 41.5499 34.1001C41.4499 33.6001 41.1499 33.3001 40.6499 33.2001C40.1499 33.2001 39.7499 33.4001 39.4499 33.8001Z" fill="#4E342E"/>
<path d="M28.95 22C30.95 22 32.95 22 34.95 22C35.85 22 36.35 22.8 36.05 23.6C35.85 24.1 35.55 24.3 35.05 24.4C34.85 24.4 34.65 24.4 34.45 24.4C30.65 24.4 26.85 24.4 23.05 24.4C22.25 24.4 21.75 23.9 21.75 23.2C21.75 22.5 22.25 22 22.95 22C24.55 22 26.15 22 27.75 22C28.15 22 28.55 22 28.95 22Z" fill="#4E342E"/>
<path d="M28.95 29.0998C26.95 29.0998 24.95 29.0998 22.95 29.0998C22.15 29.0998 21.65 28.4998 21.75 27.7998C21.85 27.2998 22.25 26.8998 22.75 26.7998C22.85 26.7998 22.85 26.7998 22.95 26.7998C26.95 26.7998 30.85 26.7998 34.85 26.7998C35.55 26.7998 36.05 27.2998 36.05 27.8998C36.05 28.5998 35.55 29.0998 34.85 29.0998C33.45 29.0998 32.05 29.0998 30.65 29.0998C30.15 29.0998 29.55 29.0998 28.95 29.0998Z" fill="#4E342E"/>
<path d="M26.5494 31.3998C27.7494 31.3998 28.9494 31.3998 30.1494 31.3998C30.6494 31.3998 31.1494 31.6998 31.2494 32.1998C31.3494 32.6998 31.2494 33.1998 30.8494 33.4998C30.6494 33.5998 30.3494 33.6998 30.1494 33.6998C27.7494 33.6998 25.3494 33.6998 22.8494 33.6998C22.1494 33.6998 21.6494 33.1998 21.6494 32.4998C21.6494 31.7998 22.1494 31.2998 22.8494 31.2998C24.1494 31.3998 25.3494 31.3998 26.5494 31.3998Z" fill="#4E342E"/>
</svg>
