<svg width="61" height="60" viewBox="0 0 61 60" fill="none" xmlns="http://www.w3.org/2000/svg">
<circle cx="30.5" cy="30" r="30" fill="#E0F2F1"/>
<path d="M18.2998 30C18.2998 26.3 18.2998 22.7 18.2998 19C18.2998 17.2 19.2998 15.8 20.8998 15.2C21.2998 15.1 21.7998 15 22.2998 15C27.7998 15 33.2998 15 38.7998 15C41.0998 15 42.7998 16.6 42.7998 19C42.7998 24.8 42.7998 30.5 42.7998 36.3C42.7998 37.1 42.4998 37.7 41.9998 38.3C39.9998 40.3 37.9998 42.3 35.9998 44.3C35.4998 44.8 34.7998 45.1 33.9998 45.1C30.0998 45.1 26.1998 45.1 22.2998 45.1C19.9998 45.1 18.2998 43.5 18.2998 41.1C18.2998 37.3 18.2998 33.7 18.2998 30ZM40.5998 35.9C40.5998 35.7 40.5998 35.6 40.5998 35.5C40.5998 30 40.5998 24.5 40.5998 19C40.5998 17.8 39.8998 17.1 38.6998 17.1C33.2998 17.1 27.7998 17.1 22.3998 17.1C21.0998 17.1 20.3998 17.8 20.3998 19C20.3998 26.3 20.3998 33.6 20.3998 40.9C20.3998 42.1 21.0998 42.8 22.2998 42.9C25.8998 42.9 29.5998 42.9 33.1998 42.9C33.2998 42.9 33.3998 42.9 33.5998 42.9C33.5998 42.8 33.5998 42.6 33.5998 42.5C33.5998 41.1 33.5998 39.8 33.5998 38.4C33.5998 36.9 34.5998 35.9 36.0998 35.9C37.1998 35.9 38.1998 35.9 39.2998 35.9C39.6998 35.9 40.0998 35.9 40.5998 35.9ZM38.9998 38C38.0998 38 37.0998 38 36.1998 38C35.7998 38 35.6998 38.1 35.6998 38.5C35.6998 39.4 35.6998 40.2 35.6998 41.1C35.6998 41.2 35.6998 41.3 35.6998 41.3C36.7998 40.2 37.8998 39.1 38.9998 38Z" fill="#004D40"/>
<path d="M30.4994 28.2002C28.6994 28.2002 26.7994 28.2002 24.9994 28.2002C24.2994 28.2002 23.8994 27.8002 23.8994 27.2002C23.8994 26.7002 24.1994 26.3002 24.6994 26.2002C24.7994 26.2002 24.9994 26.2002 25.0994 26.2002C28.6994 26.2002 32.2994 26.2002 35.7994 26.2002C35.8994 26.2002 35.9994 26.2002 36.0994 26.2002C36.6994 26.3002 37.0994 26.7002 37.0994 27.3002C37.0994 27.9002 36.6994 28.3002 36.0994 28.3002C34.1994 28.3002 32.2994 28.2002 30.4994 28.2002Z" fill="#004D40"/>
<path d="M30.4995 22.7001C28.6995 22.7001 26.7995 22.7001 24.9995 22.7001C24.2995 22.7001 23.7995 22.2001 23.8995 21.5001C23.8995 21.0001 24.3995 20.6001 24.9995 20.6001C25.7995 20.6001 26.4995 20.6001 27.2995 20.6001C30.1995 20.6001 33.0995 20.6001 35.9995 20.6001C36.5995 20.6001 37.0995 21.0001 37.0995 21.6001C37.0995 22.2001 36.6995 22.7001 35.9995 22.7001C34.1995 22.7001 32.2995 22.7001 30.4995 22.7001Z" fill="#004D40"/>
<path d="M28.3998 31.8002C29.5998 31.8002 30.6998 31.8002 31.8998 31.8002C32.3998 31.8002 32.7998 32.1002 32.8998 32.6002C32.9998 33.1002 32.7998 33.5002 32.3998 33.7002C32.1998 33.8002 31.9998 33.8002 31.7998 33.8002C29.4998 33.8002 27.1998 33.8002 24.8998 33.8002C24.2998 33.8002 23.7998 33.3002 23.7998 32.7002C23.7998 32.1002 24.1998 31.7002 24.8998 31.7002C26.0998 31.7002 27.2998 31.7002 28.3998 31.8002Z" fill="#004D40"/>
<path d="M27.2994 39.3998C26.4994 39.3998 25.6994 39.3998 24.9994 39.3998C24.2994 39.3998 23.8994 38.9998 23.8994 38.2998C23.8994 37.6998 24.3994 37.2998 24.9994 37.2998C26.5994 37.2998 28.1994 37.2998 29.6994 37.2998C30.3994 37.2998 30.7994 37.6998 30.7994 38.3998C30.7994 38.9998 30.2994 39.3998 29.6994 39.3998C28.8994 39.3998 28.0994 39.3998 27.2994 39.3998Z" fill="#004D40"/>
</svg>
