<svg width="61" height="60" viewBox="0 0 61 60" fill="none" xmlns="http://www.w3.org/2000/svg">
<circle cx="30.5" cy="30" r="30" fill="#DAECF2"/>
<path d="M37.6337 26.3006C38.1218 25.8124 38.1219 25.021 37.6337 24.5328C37.1456 24.0446 36.3541 24.0446 35.866 24.5328L28.4165 31.9819L25.9607 29.5261C25.4725 29.0379 24.6811 29.0379 24.1929 29.5261C23.7048 30.0142 23.7048 30.8057 24.1929 31.2939L27.5326 34.6335C28.0207 35.1216 28.8122 35.1217 29.3003 34.6335L37.6337 26.3006ZM20.9167 15C17.9251 15 15.5 17.4251 15.5 20.4167V39.5833C15.5 42.5749 17.9251 45 20.9167 45H40.0833C43.0749 45 45.5 42.5749 45.5 39.5833V20.4167C45.5 17.4251 43.0749 15 40.0833 15H20.9167ZM18 20.4167C18 18.8058 19.3058 17.5 20.9167 17.5H40.0833C41.6942 17.5 43 18.8058 43 20.4167V39.5833C43 41.1942 41.6942 42.5 40.0833 42.5H20.9167C19.3058 42.5 18 41.1942 18 39.5833V20.4167Z" fill="#3A9EC3"/>
</svg>
