<svg width="61" height="60" viewBox="0 0 61 60" fill="none" xmlns="http://www.w3.org/2000/svg">
<circle cx="30.5" cy="30" r="30" fill="#F2E1DA"/>
<path d="M28 27.9167C28 29.9877 26.3211 31.6667 24.25 31.6667C22.1789 31.6667 20.5 29.9877 20.5 27.9167C20.5 25.8456 22.1789 24.1667 24.25 24.1667C26.3211 24.1667 28 25.8456 28 27.9167ZM25.9167 27.9167C25.9167 26.9962 25.1705 26.25 24.25 26.25C23.3295 26.25 22.5833 26.9962 22.5833 27.9167C22.5833 28.8371 23.3295 29.5833 24.25 29.5833C25.1705 29.5833 25.9167 28.8371 25.9167 27.9167ZM24.25 40.8333C26.3211 40.8333 28 39.1544 28 37.0833C28 35.0123 26.3211 33.3333 24.25 33.3333C22.1789 33.3333 20.5 35.0123 20.5 37.0833C20.5 39.1544 22.1789 40.8333 24.25 40.8333ZM24.25 38.75C23.3295 38.75 22.5833 38.0038 22.5833 37.0833C22.5833 36.1629 23.3295 35.4167 24.25 35.4167C25.1705 35.4167 25.9167 36.1629 25.9167 37.0833C25.9167 38.0038 25.1705 38.75 24.25 38.75ZM21.5417 20C20.9664 20 20.5 20.4664 20.5 21.0417C20.5 21.617 20.9664 22.0833 21.5417 22.0833H39.4583C40.0336 22.0833 40.5 21.617 40.5 21.0417C40.5 20.4664 40.0336 20 39.4583 20H21.5417ZM29.6667 28.125C29.6667 27.5497 30.133 27.0833 30.7083 27.0833H39.4583C40.0336 27.0833 40.5 27.5497 40.5 28.125C40.5 28.7003 40.0336 29.1667 39.4583 29.1667H30.7083C30.133 29.1667 29.6667 28.7003 29.6667 28.125ZM30.7083 35.8333C30.133 35.8333 29.6667 36.2997 29.6667 36.875C29.6667 37.4503 30.133 37.9167 30.7083 37.9167H39.4583C40.0336 37.9167 40.5 37.4503 40.5 36.875C40.5 36.2997 40.0336 35.8333 39.4583 35.8333H30.7083ZM20.7083 15C17.8319 15 15.5 17.3319 15.5 20.2083V39.7917C15.5 42.6682 17.8319 45 20.7083 45H40.2917C43.1682 45 45.5 42.6682 45.5 39.7917V20.2083C45.5 17.3319 43.1682 15 40.2917 15H20.7083ZM17.5833 20.2083C17.5833 18.4824 18.9824 17.0833 20.7083 17.0833H40.2917C42.0176 17.0833 43.4167 18.4824 43.4167 20.2083V39.7917C43.4167 41.5176 42.0176 42.9167 40.2917 42.9167H20.7083C18.9824 42.9167 17.5833 41.5176 17.5833 39.7917V20.2083Z" fill="#DB6334"/>
</svg>
