<svg width="61" height="60" viewBox="0 0 61 60" fill="none" xmlns="http://www.w3.org/2000/svg">
<circle cx="30.5" cy="30" r="30" fill="#E1F5FE"/>
<path d="M15.5 20.1923C15.5 17.3247 17.8247 15 20.6923 15H40.3077C43.1753 15 45.5 17.3247 45.5 20.1923V39.8077C45.5 42.6753 43.1753 45 40.3077 45H20.6923C17.8247 45 15.5 42.6753 15.5 39.8077V20.1923ZM20.6923 17.3077C19.0992 17.3077 17.8077 18.5992 17.8077 20.1923V39.8077C17.8077 40.2985 17.9303 40.7607 18.1465 41.1653L28.4059 30.3182C29.5441 29.1148 31.4596 29.115 32.5976 30.3185L42.8535 41.1654C43.0697 40.7607 43.1923 40.2985 43.1923 39.8077V20.1923C43.1923 18.5992 41.9008 17.3077 40.3077 17.3077H20.6923ZM20.6923 42.6923H40.3077C40.5586 42.6923 40.802 42.6603 41.0341 42.6001L30.9208 31.904C30.6932 31.6633 30.3101 31.6633 30.0824 31.9039L19.9659 42.6001C20.198 42.6603 20.4414 42.6923 20.6923 42.6923ZM38.5769 24.2308C38.5769 23.2749 37.802 22.5 36.8462 22.5C35.8903 22.5 35.1154 23.2749 35.1154 24.2308C35.1154 25.1866 35.8903 25.9615 36.8462 25.9615C37.802 25.9615 38.5769 25.1866 38.5769 24.2308ZM40.8846 24.2308C40.8846 26.4612 39.0765 28.2692 36.8462 28.2692C34.6158 28.2692 32.8077 26.4612 32.8077 24.2308C32.8077 22.0004 34.6158 20.1923 36.8462 20.1923C39.0765 20.1923 40.8846 22.0004 40.8846 24.2308Z" fill="#01579B"/>
</svg>
