<svg width="61" height="60" viewBox="0 0 61 60" fill="none" xmlns="http://www.w3.org/2000/svg">
<circle cx="30.5" cy="30" r="30" fill="#FFEBEE"/>
<path d="M40.3996 24.3998C40.4996 24.1998 40.6996 23.9998 40.7996 23.8998C41.4996 23.1998 42.0996 22.5998 42.7996 21.8998C43.1996 21.4998 43.7996 21.4998 44.1996 21.8998C44.5996 22.2998 44.5996 22.7998 44.0996 23.2998C43.0996 24.2998 42.0996 25.2998 41.0996 26.2998C40.7996 26.5998 40.6996 26.7998 40.7996 27.1998C40.8996 28.3998 40.7996 29.4998 40.4996 30.6998C40.1996 31.6998 39.7996 32.7998 39.4996 33.7998H39.3996C39.4996 33.8998 39.5996 33.8998 39.6996 33.9998C41.2996 35.5998 42.8996 37.1998 44.4996 38.7998C45.9996 40.2998 45.9996 42.4998 44.5996 43.9998C43.0996 45.4998 40.6996 45.4998 39.2996 44.0998C37.6996 42.4998 36.0996 40.8998 34.4996 39.2998C34.3996 39.1998 34.3996 39.0998 34.2996 38.9998C26.9996 42.5998 18.7996 38.8998 16.2996 31.9998C13.8996 25.3998 17.3996 17.9998 23.9996 15.6998C31.2996 13.1998 38.4996 17.6998 40.3996 24.3998ZM36.8996 27.7998C37.3996 27.2998 37.7996 26.7998 38.2996 26.3998C38.6996 26.0998 38.6996 25.7998 38.5996 25.2998C37.3996 19.3998 31.3996 15.6998 25.4996 17.1998C20.0996 18.5998 16.5996 23.7998 17.4996 29.3998C18.3996 35.1998 23.9996 39.2998 29.6996 38.2998C34.2996 37.4998 37.1996 34.7998 38.4996 30.2998C38.6996 29.6998 38.6996 29.0998 38.7996 28.4998C38.6996 28.4998 38.6996 28.4998 38.6996 28.4998C38.2996 28.8998 37.9996 29.1998 37.5996 29.5998C37.0996 30.0998 36.5996 30.0998 36.0996 29.5998C35.1996 28.6998 34.2996 27.7998 33.3996 26.8998C33.2996 26.7998 33.1996 26.7998 33.0996 26.6998C31.9996 27.8998 30.7996 28.9998 29.6996 30.0998C29.1996 30.5998 28.6996 31.0998 28.1996 31.4998C27.7996 31.7998 27.4996 31.8998 27.0996 31.5998C26.8996 31.4998 26.6996 31.2998 26.4996 31.1998C26.0996 30.7998 25.7996 30.4998 25.4996 30.0998C25.2996 29.7998 24.9996 29.5998 24.6996 29.2998C24.5996 29.3998 24.4996 29.4998 24.4996 29.5998C23.5996 30.4998 22.6996 31.3998 21.6996 32.2998C21.4996 32.4998 21.2996 32.5998 20.9996 32.6998C20.5996 32.7998 20.1996 32.4998 20.0996 32.1998C19.8996 31.7998 19.9996 31.4998 20.2996 31.0998C21.4996 29.8998 22.5996 28.7998 23.7996 27.5998C24.3996 26.9998 24.8996 26.9998 25.4996 27.5998C26.0996 28.1998 26.7996 28.8998 27.4996 29.5998C27.5996 29.4998 27.5996 29.3998 27.6996 29.2998C29.1996 27.7998 30.6996 26.2998 32.1996 24.7998C32.6996 24.2998 33.1996 24.2998 33.6996 24.7998C34.2996 25.3998 34.9996 26.0998 35.5996 26.6998C36.1996 26.9998 36.4996 27.3998 36.8996 27.7998ZM35.6996 37.7998C37.2996 39.3998 38.8996 40.9998 40.4996 42.5998C40.8996 42.9998 41.4996 43.1998 42.0996 42.9998C43.4996 42.5998 43.9996 40.8998 42.9996 39.8998C41.4996 38.2998 39.8996 36.7998 38.3996 35.2998L38.2996 35.1998C37.3996 36.0998 36.4996 36.9998 35.6996 37.7998Z" fill="#B71C1C"/>
</svg>
