<svg width="61" height="60" viewBox="0 0 61 60" fill="none" xmlns="http://www.w3.org/2000/svg">
<circle cx="30.5" cy="30" r="30" fill="#DADAF2"/>
<path d="M26.2812 25.625H20.6562C20.3247 25.625 20.0068 25.4933 19.7724 25.2589C19.5379 25.0245 19.4062 24.7065 19.4062 24.375V18.75C19.4062 18.4185 19.5379 18.1005 19.7724 17.8661C20.0068 17.6317 20.3247 17.5 20.6562 17.5C20.9878 17.5 21.3057 17.6317 21.5401 17.8661C21.7746 18.1005 21.9062 18.4185 21.9062 18.75V23.125H26.2812C26.6128 23.125 26.9307 23.2567 27.1651 23.4911C27.3996 23.7255 27.5312 24.0435 27.5312 24.375C27.5312 24.7065 27.3996 25.0245 27.1651 25.2589C26.9307 25.4933 26.6128 25.625 26.2812 25.625Z" fill="#5454CD"/>
<path d="M41.7495 31.2502C41.418 31.2502 41.1 31.1186 40.8656 30.8841C40.6312 30.6497 40.4995 30.3318 40.4995 30.0002C40.5005 27.7997 39.7751 25.6603 38.4359 23.9141C37.0967 22.168 35.2186 20.9126 33.0931 20.3429C30.9675 19.7732 28.7133 19.921 26.6804 20.7633C24.6474 21.6056 22.9493 23.0954 21.8495 25.0015C21.6834 25.2884 21.4101 25.4976 21.0898 25.5831C20.7695 25.6685 20.4283 25.6232 20.1414 25.4571C19.8545 25.291 19.6453 25.0178 19.5598 24.6974C19.4744 24.3771 19.5197 24.0359 19.6858 23.749C21.0611 21.3668 23.1841 19.5051 25.7255 18.4526C28.2669 17.4002 31.0846 17.2158 33.7415 17.9282C36.3983 18.6406 38.7458 20.2099 40.4198 22.3927C42.0937 24.5754 43.0005 27.2495 42.9995 30.0002C42.9995 30.3318 42.8678 30.6497 42.6334 30.8841C42.399 31.1186 42.081 31.2502 41.7495 31.2502ZM40.3433 42.5002C40.0117 42.5002 39.6938 42.3686 39.4594 42.1341C39.225 41.8997 39.0933 41.5818 39.0933 41.2502V36.8752H34.7183C34.3867 36.8752 34.0688 36.7436 33.8344 36.5091C33.6 36.2747 33.4683 35.9568 33.4683 35.6252C33.4683 35.2937 33.6 34.9758 33.8344 34.7414C34.0688 34.5069 34.3867 34.3752 34.7183 34.3752H40.3433C40.6748 34.3752 40.9927 34.5069 41.2271 34.7414C41.4616 34.9758 41.5933 35.2937 41.5933 35.6252V41.2502C41.5933 41.5818 41.4616 41.8997 41.2271 42.1341C40.9927 42.3686 40.6748 42.5002 40.3433 42.5002Z" fill="#5454CD"/>
<path d="M30.5 42.5C27.186 42.496 24.0089 41.1778 21.6655 38.8344C19.3222 36.4911 18.004 33.314 18 30C18 29.6685 18.1317 29.3505 18.3661 29.1161C18.6005 28.8817 18.9185 28.75 19.25 28.75C19.5815 28.75 19.8995 28.8817 20.1339 29.1161C20.3683 29.3505 20.5 29.6685 20.5 30C20.499 32.2006 21.2244 34.3399 22.5636 36.0861C23.9028 37.8323 25.7809 39.0876 27.9065 39.6573C30.032 40.2271 32.2862 40.0793 34.3191 39.2369C36.3521 38.3946 38.0502 36.9048 39.15 34.9987C39.2322 34.8567 39.3417 34.7322 39.472 34.6324C39.6024 34.5326 39.7511 34.4595 39.9097 34.4172C40.0683 34.3749 40.2337 34.3642 40.3964 34.3858C40.5592 34.4074 40.7161 34.4609 40.8581 34.5431C41.0002 34.6254 41.1247 34.7348 41.2245 34.8651C41.3243 34.9955 41.3974 35.1442 41.4397 35.3028C41.482 35.4614 41.4927 35.6268 41.4711 35.7896C41.4494 35.9523 41.396 36.1092 41.3137 36.2512C40.2144 38.1468 38.6375 39.7213 36.7401 40.8176C34.8428 41.914 32.6913 42.4941 30.5 42.5Z" fill="#5454CD"/>
</svg>
