<svg width="170" height="71" viewBox="0 0 170 71" fill="none" xmlns="http://www.w3.org/2000/svg">
<g clip-path="url(#clip0_186_3559)">
<g opacity="0.85">
<path d="M67.0313 54.7643C67.073 52.8904 67.9058 50.6417 68.6553 48.3514C69.9879 44.4371 71.5286 40.5644 73.1943 36.775C73.3609 36.4002 73.694 35.9421 73.4858 35.6506C73.1943 35.1926 72.653 35.5673 72.2365 35.6506C69.0718 36.2753 65.9903 37.1081 62.9504 38.1491C62.8671 38.1908 62.7838 38.2324 62.7422 38.2324C62.1176 38.399 61.3264 38.6488 61.1182 37.7744C60.91 36.9832 61.6179 36.775 62.2425 36.6084C64.741 35.9838 67.2395 35.4008 69.6964 34.8178C70.904 34.5263 72.07 34.2764 73.2776 34.0682C74.1937 33.9017 74.6934 33.4436 75.0266 32.6108C77.2336 27.5305 79.4822 22.4918 82.0224 17.5781C82.7303 16.2039 83.3549 14.7881 84.0628 13.4139C84.3127 12.9142 84.5625 12.4561 85.0622 12.2479C85.562 12.0397 86.0617 12.123 86.3948 12.5394C86.9778 13.2057 86.7696 13.9552 86.3115 14.5382C84.8957 16.4121 83.7713 18.4109 82.7719 20.5346C80.9397 24.324 79.1491 28.1135 77.3585 31.9029C77.1919 32.2776 76.7339 32.7357 77.1086 33.1105C77.4418 33.4436 77.9831 33.1938 78.3995 33.1105C84.1045 31.9029 89.8094 30.8618 95.556 29.9041C106.341 28.0718 117.168 26.5311 128.037 25.3234C139.821 24.0325 151.606 23.3246 163.391 22.2419C164.39 22.1587 165.431 22.1587 166.43 22.1587C166.93 22.1587 167.347 22.3669 167.388 22.9082C167.43 23.4912 167.013 23.6994 166.555 23.7411C165.847 23.8243 165.098 23.9076 164.348 23.9076C152.647 23.9909 141.029 25.1152 129.411 26.3229C111.963 28.1135 94.6815 31.07 77.4834 34.4847C76.4007 34.6929 75.8177 35.1926 75.4013 36.192C73.2776 41.2306 71.1122 46.2277 69.5298 51.4329C69.155 52.6822 68.8636 53.9314 68.7386 55.264C68.4888 57.6792 69.738 58.6786 71.9867 57.7625C75.318 56.4716 78.1913 54.3895 80.9813 52.1825C85.1455 48.8927 88.8933 45.145 91.7249 40.606C92.0581 40.1063 92.3912 39.6066 92.8076 39.1486C93.2241 38.6905 93.7654 38.5239 94.3484 38.8987C94.9314 39.2735 94.973 39.8981 94.6815 40.3978C94.2235 41.2306 93.6821 41.9802 93.1408 42.7298C91.2669 45.2699 90.2258 48.1016 90.0593 51.2247C89.9343 53.1819 90.7672 53.7232 92.5161 52.8487C97.6381 50.3086 101.927 46.769 105.134 41.9802C105.508 41.3972 105.8 40.7726 106.133 40.148C106.466 39.5233 106.758 38.7738 107.632 39.1069C108.548 39.4817 108.298 40.3145 108.007 40.9808C107.466 42.2717 106.924 43.5209 106.716 44.8951C106.425 46.8939 106.258 48.8511 107.674 50.5584C108.049 50.9748 108.132 51.5578 107.591 51.9743C107.008 52.3907 106.466 52.1408 106.133 51.5995C105.217 50.2669 105.217 48.6845 105.134 47.1438C105.092 46.6441 105.467 45.9362 104.842 45.728C104.342 45.5614 104.093 46.2277 103.759 46.5608C100.803 49.6423 97.4715 52.1825 93.6405 54.098C90.1426 55.8469 88.1854 54.556 88.352 50.6833C88.3936 50.142 88.4352 49.6423 88.5185 49.101C88.5602 48.8511 88.6851 48.518 88.3936 48.3514C88.0605 48.1848 87.8939 48.4763 87.6857 48.6845C86.02 50.2669 84.3127 51.766 82.5221 53.1402C79.7737 55.264 76.9004 57.1795 73.8189 58.7619C73.4442 58.9284 73.0694 59.095 72.6946 59.2616C69.1134 60.5525 66.9897 59.0117 67.0313 54.7643Z" fill="#0072BB"/>
<path d="M131.285 51.4743C130.035 51.4743 128.203 51.391 126.496 50.6414C123.248 49.2256 122.915 47.1852 123.123 44.4784C123.123 44.1869 123.289 43.7705 123.498 43.604C125.33 42.1049 126.787 40.231 129.036 39.2732C129.827 38.9401 130.618 38.6069 131.493 38.6069C132.076 38.6069 132.659 38.6902 132.95 39.3148C133.242 39.9395 132.992 40.5225 132.492 40.9389C131.16 42.1881 129.577 43.021 127.995 43.8538C127.37 44.1869 126.746 44.3952 126.121 44.6866C124.664 45.3529 124.331 46.6022 125.288 47.9764C126.038 49.0174 127.162 49.5171 128.37 49.8086C131.118 50.4749 133.867 50.1834 136.615 49.8086C146.026 48.4344 155.354 46.6438 164.64 44.4368C165.764 44.1453 166.93 43.9787 168.096 43.8122C168.721 43.7289 169.387 43.8122 169.554 44.5617C169.72 45.3946 169.096 45.6861 168.429 45.8526C165.931 46.4356 163.349 46.5189 160.85 46.977C154.104 48.1429 147.317 49.4338 140.571 50.5998C137.656 51.0579 134.783 51.4743 131.285 51.4743Z" fill="#0072BB"/>
<path d="M44.7948 55.5969C44.7532 54.8889 44.9614 54.0978 45.3361 53.3898C47.0435 49.767 49.5836 46.8521 53.1648 44.9782C54.9971 44.0204 56.9542 43.7289 58.953 44.3119C59.9941 44.6034 60.9102 45.1447 61.4516 46.1025C61.868 46.8104 62.1178 47.7265 61.6181 48.2679C59.8692 50.1418 60.4105 52.4737 60.1607 54.6391C60.0357 55.5552 60.1607 56.513 60.1607 57.4291C60.1607 58.1787 60.1607 59.0948 59.078 58.9282C58.1202 58.8033 58.2451 57.9704 58.4117 57.2625C58.8698 55.1388 58.9947 53.0151 59.1196 50.8497C59.1613 50.5165 59.2445 50.1418 58.9114 49.9752C58.495 49.7254 58.2451 50.1834 57.9953 50.3916C55.7883 52.4737 53.4563 54.4725 50.9994 56.3048C50.0417 57.0127 49.0839 57.6373 47.9179 58.0121C46.0857 58.6367 44.8364 57.679 44.7948 55.5969ZM56.9542 45.8943C52.2487 46.0609 47.1684 51.5576 46.4188 55.3054C46.3356 55.7218 46.3356 56.1798 46.7103 56.4297C47.21 56.7212 47.7514 56.5546 48.2094 56.2631C51.9988 53.8895 55.3718 51.0995 58.2868 47.7265C59.1613 46.7271 58.8698 46.1858 57.5372 45.9776C57.329 45.8943 57.1208 45.8943 56.9542 45.8943Z" fill="#0072BB"/>
<path d="M112.421 51.3495C113.046 46.5607 114.67 42.4798 118.876 39.898C120 39.2317 121.125 38.6071 122.291 37.9825C122.957 37.6493 123.706 37.2329 124.456 37.7743C124.789 38.0241 124.872 38.3989 124.747 38.7737C124.456 39.6065 123.706 39.6898 122.998 39.898C119.001 40.8974 116.377 43.3543 115.17 47.3102C114.878 48.268 114.753 49.3091 114.795 50.3085C114.795 50.6832 114.837 51.058 114.795 51.3912C114.712 52.1407 114.462 52.8486 113.587 52.7653C112.671 52.7653 112.421 52.0574 112.421 51.3495Z" fill="#0072BB"/>
<path d="M31.5943 0.671387C32.2189 1.33766 32.094 2.08721 31.9274 2.87841C31.1779 6.20976 29.9702 9.37454 28.9292 12.6226C26.4307 20.3264 24.0987 28.0717 22.4747 36.0253C21.4337 41.1473 20.7674 46.3109 21.1005 51.5578C21.2254 53.6815 21.6419 55.722 22.6829 57.5958C23.8072 59.6779 25.7228 60.4691 28.0131 59.8861C29.887 59.3864 31.4277 58.2621 32.8435 57.0129C36.5913 53.7231 39.5062 49.7255 42.0464 45.4364C46.0856 38.6488 49.3754 31.4864 52.3736 24.199C53.7894 20.7428 54.8721 17.1616 56.0381 13.622C56.4128 12.3728 56.9125 11.9147 57.5372 12.2478C58.4533 12.7475 58.0369 13.5387 57.787 14.205C55.8715 19.5768 53.6228 24.782 51.3325 29.9873C48.5425 36.4001 45.5027 42.688 41.63 48.5179C39.0898 52.3906 36.2998 56.0551 32.5937 58.8867C31.0946 60.0111 29.5122 60.9272 27.6383 61.2603C25.1398 61.7184 23.3075 60.6773 21.9334 58.6785C20.6008 56.763 20.1428 54.4727 19.8929 52.1824C19.2683 45.9361 20.3926 39.8148 21.6835 33.735C23.3075 25.8231 25.7228 18.1193 28.1796 10.4572C28.3878 9.79096 28.5961 9.12469 28.6793 8.41678C27.5134 11.2901 26.3474 14.1634 25.2231 17.0366C20.7674 28.2383 16.7698 39.6065 12.1892 50.7666C9.649 56.6797 7.02556 62.5096 3.90242 68.1312C3.52764 68.8391 3.11123 69.5054 2.52824 70.13C1.94525 70.7547 1.1957 70.8796 0.737638 70.3799C0.237936 69.8802 0.362861 69.2556 1.15406 68.6726C2.11182 68.0063 2.65316 67.0069 3.15287 66.0491C7.56691 58.0539 10.9815 49.6422 14.2296 41.1473C17.8108 31.8612 21.3504 22.575 24.9732 13.2889C26.389 9.70767 27.7632 6.08483 29.4705 2.58691C29.8037 1.879 30.1784 1.12945 30.8447 0.671387C31.0946 0.671387 31.3444 0.671387 31.5943 0.671387Z" fill="#0072BB"/>
</g>
</g>
<defs>
<clipPath id="clip0_186_3559">
<rect width="169.024" height="70" fill="white" transform="translate(0.487793 0.671387)"/>
</clipPath>
</defs>
</svg>
