<svg width="60" height="61" viewBox="0 0 60 61" fill="none" xmlns="http://www.w3.org/2000/svg">
<circle cx="30" cy="30.5" r="30" fill="#EEEEEE"/>
<g clip-path="url(#clip0_329_1589)">
<path d="M42 20.375C42 17.6826 39.8174 15.5 37.125 15.5H19.875C17.1826 15.5 15 17.6826 15 20.375V37.625C15 40.3174 17.1826 42.5 19.875 42.5H28.5327C28.0879 41.8052 27.7288 41.0502 27.4702 40.25H19.875C18.4253 40.25 17.25 39.0747 17.25 37.625V23.75H39.75V27.9702C40.5502 28.2288 41.3052 28.5879 42 29.0327V20.375ZM19.875 17.75H37.125C38.5747 17.75 39.75 18.9253 39.75 20.375V21.5H17.25V20.375C17.25 18.9253 18.4253 17.75 19.875 17.75ZM45 37.25C45 32.6937 41.3064 29 36.75 29C32.1937 29 28.5 32.6937 28.5 37.25C28.5 41.8064 32.1937 45.5 36.75 45.5C41.3064 45.5 45 41.8064 45 37.25ZM36.75 37.2501H39.75C40.1642 37.2501 40.5 37.5859 40.5 38.0001C40.5 38.4143 40.1642 38.7501 39.75 38.7501H36C35.5902 38.7501 35.2572 38.4214 35.2501 38.0133L35.25 37.9999V33.4999C35.25 33.0857 35.5858 32.7499 36 32.7499C36.4142 32.7499 36.75 33.0857 36.75 33.4999L36.75 37.2501Z" fill="#212121"/>
</g>
<defs>
<clipPath id="clip0_329_1589">
<rect width="30" height="30" fill="white" transform="translate(15 15.5)"/>
</clipPath>
</defs>
</svg>
