<svg width="60" height="60" viewBox="0 0 60 60" fill="none" xmlns="http://www.w3.org/2000/svg">
<circle cx="30" cy="30" r="30" fill="#eeeeee"/>
<path d="M30.2002 11.2002C40.6936 11.2002 49.2002 19.7068 49.2002 30.2002C49.2002 40.6936 40.6936 49.2002 30.2002 49.2002C19.7068 49.2002 11.2002 40.6936 11.2002 30.2002C11.2002 19.7068 19.7068 11.2002 30.2002 11.2002ZM30.2002 13.7002C21.0875 13.7002 13.7002 21.0875 13.7002 30.2002C13.7002 39.3129 21.0875 46.7002 30.2002 46.7002C39.3129 46.7002 46.7002 39.3129 46.7002 30.2002C46.7002 21.0875 39.3129 13.7002 30.2002 13.7002ZM28.9502 18.2002C29.5974 18.2002 30.1297 18.6921 30.1937 19.3224L30.2002 19.4502V30.2002H36.9502C37.6406 30.2002 38.2002 30.7598 38.2002 31.4502C38.2002 32.0974 37.7083 32.6297 37.078 32.6937L36.9502 32.7002H28.9502C28.303 32.7002 27.7707 32.2083 27.7066 31.578L27.7002 31.4502V19.4502C27.7002 18.7598 28.2598 18.2002 28.9502 18.2002Z" fill="#212121"/>
</svg>
