<svg width="60" height="61" viewBox="0 0 60 61" fill="none" xmlns="http://www.w3.org/2000/svg">
<circle cx="30" cy="30.5" r="30" fill="#EEEEEE"/>
<g clip-path="url(#clip0_329_1616)">
<path d="M30.3573 15.5C32.0128 15.5 33.376 16.7516 33.5523 18.3601C33.5521 18.3589 33.552 18.3576 33.5519 18.3563L36.0716 18.3571C37.8468 18.3571 39.2859 19.7962 39.2859 21.5714V29.0688C38.6085 28.7863 37.8904 28.5818 37.143 28.4664V21.5714C37.143 20.9797 36.6633 20.5 36.0716 20.5L33.0301 20.5003C32.4535 21.3616 31.4716 21.9286 30.3573 21.9286H25.3573C24.2429 21.9286 23.2611 21.3615 22.6844 20.5002L19.643 20.5C19.0513 20.5 18.5716 20.9797 18.5716 21.5714V40.8571C18.5716 41.4489 19.0513 41.9286 19.643 41.9286H27.4747C27.885 42.7157 28.4048 43.4368 29.0138 44.0714H19.643C17.8678 44.0714 16.4287 42.6323 16.4287 40.8571V21.5714C16.4287 19.7962 17.8678 18.3571 19.643 18.3571L22.1627 18.3563C22.3407 16.7496 23.7031 15.5 25.3573 15.5H30.3573ZM33.5642 18.4942L33.5716 18.7143C33.5716 18.6403 33.5691 18.5669 33.5642 18.4942ZM30.3573 17.6429H25.3573C24.7655 17.6429 24.2859 18.1226 24.2859 18.7143C24.2859 19.306 24.7655 19.7857 25.3573 19.7857H30.3573C30.949 19.7857 31.4287 19.306 31.4287 18.7143C31.4287 18.1226 30.949 17.6429 30.3573 17.6429ZM43.5716 37.6429C43.5716 41.9822 40.0538 45.5 35.7144 45.5C31.375 45.5 27.8573 41.9822 27.8573 37.6429C27.8573 33.3035 31.375 29.7857 35.7144 29.7857C40.0538 29.7857 43.5716 33.3035 43.5716 37.6429ZM40.5052 34.2806C40.2263 34.0017 39.774 34.0017 39.4951 34.2806L34.2859 39.4898L31.9338 37.1378C31.6548 36.8588 31.2026 36.8588 30.9236 37.1378C30.6447 37.4167 30.6447 37.869 30.9236 38.1479L33.7808 41.0051C34.0597 41.284 34.512 41.284 34.7909 41.0051L40.5052 35.2908C40.7842 35.0118 40.7842 34.5596 40.5052 34.2806Z" fill="#212121"/>
</g>
<defs>
<clipPath id="clip0_329_1616">
<rect width="30" height="30" fill="white" transform="translate(15 15.5)"/>
</clipPath>
</defs>
</svg>
